<?xml version="1.0" encoding="UTF-8"?>
<svg width="144px" height="108px" viewBox="0 0 144 108" version="1.1" xmlns="http://www.w3.org/2000/svg" xmlns:xlink="http://www.w3.org/1999/xlink">
    <!-- Generator: Sketch 51.1 (57501) - http://www.bohemiancoding.com/sketch -->
    <title>Group 3</title>
    <desc>Created with Sketch.</desc>
    <defs></defs>
    <g id="🧠-Symbols" stroke="none" stroke-width="1" fill="none" fill-rule="evenodd">
        <g id="Sections-LAB/Footer-Copy-2" transform="translate(-375.000000, -167.000000)">
            <g id="Group-3" transform="translate(375.000000, 167.000000)">
                <g id="Logo/Claire">
                    <g id="logo_lab_rh_bleu">
                        <path d="M125.613559,81.7523596 L95.6583051,81.7523596 C95.6583051,81.7523596 95.9877966,98.0008989 96.3701695,98.0008989 L133.057627,98.0008989 L125.613559,81.7523596 Z" id="Shape" fill="#FFFFFF" fill-rule="nonzero"></path>
                        <path d="M123.364068,63.5379775 L123.392542,57.2440449 C123.392542,56.0305618 124.096271,55.3226966 125.324746,55.3226966 L129.103729,55.3226966 L129.103729,45.6148315 L117.856271,45.6148315 C113.72339,45.6148315 111.880678,47.447191 111.880678,51.552809 L111.880678,63.5298876 L129.250169,93.5716854 C129.250169,93.5716854 130.189831,95.331236 129.856271,95.8125843 C129.522712,96.2939326 127.51322,96.2170787 127.51322,96.2170787 L97.8508475,96.2170787 L97.8508475,81.6229213 L97.8508475,51.5608989 C97.8508475,47.4552809 96.0081356,45.6229213 91.8752542,45.6229213 L80.619661,45.6229213 L80.619661,55.3307865 L84.3986441,55.3307865 C85.6189831,55.3307865 86.3308475,56.0305618 86.3308475,57.2521348 L86.3308475,71.9352809 L65.7884746,71.9352809 L65.7884746,51.5608989 C65.7884746,47.4552809 64.0311864,45.6229213 59.8128814,45.6229213 L48.5694915,45.6229213 L48.5694915,55.3307865 L52.3484746,55.3307865 C53.5688136,55.3307865 54.280678,56.0305618 54.280678,57.2521348 L54.280678,107.66427 L65.7925424,107.66427 L65.7925424,81.6229213 L86.3349153,81.6229213 L86.3349153,101.123596 C86.3349153,104.740378 89.2834617,107.67236 92.920678,107.67236 L135.050847,107.67236 C135.050847,107.67236 141.559322,107.99191 143.59322,102.324944 C144.935593,96.9937079 141.730169,92.4876404 141.730169,92.4876404 L123.364068,63.5379775 Z" id="Shape" fill="#272E3D" fill-rule="nonzero"></path>
                        <path d="M46.1369492,95.9582022 L40.0759322,83.9851685 C39.415036,82.6419942 38.3444768,81.5406433 37.0169492,80.8382022 L37.0169492,80.6602247 C39.6528814,80.138427 47.3898305,75.5069663 47.3898305,64.3186517 C47.3898305,52.6085393 39.3925424,45.6188764 27.9661017,45.6188764 L0,45.6188764 L0,55.3267416 L5.69491525,55.3267416 L5.69491525,107.66427 L17.2067797,107.66427 L17.2067797,84.5069663 L23.0237288,84.5069663 C26.2779661,84.5069663 27.5959322,84.9438202 28.9098305,87.3910112 L36.9071186,103.032809 C38.9410169,106.964494 40.9505085,107.66427 45.6081356,107.66427 L51.6610169,107.66427 L51.6610169,97.9564045 L50.5220339,97.9564045 C48.5979661,97.9644944 47.1050847,97.7905618 46.1369492,95.9582022 Z M26.3633898,74.7222472 L17.2271186,74.7222472 L17.2271186,55.3065169 L26.5423729,55.3065169 C32.1681356,55.3065169 35.5932203,58.8013483 35.5932203,64.9173034 C35.5932203,71.134382 32.1640678,74.7182022 26.3633898,74.7182022 L26.3633898,74.7222472 Z" id="Shape" fill="#272E3D" fill-rule="nonzero"></path>
                        <polygon id="Shape" fill="#FFFFFF" fill-rule="nonzero" points="0.296949153 42.6903371 7.3220339 2.83146067 12.7728814 2.83146067 6.58983051 37.7797753 22.6169492 37.7797753 21.7016949 42.6741573"></polygon>
                        <path d="M33.4942373,30.741573 C31.809969,30.7493871 30.1288993,30.5949581 28.4745763,30.2804494 C28.4745763,36.9950562 31.68,38.7060674 35.7437288,38.7060674 C38.4059727,38.6835583 41.0357051,38.1220303 43.4725424,37.0557303 L43.2447458,41.1006742 C41.1254237,42.0674157 38.0338983,43.2647191 34.3728814,43.2647191 C26.5871186,43.2647191 22.9261017,37.9698876 22.9261017,31.1986517 C22.9261017,22.3766292 29.0522034,14.2382022 38.2088136,14.2382022 C43.6474576,14.2382022 46.5640678,17.1424719 46.5640678,21.3532584 C46.5640678,25.5640449 43.5701695,30.741573 33.4942373,30.741573 Z M29.019661,26.6966292 C30.24,26.8665169 30.5084746,27.2669663 33.0264407,27.2669663 C39.8969492,27.2669663 41.7844068,24.2494382 41.7844068,21.9721348 C41.7844068,19.6948315 39.8969492,18.7847191 37.6637288,18.7847191 C34.1247458,18.7847191 30.9762712,21.1752809 29.0277966,26.6966292 L29.019661,26.6966292 Z" id="Shape" fill="#FFFFFF" fill-rule="nonzero"></path>
                        <polygon id="Shape" fill="#FFFFFF" fill-rule="nonzero" points="46.5437288 42.6903371 53.5850847 2.83146067 60.9071186 2.83146067 55.1308475 35.6319101 70.6413559 35.6319101 69.380339 42.6903371"></polygon>
                        <path d="M97.1430508,33.694382 C97.0070748,34.4082262 96.9308814,35.1320563 96.9152542,35.858427 C96.9152542,37.4521348 97.6027119,37.4521348 99.7220339,37.4521348 L98.119322,43.2566292 C92.2820339,43.2566292 91.2040678,42.6862921 89.7640678,39.9559551 C87.587514,42.0971135 84.6412068,43.2853242 81.579661,43.2566292 C74.7661017,43.2566292 70.759322,38.0750562 70.759322,31.0773034 C70.759322,22.3685393 76.9423729,13.7730337 87.3030508,13.7730337 C90.2237288,13.7730337 91.7084746,14.4566292 93.140339,15.6498876 L93.9538983,14.2260674 L100.462373,14.2260674 L97.1430508,33.694382 Z M78.1423729,30.5069663 C78.1423729,34.6611236 79.8020339,37.4521348 83.7518644,37.4521348 C90.1057627,37.4521348 91.480678,30.3937079 91.480678,26.0696629 C91.480678,22.0853933 90.3376271,19.5977528 86.6725424,19.5977528 C81.5755932,19.581573 78.1423729,24.5325843 78.1423729,30.5069663 Z" id="Shape" fill="#FFFFFF" fill-rule="nonzero"></path>
                        <path d="M107.731525,41.0966292 L107.389831,42.6903371 L100.694237,42.6903371 L108.248136,0 L115.40339,0 L112.59661,15.6539326 C114.479531,14.3685374 116.724482,13.7113006 119.007458,13.7770787 C126.79322,13.7770787 130.397288,19.0719101 130.397288,25.9119101 C130.397288,34.6773034 124.385085,43.272809 113.853559,43.272809 C110.709153,43.2566292 109.391186,42.4719101 107.731525,41.0966292 Z M109.675932,30.9842697 C109.675932,34.9685393 110.896271,37.4561798 114.557288,37.4561798 C119.707119,37.4561798 123.099661,32.4485393 123.099661,26.5833708 C123.099661,22.4292135 121.44,19.581573 117.490169,19.581573 C111.39661,19.581573 109.68,26.1829213 109.68,30.9640449 L109.675932,30.9842697 Z" id="Shape" fill="#FFFFFF" fill-rule="nonzero"></path>
                        <ellipse id="Oval" fill="#FFFFFF" fill-rule="nonzero" cx="108.512542" cy="73.5249438" rx="5.0359322" ry="5.00764045"></ellipse>
                        <ellipse id="Oval" fill="#FFFFFF" fill-rule="nonzero" cx="103.533559" cy="63.7321348" rx="2.79050847" ry="2.77483146"></ellipse>
                        <ellipse id="Oval" fill="#FFFFFF" fill-rule="nonzero" cx="106.023051" cy="54.9505618" rx="1.36271186" ry="1.35505618"></ellipse>
                    </g>
                </g>
            </g>
        </g>
    </g>
</svg>