<svg width="240" height="214" viewBox="0 0 240 214" fill="none" xmlns="http://www.w3.org/2000/svg">
<path d="M211.231 177.888C212.529 186.278 213.577 194.827 215.32 203.136C215.729 205.086 216.174 210.382 218.161 211.487C220.677 212.886 223.371 209.777 224.726 208.087C228.777 203.032 231.711 196.394 234.732 190.657C235.338 189.507 237.83 186.039 237.497 184.629M218.156 211.487C221.673 196.245 221.212 179.705 221.027 164.142C220.653 132.553 228.252 53.3537 201.814 30.0806C186.068 16.2181 158.814 17.2663 139.378 15.5816C94.0581 11.6521 47.4828 2.11913 1.99998 2.00022" stroke="black" stroke-width="3" stroke-miterlimit="1.5" stroke-linecap="round" stroke-linejoin="round"/>
</svg>
