<svg width="91" height="24" viewBox="0 0 91 24" fill="none" xmlns="http://www.w3.org/2000/svg">
<path d="M39.864 20H30.84V3.92H39.384C40.616 3.92 41.632 4.064 42.432 4.352C43.248 4.624 43.856 5.056 44.256 5.648C44.656 6.224 44.856 6.968 44.856 7.88C44.856 8.888 44.584 9.688 44.04 10.28C43.496 10.872 42.672 11.216 41.568 11.312V11.624C42.928 11.672 43.936 12.064 44.592 12.8C45.264 13.536 45.6 14.448 45.6 15.536C45.6 16.464 45.392 17.264 44.976 17.936C44.576 18.608 43.952 19.12 43.104 19.472C42.256 19.824 41.176 20 39.864 20ZM35.352 13.544V15.944H39.696C40.128 15.944 40.456 15.88 40.68 15.752C40.904 15.624 41.016 15.296 41.016 14.768C41.016 14.224 40.912 13.888 40.704 13.76C40.496 13.616 40.16 13.544 39.696 13.544H35.352ZM35.352 7.976V10.04H39.144C39.608 10.04 39.92 9.968 40.08 9.824C40.256 9.68 40.344 9.408 40.344 9.008C40.344 8.576 40.24 8.296 40.032 8.168C39.84 8.04 39.512 7.976 39.048 7.976H35.352ZM58.2998 20H54.0758V18.128L54.0038 17.36V12.296C54.0038 11.912 53.8998 11.648 53.6918 11.504C53.4998 11.344 53.0758 11.264 52.4198 11.264C51.7638 11.264 51.3238 11.336 51.0998 11.48C50.8918 11.624 50.7878 11.88 50.7878 12.248V12.632H46.4918V12.344C46.4918 11.32 46.7398 10.448 47.2358 9.728C47.7478 8.992 48.4598 8.424 49.3717 8.024C50.2838 7.624 51.3558 7.424 52.5878 7.424C53.8678 7.424 54.9238 7.616 55.7558 8C56.6038 8.384 57.2358 8.96 57.6518 9.728C58.0838 10.48 58.2998 11.44 58.2998 12.608V20ZM49.9478 20.24C48.8918 20.24 48.0038 19.96 47.2838 19.4C46.5638 18.824 46.2038 17.976 46.2038 16.856C46.2038 16.216 46.3398 15.664 46.6118 15.2C46.8998 14.72 47.3238 14.328 47.8838 14.024C48.4598 13.72 49.1878 13.496 50.0678 13.352L54.2438 12.68V15.32L51.0038 15.872C50.7638 15.904 50.5878 15.968 50.4758 16.064C50.3798 16.144 50.3318 16.272 50.3318 16.448C50.3318 16.656 50.4118 16.8 50.5718 16.88C50.7318 16.944 51.0198 16.976 51.4358 16.976C52.0598 16.976 52.5558 16.92 52.9238 16.808C53.3078 16.68 53.5798 16.488 53.7398 16.232C53.9158 15.96 54.0038 15.608 54.0038 15.176L54.3398 18.512H53.8598C53.6838 18.768 53.4358 19.032 53.1158 19.304C52.7958 19.56 52.3798 19.784 51.8678 19.976C51.3558 20.152 50.7158 20.24 49.9478 20.24ZM65.235 20.24C63.203 20.24 61.707 19.856 60.747 19.088C59.787 18.32 59.307 17.232 59.307 15.824V15.752H63.507V16.064C63.507 16.288 63.547 16.464 63.627 16.592C63.707 16.704 63.867 16.784 64.107 16.832C64.363 16.88 64.739 16.904 65.235 16.904C65.651 16.904 65.955 16.888 66.147 16.856C66.339 16.824 66.459 16.768 66.507 16.688C66.571 16.592 66.603 16.472 66.603 16.328C66.603 16.136 66.539 16 66.411 15.92C66.283 15.824 65.963 15.728 65.451 15.632L63.099 15.2C62.283 15.04 61.587 14.816 61.011 14.528C60.435 14.24 59.995 13.848 59.691 13.352C59.403 12.84 59.259 12.184 59.259 11.384C59.259 10.248 59.715 9.304 60.627 8.552C61.555 7.8 62.931 7.424 64.755 7.424C65.811 7.424 66.755 7.576 67.587 7.88C68.435 8.184 69.099 8.64 69.579 9.248C70.075 9.856 70.323 10.616 70.323 11.528V11.984H66.099V11.768C66.099 11.512 66.059 11.32 65.979 11.192C65.899 11.048 65.747 10.952 65.523 10.904C65.315 10.84 65.019 10.808 64.635 10.808C64.091 10.808 63.747 10.864 63.603 10.976C63.475 11.072 63.411 11.208 63.411 11.384C63.411 11.544 63.459 11.672 63.555 11.768C63.667 11.864 63.923 11.952 64.323 12.032L67.083 12.608C68.011 12.8 68.739 13.056 69.267 13.376C69.811 13.68 70.195 14.072 70.419 14.552C70.659 15.016 70.779 15.584 70.779 16.256C70.779 17.424 70.307 18.384 69.363 19.136C68.419 19.872 67.043 20.24 65.235 20.24ZM77.7596 20.24C76.4316 20.24 75.2956 19.992 74.3516 19.496C73.4236 18.984 72.7116 18.264 72.2156 17.336C71.7356 16.392 71.4956 15.264 71.4956 13.952C71.4956 12.592 71.7436 11.424 72.2396 10.448C72.7356 9.472 73.4636 8.728 74.4236 8.216C75.3836 7.688 76.5436 7.424 77.9036 7.424C79.2316 7.424 80.3356 7.664 81.2156 8.144C82.1116 8.624 82.7756 9.288 83.2076 10.136C83.6556 10.968 83.8796 11.936 83.8796 13.04C83.8796 13.376 83.8556 13.712 83.8076 14.048C83.7596 14.384 83.7196 14.656 83.6876 14.864H73.4156V12.416H79.7756L79.5836 12.536C79.5996 12.248 79.5516 11.992 79.4396 11.768C79.3436 11.528 79.1516 11.336 78.8636 11.192C78.5916 11.048 78.1916 10.976 77.6636 10.976C76.9276 10.976 76.4156 11.112 76.1276 11.384C75.8396 11.64 75.6956 12.056 75.6956 12.632V14.336C75.6956 14.928 75.7436 15.384 75.8396 15.704C75.9356 16.008 76.1356 16.216 76.4396 16.328C76.7436 16.44 77.2076 16.496 77.8316 16.496C78.3756 16.496 78.7516 16.44 78.9596 16.328C79.1676 16.2 79.2716 16 79.2716 15.728V15.68H83.7356V15.968C83.7356 16.8 83.4876 17.536 82.9916 18.176C82.5116 18.816 81.8236 19.32 80.9276 19.688C80.0476 20.056 78.9916 20.24 77.7596 20.24ZM89.4189 20H84.9309V3.92H89.4189V20Z" fill="black"/>
<rect width="24" height="24" rx="2" fill="#FEE903"/>
<path fill-rule="evenodd" clip-rule="evenodd" d="M20.0608 9.06085C20.4514 9.45137 20.4514 10.0845 20.0608 10.4751L12.2073 18.3286C11.8168 18.7191 11.1836 18.7191 10.7931 18.3286L4.93953 12.4751C4.549 12.0845 4.549 11.4514 4.93953 11.0608L7.06085 8.93953C7.45137 8.549 8.08454 8.54901 8.47506 8.93953L11.5002 11.9647L16.5253 6.93953C16.9158 6.549 17.549 6.549 17.9395 6.93953L20.0608 9.06085Z" fill="black"/>
</svg>
