<?xml version="1.0" encoding="UTF-8" standalone="no"?><!DOCTYPE svg PUBLIC "-//W3C//DTD SVG 1.1//EN" "http://www.w3.org/Graphics/SVG/1.1/DTD/svg11.dtd"><svg width="100%" height="100%" viewBox="0 0 636 411" version="1.1" xmlns="http://www.w3.org/2000/svg" xmlns:xlink="http://www.w3.org/1999/xlink" xml:space="preserve" xmlns:serif="http://www.serif.com/" style="fill-rule:evenodd;clip-rule:evenodd;stroke-linejoin:round;stroke-miterlimit:2;"><g><path d="M109.331,33.091l-0.441,0.236c1.482,2.763 2.184,5.732 2.184,8.66c-0.001,6.544 -3.509,12.873 -9.683,16.183c-2.766,1.483 -5.738,2.186 -8.671,2.186c-6.547,-0 -12.88,-3.505 -16.189,-9.676c-1.481,-2.761 -2.182,-5.73 -2.182,-8.659c0.001,-6.554 3.513,-12.898 9.688,-16.209c2.76,-1.48 5.724,-2.18 8.649,-2.18c6.551,-0 12.891,3.517 16.204,9.695l0.441,-0.236l0.44,-0.237c-3.493,-6.512 -10.179,-10.223 -17.085,-10.222c-3.084,-0 -6.215,0.74 -9.121,2.299c-6.511,3.492 -10.217,10.182 -10.216,17.09c-0,3.089 0.741,6.223 2.301,9.132c3.489,6.506 10.17,10.204 17.07,10.203c3.092,-0 6.23,-0.742 9.144,-2.304c6.508,-3.491 10.211,-10.166 10.21,-17.065c-0,-3.088 -0.742,-6.222 -2.303,-9.133l-0.44,0.237Zm14.529,-19.484l0.264,-0.425l-19.99,-12.399l-3.975,6.417c-0.912,1.471 -2.515,2.323 -4.237,2.324c-0.147,-0 -0.296,-0.006 -0.445,-0.019c-0.922,-0.079 -1.849,-0.118 -2.779,-0.118c-0.238,-0 -0.477,0.002 -0.716,0.008l-0.115,0.001c-1.842,-0.001 -3.534,-0.977 -4.401,-2.594l-3.567,-6.652l-21.178,11.358l3.567,6.651c0.389,0.725 0.578,1.514 0.578,2.304c-0,1.011 -0.311,2.023 -0.916,2.892c-0.668,0.96 -1.283,1.952 -1.842,2.973c-0.884,1.614 -2.539,2.627 -4.356,2.627l-0.154,-0.003l-7.545,-0.239l-0.747,24.012l7.571,0.228c1.874,0.057 3.513,1.204 4.326,2.923c0.244,0.517 0.503,1.029 0.775,1.537c0.272,0.507 0.555,1.006 0.851,1.495c0.501,0.828 0.758,1.756 0.758,2.676c-0.001,0.876 -0.233,1.743 -0.713,2.518l-4.001,6.46l20.413,12.663l3.99,-6.428c0.912,-1.468 2.514,-2.32 4.234,-2.321c0.15,0 0.3,0.007 0.451,0.02c0.932,0.081 1.869,0.122 2.808,0.122c0.224,0 0.449,-0.003 0.674,-0.007l0.108,-0.001c1.843,-0 3.535,0.976 4.403,2.593l3.568,6.654l21.177,-11.357l-3.568,-6.654c-0.388,-0.724 -0.577,-1.513 -0.577,-2.302c0,-1.011 0.31,-2.021 0.913,-2.89c0.665,-0.957 1.276,-1.946 1.831,-2.963c0.884,-1.617 2.54,-2.633 4.359,-2.633l0.15,0.003l7.561,0.233l0.747,-24.011l-7.565,-0.235c-1.867,-0.058 -3.499,-1.202 -4.31,-2.914c-0.245,-0.519 -0.505,-1.035 -0.78,-1.548c-0.272,-0.508 -0.556,-1.006 -0.852,-1.496c-0.503,-0.832 -0.761,-1.764 -0.761,-2.688c0,-0.882 0.234,-1.755 0.718,-2.534l3.984,-6.422l-0.425,-0.264l-0.264,0.425l-0.425,-0.264l-3.72,5.997c-0.585,0.943 -0.868,2.003 -0.868,3.062c0,1.11 0.31,2.22 0.905,3.205c0.287,0.475 0.563,0.959 0.826,1.451c0.268,0.498 0.52,0.999 0.758,1.503c0.956,2.026 2.917,3.416 5.183,3.486l6.565,0.204l-0.684,22.012l-6.562,-0.202l-0.181,-0.003c-2.196,0 -4.187,1.228 -5.237,3.153c-0.538,0.987 -1.13,1.945 -1.774,2.873c-0.719,1.035 -1.092,2.245 -1.092,3.46c0,0.949 0.228,1.903 0.696,2.775l3.095,5.772l-19.414,10.412l-3.096,-5.772c-1.047,-1.953 -3.088,-3.122 -5.284,-3.121l-0.129,0.001c-0.218,0.004 -0.436,0.007 -0.653,0.007c-0.91,0 -1.818,-0.04 -2.721,-0.118c-0.18,-0.016 -0.36,-0.024 -0.538,-0.023c-2.05,-0.001 -3.984,1.021 -5.084,2.793l-3.462,5.578l-18.715,-11.609l3.476,-5.61c0.58,-0.938 0.862,-1.992 0.862,-3.045c-0,-1.106 -0.309,-2.212 -0.902,-3.193l-0.002,-0.003l0.002,0.002c-0.286,-0.473 -0.562,-0.957 -0.826,-1.45c-0.264,-0.493 -0.515,-0.99 -0.751,-1.491c-0.959,-2.033 -2.928,-3.426 -5.201,-3.495l-6.57,-0.198l0.684,-22.012l6.545,0.208l0.186,0.003c2.194,-0 4.182,-1.225 5.234,-3.147c0.541,-0.989 1.137,-1.951 1.785,-2.882c0.721,-1.036 1.095,-2.247 1.095,-3.463c-0,-0.95 -0.228,-1.904 -0.696,-2.777l-3.095,-5.769l19.415,-10.413l3.095,5.77c1.046,1.952 3.087,3.123 5.282,3.122l0.137,-0.002c0.231,-0.005 0.463,-0.007 0.694,-0.007c0.901,-0 1.8,0.038 2.694,0.115c0.177,0.015 0.354,0.022 0.53,0.022c2.052,0.001 3.987,-1.023 5.087,-2.798l3.449,-5.566l19.139,11.872l0.263,-0.425l-0.425,-0.264l0.425,0.264Z" style="fill:#e5e5e4;fill-rule:nonzero;"/><path d="M463.582,243.101l-0.44,0.237c1.482,2.763 2.184,5.732 2.184,8.659c-0.001,6.544 -3.509,12.873 -9.683,16.184c-2.765,1.483 -5.738,2.186 -8.67,2.186c-6.547,-0.001 -12.88,-3.505 -16.189,-9.676c-1.481,-2.762 -2.183,-5.73 -2.183,-8.659c0.001,-6.554 3.514,-12.898 9.689,-16.209c2.759,-1.48 5.723,-2.181 8.648,-2.181c6.551,0.001 12.891,3.518 16.204,9.696l0.44,-0.237l0.441,-0.236c-3.493,-6.513 -10.179,-10.223 -17.085,-10.223c-3.084,-0 -6.214,0.74 -9.121,2.299c-6.51,3.492 -10.216,10.182 -10.216,17.091c0,3.088 0.741,6.222 2.301,9.131c3.49,6.507 10.17,10.205 17.071,10.204c3.091,0 6.23,-0.742 9.143,-2.305c6.508,-3.49 10.211,-10.166 10.21,-17.065c-0,-3.087 -0.742,-6.221 -2.303,-9.132l-0.441,0.236Zm14.53,-19.484l0.264,-0.424l-19.99,-12.4l-3.975,6.417c-0.911,1.471 -2.515,2.324 -4.236,2.325c-0.148,0 -0.297,-0.006 -0.446,-0.019c-0.922,-0.079 -1.849,-0.119 -2.778,-0.119c-0.239,0 -0.478,0.003 -0.717,0.008l-0.114,0.001c-1.843,-0.001 -3.534,-0.976 -4.402,-2.594l-3.567,-6.651l-21.177,11.358l3.567,6.65c0.388,0.725 0.577,1.514 0.578,2.304c-0,1.012 -0.312,2.023 -0.917,2.893c-0.668,0.959 -1.283,1.952 -1.841,2.973c-0.885,1.614 -2.54,2.626 -4.356,2.626l-0.155,-0.002l-7.545,-0.239l-0.746,24.012l7.571,0.228c1.873,0.056 3.512,1.204 4.326,2.922c0.244,0.517 0.502,1.03 0.774,1.537c0.272,0.507 0.556,1.006 0.852,1.495c0.5,0.829 0.757,1.757 0.757,2.676c-0,0.877 -0.232,1.744 -0.712,2.519l-4.002,6.46l20.414,12.662l3.989,-6.427c0.912,-1.469 2.515,-2.32 4.234,-2.321c0.15,-0 0.301,0.006 0.451,0.02c0.932,0.081 1.869,0.121 2.808,0.121c0.225,-0 0.449,-0.002 0.674,-0.007l0.108,-0.001c1.843,0.001 3.536,0.976 4.403,2.594l3.568,6.653l21.177,-11.357l-3.568,-6.653c-0.388,-0.724 -0.577,-1.513 -0.577,-2.303c-0,-1.01 0.31,-2.021 0.913,-2.889c0.665,-0.957 1.276,-1.946 1.831,-2.964c0.884,-1.617 2.54,-2.632 4.359,-2.632l0.15,0.002l7.561,0.233l0.747,-24.011l-7.565,-0.234c-1.867,-0.058 -3.499,-1.202 -4.31,-2.915c-0.245,-0.519 -0.505,-1.035 -0.78,-1.548c-0.272,-0.507 -0.556,-1.006 -0.852,-1.495c-0.503,-0.832 -0.761,-1.765 -0.761,-2.688c-0,-0.882 0.234,-1.755 0.718,-2.535l3.984,-6.422l-0.425,-0.263l-0.264,0.424l-0.425,-0.263l-3.72,5.997c-0.585,0.942 -0.868,2.002 -0.868,3.062c-0,1.11 0.31,2.22 0.905,3.205c0.287,0.475 0.562,0.959 0.826,1.451c0.267,0.498 0.52,0.999 0.758,1.502c0.955,2.027 2.917,3.417 5.183,3.487l6.565,0.204l-0.684,22.012l-6.562,-0.202l-0.181,-0.003c-2.196,0 -4.187,1.228 -5.237,3.153c-0.538,0.986 -1.13,1.945 -1.774,2.872c-0.719,1.036 -1.092,2.245 -1.092,3.46c-0,0.95 0.228,1.903 0.696,2.776l3.095,5.771l-19.414,10.412l-3.096,-5.772c-1.047,-1.952 -3.088,-3.122 -5.284,-3.121l-0.129,0.001c-0.217,0.005 -0.435,0.007 -0.653,0.007c-0.91,-0 -1.818,-0.039 -2.721,-0.118c-0.18,-0.015 -0.359,-0.023 -0.538,-0.023c-2.049,-0.001 -3.983,1.021 -5.083,2.793l-3.463,5.578l-18.715,-11.608l3.476,-5.611c0.581,-0.937 0.862,-1.992 0.862,-3.045c-0,-1.106 -0.309,-2.211 -0.901,-3.193c-0.287,-0.474 -0.562,-0.958 -0.827,-1.45c-0.264,-0.493 -0.515,-0.99 -0.751,-1.491c-0.958,-2.034 -2.927,-3.427 -5.2,-3.496l-6.571,-0.198l0.684,-22.011l6.546,0.207l0.186,0.003c2.193,-0 4.182,-1.224 5.233,-3.146c0.541,-0.989 1.137,-1.952 1.785,-2.882c0.721,-1.036 1.096,-2.247 1.096,-3.464c-0,-0.95 -0.229,-1.904 -0.697,-2.776l-3.094,-5.77l19.415,-10.412l3.094,5.77c1.047,1.952 3.087,3.122 5.283,3.121l0.136,-0.001c0.232,-0.005 0.463,-0.008 0.695,-0.008c0.901,0 1.799,0.039 2.693,0.115c0.178,0.015 0.354,0.023 0.531,0.023c2.051,0.001 3.987,-1.023 5.086,-2.798l3.449,-5.567l19.139,11.872l0.263,-0.425l-0.425,-0.263l0.425,0.263Z" style="fill:#e5e5e4;fill-rule:nonzero;"/><path d="M34.977,110.16c0,5.468 -4.428,9.897 -9.896,9.897c-5.468,0 -9.906,-4.429 -9.906,-9.897c0,-5.468 4.438,-9.905 9.906,-9.905c5.468,0 9.896,4.437 9.896,9.905Zm11.557,-5.409l-6.041,-10.469l-3.204,1.851c-0.942,0.545 -2.101,0.492 -3.012,-0.102c-0.504,-0.329 -1.027,-0.63 -1.566,-0.904c-0.967,-0.492 -1.59,-1.469 -1.59,-2.555l0,-3.7l-12.091,0l0,3.7c0,1.086 -0.622,2.063 -1.589,2.555c-0.539,0.274 -1.062,0.575 -1.566,0.904c-0.911,0.594 -2.07,0.647 -3.013,0.102l-3.204,-1.851l-6.04,10.469l3.218,1.853c0.944,0.543 1.463,1.579 1.408,2.666c-0.015,0.296 -0.023,0.592 -0.023,0.89c-0,0.298 0.008,0.595 0.023,0.89c0.055,1.082 -0.461,2.113 -1.399,2.655l-3.227,1.865l6.04,10.469l3.214,-1.853c0.943,-0.543 2.102,-0.49 3.013,0.106c0.502,0.328 1.022,0.629 1.558,0.903c0.966,0.492 1.587,1.468 1.587,2.553l0,3.701l12.091,0l0,-3.701c0,-1.085 0.622,-2.061 1.588,-2.553c0.536,-0.274 1.056,-0.575 1.557,-0.903c0.912,-0.596 2.071,-0.649 3.014,-0.106l3.213,1.853l6.041,-10.469l-3.214,-1.854c-0.94,-0.543 -1.457,-1.575 -1.402,-2.659c0.015,-0.297 0.022,-0.596 0.022,-0.897c-0,-0.298 -0.007,-0.594 -0.022,-0.89c-0.056,-1.087 0.463,-2.123 1.407,-2.668l3.209,-1.851Z" style="fill:#e5e5e4;fill-rule:nonzero;"/><path d="M620.038,148.401c0,5.468 -4.429,9.896 -9.896,9.896c-5.468,-0 -9.906,-4.428 -9.906,-9.896c0,-5.468 4.438,-9.906 9.906,-9.906c5.467,-0 9.896,4.438 9.896,9.906Zm11.557,-5.409l-6.041,-10.469l-3.204,1.851c-0.942,0.544 -2.101,0.492 -3.013,-0.103c-0.503,-0.328 -1.026,-0.63 -1.565,-0.904c-0.967,-0.492 -1.59,-1.469 -1.59,-2.554l0,-3.7l-12.091,0l0,3.7c0,1.085 -0.622,2.062 -1.589,2.554c-0.539,0.274 -1.062,0.576 -1.566,0.904c-0.911,0.595 -2.07,0.647 -3.012,0.103l-3.205,-1.851l-6.04,10.469l3.218,1.853c0.944,0.543 1.463,1.579 1.408,2.666c-0.015,0.295 -0.023,0.592 -0.023,0.89c-0,0.298 0.008,0.595 0.023,0.89c0.055,1.082 -0.461,2.113 -1.399,2.655l-3.227,1.865l6.04,10.469l3.214,-1.853c0.943,-0.543 2.102,-0.49 3.013,0.106c0.502,0.328 1.022,0.629 1.559,0.903c0.965,0.492 1.586,1.468 1.586,2.553l0,3.701l12.091,0l0,-3.701c0,-1.085 0.621,-2.061 1.588,-2.553c0.536,-0.274 1.056,-0.575 1.558,-0.903c0.911,-0.596 2.07,-0.649 3.013,-0.106l3.213,1.853l6.041,-10.469l-3.214,-1.855c-0.94,-0.542 -1.457,-1.574 -1.402,-2.658c0.015,-0.297 0.022,-0.596 0.022,-0.897c-0,-0.298 -0.007,-0.595 -0.022,-0.89c-0.056,-1.087 0.463,-2.123 1.407,-2.668l3.209,-1.851Z" style="fill:#e5e5e4;fill-rule:nonzero;"/><path d="M194.557,260.396l-10.459,-0l0,142.166l-35.088,0l-0,-142.166l-10.439,-0l27.993,-30.737l27.993,30.737Z" style="fill:#e5e5e4;fill-rule:nonzero;"/><path d="M55.986,370.054l-10.46,0l0,32.508l-35.088,0l-0,-32.508l-10.438,0l27.993,-30.736l27.993,30.736Z" style="fill:#e5e5e4;fill-rule:nonzero;"/><path d="M268.849,210.541l-10.46,0l0,192.021l-35.088,0l-0,-192.021l-10.438,0l27.993,-30.736l27.993,30.736Z" style="fill:#e5e5e4;fill-rule:nonzero;"/><path d="M125.272,315.225l-10.46,-0l-0,87.337l-35.088,0l-0,-87.337l-10.439,-0l27.993,-30.736l27.994,30.736Z" style="fill:#e5e5e4;fill-rule:nonzero;"/><path d="M0,402.562c203.48,-0.612 431.735,-0.617 635.213,0c-203.479,0.617 -431.734,0.612 -635.213,0Z" style="fill:#0c2b34;fill-rule:nonzero;"/><path d="M630.513,46.495l-46.898,108.419l-27.426,-38.707l-68.303,51.326l-186.047,0l-81.849,50.523l-210.512,-0l-9.468,-17.884l-0,-24.256l205.182,0l81.85,-50.524l183.596,-0l58.668,-43.578l-23.213,-31.242l-0,-17.885l129.12,-14.943l-4.7,28.751Z" style="fill:#fec130;fill-rule:nonzero;"/><path d="M219.99,218.056l-210.512,-0l-9.468,-17.884l219.98,-0l36.143,-22.311c-1.608,6.157 -2.647,10.437 -2.647,10.437c-0,0 2.768,2.511 6.128,5.299l-3.967,2.449l-32.346,19.966l-3.311,2.044Zm267.896,-50.523l-103.04,0c0.531,-1.808 -0.02,-3.536 -0.02,-3.536c-0,-0 3.118,-0.081 3.946,-2.977c0.762,-2.663 -2.505,-7.92 -5.44,-11.372l104.554,0l69.7,-51.768l26.029,39.15l51.598,-119.286l-4.7,28.751l-41.46,95.847l-0.299,0.693l-5.139,11.879l-27.426,-38.707l-68.303,51.326Z" style="fill:#f7b31f;fill-rule:nonzero;"/><path d="M527.081,78.82l-20.988,-28.248l-0,-17.885l129.12,-14.943l-129.12,14.943l29.793,40.098l-8.805,6.035Z" style="fill:#f7b31f;fill-rule:nonzero;"/><path d="M635.213,17.744l-51.598,119.286l-26.029,-39.15l-69.7,51.768l-186.047,0l-81.849,50.524l-219.98,-0l-0,-32.14l205.182,-0l81.85,-50.524l183.596,-0l65.248,-44.723l-29.793,-40.098l129.12,-14.943Z" style="fill:#fec130;fill-rule:nonzero;"/><path d="M394.468,287.697c0.847,5.797 0.531,11.775 -0.883,17.45c-0.663,2.657 -1.574,5.218 -2.673,7.714c-1.388,3.193 -2.839,6.31 -2.49,9.803c0.337,0.225 -0.82,0.189 -0.857,-0.151c-9.335,-5.314 -21.307,-6.288 -28.491,-14.979c-3.403,-4.115 -5.119,-9.33 -5.933,-14.547c-0.884,-5.681 -1.129,-11.97 0.337,-17.568c1.234,-4.735 4.002,-9.303 8.451,-11.623c4.593,-2.388 10.608,-2.189 15.444,-0.688c10.432,3.241 15.62,14.497 17.095,24.589Z" style="fill:#fec130;fill-rule:nonzero;"/><path d="M399.26,356.801c-1.274,-4.246 -2.547,-8.492 -3.855,-12.728c-2.561,-8.297 -5.224,-16.563 -8.171,-24.732c-1.766,-4.893 -3.629,-9.738 -5.588,-14.538c0.334,-3.015 0.466,-6.019 1.114,-9.024c0.781,-3.619 1.915,-7.115 2.97,-10.656c0.065,-0.218 -0.288,-0.333 -0.376,-0.126c-2.097,4.879 -4.832,11.123 -4.9,16.902c-2.279,-5.43 -4.715,-10.787 -7.337,-16.059c-0.148,-4.496 -0.312,-8.852 0.411,-13.376c0.032,-0.203 -0.277,-0.265 -0.315,-0.061c-0.701,3.798 -1.195,7.871 -0.913,11.807c-2.007,-3.962 -4.12,-7.876 -6.37,-11.729c-0.203,-0.347 -0.683,0.008 -0.505,0.35c3.508,6.754 6.762,13.651 9.815,20.639c-4.23,-3.75 -9.35,-6.589 -14.636,-8.475c-0.232,-0.083 -0.407,0.253 -0.171,0.352c6.017,2.515 11.067,6.07 15.831,10.481c2.194,5.117 4.284,10.279 6.275,15.474c-5.841,-5.726 -13.834,-9.493 -21.566,-11.514c-0.264,-0.068 -0.333,0.335 -0.08,0.411c8.947,2.694 15.899,7.767 22.703,13.862c0.791,2.101 1.567,4.207 2.327,6.317c2.884,8 5.616,16.054 8.236,24.144c1.256,3.878 2.493,7.762 3.706,11.653c1.306,4.187 2.326,8.607 4.026,12.649c0.162,0.387 0.856,0.298 0.768,-0.165c-0.766,-4.009 -2.226,-7.949 -3.399,-11.858Z" style="fill:#0c2b34;fill-rule:nonzero;"/><path d="M383.775,279.526c-1.671,2.563 -2.789,5.38 -3.362,8.38l0.134,0.045c1.04,-2.824 2.264,-5.551 3.645,-8.223c0.141,-0.273 -0.259,-0.444 -0.417,-0.202Z" style="fill:#0c2b34;fill-rule:nonzero;"/><path d="M367.122,298.976c-2.416,-1.374 -5.623,-2.459 -8.378,-2.821l-0.045,0.134c1.347,0.559 2.762,0.949 4.125,1.473c1.37,0.526 2.704,1.165 4.088,1.646c0.288,0.101 0.484,-0.276 0.21,-0.432Z" style="fill:#0c2b34;fill-rule:nonzero;"/><path d="M362.43,275.578c-0.848,-0.562 -1.752,-1.283 -2.695,-1.664c-0.148,-0.06 -0.277,0.124 -0.155,0.237c0.747,0.688 1.789,1.199 2.657,1.723c0.171,0.103 0.362,-0.184 0.193,-0.296Z" style="fill:#0c2b34;fill-rule:nonzero;"/><path d="M425.939,319.403c-6.723,1.996 -13.482,3.841 -20.203,5.814c-0.584,0.175 -11.95,-21.605 -7.842,-32.824c3.796,-10.385 12.488,-18.157 22.852,-21.685c4.801,-1.631 10.702,-3 15.774,-1.882c4.509,0.999 7.694,4.689 9.159,8.929c1.996,5.764 1.331,12.639 0.245,18.524c-1.009,5.457 -3.006,10.831 -6.615,15.118c-3.572,4.244 -8.129,6.452 -13.37,8.006Z" style="fill:#fec130;fill-rule:nonzero;"/><path d="M435.687,298.705c-4.281,2.158 -8.619,3.722 -13.183,5.189c-2.858,0.919 -6.06,1.748 -8.8,3.186c2.839,-6.33 5.955,-12.528 9.262,-18.669c4.343,-1.258 8.911,-3.218 12.187,-6.292c0.178,-0.167 -0.051,-0.419 -0.245,-0.282c-3.583,2.531 -7.534,4.051 -11.497,5.763c0.895,-1.653 1.796,-3.304 2.717,-4.95c0.256,-0.458 -0.375,-0.913 -0.683,-0.468c-3.524,5.085 -6.694,10.475 -9.553,16.044c-0.71,-4.914 -0.965,-9.702 -0.691,-14.701c0.007,-0.127 -0.176,-0.137 -0.196,-0.014c-0.831,5.287 -0.792,10.881 0.166,16.153c-2.358,4.707 -4.507,9.528 -6.436,14.409c-0.767,-2.933 -1.764,-5.819 -2.429,-8.776c-0.957,-4.256 -1.406,-8.591 -0.965,-12.943c0.012,-0.127 -0.175,-0.136 -0.196,-0.014c-1.304,7.716 -0.114,16.428 2.821,23.759c-1.124,2.938 -2.196,5.888 -3.177,8.843c-5.02,15.128 -8.114,30.725 -8.924,46.649c-0.018,0.367 0.526,0.404 0.569,0.041c1.826,-15.621 5.052,-31.169 10.019,-46.1c1.95,-5.862 4.194,-11.553 6.656,-17.138c3.971,-1.173 7.927,-2.766 11.828,-4.117c3.806,-1.318 7.705,-2.842 10.901,-5.344c0.124,-0.098 -0.013,-0.299 -0.151,-0.228Z" style="fill:#0c2b34;fill-rule:nonzero;"/><path d="M441.956,292.378c-4.112,1.462 -8.01,3.51 -12.118,4.992c-0.192,0.069 -0.08,0.375 0.114,0.335c4.346,-0.898 8.657,-2.241 12.16,-5.092c0.135,-0.109 -0.014,-0.286 -0.156,-0.235Z" style="fill:#0c2b34;fill-rule:nonzero;"/><path d="M408.38,283.506c0.05,-0.218 -0.269,-0.343 -0.336,-0.119c-1.127,3.79 -1.905,7.812 -0.808,11.687c0.043,0.152 0.281,0.157 0.29,-0.018c0.198,-3.904 -0.02,-7.702 0.854,-11.55Z" style="fill:#0c2b34;fill-rule:nonzero;"/><path d="M425.371,274.751c-1.378,1.759 -1.874,4.257 -1.785,6.445c0.006,0.144 0.237,0.229 0.277,0.058c0.501,-2.169 1.338,-4.145 2.004,-6.251c0.097,-0.309 -0.301,-0.502 -0.496,-0.252Z" style="fill:#0c2b34;fill-rule:nonzero;"/><path d="M345.966,329.01c1.971,6.255 6.654,14.903 14.072,14.972c4.808,0.045 9.651,-0.524 14.47,-0.593c5.162,-0.079 10.335,-0.068 15.485,0.24c0.421,0.022 -0.618,-15.457 -13.024,-22.994c-3.475,-2.111 -7.725,-2.78 -11.667,-3.635c-4.512,-0.979 -9.161,-1.64 -13.787,-1.435c-2.849,0.114 -5.219,0.718 -6.233,3.635c-1.059,3.053 -0.262,6.836 0.684,9.81Z" style="fill:#fec130;fill-rule:nonzero;"/><path d="M351.303,321.181c3.014,0.775 6.056,1.666 9.081,2.627c-0.808,-0.838 -1.597,-1.689 -2.5,-2.439c-1.299,-1.08 -2.728,-1.943 -4.122,-2.889c-0.117,-0.079 -0.047,-0.303 0.103,-0.244c2.751,1.081 5.611,3.339 7.316,5.818c3.77,1.219 7.504,2.562 11.099,4.038c2.551,1.046 4.904,2.295 7.107,3.742c-0.792,-1.531 -1.514,-3.103 -2.572,-4.474c-1.646,-2.134 -3.874,-3.323 -6.029,-4.838c-0.204,-0.143 -0.031,-0.43 0.193,-0.33c4.868,2.163 7.829,5.675 9.675,10.491c2.545,1.815 4.874,3.933 7.037,6.389c8.207,9.322 14.671,21.726 14.694,34.383c0.001,0.302 -0.483,0.387 -0.542,0.073c-2.329,-12.572 -7.294,-23.862 -15.652,-33.62c-0.587,-0.685 -1.19,-1.338 -1.804,-1.97c-2.258,-0.236 -4.493,-0.538 -6.781,-0.503c-2.641,0.04 -5.261,0.388 -7.89,0.602c-4.331,0.352 -9.12,0.402 -13.026,-1.776c-0.172,-0.096 -0.056,-0.396 0.137,-0.325c8.709,3.166 17.842,-0.85 26.571,1.038c-3.724,-3.571 -7.954,-6.263 -12.873,-8.302c-0.266,-0.111 -0.534,-0.213 -0.801,-0.321c-5.588,0.672 -11.489,2.128 -16.931,0.311c-0.163,-0.054 -0.098,-0.299 0.071,-0.257c5.259,1.314 10.302,-0.338 15.492,-0.602c-5.651,-2.199 -11.41,-3.95 -17.08,-6.135c-0.477,-0.184 -0.488,-0.62 0.027,-0.487Z" style="fill:#0c2b34;fill-rule:nonzero;"/><path d="M348.838,326.683c2.728,0.449 5.391,0.464 8.134,0.617l0.015,0.113c-2.675,0.602 -5.601,0.231 -8.206,-0.524c-0.135,-0.039 -0.077,-0.228 0.057,-0.206Z" style="fill:#0c2b34;fill-rule:nonzero;"/><path d="M367.21,321.318c1.483,0.513 2.865,1.771 4.026,2.799c0.142,0.126 -0.049,0.38 -0.205,0.266c-0.682,-0.497 -1.385,-0.965 -2.094,-1.423c-0.647,-0.417 -1.369,-0.75 -1.961,-1.24c-0.185,-0.153 0.013,-0.479 0.234,-0.402Z" style="fill:#0c2b34;fill-rule:nonzero;"/><path d="M411.012,341.46c-0.091,0.205 0.205,0.399 0.319,0.182l0.011,-0.011c0.046,0.057 0.103,0.114 0.194,0.125c5.013,1.082 10.049,2.188 15.154,2.643c4.102,0.365 8.83,0.593 12.42,-1.789c4.865,-3.224 8.067,-11.849 5.434,-17.33c-3.11,-6.506 -12.487,-2.974 -17.193,-0.661c-7.235,3.532 -13.046,9.503 -16.339,16.841Z" style="fill:#fec130;fill-rule:nonzero;"/><path d="M407.374,344.467c2.759,-2.7 5.812,-4.948 9.048,-6.887c2.219,-3.767 5.623,-6.894 9.176,-9.352c0.178,-0.123 0.33,0.158 0.167,0.284c-3.064,2.358 -5.455,5.126 -7.732,8.134c3.62,-2.02 7.448,-3.684 11.352,-5.164c1.36,-2.493 3.574,-4.826 6.098,-6.11l0.065,0.084c-2.202,1.723 -3.969,3.512 -5.508,5.779c2.306,-0.86 4.636,-1.662 6.964,-2.434c0.21,-0.07 0.289,0.248 0.09,0.326c-4.144,1.62 -8.382,3.327 -12.489,5.298c5.184,0.695 9.852,0.856 15.125,-0.044c0.138,-0.024 0.199,0.174 0.059,0.214c-5.087,1.452 -10.92,1.721 -16.048,0.24c-2.619,1.287 -5.177,2.692 -7.612,4.263c2.038,-0.265 4.088,0.093 6.152,0.503c3.602,0.716 7.124,1.35 10.812,1.224c0.137,-0.004 0.173,0.221 0.033,0.245c-6.272,1.079 -12.202,-1.771 -18.418,-1.03c-2.302,1.582 -4.479,3.329 -6.474,5.288c-3.907,3.834 -7.033,8.418 -9.442,13.321c-2.617,5.326 -4.036,10.972 -6.151,16.474c-0.093,0.241 -0.429,0.149 -0.386,-0.107c1.812,-10.848 7.214,-22.814 15.119,-30.549Z" style="fill:#0c2b34;fill-rule:nonzero;"/><path d="M426.289,329.588c0.365,-0.748 1.005,-1.385 1.606,-1.948c0.526,-0.492 1.167,-1.129 1.852,-1.386l0.06,0.104c-0.513,0.584 -1.23,1.011 -1.784,1.57c-0.559,0.563 -1.022,1.221 -1.587,1.774c-0.079,0.077 -0.193,-0.02 -0.147,-0.114Z" style="fill:#0c2b34;fill-rule:nonzero;"/><path d="M436.633,332.956c0.93,-0.233 1.914,-0.216 2.86,-0.409c0.957,-0.196 1.846,-0.537 2.773,-0.831c0.121,-0.038 0.192,0.14 0.085,0.204c-1.526,0.906 -3.935,1.678 -5.718,1.328c-0.149,-0.029 -0.139,-0.256 -0,-0.292Z" style="fill:#0c2b34;fill-rule:nonzero;"/><path d="M381.531,361.647l0.822,9.349l2.794,31.566l24.721,0l3.49,-31.566l1.031,-9.349l-32.858,-0Z" style="fill:#335863;fill-rule:nonzero;"/><path d="M381.531,361.647l0.822,9.349l31.005,-0l1.031,-9.349l-32.858,-0Z" style="fill:#0c2b34;fill-rule:nonzero;"/><rect x="379.083" y="359.097" width="37.754" height="7.585" style="fill:#335863;fill-rule:nonzero;"/><path d="M449.466,410.625c2.273,0.731 66.927,-0.056 69.375,-1.642c0.926,-0.592 1.362,-10.024 1.564,-21.423c0.046,-2.464 0.072,-4.997 0.087,-7.589c0.021,-3.057 0.033,-6.153 0.025,-9.161c-0.046,-13.504 -0.645,-25.39 -0.645,-25.39l-41.791,0.387l0.255,25.393l0.095,9.161l0.287,7.585c-0,-0 -24.617,11.378 -27.111,13.409c-2.485,2.021 -4.403,8.549 -2.141,9.27Z" style="fill:#f69081;fill-rule:nonzero;"/><path d="M449.466,410.625c2.273,0.731 66.927,-0.056 69.375,-1.642c0.926,-0.592 1.362,-10.024 1.564,-21.423c0.046,-2.464 0.072,-4.997 0.087,-7.589c0.021,-3.057 0.033,-6.153 0.025,-9.161l-42.181,0.39l0.095,9.161l0.287,7.585c-0,-0 -24.617,11.378 -27.111,13.409c-2.485,2.021 -4.403,8.549 -2.141,9.27Z" style="fill:#d3d5d4;fill-rule:nonzero;"/><path d="M449.272,410.724c1.479,0.471 29.02,0.315 49.068,-0.286c4.639,-0.142 8.881,-0.31 12.303,-0.49c4.716,-0.261 7.878,-0.548 8.391,-0.879c1.13,-0.743 1.546,-14.577 1.669,-29.171l-42.3,0.392l0.288,7.625c0,0 -24.755,11.438 -27.269,13.479c-2.494,2.042 -4.422,8.589 -2.15,9.33Z" style="fill:#fec130;fill-rule:nonzero;"/><path d="M450.174,408.112c10.895,-0.4 54.877,-0.985 65.678,-0.553l0.001,0.069c-10.791,0.632 -54.776,0.861 -65.677,0.663c-0.23,-0.004 -0.232,-0.17 -0.002,-0.179Z" style="fill:#0c2b34;fill-rule:nonzero;"/><path d="M477.122,385.514c4.279,-0.853 9.533,-0.258 12.847,2.758c0.128,0.117 -0.04,0.297 -0.179,0.255c-4.248,-1.282 -8.209,-2.09 -12.644,-2.471c-0.313,-0.027 -0.33,-0.481 -0.024,-0.542Z" style="fill:#0c2b34;fill-rule:nonzero;"/><path d="M474.049,387.417c4.279,-0.853 9.532,-0.258 12.847,2.758c0.128,0.117 -0.04,0.297 -0.179,0.255c-4.248,-1.282 -8.21,-2.09 -12.644,-2.471c-0.313,-0.027 -0.33,-0.481 -0.024,-0.542Z" style="fill:#0c2b34;fill-rule:nonzero;"/><path d="M470.976,389.32c4.279,-0.852 9.533,-0.257 12.847,2.758c0.128,0.117 -0.04,0.298 -0.179,0.256c-4.248,-1.283 -8.209,-2.091 -12.644,-2.472c-0.313,-0.027 -0.33,-0.481 -0.024,-0.542Z" style="fill:#0c2b34;fill-rule:nonzero;"/><path d="M467.903,391.223c4.279,-0.852 9.533,-0.257 12.847,2.758c0.128,0.117 -0.039,0.298 -0.179,0.256c-4.248,-1.282 -8.209,-2.091 -12.644,-2.472c-0.312,-0.027 -0.33,-0.481 -0.024,-0.542Z" style="fill:#0c2b34;fill-rule:nonzero;"/><path d="M469.943,378.339c-0.813,-4.696 4.269,-2.287 5.558,-1.141c0.83,0.736 1.584,1.587 2.304,2.428c1.507,1.763 2.735,3.707 4.052,5.604c-1.71,-0.73 -3.466,-1.307 -5.2,-1.973c-2.068,-0.795 -6.266,-2.329 -6.714,-4.918Zm1.134,3.438c3.062,2.322 7.022,3.237 10.579,4.505c0.369,0.132 0.658,-0.217 0.666,-0.543l0.099,-0.156c-1.211,-3.568 -3.795,-7.343 -6.724,-9.744c-1.808,-1.482 -4.959,-2.488 -6.616,-0.147c-1.568,2.215 0.208,4.729 1.996,6.085Z" style="fill:#0c2b34;fill-rule:nonzero;"/><path d="M487.538,384.478c-1.842,0.246 -3.684,0.401 -5.516,0.715c1.72,-1.54 3.365,-3.147 5.24,-4.513c0.895,-0.652 1.826,-1.304 2.803,-1.828c1.519,-0.817 7.021,-1.983 5.142,2.397c-1.035,2.415 -5.474,2.935 -7.669,3.229Zm9.122,-5.604c-1.07,-2.662 -4.368,-2.413 -6.471,-1.39c-3.405,1.657 -6.793,4.731 -8.799,7.921l0.061,0.175c-0.067,0.319 0.133,0.726 0.522,0.683c3.754,-0.41 7.819,-0.383 11.335,-1.932c2.053,-0.905 4.364,-2.939 3.352,-5.457Z" style="fill:#0c2b34;fill-rule:nonzero;"/><path d="M492.372,410.599c1.97,-0.048 3.903,-0.1 5.772,-0.155c-1.869,0.059 -3.803,0.11 -5.772,0.155Zm13.957,-0.448c1.544,-0.066 2.99,-0.133 4.314,-0.203c4.716,-0.261 7.878,-0.548 8.391,-0.879c0.125,-0.082 0.241,-0.325 0.349,-0.712c-0.107,0.387 -0.222,0.63 -0.347,0.713c-0.518,0.333 -3.682,0.622 -8.394,0.88c-1.324,0.069 -2.77,0.136 -4.313,0.201Z" style="fill:#dedfde;fill-rule:nonzero;"/><path d="M489.005,410.671l3.176,-2.491c10.306,-0.122 19.486,-0.307 23.672,-0.552l-0.001,-0.069c-2.691,-0.107 -7.441,-0.152 -13.227,-0.152c-2.943,0 -6.154,0.011 -9.499,0.032l27.504,-21.566c-0.157,10.624 -0.518,19.859 -1.247,22.484c-0.108,0.387 -0.224,0.63 -0.349,0.712c-0.513,0.331 -3.675,0.618 -8.391,0.879c-1.324,0.07 -2.77,0.137 -4.314,0.203c-2.449,0.102 -5.143,0.198 -7.986,0.286c-0.066,0.003 -0.133,0.005 -0.199,0.007c-1.869,0.055 -3.802,0.107 -5.772,0.155c-1.113,0.026 -2.237,0.049 -3.367,0.072Z" style="fill:#f7b31f;fill-rule:nonzero;"/><path d="M492.181,408.18l0.945,-0.741c3.345,-0.021 6.556,-0.032 9.499,-0.032c5.786,0 10.536,0.045 13.227,0.152l0.001,0.069c-4.186,0.245 -13.366,0.43 -23.672,0.552Z" style="fill:#05252d;fill-rule:nonzero;"/><path d="M541.118,159.15c-0,-0 -21.04,111.008 -22.516,119.202c-0.341,1.866 4.251,101.619 4.251,101.619l-47.4,0.38c0,-0 -0.752,-87.185 1.076,-103.544c1.828,-16.366 25.879,-117.299 25.879,-117.299l38.71,-0.358Z" style="fill:#335863;fill-rule:nonzero;"/><path d="M526.633,235.669c6.446,-34.102 14.398,-76.06 14.484,-76.516l0.004,-0c-0,-0 -8.001,42.226 -14.488,76.516Zm-24.227,-76.152l-0.002,-0.005l0.003,-0c0,0.001 -0.001,0.003 -0.001,0.005Z" style="fill:#dedfde;fill-rule:nonzero;"/><path d="M524.181,248.635l-21.775,-89.118c0,-0.002 0.001,-0.004 0.001,-0.005l38.71,-0.359c-0.086,0.456 -8.038,42.414 -14.484,76.516c-0.85,4.495 -1.675,8.857 -2.452,12.966Z" style="fill:#2b4f58;fill-rule:nonzero;"/><path d="M518.18,370.774c-2.654,-0.32 -22.844,-0.833 -39.726,0.042c-0.113,0.005 -0.103,0.164 0.006,0.173c5.509,0.439 36.608,0.365 39.701,-0.018c0.102,-0.013 0.139,-0.182 0.019,-0.197Z" style="fill:#0c2b34;fill-rule:nonzero;"/><path d="M512.977,364.435c-0.253,0.222 -0.68,0.315 -0.696,-0.111c-1.066,-26.894 -1.606,-58.849 -2.127,-85.497c-0.055,-0.936 0.082,-2.296 0.259,-3.23c5.271,-28.471 20.913,-106.414 22.083,-111.9c0.215,-1.004 0.771,0 0.771,0l-4.817,24.915c-4.373,22.545 -12.809,64.429 -17.095,87.135c-0.175,0.891 -0.306,2.172 -0.259,3.074c0.482,26.315 1.417,59.255 1.881,85.614Z" style="fill:#0c2b34;fill-rule:nonzero;"/><path d="M502.135,410.374c2.265,0.753 66.924,0.608 69.388,-0.953c0.931,-0.583 1.461,-10.011 1.776,-21.407c0.071,-2.463 0.122,-4.996 0.163,-7.588c0.051,-3.056 0.093,-6.153 0.115,-9.16c0.088,-13.504 -1.162,-25.564 -1.162,-25.564l-41.024,0.141l0.003,25.395l0.004,9.16l0.213,7.588c0,0 -24.73,11.133 -27.244,13.14c-2.504,1.996 -4.487,8.504 -2.232,9.248Z" style="fill:#f69081;fill-rule:nonzero;"/><path d="M502.135,410.374c2.265,0.753 66.924,0.608 69.388,-0.953c0.931,-0.583 1.461,-10.011 1.776,-21.407c0.071,-2.463 0.122,-4.996 0.163,-7.588c0.051,-3.056 0.093,-6.153 0.115,-9.16l-42.183,-0.028l0.004,9.16l0.213,7.588c0,0 -24.73,11.133 -27.244,13.14c-2.504,1.996 -4.487,8.504 -2.232,9.248Z" style="fill:#d3d5d4;fill-rule:nonzero;"/><path d="M501.94,410.471c1.474,0.485 29.015,0.603 49.068,0.201c4.64,-0.096 8.884,-0.222 12.307,-0.368c4.719,-0.215 7.885,-0.47 8.399,-0.796c1.139,-0.731 1.692,-14.561 1.959,-29.153l-42.302,-0.028l0.213,7.628c-0,-0 -24.868,11.192 -27.402,13.208c-2.514,2.017 -4.507,8.545 -2.242,9.308Z" style="fill:#fec130;fill-rule:nonzero;"/><path d="M502.868,407.868c10.898,-0.292 54.884,-0.441 65.68,0.099l-0,0.068c-10.796,0.526 -54.782,0.318 -65.681,0.012c-0.229,-0.007 -0.23,-0.173 0.001,-0.179Z" style="fill:#0c2b34;fill-rule:nonzero;"/><path d="M530.038,385.538c4.288,-0.81 9.535,-0.163 12.819,2.885c0.127,0.119 -0.042,0.298 -0.182,0.254c-4.234,-1.324 -8.187,-2.172 -12.618,-2.597c-0.312,-0.03 -0.325,-0.484 -0.019,-0.542Z" style="fill:#0c2b34;fill-rule:nonzero;"/><path d="M526.947,387.411c4.287,-0.81 9.534,-0.163 12.818,2.885c0.128,0.118 -0.042,0.297 -0.181,0.254c-4.235,-1.325 -8.188,-2.172 -12.619,-2.597c-0.312,-0.03 -0.325,-0.484 -0.018,-0.542Z" style="fill:#0c2b34;fill-rule:nonzero;"/><path d="M523.854,389.284c4.288,-0.81 9.536,-0.164 12.82,2.885c0.127,0.118 -0.043,0.297 -0.182,0.253c-4.234,-1.324 -8.188,-2.171 -12.619,-2.596c-0.313,-0.031 -0.326,-0.484 -0.019,-0.542Z" style="fill:#0c2b34;fill-rule:nonzero;"/><path d="M520.763,391.156c4.288,-0.81 9.535,-0.163 12.819,2.885c0.128,0.118 -0.042,0.297 -0.182,0.254c-4.234,-1.324 -8.188,-2.172 -12.619,-2.597c-0.312,-0.03 -0.325,-0.484 -0.018,-0.542Z" style="fill:#0c2b34;fill-rule:nonzero;"/><path d="M522.931,378.293c-0.767,-4.704 4.291,-2.244 5.569,-1.086c0.822,0.744 1.568,1.602 2.279,2.451c1.49,1.778 2.699,3.734 3.997,5.644c-1.702,-0.748 -3.453,-1.342 -5.181,-2.026c-2.059,-0.814 -6.241,-2.39 -6.664,-4.983Zm1.1,3.449c3.038,2.352 6.989,3.307 10.534,4.61c0.367,0.135 0.659,-0.211 0.671,-0.537l0.101,-0.155c-1.176,-3.58 -3.723,-7.38 -6.627,-9.81c-1.794,-1.5 -4.935,-2.538 -6.616,-0.213c-1.589,2.199 0.161,4.731 1.937,6.105Z" style="fill:#0c2b34;fill-rule:nonzero;"/><path d="M540.464,384.606c-1.844,0.228 -3.688,0.364 -5.523,0.66c1.736,-1.523 3.396,-3.113 5.285,-4.461c0.901,-0.643 1.839,-1.286 2.82,-1.8c1.528,-0.801 7.041,-1.913 5.119,2.448c-1.06,2.405 -5.503,2.88 -7.701,3.153Zm9.177,-5.513c-1.043,-2.672 -4.343,-2.457 -6.457,-1.454c-3.421,1.623 -6.839,4.663 -8.876,7.833l0.058,0.175c-0.07,0.319 0.126,0.728 0.516,0.689c3.758,-0.373 7.822,-0.306 11.354,-1.82c2.062,-0.884 4.392,-2.896 3.405,-5.423Z" style="fill:#0c2b34;fill-rule:nonzero;"/><path d="M528.409,379.898l47.442,0c0,0 -11.928,-150.377 -15.812,-180.273c0,-0 2.012,-5.617 1.679,-9.71c-0.574,-7.061 -3.437,-20.647 -8.016,-30.918l-51.334,0.475c0,0 3.657,23.261 9.683,37.976c0,-0 3.824,0.99 10.788,4.745l5.57,177.705Z" style="fill:#335863;fill-rule:nonzero;"/><path d="M510.097,196.08c4.64,1.549 9.127,3.768 13.419,6.098c0.169,0.092 0.06,0.353 -0.123,0.277c-4.518,-1.892 -9.125,-3.699 -13.533,-5.836c-0.347,-0.168 -0.119,-0.659 0.237,-0.539Z" style="fill:#0c2b34;fill-rule:nonzero;"/><path d="M508.381,165.207c0.01,-0.155 0.283,-0.192 0.284,-0.024c0.013,5.343 0.397,10.042 0.894,15.031c0.23,2.317 2.214,15.113 6.225,14.141c0.672,-0.162 1.01,-0.828 1.106,-1.844c0.115,-1.221 -0.357,-2.713 -0.57,-3.924c-0.471,-2.678 -0.854,-5.366 -1.11,-8.073c-0.478,-5.054 -0.546,-10.112 0.024,-15.159c0.018,-0.166 0.257,-0.155 0.258,0.012c0.06,7.002 0.307,13.988 1.419,20.913c0.532,3.328 2.258,8.33 -1.222,8.875c-3.546,0.555 -5.92,-7.828 -6.374,-10.123c-1.269,-6.404 -1.381,-13.329 -0.934,-19.825Z" style="fill:#0c2b34;fill-rule:nonzero;"/><path d="M515.681,194.701c0.371,0.857 0.672,1.75 0.929,2.647c0.199,0.698 0.468,1.45 0.395,2.18c-0.013,0.142 -0.201,0.157 -0.277,0.062c-0.478,-0.593 -0.684,-1.41 -0.954,-2.116c-0.313,-0.818 -0.644,-1.631 -0.934,-2.458c-0.194,-0.548 0.612,-0.843 0.841,-0.315Z" style="fill:#0c2b34;fill-rule:nonzero;"/><path d="M551.365,182.41c-3.8,-0.345 -7.71,-0.26 -11.247,-1.926c-3.602,-1.696 -5.902,-5.061 -7.763,-8.453c-1.167,-2.128 -1.983,-4.319 -2.585,-6.665c-0.027,-0.105 -0.191,-0.074 -0.186,0.032c0.1,2.15 0.772,4.324 1.609,6.294c0.825,1.942 1.824,3.851 3.068,5.56c1.176,1.614 2.609,3.072 4.376,4.034c1.758,0.957 3.73,1.475 5.715,1.667c2.318,0.225 4.718,0.186 7.028,-0.106c0.283,-0.036 0.263,-0.412 -0.015,-0.437Z" style="fill:#0c2b34;fill-rule:nonzero;"/><path d="M498.17,181.08c1.683,-0.369 2.07,-0.341 3.619,-1.936c1.577,-1.625 2.556,-4.786 3.339,-7.966c0.491,-1.996 0.825,-4.045 1.062,-6.236c0.011,-0.098 0.084,-0.072 0.083,0.027c-0.017,2.003 -0.287,4.035 -0.634,5.878c-0.342,1.818 -0.761,3.608 -1.291,5.214c-0.501,1.518 -1.119,2.892 -1.892,3.81c-0.768,0.914 -1.637,1.42 -2.515,1.625c-1.026,0.238 -0.743,0.233 -1.772,-0.009c-0.126,-0.03 -0.122,-0.38 0.001,-0.407Z" style="fill:#0c2b34;fill-rule:nonzero;"/><path d="M571.183,371.253c-2.653,-0.32 -22.845,-0.832 -39.726,0.042c-0.114,0.006 -0.104,0.164 0.006,0.173c5.508,0.439 36.608,0.365 39.7,-0.018c0.102,-0.013 0.14,-0.182 0.02,-0.197Z" style="fill:#0c2b34;fill-rule:nonzero;"/><path d="M568.868,366.264c-0.235,0.319 -0.451,0.079 -0.471,-0.125c-5.523,-54.849 -10.517,-111.002 -15.024,-165.89c1.867,-2.564 3.084,-5.69 3.437,-8.874c0.285,-3.209 -0.957,-6.843 -1.521,-10.004c-1.184,-5.8 -3.079,-12.569 -4.628,-18.289c-0.156,-0.58 0.416,-0.333 0.416,-0.333c1.844,6.261 3.593,12.553 5.023,18.93c0.633,3.213 1.508,6.436 1.24,9.751c-0.339,3.301 -1.524,6.485 -3.467,9.215c5.488,53.76 10.445,110.905 14.995,165.619Z" style="fill:#0c2b34;fill-rule:nonzero;"/><path d="M551.59,107.963c-0.514,3.673 1.228,5.185 1.063,7.166c0,-0 -8.928,2.78 -23.119,0.796c-14.188,-1.984 -22.011,-7.107 -22.011,-7.107c0.385,-1.95 2.474,-2.926 2.988,-6.599c0.593,-4.24 -2.201,-4.95 -0.63,-11.285c1.17,-4.717 4.846,-4.802 6.731,-14.127c1.948,-9.643 6.187,-13.042 9.35,-14.848c6.15,-3.513 11.411,-2.1 11.411,-2.1c-0,0 5.217,-0.302 10.168,4.762c2.546,2.606 5.923,7.424 5.152,17.231c-0.745,9.485 2.767,10.575 2.598,15.431c-0.226,6.523 -3.108,6.439 -3.701,10.68Z" style="fill:#0c2b34;fill-rule:nonzero;"/><path d="M515.685,82.024c1.599,-2.52 1.997,-5.728 2.177,-8.684c0.01,-0.144 -0.182,-0.176 -0.204,-0.029c-0.423,2.798 -0.705,5.713 -2.186,8.16c-1.282,2.117 -3.316,3.475 -4.969,5.201c-1.531,1.599 -2.597,3.553 -2.891,5.849c-0.147,1.151 -0.095,2.324 0.155,3.442c0.265,1.188 0.857,2.161 1.286,3.27c1.297,3.349 -1.261,6.377 -3.31,8.593l0.037,0.041c1.666,-1.649 3.465,-3.487 3.95,-5.985c0.24,-1.233 0.015,-2.393 -0.474,-3.493c-0.548,-1.232 -1.025,-2.392 -1.14,-3.789c-0.227,-2.78 0.78,-5.353 2.59,-7.326c1.633,-1.779 3.648,-3.152 4.979,-5.25Z" style="fill:#0c2b34;fill-rule:nonzero;"/><path d="M556.739,97.19c-0.118,-2.788 -1.265,-5.034 -2.422,-7.42c-0.563,-1.162 -1.083,-2.356 -1.366,-3.647c-0.318,-1.447 -0.371,-2.952 -0.385,-4.442c-0.015,-1.636 0.003,-3.268 -0.173,-4.891c-0.177,-1.638 -0.538,-3.207 -0.978,-4.773l-0.099,0.045c0.812,2.952 0.931,6.005 0.892,9.088c-0.034,2.782 0.141,5.37 1.257,7.877c1.068,2.398 2.475,4.598 2.766,7.333c0.309,2.908 0.032,6.434 -1.752,8.806c-1.461,1.943 -4.079,4.074 -3.238,6.917c0.027,0.091 0.169,0.05 0.152,-0.047c-0.582,-3.187 2.364,-4.999 3.822,-7.275c1.374,-2.145 1.631,-5.057 1.524,-7.571Z" style="fill:#0c2b34;fill-rule:nonzero;"/><path d="M506.186,138.416l-5.558,21.506l54.694,-0c0,-0 -4.049,-39.178 -12.488,-51.685c-6.122,-9.072 -12.35,-8.824 -18.847,-4.323c-1.643,1.138 -15.728,15.176 -19.032,23.159c-2.898,7.047 1.231,11.343 1.231,11.343Z" style="fill:#9c9ea0;fill-rule:nonzero;"/><path d="M537.777,125.376c-0.39,1.05 -0.72,2.12 -0.79,3.29c0.71,-0.92 1.19,-1.94 1.61,-2.98c0.39,-1.05 0.7,-2.12 0.79,-3.28c-0.72,0.92 -1.19,1.93 -1.61,2.97Zm-9.74,16.15c-1.05,-0.39 -2.11,-0.73 -3.29,-0.81c0.93,0.72 1.95,1.2 2.99,1.62c1.04,0.39 2.12,0.71 3.28,0.8c-0.92,-0.73 -1.94,-1.21 -2.98,-1.61Zm-2.38,-28.01c-1.05,-0.38 -2.12,-0.71 -3.29,-0.79c0.92,0.72 1.94,1.2 2.98,1.62c1.04,0.39 2.13,0.71 3.28,0.79c-0.92,-0.72 -1.93,-1.2 -2.97,-1.62Zm10.92,39.92c-0.38,1.05 -0.72,2.12 -0.8,3.29c0.73,-0.93 1.2,-1.94 1.62,-2.99c0.38,-1.04 0.71,-2.11 0.79,-3.28c-0.71,0.93 -1.2,1.93 -1.61,2.98Zm-25.32,-0.72c-0.39,1.05 -0.71,2.12 -0.8,3.29c0.72,-0.92 1.2,-1.94 1.62,-2.98c0.379,-1.05 0.71,-2.12 0.79,-3.28c-0.721,0.92 -1.19,1.93 -1.61,2.97Zm3.29,-23.09c-1.01,0.47 -2.01,1.01 -2.88,1.78c1.15,-0.14 2.21,-0.53 3.239,-0.97c1.021,-0.47 2.011,-0.99 2.891,-1.77c-1.16,0.15 -2.211,0.52 -3.25,0.96Zm37.47,7.94c-0.23,0.08 -0.46,0.17 -0.68,0.27c-1.01,0.47 -2,1 -2.89,1.76c1.17,-0.14 2.22,-0.51 3.25,-0.95c0.16,-0.07 0.32,-0.15 0.48,-0.23c-0.05,-0.28 -0.1,-0.56 -0.16,-0.85Z" style="fill:#fff;fill-rule:nonzero;"/><path d="M515.218,135.573c2.274,0.832 4.532,1.763 6.654,2.998c1.055,0.615 2.073,1.286 3.086,1.987c0.505,0.349 1.016,0.676 1.533,1c0.53,0.333 1.106,0.663 1.702,0.825l-0.024,0.101c-0.59,-0.115 -1.154,-0.228 -1.721,-0.438c-0.538,-0.2 -1.058,-0.471 -1.562,-0.758c-1.076,-0.61 -2.123,-1.282 -3.193,-1.906c-2.159,-1.26 -4.315,-2.518 -6.557,-3.582c-0.103,-0.049 -0.025,-0.266 0.082,-0.227Z" style="fill:#0c2b34;fill-rule:nonzero;"/><path d="M508.844,136.749c1.978,0.208 3.971,0.532 5.898,1.007c0.971,0.239 1.917,0.545 2.86,0.882c0.45,0.161 0.897,0.332 1.341,0.51c0.489,0.195 0.953,0.471 1.444,0.657l-0.025,0.102c-0.469,-0.159 -0.969,-0.224 -1.448,-0.349c-0.482,-0.126 -0.961,-0.256 -1.441,-0.383c-0.965,-0.252 -1.929,-0.492 -2.89,-0.756c-1.924,-0.528 -3.843,-1.03 -5.785,-1.477c-0.106,-0.024 -0.056,-0.204 0.046,-0.193Z" style="fill:#0c2b34;fill-rule:nonzero;"/><path d="M535.759,104.325c-0.353,1.048 -6.136,7.518 -11.014,6.819c-1.589,-0.23 -0.719,-8.956 -0.719,-8.956l-0.083,-0.659l-1.155,-9.222l11.257,-5.791l1.619,-0.754c0,-0 0.15,2.544 0.305,5.714c0.008,0.147 0.016,0.293 0.022,0.451c0.014,0.179 0.029,0.348 0.033,0.515c0.03,0.474 0.057,0.957 0.075,1.439c0.015,0.367 0.031,0.724 0.033,1.109c0.011,0.387 0.014,0.763 0.026,1.15c0.032,3.817 -0.255,7.739 -0.399,8.185Z" style="fill:#f69081;fill-rule:nonzero;"/><path d="M522.784,92.302l1.114,8.863c6.737,-1.645 10.461,-6.167 12.121,-8.797l-0.048,-0.893c-0.16,-3.166 -0.309,-5.709 -0.309,-5.709l-1.615,0.745l-11.263,5.791Z" style="fill:#0c2b34;fill-rule:nonzero;"/><path d="M512.711,76.038c-5.423,15.385 3.179,20.371 6.498,21.537c3.012,1.058 13.405,4.279 20.39,-10.462c6.985,-14.742 1.547,-22.127 -5.215,-24.912c-6.763,-2.786 -16.247,-1.548 -21.673,13.837Z" style="fill:#f69081;fill-rule:nonzero;"/><path d="M515.331,74.848c0.383,0.056 0.744,0.045 1.125,0.061c0.432,0.019 0.775,0.078 1.161,-0.157c0.206,-0.126 0.284,-0.472 0.182,-0.684c-0.242,-0.495 -0.765,-0.649 -1.283,-0.692c-0.564,-0.048 -1.011,0.06 -1.477,0.379c-0.45,0.308 -0.211,1.019 0.292,1.093Z" style="fill:#0c2b34;fill-rule:nonzero;"/><path d="M526.017,77.717c-0.359,-0.143 -0.665,-0.333 -1.005,-0.51c-0.384,-0.2 -0.709,-0.32 -0.926,-0.716c-0.117,-0.212 -0.011,-0.552 0.185,-0.684c0.455,-0.307 0.985,-0.179 1.457,0.042c0.511,0.241 0.844,0.558 1.088,1.066c0.237,0.493 -0.327,0.989 -0.799,0.802Z" style="fill:#0c2b34;fill-rule:nonzero;"/><path d="M522.982,79.934l0.054,0.118c-0.346,1.056 -0.565,2.324 0.295,2.96l-0.026,0.057c-1.128,-0.51 -0.82,-2.19 -0.323,-3.135Z" style="fill:#0c2b34;fill-rule:nonzero;"/><path d="M524.26,79.1c1.752,0.372 0.879,3.85 -0.745,3.505c-1.597,-0.34 -0.724,-3.817 0.745,-3.505Z" style="fill:#0c2b34;fill-rule:nonzero;"/><path d="M524.896,79.455c0.255,0.273 0.465,0.695 0.822,0.823c0.413,0.149 0.825,-0.135 1.189,-0.416l0.05,0.055c-0.157,0.669 -0.585,1.288 -1.325,1.208c-0.674,-0.073 -0.994,-0.78 -0.992,-1.492c0,-0.132 0.154,-0.288 0.256,-0.178Z" style="fill:#0c2b34;fill-rule:nonzero;"/><path d="M516.979,78.279l-0.106,0.073c-0.25,1.083 -0.718,2.281 -1.784,2.382l-0.006,0.062c1.229,0.146 1.835,-1.451 1.896,-2.517Z" style="fill:#0c2b34;fill-rule:nonzero;"/><path d="M516.318,76.904c-1.693,-0.587 -2.743,2.842 -1.175,3.386c1.542,0.535 2.593,-2.893 1.175,-3.386Z" style="fill:#0c2b34;fill-rule:nonzero;"/><path d="M515.534,76.911c-0.328,0.099 -0.696,0.347 -1.027,0.269c-0.382,-0.09 -0.546,-0.546 -0.676,-0.975l-0.065,0.021c-0.219,0.65 -0.211,1.399 0.38,1.717c0.539,0.291 1.133,-0.142 1.489,-0.747c0.066,-0.112 0.029,-0.325 -0.101,-0.285Z" style="fill:#0c2b34;fill-rule:nonzero;"/><path d="M521.05,89.322c-0.334,0.163 -0.699,0.419 -1.092,0.325c-0.377,-0.091 -0.752,-0.399 -1.046,-0.641l-0.063,0.039c0.14,0.496 0.632,0.94 1.149,1.016c0.505,0.075 0.877,-0.26 1.138,-0.658l-0.086,-0.081Z" style="fill:#0c2b34;fill-rule:nonzero;"/><path d="M521.227,85.854c-0.883,0.693 -1.896,0.888 -2.873,0.75c-0.435,-0.059 -0.869,-0.193 -1.276,-0.377l-0.231,-0.11l-0.214,-0.113c-0.113,-0.059 -0.146,-0.18 -0.126,-0.301l0.003,-0.007l0.046,-0.102l0.003,-0.007l0.032,-0.09c0.252,-0.798 0.744,-1.974 0.744,-1.974c-0.34,0.045 -2.041,0.199 -1.874,-0.207c1.385,-3.349 2.925,-7.073 5.011,-10.113c0.064,-0.104 0.228,-0.018 0.179,0.091c-1.204,3.271 -2.975,6.309 -4.237,9.576c0.531,-0.016 1.412,-0.082 1.823,0.069c0.101,0.071 -0.992,2.256 -1.076,2.623l-0.006,0.04c1.27,0.629 2.41,0.573 4.007,0.127c0.096,-0.032 0.155,0.065 0.065,0.125Z" style="fill:#0c2b34;fill-rule:nonzero;"/><path d="M517.461,85.998c-0,-0 0.367,1.231 1.226,1.939c0.315,0.262 0.688,0.455 1.136,0.495c0.922,0.083 1.224,-0.682 1.31,-1.399c0.07,-0.589 -0.011,-1.148 -0.011,-1.148c0,0 -1.646,0.705 -3.661,0.113Z" style="fill:#0c2b34;fill-rule:nonzero;"/><path d="M518.687,87.937c0.315,0.262 0.688,0.455 1.136,0.495c0.922,0.083 1.224,-0.682 1.31,-1.399c-0.936,-0.234 -2.052,0.055 -2.446,0.904Z" style="fill:#f492b4;fill-rule:nonzero;"/><path d="M538.312,88.465c-2.966,-2.594 -2.085,-6.216 -2.085,-6.216c-3.737,-3.035 -5.089,-6.999 -5.231,-7.403c0.013,0.349 0.1,2.865 0.185,4.146c-9.319,-4.65 -10.202,-13.031 -10.202,-13.031c-4.109,2.263 -5.333,4.112 -6.087,4.993c0,0 1.663,-6.041 5.931,-9.183c5.225,-3.848 10.142,-1.428 10.142,-1.428c0,-0 8.305,-0.081 12.392,8.056c4.395,8.774 -5.045,20.066 -5.045,20.066Z" style="fill:#0c2b34;fill-rule:nonzero;"/><path d="M524.164,75.226c1.315,1.329 2.889,2.422 4.519,3.294l0.011,-0.021c-2.55,-1.577 -4.624,-3.738 -5.975,-6.423c-0.57,-1.134 -1,-2.327 -1.271,-3.567c-0.285,-1.297 -0.493,-2.803 -0.232,-4.116c0.021,-0.099 -0.135,-0.13 -0.156,-0.03c-0.276,1.387 -0.516,2.67 -0.332,4.09c0.175,1.348 0.602,2.679 1.251,3.874c0.581,1.069 1.328,2.034 2.185,2.899Z" style="fill:#0c2b34;fill-rule:nonzero;"/><path d="M536.738,87.433c-0,0 4.719,-4.041 6.639,-2.235c1.92,1.806 -2.516,8.285 -5.395,8.585c-2.878,0.3 -3.209,-2.359 -3.209,-2.359l1.965,-3.991Z" style="fill:#f69081;fill-rule:nonzero;"/><path d="M542.059,87.023l-0.004,0.074c-2.034,0.272 -3.444,1.729 -4.58,3.324c0.724,-0.54 1.566,-0.721 2.311,0.166l-0.076,0.086c-0.712,-0.356 -1.29,-0.366 -1.956,0.107c-0.471,0.335 -0.857,0.812 -1.243,1.239c-0.129,0.143 -0.403,-0.022 -0.292,-0.196l0.026,-0.038c0.56,-2.361 3.232,-5.175 5.814,-4.762Z" style="fill:#0c2b34;fill-rule:nonzero;"/><path d="M536.357,92.596c-0.114,0.429 0.141,0.869 0.571,0.983c0.429,0.114 0.869,-0.142 0.983,-0.571c0.114,-0.429 -0.141,-0.869 -0.571,-0.983c-0.429,-0.114 -0.869,0.142 -0.983,0.571Z" style="fill:#fff;fill-rule:nonzero;"/><path d="M540.38,121.021c-1.864,8.483 -8.82,38.463 -17.369,45.386c-5.563,4.505 -30.025,10.112 -38.968,10.102c-3.745,-0.004 -7.464,-27.115 -3.505,-26.514c2.914,0.442 25.885,-2.921 28.811,-3.554c-0,0 11.378,-17.258 19.358,-29.38c7.898,-11.997 14.799,-10.272 11.673,3.96Z" style="fill:#f69081;fill-rule:nonzero;"/><path d="M469.241,152.647c1.666,-0.613 1.355,-1.492 -1.647,-2.465c-3.036,-0.992 -15.714,-2.278 -14.884,-6.673c0.825,-4.413 18.737,-2.297 23.612,-0.293c4.882,1.992 12.062,6.954 12.062,6.954c-3.568,0.289 -12.152,1.819 -19.143,2.477Z" style="fill:#f69081;fill-rule:nonzero;"/><path d="M487.628,176.511c-10.076,0.449 -22.594,1.623 -32.65,-3.707c-1.972,-1.045 -2.583,-2.635 -2.583,-2.635c-4.549,-2.309 -4.825,-5.15 -4.825,-5.15c-3.579,-3.448 -3.462,-6.393 -3.462,-6.393c0,0 -5.311,-2.769 -4.171,-6.257c1.267,-3.915 8.479,0.739 14.01,0.874c12.673,0.308 30.773,-2.799 34.437,-3.073l-0.756,26.341Z" style="fill:#f69081;fill-rule:nonzero;"/><path d="M467.001,162.899c-3.728,-0.165 -7.394,-0.23 -11.08,-0.898c-4.044,-0.734 -7.812,-2.119 -11.684,-3.433c-0.121,-0.041 -0.191,0.123 -0.078,0.182c6.632,3.488 15.391,5.008 22.837,4.319c0.18,-0.017 0.192,-0.162 0.005,-0.17Z" style="fill:#0c2b34;fill-rule:nonzero;"/><path d="M467.927,170.575c-3.619,-0.362 -9.974,-1.038 -20.308,-5.667l-0.036,0.059c6.31,3.898 12.973,5.664 20.326,5.78c0.228,0.004 0.258,-0.148 0.018,-0.172Z" style="fill:#0c2b34;fill-rule:nonzero;"/><path d="M468.347,174.709c-6.129,-0.849 -9.886,-2.16 -15.919,-4.555l-0.03,0.061c6.57,3.441 9.343,3.945 15.95,4.709c0.226,0.026 0.238,-0.181 -0.001,-0.215Z" style="fill:#0c2b34;fill-rule:nonzero;"/><path d="M516.594,131.587l18.909,16.221c-0,0 6.152,-26.699 5.746,-35.061c-0.458,-9.411 -5.17,-7.119 -11.244,-0.537c-6.074,6.581 -13.411,19.377 -13.411,19.377Z" style="fill:#9c9ea0;fill-rule:nonzero;"/><path d="M537.777,125.376c-0.39,1.05 -0.72,2.12 -0.79,3.29c0.71,-0.92 1.19,-1.94 1.61,-2.98c0.39,-1.05 0.7,-2.12 0.79,-3.28c-0.72,0.92 -1.19,1.93 -1.61,2.97Zm-9.47,16.25l1.56,1.34c0.37,0.08 0.76,0.14 1.15,0.17c-0.84,-0.67 -1.76,-1.13 -2.71,-1.51Zm-0.38,-26.99l-0.01,-0c-0.09,0.12 -0.19,0.24 -0.29,0.37c0.33,0.06 0.66,0.11 1,0.13c-0.23,-0.18 -0.46,-0.34 -0.7,-0.5Z" style="fill:#fff;fill-rule:nonzero;"/><path d="M535.723,142.169c-0.568,-0.663 -6.381,-5.81 -7.669,-6.901c-1.288,-1.092 -6.508,-5.604 -7.932,-6.62l-0.084,0.089c1.201,1.26 6.454,5.826 7.743,6.964c1.288,1.139 7.153,6.105 7.874,6.562l0.068,-0.094Z" style="fill:#0c2b34;fill-rule:nonzero;"/><path d="M518.099,132.861c-0.532,-0.529 -1.396,-1.322 -1.396,-1.322c1.414,-2.522 9.723,-14.62 11.677,-17.574l-0.071,-0.047c-1.212,1.602 -2.414,3.203 -3.602,4.816c0.113,-0.227 0.224,-0.456 0.337,-0.681c0.404,-0.808 0.784,-1.625 1.215,-2.419l-0.1,-0.066c-0.499,0.76 -0.986,1.534 -1.383,2.352c-0.281,0.577 -0.519,1.169 -0.75,1.764c-0.677,0.929 -1.358,1.853 -2.013,2.802c-2.002,2.908 -4.186,5.854 -5.958,8.912c-0,0 1.174,1.163 1.95,1.605c0.096,0.054 0.172,-0.064 0.094,-0.142Z" style="fill:#0c2b34;fill-rule:nonzero;"/><path d="M533.674,146.239c0.657,0.468 1.29,0.963 1.933,1.447l-0.259,0.078c0.516,-2.4 1.539,-7.232 2.04,-9.635c0.604,-2.833 1.407,-6.856 2.052,-9.646c-0.494,6.664 -1.811,13.261 -3.865,19.621c-0.632,-0.622 -1.281,-1.227 -1.901,-1.865Z" style="fill:#0c2b34;fill-rule:nonzero;"/><path d="M538.435,134.63c0.431,-1.302 0.859,-2.471 1.542,-3.665c-0.007,1.35 -0.536,2.745 -1.542,3.665Z" style="fill:#0c2b34;fill-rule:nonzero;"/><path d="M305.258,99.465c-0,-0 2.222,53.053 3.636,57.878c1.414,4.824 16.367,51.311 16.367,51.311c-0,0 13.057,-5.465 16.548,-8.546c2.508,-2.214 10.893,-12.699 10.893,-12.699c-0,-0 -23.217,-30.043 -25.841,-36.522c-2.625,-6.48 -9.683,-38.981 -12.526,-45.254c-2.842,-6.273 -9.461,-7.373 -9.461,-7.373l0.384,1.205Z" style="fill:#fec130;fill-rule:nonzero;"/><path d="M332.835,205.247c-2.406,-10.294 -4.851,-20.056 -6.913,-28.045l0.016,-0c0.375,-0 0.587,-0.015 0.62,-0.046c0.058,-0.055 2.473,-1.998 2.115,-7.12c-0.033,-0.464 -0.376,-1.384 -0.853,-2.565c4.009,0.974 8.09,1.746 11.643,2.333c6.586,8.995 13.239,17.605 13.239,17.605c-0,-0 -8.385,10.485 -10.893,12.699c-1.65,1.456 -5.438,3.446 -8.974,5.139Zm-12.17,-77.122c-0.904,-1.263 -1.906,-2.662 -2.982,-4.149c-1.675,-6.943 -3.563,-13.616 -5.686,-19.107c0.16,-0.778 0.268,-1.575 0.34,-2.326c0.757,0.856 1.449,1.876 1.998,3.09c1.419,3.13 3.887,12.792 6.33,22.492Z" style="fill:#82611f;fill-rule:nonzero;"/><path d="M263.861,321.048l-20.575,37.175c-3.289,7.484 -6.039,14.104 -7.142,17.661l-0.017,0.058c-0.418,1.342 -0.597,2.236 -0.464,2.554l0.023,0.067c1.564,2.487 60.605,30.517 62.992,30.801c2.393,0.297 3.387,-6.499 1.964,-9.415c-1.442,-2.925 -19.238,-23.762 -19.238,-23.762l20.182,-37.292l-37.725,-17.847Z" style="fill:#f7a09c;fill-rule:nonzero;"/><path d="M298.677,409.364c-2.387,-0.283 -61.429,-28.317 -62.989,-30.798l-0.021,-0.074c-0.137,-0.314 0.041,-1.204 0.46,-2.555l0.021,-0.052c1.1,-3.561 3.854,-10.179 7.142,-17.667c-0,-0.01 2.21,-4 5.184,-9.362l37.616,18.693l-4.681,8.639c-0,-0 17.792,20.84 19.237,23.762c1.414,2.911 0.43,9.707 -1.969,9.414Z" style="fill:#e5e5e4;fill-rule:nonzero;"/><path d="M298.677,409.364c-2.387,-0.283 -61.429,-28.317 -62.989,-30.798l-0.021,-0.074c-0.137,-0.314 0.041,-1.204 0.46,-2.555l0.021,-0.052c1.1,-3.561 3.854,-10.179 7.142,-17.667c-0,-0 0.409,-0.743 1.121,-2.021l37.888,18.337l-0.89,1.654c-0,-0 17.792,20.84 19.237,23.762c1.414,2.911 0.43,9.707 -1.969,9.414Z" style="fill:#335863;fill-rule:nonzero;"/><path d="M294.098,407.515c-0.255,-0.113 -0.52,-0.229 -0.793,-0.35l-0,-0.002c0.272,0.121 0.538,0.239 0.793,0.352Zm6.548,-7.565c-0.001,-0.003 -0.002,-0.006 -0.004,-0.008c0.002,0.002 0.003,0.005 0.004,0.008Zm-0.005,-0.01c-0.001,-0.002 -0.002,-0.005 -0.003,-0.007c0.001,0.003 0.002,0.005 0.003,0.007Zm-0.004,-0.008c-0.001,-0.003 -0.002,-0.005 -0.003,-0.007c0.001,0.002 0.002,0.004 0.003,0.007Zm-0.005,-0.01c-0.001,-0.002 -0.002,-0.004 -0.003,-0.006c0.001,0.002 0.002,0.004 0.003,0.006Zm-0.004,-0.008c-0.001,-0.002 -0.002,-0.005 -0.003,-0.007c0.001,0.002 0.002,0.005 0.003,0.007Zm-0.005,-0.01c-0.001,-0.002 -0.002,-0.004 -0.003,-0.006c0.001,0.002 0.002,0.004 0.003,0.006Zm-0.004,-0.008c-0.002,-0.003 -0.003,-0.005 -0.004,-0.007c0.001,0.002 0.003,0.004 0.004,0.007Zm-0.006,-0.011c-0.001,-0.001 -0.001,-0.003 -0.002,-0.004c0.001,0.001 0.001,0.003 0.002,0.004Zm-0.006,-0.011c-0.001,-0.002 -0.001,-0.002 -0.002,-0.004c0.001,0.001 0.001,0.003 0.002,0.004Zm-0.004,-0.008c-0.001,-0.001 -0.001,-0.002 -0.002,-0.003c0.001,0.001 0.001,0.002 0.002,0.003Zm-0.008,-0.014l0,-0.001l0,0.001Zm-0.003,-0.007c0,0 -0.001,0 -0.001,-0.001c0,0.001 0.001,0.001 0.001,0.001Zm-0.011,-0.02l-0.001,-0l0.001,-0Z" style="fill:#dfe0df;fill-rule:nonzero;"/><path d="M298.827,409.373c-0.05,0 -0.099,-0.003 -0.15,-0.009c-0.361,-0.048 -2.022,-0.727 -4.579,-1.849c-0.255,-0.113 -0.521,-0.231 -0.793,-0.352l-7.404,-25.665c5.267,6.252 13.443,16.088 14.679,18.327l0.001,-0c0.003,0.007 0.007,0.013 0.01,0.019c0,0.001 0.001,0.001 0.001,0.001c0.001,0.002 0.002,0.004 0.003,0.006l0,0.001c0.002,0.003 0.004,0.007 0.006,0.011c0.001,0.001 0.001,0.002 0.002,0.003c0.001,0.001 0.001,0.003 0.002,0.004c0.001,0.002 0.001,0.002 0.002,0.004c0.001,0.002 0.003,0.004 0.004,0.007c0.001,0.001 0.001,0.003 0.002,0.004c0.001,0.001 0.001,0.002 0.002,0.004c0.001,0.002 0.002,0.004 0.004,0.007c-0,0.001 0.001,0.001 0.001,0.002c0.001,0.002 0.002,0.004 0.003,0.006c0.001,0.001 0.001,0.002 0.002,0.003c0.001,0.002 0.002,0.005 0.003,0.007l0.004,0.008c0.001,0.001 0.001,0.002 0.002,0.003c0.001,0.002 0.002,0.004 0.003,0.007l0.001,0.001c0.001,0.002 0.002,0.005 0.003,0.007c0.001,0.001 0.001,0.001 0.001,0.002c0.002,0.002 0.003,0.005 0.004,0.008c0.446,0.918 0.653,2.223 0.653,3.57c-0.001,2.834 -0.921,5.853 -2.472,5.853Z" style="fill:#2b4f58;fill-rule:nonzero;"/><path d="M298.522,406.315c-9.795,-5.24 -49.801,-25.447 -59.882,-29.882l-0.031,0.063c9.596,5.405 49.763,25.287 59.832,29.981c0.212,0.099 0.288,-0.052 0.081,-0.162Z" style="fill:#0c2b34;fill-rule:nonzero;"/><path d="M284.542,376.811c-3.536,-2.695 -8.612,-4.5 -12.995,-3.221c-0.17,0.049 -0.097,0.289 0.05,0.314c4.462,0.725 8.451,1.757 12.681,3.392c0.298,0.115 0.517,-0.293 0.264,-0.485Z" style="fill:#0c2b34;fill-rule:nonzero;"/><path d="M286.504,379.927c-3.536,-2.694 -8.612,-4.499 -12.995,-3.22c-0.169,0.049 -0.096,0.29 0.05,0.313c4.462,0.726 8.451,1.758 12.681,3.392c0.298,0.116 0.517,-0.292 0.264,-0.485Z" style="fill:#0c2b34;fill-rule:nonzero;"/><path d="M288.466,383.044c-3.536,-2.694 -8.611,-4.5 -12.995,-3.22c-0.169,0.049 -0.097,0.289 0.05,0.313c4.462,0.726 8.451,1.758 12.681,3.392c0.299,0.116 0.517,-0.292 0.264,-0.485Z" style="fill:#0c2b34;fill-rule:nonzero;"/><path d="M249.971,367.24c-3.192,-4.282 -9.851,0.671 -6.654,4.96c3.191,4.281 9.85,-0.671 6.654,-4.96Z" style="fill:#fff;fill-rule:nonzero;"/><path d="M248.008,346.021l42.328,22.106c-0,-0 52.477,-76.256 53.359,-96.174c1.218,-27.508 -23.054,-114.579 -23.054,-114.579l-37.447,0.087c0,-0 16.04,89.628 14.943,104.954c-0.574,8.018 -50.129,83.606 -50.129,83.606Z" style="fill:#23434c;fill-rule:nonzero;"/><path d="M293.933,359.388c-2.183,-1.542 -22.256,-12.931 -37.527,-20.181c-0.103,-0.048 -0.169,0.096 -0.077,0.156c4.638,3.003 34.59,19.057 37.493,20.189c0.096,0.037 0.209,-0.094 0.111,-0.164Z" style="fill:#0c2b34;fill-rule:nonzero;"/><path d="M303.161,243.187c-1.86,-13.12 -3.892,-26.219 -6.194,-39.268c-2.312,-13.108 -4.743,-26.208 -7.607,-39.208c-0.35,-1.587 -0.716,-3.171 -1.077,-4.756c-0.056,-0.244 -0.429,-0.17 -0.382,0.077c2.425,12.902 4.916,25.792 7.157,38.728c2.241,12.934 4.34,25.894 6.236,38.884c0.47,3.216 0.927,6.434 1.373,9.654c0.46,3.324 0.978,6.662 1.047,10.023c0.067,3.229 -0.41,6.377 -1.519,9.413c-1.089,2.981 -2.652,5.754 -4.238,8.493c-6.668,11.523 -36.552,61.884 -37.326,63.347c-0.052,0.096 0.082,0.194 0.142,0.098c7.178,-11.364 29.435,-47.653 36.199,-59.362c3.051,-5.282 6.554,-10.634 7.51,-16.774c0.993,-6.382 -0.426,-13.034 -1.321,-19.349Z" style="fill:#0c2b34;fill-rule:nonzero;"/><path d="M293.304,345.608l-0.032,42.754c0.3,8.17 0.709,15.326 1.267,19.009l0.009,0.059c0.209,1.39 0.438,2.273 0.696,2.502l0.05,0.049c2.492,1.558 67.846,1.06 70.119,0.275c2.283,-0.775 0.216,-7.326 -2.336,-9.33c-2.571,-2.004 -27.668,-13.004 -27.668,-13.004l-0.372,-42.69l-41.733,0.376Z" style="fill:#f7a09c;fill-rule:nonzero;"/><path d="M293.181,378.822l0.091,9.54c0.3,8.17 0.709,15.326 1.267,19.009l0.009,0.059c0.289,1.37 0.537,2.273 0.696,2.502l0.05,0.049c2.492,1.558 67.846,1.06 70.119,0.275c2.283,-0.775 0.216,-7.326 -2.336,-9.33c-2.571,-2.004 -27.668,-13.004 -27.668,-13.004l-0.078,-8.905l-42.15,-0.195Z" style="fill:#e5e5e4;fill-rule:nonzero;"/><path d="M365.416,410.254c-2.272,0.786 -67.629,1.288 -70.121,-0.272l-0.052,-0.052c-0.158,-0.231 -0.409,-1.131 -0.692,-2.503l-0.01,-0.053c-0.555,-3.686 -0.974,-10.838 -1.267,-19.007l-0,-1.382l42.129,0l0.011,0.932c0,-0 25.091,11.006 27.667,13.006c2.545,2.011 4.618,8.556 2.335,9.331Z" style="fill:#335863;fill-rule:nonzero;"/><path d="M364.721,407.614c-11.103,-0.366 -55.92,-0.798 -66.923,-0.317l-0.001,0.07c10.997,0.604 55.816,0.672 66.923,0.429c0.234,-0.005 0.235,-0.174 0.001,-0.182Z" style="fill:#0c2b34;fill-rule:nonzero;"/><path d="M339.133,387.335c-4.363,-0.852 -9.713,-0.227 -13.079,2.858c-0.13,0.12 0.041,0.303 0.183,0.26c4.323,-1.322 8.357,-2.161 12.874,-2.566c0.319,-0.028 0.335,-0.491 0.022,-0.552Z" style="fill:#0c2b34;fill-rule:nonzero;"/><path d="M342.272,389.263c-4.363,-0.853 -9.714,-0.227 -13.08,2.858c-0.13,0.12 0.042,0.304 0.183,0.26c4.324,-1.323 8.357,-2.161 12.875,-2.566c0.318,-0.029 0.334,-0.491 0.022,-0.552Z" style="fill:#0c2b34;fill-rule:nonzero;"/><path d="M345.41,391.191c-4.363,-0.853 -9.714,-0.227 -13.079,2.858c-0.131,0.12 0.041,0.303 0.183,0.26c4.323,-1.323 8.357,-2.161 12.874,-2.566c0.318,-0.029 0.334,-0.491 0.022,-0.552Z" style="fill:#0c2b34;fill-rule:nonzero;"/><path d="M303.894,394.041c-4.756,-2.429 -8.538,4.959 -3.775,7.391c4.757,2.429 8.539,-4.958 3.775,-7.391Z" style="fill:#fff;fill-rule:nonzero;"/><path d="M320.168,157.293l-0.013,0.039c-0.242,0.775 -13.363,37.774 -14.625,38.374c-1.429,0.674 30.212,52.736 32.277,77.038c1.321,15.543 -0.188,103.584 -0.188,103.584l-45.56,0.416c-0,-0 1.468,-79.154 2.281,-104.237c0.315,-9.726 -31.812,-57.846 -32.476,-87.987c-0.209,-9.5 6.459,-26.923 6.459,-26.923l51.845,-0.304Z" style="fill:#23434c;fill-rule:nonzero;"/><path d="M294.595,271.827c-0.004,-0.402 -0.322,-0.528 -0.349,-0.116c-0.906,13.578 -1.022,27.077 -1.547,40.675c-0.523,13.557 -0.125,16.823 -0.606,30.381c-0.272,7.674 0.122,15.361 0.015,23.038c-0.002,0.12 0.177,0.133 0.188,0.013c1.294,-13.54 2.359,-86.307 2.299,-93.991Z" style="fill:#0c2b34;fill-rule:nonzero;"/><path d="M337.812,273.279c-0.131,-3.341 -0.381,-6.692 -1.012,-9.981c-0.616,-3.216 -1.665,-6.325 -2.899,-9.354c-2.575,-6.324 -5.608,-12.486 -8.508,-18.667c-2.938,-6.26 -5.934,-12.492 -9.029,-18.677c-1.74,-3.476 -3.489,-6.947 -5.252,-10.412c-1.782,-3.506 -3.7,-6.947 -5.565,-10.409c-0.074,-0.137 -0.285,-0.033 -0.218,0.108c2.978,6.243 5.917,12.504 8.894,18.748c2.977,6.242 5.902,12.511 8.828,18.778c2.879,6.164 5.762,12.333 8.479,18.57c1.302,2.989 2.52,6.023 3.334,9.187c0.835,3.242 1.206,6.576 1.425,9.911c0.512,7.778 0.8,15.582 1.634,23.335c0.011,0.097 0.169,0.086 0.172,-0.011c0.168,-7.029 -0.006,-14.101 -0.283,-21.126Z" style="fill:#0c2b34;fill-rule:nonzero;"/><path d="M334.238,367.353c-2.654,-0.32 -22.845,-0.832 -39.726,0.042c-0.114,0.006 -0.104,0.164 0.005,0.173c5.509,0.439 36.609,0.365 39.701,-0.018c0.102,-0.013 0.14,-0.182 0.02,-0.197Z" style="fill:#0c2b34;fill-rule:nonzero;"/><path d="M311.809,193.601c-4.863,1.182 -9.627,3.061 -14.201,5.069c-0.179,0.079 -0.091,0.354 0.101,0.292c4.768,-1.541 9.619,-2.989 14.297,-4.791c0.367,-0.141 0.177,-0.661 -0.197,-0.57Z" style="fill:#0c2b34;fill-rule:nonzero;"/><path d="M316.119,162.327c0.002,-0.159 -0.273,-0.221 -0.288,-0.05c-0.47,5.447 -1.264,10.203 -2.197,15.247c-0.434,2.342 -3.551,15.216 -7.557,13.882c-0.671,-0.223 -0.958,-0.931 -0.969,-1.974c-0.013,-1.255 0.597,-2.736 0.917,-3.952c0.71,-2.69 1.33,-5.396 1.822,-8.134c0.919,-5.111 1.421,-10.261 1.274,-15.455c-0.005,-0.171 -0.25,-0.181 -0.266,-0.01c-0.659,7.132 -1.509,14.233 -3.235,21.197c-0.829,3.347 -3.015,8.298 0.487,9.151c3.567,0.87 6.704,-7.473 7.363,-9.773c1.842,-6.419 2.548,-13.47 2.649,-20.129Z" style="fill:#0c2b34;fill-rule:nonzero;"/><path d="M306.153,191.768c-0.452,0.841 -0.834,1.726 -1.173,2.619c-0.263,0.694 -0.602,1.438 -0.59,2.188c0.002,0.145 0.192,0.177 0.278,0.087c0.537,-0.565 0.817,-1.379 1.153,-2.075c0.389,-0.808 0.797,-1.608 1.163,-2.426c0.243,-0.543 -0.552,-0.913 -0.831,-0.393Z" style="fill:#0c2b34;fill-rule:nonzero;"/><path d="M299.382,285.172c0.174,-6.478 0.831,-13.277 -1.35,-19.509c-1.081,-3.09 -2.708,-5.946 -4.237,-8.829c-1.607,-3.031 -3.183,-6.078 -4.733,-9.139c-6.2,-12.239 -12.049,-24.677 -17.289,-37.359c-2.524,-6.107 -4.787,-12.379 -5.729,-18.949c-0.985,-6.873 -0.393,-13.92 1.084,-20.678c0.369,-1.689 0.762,-3.371 1.208,-5.041c0.033,-0.123 -0.149,-0.19 -0.188,-0.066c-1.992,6.409 -3.343,13.063 -3.373,19.796c-0.029,6.487 1.45,12.772 3.601,18.859c2.241,6.339 5.034,12.497 7.783,18.628c2.834,6.32 5.773,12.594 8.827,18.811c3.039,6.185 6.273,12.265 9.475,18.367c1.55,2.953 2.964,5.978 3.582,9.277c0.629,3.359 0.565,6.791 0.468,10.192c-0.406,14.335 -1.207,62.033 -1.257,76.327c-0.007,1.815 -0.012,3.63 -0.015,5.444c0,0.16 0.242,0.18 0.25,0.017c0.777,-14.267 1.508,-61.857 1.893,-76.148Z" style="fill:#0c2b34;fill-rule:nonzero;"/><path d="M288.082,166.867c-0.008,-0.101 -0.16,-0.08 -0.172,0.012c-0.501,3.948 -0.77,8.041 -2.642,11.636c-1.717,3.298 -4.745,5.442 -8.053,6.954c-1.911,0.874 -3.903,1.567 -5.894,2.235c-0.143,0.048 -0.109,0.272 0.048,0.238c3.761,-0.817 7.584,-1.73 10.84,-3.876c3.486,-2.298 5.256,-5.94 5.796,-10.005c0.317,-2.389 0.258,-4.798 0.077,-7.194Z" style="fill:#0c2b34;fill-rule:nonzero;"/><path d="M257.699,172.023c0.133,0.181 68.216,5.739 68.859,5.133c0.058,-0.055 2.473,-1.998 2.115,-7.12c-0.099,-1.406 -3.048,-6.983 -3.909,-11.352c-3.018,-15.323 -7.737,-43.935 -14.768,-58.469c-1.891,-3.908 -11.628,-6.966 -15.936,-3.066c-19.389,17.553 -36.53,74.643 -36.361,74.874Z" style="fill:#e5e5e4;fill-rule:nonzero;"/><path d="M301.485,133.387c-0.11,2.834 -2.525,31.549 -2.707,52.015c-0.078,8.759 3.178,21.922 3.178,21.922c-0,0 -24.498,-3.191 -32.471,-6.684c-4.628,-2.027 -15.999,-12.342 -15.999,-12.342c-0,0 8.55,-35.22 14.571,-48.944c6.021,-13.723 18.095,-41.094 27.11,-43.588c-0,-0 6.476,33.575 6.318,37.621Z" style="fill:#fec130;fill-rule:nonzero;"/><path d="M301.956,207.324c-0,0 -24.498,-3.191 -32.471,-6.684c-0.455,-0.199 -0.976,-0.478 -1.544,-0.82c-0.383,-0.231 -0.788,-0.49 -1.209,-0.772c-2.174,-1.454 -4.788,-3.519 -7.118,-5.451c-3.36,-2.788 -6.128,-5.299 -6.128,-5.299c-0,0 8.55,-35.22 14.571,-48.944c6.021,-13.723 18.095,-41.094 27.11,-43.588c-0,-0 0.202,1.047 0.534,2.794c-0.849,-0.416 -1.617,-0.613 -2.302,-0.613c-2.647,-0 -4.05,2.938 -4.05,7.478c-0,2.198 0.328,4.771 1.004,7.569c1.822,7.541 6.271,18.975 10.555,28.709c-0.592,8.323 -1.48,21.476 -1.902,33.727c-0.118,3.437 -0.2,6.804 -0.228,9.972c-0.001,0.102 -0.002,0.206 -0.002,0.309c-0.001,8.757 3.18,21.613 3.18,21.613Z" style="fill:#bb8b27;fill-rule:nonzero;"/><path d="M308.593,109.587c-3.908,0.295 -10.015,-8.265 -11.83,-13.333c-0.123,-0.348 0.701,-2.467 1.755,-6.527c0.63,-2.467 1.273,-5.228 1.679,-7.79l15.451,6.445c0,-0 -2.429,5.121 -3.108,9.592c-0.053,0.374 -0.071,0.727 -0.056,1.069l-0.004,0.178c0.009,2.048 -0.111,10.078 -3.887,10.366Z" style="fill:#f7a09c;fill-rule:nonzero;"/><path d="M311.562,101.726c0.29,0.055 0.573,0.089 0.845,0.126c0.072,-1.122 0.081,-2.088 0.077,-2.631l-0.001,-0.181c-0.016,-0.334 0.005,-0.693 0.054,-1.071c0.68,-4.467 3.113,-9.586 3.113,-9.586l-15.459,-6.449c-0.088,0.539 -0.177,1.077 -0.283,1.632c0.212,5.52 1.912,16.401 11.654,18.16Z" style="fill:#0c2b34;fill-rule:nonzero;"/><path d="M299.24,66.63c-2.095,5.655 -0.03,22.469 3.849,26.418c5.622,5.725 15.313,6.81 20.3,-0.06c4.834,-6.659 1.755,-28.523 -2.622,-32.162c-6.448,-5.36 -18.433,-2.55 -21.527,5.804Z" style="fill:#f7a09c;fill-rule:nonzero;"/><path d="M315.034,78.177l-0.081,0.106c0.104,1.136 0.033,2.456 -0.975,2.896l0.014,0.063c1.246,-0.252 1.324,-2.005 1.042,-3.065Z" style="fill:#0c2b34;fill-rule:nonzero;"/><path d="M313.946,77.049c-1.841,-0.029 -1.763,3.653 -0.058,3.68c1.678,0.026 1.6,-3.657 0.058,-3.68Z" style="fill:#0c2b34;fill-rule:nonzero;"/><path d="M321.603,78.088l0.09,0.099c-0.012,1.142 0.166,2.451 1.206,2.808l-0.008,0.064c-1.263,-0.151 -1.482,-1.891 -1.288,-2.971Z" style="fill:#0c2b34;fill-rule:nonzero;"/><path d="M322.597,76.876c1.831,-0.178 2.053,3.498 0.356,3.663c-1.67,0.163 -1.892,-3.514 -0.356,-3.663Z" style="fill:#0c2b34;fill-rule:nonzero;"/><path d="M312.398,74.714c0.503,-0.122 0.946,-0.319 1.43,-0.491c0.547,-0.195 1.003,-0.293 1.364,-0.779c0.193,-0.261 0.117,-0.732 -0.118,-0.944c-0.549,-0.493 -1.278,-0.422 -1.945,-0.215c-0.725,0.226 -1.226,0.584 -1.645,1.215c-0.406,0.612 0.251,1.375 0.914,1.214Z" style="fill:#0c2b34;fill-rule:nonzero;"/><path d="M323.945,73.75c-0.512,-0.072 -0.972,-0.225 -1.471,-0.349c-0.564,-0.14 -1.026,-0.193 -1.433,-0.642c-0.219,-0.24 -0.189,-0.717 0.025,-0.951c0.497,-0.544 1.229,-0.544 1.914,-0.403c0.743,0.152 1.277,0.46 1.756,1.047c0.464,0.569 -0.115,1.393 -0.791,1.298Z" style="fill:#0c2b34;fill-rule:nonzero;"/><path d="M313.755,88.363c0.279,0.261 0.559,0.623 0.974,0.649c0.398,0.025 0.86,-0.164 1.22,-0.313l0.051,0.058c-0.287,0.444 -0.904,0.731 -1.435,0.65c-0.518,-0.079 -0.783,-0.52 -0.919,-0.99l0.109,-0.054Z" style="fill:#0c2b34;fill-rule:nonzero;"/><path d="M314.882,84.922c0.66,0.977 1.61,1.498 2.629,1.674c0.455,0.081 0.932,0.087 1.399,0.034c0.092,-0.004 0.183,-0.016 0.266,-0.036c0.083,-0.012 0.158,-0.023 0.249,-0.044c0.133,-0.022 0.204,-0.134 0.223,-0.26l0,-0.009l-0.013,-0.116l0,-0.009l-0.004,-0.1c0.005,-0.878 -0.108,-2.212 -0.108,-2.212c0.324,0.154 1.976,0.855 1.94,0.397c-0.307,-3.794 -0.649,-8.013 -1.756,-11.723c-0.03,-0.125 -0.221,-0.092 -0.207,0.033c0.151,3.658 0.944,7.265 1.154,10.937c-0.526,-0.188 -1.386,-0.537 -1.845,-0.518c-0.124,0.038 0.265,2.574 0.231,2.969l-0.007,0.042c-1.471,0.219 -2.593,-0.203 -4.046,-1.163l-0.105,0.104Z" style="fill:#0c2b34;fill-rule:nonzero;"/><path d="M318.448,86.405c-0,-0 -0.765,1.034 -1.813,1.407c-0.386,0.139 -0.802,0.194 -1.238,0.078c-0.895,-0.234 -0.918,-1.056 -0.755,-1.759c0.133,-0.579 0.401,-1.077 0.401,-1.077c-0,-0 1.308,1.223 3.405,1.351Z" style="fill:#0c2b34;fill-rule:nonzero;"/><path d="M316.635,87.812c-0.386,0.139 -0.802,0.194 -1.238,0.078c-0.895,-0.234 -0.918,-1.056 -0.755,-1.759c0.96,0.097 1.911,0.748 1.993,1.681Z" style="fill:#f492b4;fill-rule:nonzero;"/><path d="M324.314,67.668c-5.598,4.437 -14.062,-1.101 -14.062,-1.101c-1.575,4.728 -6.204,4.495 -6.204,4.495c0,0 -0.467,10.03 -3.088,10.192c-3.999,0.252 -6.174,-13.229 -5.099,-15.982c1.075,-2.754 4.418,-3.671 4.418,-3.671c-0,0 0.106,-2.085 2.445,-4.144c2.584,-2.279 12.198,-0.118 12.198,-0.118c-0,-0 0.525,-1.799 2.186,-3.424c1.056,-1.025 2.557,-0.937 3.58,0.081c-0.413,0.686 -0.699,1.538 -0.789,2.519c-0.269,2.945 2.11,2.778 1.906,0.137c-0.092,-1.174 -0.527,-2.071 -1.117,-2.656c1.055,-1.808 2.932,-2.503 4.161,-1.659c2.228,1.532 4.121,11.644 -0.535,15.331Z" style="fill:#0c2b34;fill-rule:nonzero;"/><path d="M303.268,67.954c-0.056,-0.169 -0.287,-0.095 -0.244,0.08c0.489,1.968 0.993,3.958 1.007,6.012c0.013,2.018 -0.702,7.139 -3.628,6.746c-0.131,-0.017 -0.176,0.17 -0.049,0.22c1.963,0.782 3.107,-1.749 3.612,-3.485c0.917,-3.147 0.29,-6.539 -0.698,-9.573Z" style="fill:#0c2b34;fill-rule:nonzero;"/><path d="M324.685,52.217l-0.026,0.028c3.316,3.662 4.434,9.12 1.927,13.573c-3.154,5.603 -10.521,2.644 -14.932,0.654c-0.216,-0.097 -0.396,0.221 -0.179,0.325c4.298,2.069 11.767,4.862 15.111,-0.262c2.984,-4.571 1.802,-10.601 -1.901,-14.318Z" style="fill:#0c2b34;fill-rule:nonzero;"/><path d="M301.123,61.533c-3.898,0.69 -6.577,2.741 -6.675,6.926c-0.098,4.166 1.854,8.435 4.904,11.232c0.149,0.136 0.346,-0.078 0.214,-0.225c-2.173,-2.408 -3.859,-5.106 -4.465,-8.34c-0.448,-2.39 -0.347,-5.101 1.215,-7.097c1.125,-1.437 3.188,-1.905 4.851,-2.351c0.096,-0.026 0.05,-0.162 -0.044,-0.145Z" style="fill:#0c2b34;fill-rule:nonzero;"/><path d="M316.154,58.1c-5.104,-2.664 -15.003,-4.834 -15.835,3.444l0.119,0.013c1.3,-8.324 10.436,-5.26 15.631,-3.24c0.125,0.048 0.201,-0.156 0.085,-0.217Z" style="fill:#0c2b34;fill-rule:nonzero;"/><path d="M302.188,80.893c-0,0 -3.558,-5.53 -6.053,-4.281c-2.496,1.249 0.035,9.163 2.863,10.341c2.827,1.179 3.969,-1.417 3.969,-1.417l-0.779,-4.643Z" style="fill:#f7a09c;fill-rule:nonzero;"/><path d="M296.916,78.862l-0.018,0.077c1.98,0.892 2.967,2.798 3.635,4.76c-0.57,-0.767 -1.369,-1.206 -2.393,-0.533l0.05,0.11c0.831,-0.145 1.42,0.021 1.951,0.702c0.376,0.482 0.623,1.083 0.884,1.634c0.087,0.183 0.416,0.099 0.355,-0.11l-0.015,-0.047c0.15,-2.563 -1.705,-6.229 -4.449,-6.593Z" style="fill:#0c2b34;fill-rule:nonzero;"/><path d="M290.377,109.668c4.337,19.463 16.557,47.06 22.121,51.501c4.927,3.934 27.621,6.984 40.408,8.253c4.163,0.413 6.269,-30.891 1.801,-31.09c-6.083,-0.27 -28.451,-2.221 -29.491,-3.177c-1.142,-1.051 -13.541,-18.193 -23.478,-30.505c-9.007,-11.159 -13.001,-2.343 -11.361,5.018Z" style="fill:#f7a09c;fill-rule:nonzero;"/><path d="M388.772,161.02c-0.828,2.896 -3.946,2.977 -3.946,2.977c-0,-0 0.731,2.292 -0.302,4.359c-1.182,2.367 -5.413,1.55 -5.413,1.55c-0,0 0.26,2.473 -1.051,4.546c-1.359,2.152 -5.745,1.937 -5.745,1.937c0,0 -1.024,2.436 -3.443,3.415c-4.133,1.676 -9.65,-2.322 -13.182,-4.828c-3.532,-2.506 -11.205,-12.923 -12.868,-14.76l4.783,-21.922c0,0 11.102,-0.974 20.627,1.49c6.263,1.62 11.769,6.487 13.251,7.89c3.146,2.979 8.219,10.095 7.289,13.346Z" style="fill:#f7a09c;fill-rule:nonzero;"/><path d="M384.924,163.521c-2.585,-3.97 -6.204,-6.959 -9.646,-10.148l-0.109,0.121c3.46,3.131 6.254,6.909 9.582,10.172c0.092,0.09 0.243,-0.038 0.173,-0.145Z" style="fill:#0c2b34;fill-rule:nonzero;"/><path d="M379.246,169.557c-0.612,-0.88 -1.512,-1.556 -2.327,-2.239c-0.878,-0.735 -1.767,-1.454 -2.669,-2.16c-1.804,-1.413 -3.64,-2.785 -5.515,-4.102l-0.11,0.121c1.796,1.411 3.57,2.849 5.305,4.335c0.868,0.743 1.729,1.494 2.586,2.25c0.797,0.704 1.579,1.513 2.519,2.027c0.138,0.075 0.303,-0.099 0.211,-0.232Z" style="fill:#0c2b34;fill-rule:nonzero;"/><path d="M372.241,176.328c-0.502,-0.787 -1.467,-1.352 -2.203,-1.905c-0.835,-0.626 -1.668,-1.257 -2.496,-1.893c-1.656,-1.272 -3.312,-2.544 -4.923,-3.872l-0.109,0.12c1.63,1.358 3.241,2.738 4.883,4.082c0.807,0.66 1.617,1.315 2.43,1.966c0.692,0.554 1.494,1.324 2.357,1.587l0.061,-0.085Z" style="fill:#0c2b34;fill-rule:nonzero;"/><path d="M310.277,160.054c7.959,7.975 39.767,11.21 39.767,11.21l-0.686,-34.871c0,0 -23.097,-1.067 -24.03,-1.995c-1.931,-1.919 -15.091,-22.053 -25.512,-32.647c-8.757,-8.902 -12.41,-0.96 -9.463,11.243c3.554,14.713 17.108,44.238 19.924,47.06Z" style="fill:#fec130;fill-rule:nonzero;"/><path d="M350.044,171.264c0,0 -31.808,-3.235 -39.767,-11.21c-1.372,-1.375 -5.296,-9.094 -9.369,-18.351c-4.284,-9.734 -8.733,-21.168 -10.555,-28.709c-0.676,-2.798 -1.004,-5.371 -1.004,-7.569c-0,-4.54 1.403,-7.478 4.05,-7.478c1.662,-0 3.814,1.158 6.417,3.804c10.421,10.594 23.581,30.728 25.512,32.647c0.933,0.928 24.03,1.995 24.03,1.995l0.686,34.871Z" style="fill:#bb8b27;fill-rule:nonzero;"/><path d="M341.91,139.041c-0.321,2.392 -0.19,12.08 -0.134,14.534c0.055,2.45 0.677,12.199 0.834,14.632c0.007,0.11 0.209,0.075 0.21,-0.035c0.032,-2.467 -0.331,-26.785 -0.786,-29.139l-0.124,0.008Z" style="fill:#0c2b34;fill-rule:nonzero;"/><path d="M289.767,112.765c6.511,14.784 12.183,30.793 19.186,45.335c-4.232,-7.05 -7.2,-14.77 -10.427,-22.311c-3.075,-7.616 -6.072,-15.262 -8.759,-23.024Z" style="fill:#0c2b34;fill-rule:nonzero;"/><path d="M289.392,115.502c1.135,1.542 2.195,3.163 3.179,4.796c-1.525,-1.214 -2.642,-2.924 -3.179,-4.796Z" style="fill:#0c2b34;fill-rule:nonzero;"/><path d="M132.236,108.2l0.038,-0.032c2.919,1.743 6.512,0.736 8.216,-1.919c-1.675,3.062 -4.899,4.738 -8.254,1.951Zm-4.816,-47.963c-1.341,-0.383 -2.842,0.114 -3.638,1.253l-0.102,-0.048c0.653,-1.282 1.602,-2.271 3.246,-2.001c1.148,0.19 1.833,0.941 2.242,1.873l-0.021,0.004c-0.46,-0.501 -1.037,-0.886 -1.727,-1.081Zm-29.056,16.919c0.179,-1.521 1.226,-2.624 2.682,-3.007c-0.001,0.109 0.002,0.181 0.002,0.181c-0,-0 -0.417,0.239 -0.607,0.377c-0.343,0.256 -0.646,0.565 -0.902,0.91c-0.532,0.717 -0.853,1.596 -0.892,2.487c-0.017,0.401 0.035,0.792 0.115,1.183l0.025,0.146c-0.318,-0.708 -0.52,-1.446 -0.423,-2.277Zm43.072,27.214c2.066,0.066 4.11,-0.996 5.098,-2.852c0.969,-1.825 0.739,-4.084 -0.428,-5.751c2.212,-0.075 4.31,-1.197 4.933,-3.529c0.645,-2.413 -0.73,-4.632 -2.929,-5.59l-0.015,0.027c1.906,1.089 3.187,3.225 2.563,5.443c-0.535,1.897 -2.01,2.817 -3.715,3.13c1.409,-0.837 2.572,-2.114 2.931,-3.749c0.392,-1.794 -0.314,-3.756 -1.831,-4.78c1.21,-1.703 1.91,-3.942 1.221,-5.988c-0.578,-1.722 -2.12,-3.058 -3.93,-3.19c0.849,-1.892 0.541,-4.253 -0.918,-5.779c-1.368,-1.436 -3.487,-1.913 -5.352,-1.358c1.068,-2.945 -1.322,-6.066 -4.482,-5.77c0.205,-1.109 -0.35,-2.23 -1.29,-2.88c-1.079,-0.753 -2.454,-0.752 -3.716,-0.522c-0.473,-1.062 -1.433,-1.908 -2.617,-2.082c-1.582,-0.232 -2.989,0.757 -3.462,2.206c-1.886,-0.896 -4.058,-1.604 -6.125,-0.991c-1.7,0.506 -3.19,1.918 -3.356,3.724c-3.588,-1.15 -7.349,1.066 -8.086,4.771c-1.563,-0.049 -3.02,0.82 -3.843,2.156c-0.829,1.345 -1.001,2.445 -1.033,2.972c-1.408,0.067 -2.612,1.085 -2.985,2.447c-0.366,1.34 0.068,2.568 0.793,3.652c0.007,0.354 -0.047,0.691 -0.219,1.091c-0.768,1.801 -0.653,3.753 0.388,5.41c-1.542,1.715 -1.123,4.605 0.836,5.814c-0.971,2.141 0.115,4.849 2.283,5.741c-0.577,1.758 -0.403,3.709 0.564,5.306c0.74,1.224 2.091,2.27 3.542,2.026c-0.256,1.097 0.705,2.116 1.754,2.425c0.398,0.117 0.815,0.163 1.226,0.19c0.49,0.028 1.124,-0.065 1.581,0.139c0.475,0.207 0.724,0.753 1.048,1.124c0.233,0.265 0.498,0.505 0.782,0.717c2.156,1.588 5.34,1.412 7.279,-0.41c1.261,1.424 3.341,1.427 5.062,0.871c0.567,-0.184 1.078,-0.449 1.601,-0.727c0.484,-0.256 0.92,-0.451 1.489,-0.4c0.344,0.031 0.679,0.14 1.024,0.175c1.17,0.113 2.109,-0.514 2.961,-1.233c3.524,3.674 8.966,0.666 9.373,-3.976Z" style="fill:#0c2b34;fill-rule:nonzero;"/><path d="M104.423,107.624c-24.567,4.604 -48.714,13.107 -51.587,20.196c-3.865,9.535 0.68,27.616 2.916,40.092c0.657,3.665 29.079,-2.022 28.381,-5.942c-0.843,-4.736 -8.076,-23.029 -8.015,-23.508c0.132,-1.027 23.764,-17.408 29.506,-21.185c9.587,-6.307 9.703,-11.696 -1.201,-9.653Z" style="fill:#bf665c;fill-rule:nonzero;"/><path d="M60.062,186.461c-3.055,-5.387 -4.995,-18.848 -4.214,-22.275c0.781,-3.428 23.556,-7.487 26.23,-5.065c2.673,2.421 11.556,21.355 10.554,27.594c-1.002,6.24 -29.404,5.327 -32.57,-0.254Z" style="fill:#bf665c;fill-rule:nonzero;"/><path d="M92.246,176.809c-2.863,-1.605 -3.115,2.687 -3.115,2.687c-0,0 -1.125,-6.265 -4.716,-6.778c-3.462,-0.486 -3.584,4.709 -3.598,5.081c-0.062,-0.331 -1.247,-6.06 -4.908,-6.204c-3.805,-0.147 -3.033,5.089 -2.981,5.428c-0.157,-0.294 -2.299,-4.146 -5.106,-3.623c-4.822,0.901 0.384,10.901 -0.968,14.635c-0,0 -6.591,-1.569 -6.792,-1.574c0,-0 4.758,9.614 9.897,11.157c2.709,0.813 4.002,-1.551 4.002,-1.551c-0,0 1.191,3.269 4.07,3.474c1.478,0.101 2.955,-2.174 2.955,-2.174c0,0 1.063,2.578 3.636,2.6c2.052,0.024 3.214,-2.261 3.214,-2.261c-0,-0 2.17,2.002 4.275,1.345c4.248,-1.315 6.261,-18.801 0.135,-22.242Z" style="fill:#bf665c;fill-rule:nonzero;"/><path d="M88.075,197.373l0.089,0.028c2.065,-5.59 2.621,-12.363 1.005,-18.136c-0.053,-0.189 -0.383,-0.185 -0.365,0.035c0.528,6.267 0.496,11.872 -0.729,18.073Z" style="fill:#0c2b34;fill-rule:nonzero;"/><path d="M81.011,197.458l0.123,0.021c2.097,-5.77 2.513,-13.417 -0.132,-19.851c-0.091,-0.221 -0.394,-0.328 -0.309,-0.066c1.435,4.412 1.45,14.32 0.318,19.896Z" style="fill:#0c2b34;fill-rule:nonzero;"/><path d="M72.588,176.637c2.299,6.268 2.357,12.641 1.475,19.197l0.14,0.024c1.305,-3.089 1.431,-7.326 1.25,-10.631c-0.173,-3.166 -0.965,-5.988 -2.645,-8.67c-0.066,-0.104 -0.269,-0.054 -0.22,0.08Z" style="fill:#0c2b34;fill-rule:nonzero;"/><path d="M89.131,179.496c-0.334,-1.184 -0.758,-2.342 -1.297,-3.432c-0.543,-1.072 -1.235,-2.134 -2.196,-2.735c-0.476,-0.293 -1.02,-0.425 -1.55,-0.329c-0.539,0.103 -1.075,0.324 -1.482,0.675c-0.835,0.688 -1.197,1.888 -1.208,2.957l-0.028,2.69l-0.909,-2.537c-0.397,-1.107 -0.972,-2.22 -1.704,-3.132c-0.728,-0.912 -1.695,-1.628 -2.753,-1.669c-1.104,-0.064 -2.045,0.486 -2.387,1.522c-0.381,1.008 -0.361,2.28 -0.169,3.405l0.54,3.141l-1.531,-2.78c-0.414,-0.753 -0.953,-1.506 -1.554,-2.133c-0.605,-0.623 -1.319,-1.153 -2.084,-1.306c-0.749,-0.154 -1.591,0.102 -2.019,0.695c-0.46,0.618 -0.59,1.542 -0.627,2.427c-0.054,1.81 0.28,3.656 0.519,5.502c0.128,0.924 0.257,1.852 0.342,2.787c0.067,0.925 0.147,1.903 -0.18,2.791c0.232,-0.911 0.049,-1.848 -0.077,-2.759c-0.154,-0.916 -0.352,-1.825 -0.549,-2.737c-0.396,-1.824 -0.773,-3.664 -0.824,-5.593c0.008,-0.954 0.051,-1.989 0.659,-2.934c0.636,-0.97 1.877,-1.351 2.94,-1.141c1.085,0.211 1.931,0.863 2.629,1.551c0.697,0.712 1.267,1.479 1.766,2.351l-0.991,0.361c-0.239,-1.327 -0.309,-2.657 0.159,-4.024c0.233,-0.671 0.709,-1.333 1.376,-1.725c0.668,-0.396 1.405,-0.52 2.127,-0.478c1.5,0.095 2.69,1.08 3.486,2.111c0.817,1.063 1.39,2.219 1.82,3.475l-0.937,0.154c0.06,-1.36 0.569,-2.714 1.687,-3.578c0.554,-0.421 1.205,-0.646 1.875,-0.738c0.692,-0.094 1.412,0.124 1.958,0.504c1.104,0.785 1.686,1.963 2.172,3.095c0.473,1.151 0.799,2.35 1.001,3.566Z" style="fill:#0c2b34;fill-rule:nonzero;"/><path d="M84.158,162.08c-0,0 20.913,15.907 10.69,21.034c-3.037,1.524 -17.331,4.155 -17.914,1.295c-0.754,-3.694 5.007,-5.906 8.844,-6.721c-0,0 -7.875,-4.409 -6.44,-10.807c0.9,-4.013 4.82,-4.801 4.82,-4.801Z" style="fill:#bf665c;fill-rule:nonzero;"/><path d="M95.671,182.634c-1.088,0.784 -2.366,1.259 -3.629,1.693c-1.271,0.431 -2.58,0.739 -3.896,0.994c-2.643,0.479 -5.271,0.873 -8.009,0.889c-0.686,-0.006 -1.385,-0.041 -2.121,-0.257c-0.363,-0.108 -0.754,-0.284 -1.078,-0.572c-0.164,-0.141 -0.291,-0.281 -0.434,-0.515c-0.114,-0.21 -0.195,-0.418 -0.231,-0.626c-0.183,-0.834 0.041,-1.641 0.397,-2.31c0.381,-0.66 0.891,-1.195 1.437,-1.656c1.108,-0.91 2.374,-1.502 3.655,-1.965c1.282,-0.479 2.599,-0.793 3.917,-1.075l-0.121,0.865c-0.907,-0.546 -1.704,-1.161 -2.47,-1.845c-0.76,-0.681 -1.457,-1.435 -2.064,-2.258c-0.601,-0.827 -1.085,-1.74 -1.416,-2.702c-0.339,-0.96 -0.488,-1.979 -0.441,-2.978c0.09,0.996 0.338,1.964 0.742,2.859c0.4,0.898 0.959,1.71 1.579,2.46c0.623,0.751 1.329,1.432 2.092,2.041c0.757,0.605 1.585,1.166 2.417,1.602l1.057,0.556l-1.178,0.309c-1.268,0.333 -2.54,0.659 -3.738,1.153c-1.196,0.477 -2.379,1.03 -3.32,1.832c-0.92,0.768 -1.675,1.874 -1.459,2.878c0.114,0.899 1.559,1.116 2.803,1.149c1.29,0.045 2.609,-0.046 3.926,-0.138c1.319,-0.094 2.637,-0.206 3.945,-0.385c2.596,-0.405 5.254,-0.801 7.638,-1.998Z" style="fill:#0c2b34;fill-rule:nonzero;"/><path d="M81.911,135.824l-17.744,-21.631c-0,-0 23.123,-6.633 37.509,-8.361c14.385,-1.728 17.203,5.176 6.566,13.724c-10.636,8.548 -26.331,16.268 -26.331,16.268Z" style="fill:#23434c;fill-rule:nonzero;"/><path d="M85.917,131.43c-0.619,-0.724 -1.134,-1.552 -1.692,-2.316c-0.561,-0.769 -1.152,-1.525 -1.74,-2.278c-1.135,-1.456 -2.267,-2.915 -3.392,-4.377c-2.281,-2.966 -4.49,-5.984 -6.948,-8.836l-0.092,0.053c1.876,3.179 4.137,6.168 6.425,9.12c1.15,1.483 2.319,2.952 3.513,4.407c0.605,0.737 1.221,1.473 1.864,2.185c0.639,0.708 1.364,1.386 1.956,2.121l0.106,-0.079Z" style="fill:#0c2b34;fill-rule:nonzero;"/><path d="M56.173,346.129l-19.679,37.144c-1.425,8.079 -0.44,20.221 -0.186,20.458l0.049,0.051c2.472,1.638 68.422,2.882 70.735,2.151c2.324,-0.72 0.414,-7.385 -2.107,-9.475c-2.541,-2.091 -27.567,-13.859 -27.567,-13.859l21.411,-35.733l-42.656,-0.737Z" style="fill:#bf665c;fill-rule:nonzero;"/><path d="M107.092,405.937c-2.315,0.722 -68.258,-0.513 -70.74,-2.158l-0.042,-0.052c-0.251,-0.23 -1.236,-12.378 0.188,-20.452c0,-0.01 1.32,-2.503 3.268,-6.189l40.307,1.079l-2.66,4.429c0,-0 25.029,11.771 27.574,13.865c2.523,2.084 4.429,8.755 2.105,9.478Z" style="fill:#e5e5e4;fill-rule:nonzero;"/><path d="M107.421,406.21c-2.342,0.728 -68.923,-0.719 -71.428,-2.378c-0.953,-0.625 -0.997,-9.998 -0.009,-22.078l41.535,0.809c-0,-0 25.244,11.955 27.795,14.071c2.537,2.115 4.45,8.849 2.107,9.576Z" style="fill:#fec130;fill-rule:nonzero;"/><path d="M106.524,403.526c-11.155,-0.516 -56.195,-1.547 -67.261,-1.21l-0.002,0.07c11.045,0.754 56.093,1.419 67.26,1.323c0.235,-0.002 0.239,-0.172 0.003,-0.183Z" style="fill:#0c2b34;fill-rule:nonzero;"/><path d="M101.084,394.145c-2.645,-0.165 -5.26,1.036 -6.737,2.581c-1.419,1.484 -2.652,3.588 -2.624,5.904l0.135,0.003c0.732,-4.354 4.788,-8.104 9.223,-8.348c0.089,-0.005 0.093,-0.134 0.003,-0.14Z" style="fill:#0c2b34;fill-rule:nonzero;"/><path d="M81.824,383.767c-4.467,-0.159 -9.68,1.305 -12.535,4.898c-0.111,0.139 0.089,0.294 0.223,0.229c4.083,-1.994 7.956,-3.462 12.376,-4.576c0.312,-0.078 0.255,-0.54 -0.064,-0.551Z" style="fill:#0c2b34;fill-rule:nonzero;"/><path d="M85.243,385.186c-4.466,-0.159 -9.68,1.305 -12.535,4.898c-0.11,0.139 0.089,0.295 0.223,0.229c4.084,-1.994 7.956,-3.461 12.377,-4.575c0.311,-0.079 0.255,-0.541 -0.065,-0.552Z" style="fill:#0c2b34;fill-rule:nonzero;"/><path d="M88.662,386.606c-4.466,-0.16 -9.679,1.305 -12.534,4.898c-0.111,0.139 0.089,0.294 0.223,0.229c4.083,-1.994 7.955,-3.462 12.376,-4.576c0.312,-0.079 0.255,-0.54 -0.065,-0.551Z" style="fill:#0c2b34;fill-rule:nonzero;"/><path d="M92.082,388.025c-4.466,-0.159 -9.68,1.305 -12.535,4.898c-0.111,0.139 0.089,0.294 0.223,0.229c4.083,-1.994 7.956,-3.462 12.376,-4.576c0.312,-0.078 0.255,-0.54 -0.064,-0.551Z" style="fill:#0c2b34;fill-rule:nonzero;"/><path d="M42.336,391.777c-5.012,-0.094 -5.167,7.695 -0.147,7.79c5.013,0.094 5.168,-7.695 0.147,-7.79Z" style="fill:#0c2b34;fill-rule:nonzero;"/><path d="M81.223,381.327c-1.562,1.086 -3.168,2.09 -4.69,3.234c0.846,-2.209 1.593,-4.443 2.661,-6.565c0.51,-1.012 1.053,-2.043 1.697,-2.978c1.003,-1.455 5.469,-5.093 5.808,-0.223c0.187,2.685 -3.614,5.236 -5.476,6.532Zm5.687,-9.376c-2.22,-1.924 -5.109,-0.153 -6.545,1.763c-2.327,3.104 -3.975,7.49 -4.308,11.335c-0.008,0.095 0.063,0.135 0.137,0.131c0.088,0.323 0.461,0.599 0.795,0.378c3.229,-2.131 6.944,-4.009 9.422,-7.067c1.447,-1.785 2.599,-4.72 0.499,-6.54Z" style="fill:#0c2b34;fill-rule:nonzero;"/><path d="M62.281,383.863c-2.939,-3.898 2.818,-4.081 4.529,-3.641c1.1,0.282 2.185,0.704 3.235,1.134c2.198,0.9 4.227,2.096 6.315,3.208c-1.899,0.135 -3.77,0.431 -5.662,0.636c-2.255,0.244 -6.797,0.812 -8.417,-1.337Zm2.642,2.601c3.876,0.682 7.912,-0.338 11.747,-0.848c0.397,-0.053 0.497,-0.505 0.352,-0.807l0.017,-0.188c-2.774,-2.684 -6.895,-4.913 -10.687,-5.729c-2.341,-0.504 -5.683,0.055 -6.096,2.964c-0.391,2.751 2.403,4.21 4.667,4.608Z" style="fill:#0c2b34;fill-rule:nonzero;"/><path d="M35.346,373.141l48.469,5.166c0,-0 64.046,-102.434 63.756,-133.08c-0.151,-15.851 -46.655,-65.561 -46.655,-65.561l-0.563,-21.796l-34.533,-0c-0,-0 -15.588,28.369 -9.773,42.948c5.978,14.991 38.608,47.349 40.11,51.955c1.983,6.074 -60.811,120.368 -60.811,120.368Z" style="fill:#0c2b34;fill-rule:nonzero;"/><path d="M42.997,363.902c1.308,-0.08 2.678,0.096 3.987,0.161c1.479,0.072 2.953,0.139 4.429,0.253c2.836,0.221 5.664,0.512 8.489,0.84c5.698,0.664 11.389,1.395 17.06,2.258c3.227,0.491 6.449,1.009 9.662,1.584c0.126,0.023 0.097,0.214 -0.029,0.203c-5.671,-0.474 -11.331,-1.066 -16.993,-1.637c-5.65,-0.57 -11.321,-1.14 -16.945,-1.928c-1.616,-0.226 -3.233,-0.435 -4.839,-0.723c-1.586,-0.283 -3.272,-0.396 -4.824,-0.818c-0.093,-0.026 -0.113,-0.186 0.003,-0.193Z" style="fill:#23434c;fill-rule:nonzero;"/><path d="M147.575,245.233c0.115,12.976 -11.299,38.83 -24.505,64.33l-57.252,-151.689l34.538,-0l0.566,21.793c-0,0 46.496,49.711 46.653,65.566Z" style="fill:#23434c;fill-rule:nonzero;"/><path d="M112.428,345.005l-4.128,43.34c0.314,8.244 0.268,19.554 1.833,20.861c2.516,1.569 68.711,1.935 71.003,1.14c2.303,-0.785 0.209,-7.394 -2.369,-9.413c-2.598,-2.02 -27.942,-13.089 -27.942,-13.089l3.721,-43.273l-42.118,0.434Z" style="fill:#bf665c;fill-rule:nonzero;"/><path d="M181.141,410.347c-2.293,0.796 -68.487,0.429 -71.011,-1.142c-1.561,-1.309 -1.519,-12.618 -1.833,-20.86c-0,-0.011 0.22,-2.356 0.566,-5.948l42.433,-0l-0.472,5.445c0,-0 25.343,11.069 27.94,13.09c2.576,2.022 4.671,8.629 2.377,9.415Z" style="fill:#e5e5e4;fill-rule:nonzero;"/><path d="M181.337,410.573c-2.33,0.771 -68.925,0.545 -71.46,-1.068c-0.964,-0.607 -1.497,-10.308 -1.808,-22.048l42.937,0.021c-0,0 25.458,11.491 28.048,13.559c2.576,2.068 4.611,8.766 2.283,9.536Z" style="fill:#fec130;fill-rule:nonzero;"/><path d="M180.39,407.906c-11.162,-0.312 -56.214,-0.517 -67.272,0.023c-0.09,0.005 -0.09,0.066 -0,0.07c11.057,0.551 56.11,0.391 67.272,0.09c0.236,-0.006 0.236,-0.176 -0,-0.183Z" style="fill:#0c2b34;fill-rule:nonzero;"/><path d="M174.779,398.627c-2.647,-0.117 -5.239,1.131 -6.688,2.703c-1.392,1.51 -2.586,3.637 -2.515,5.952l0.135,0c0.652,-4.366 4.639,-8.19 9.067,-8.516c0.09,-0.006 0.091,-0.136 0.001,-0.139Z" style="fill:#0c2b34;fill-rule:nonzero;"/><path d="M155.332,388.603c-4.468,-0.078 -9.654,1.482 -12.443,5.127c-0.108,0.141 0.095,0.293 0.227,0.225c4.047,-2.069 7.892,-3.607 12.291,-4.802c0.31,-0.084 0.245,-0.545 -0.075,-0.55Z" style="fill:#0c2b34;fill-rule:nonzero;"/><path d="M158.777,389.959c-4.468,-0.077 -9.654,1.483 -12.443,5.127c-0.108,0.142 0.094,0.293 0.227,0.225c4.046,-2.068 7.891,-3.607 12.291,-4.801c0.31,-0.085 0.245,-0.545 -0.075,-0.551Z" style="fill:#0c2b34;fill-rule:nonzero;"/><path d="M162.222,391.316c-4.469,-0.078 -9.654,1.482 -12.443,5.127c-0.108,0.141 0.094,0.293 0.227,0.225c4.046,-2.069 7.891,-3.607 12.291,-4.802c0.31,-0.084 0.245,-0.545 -0.075,-0.55Z" style="fill:#0c2b34;fill-rule:nonzero;"/><path d="M165.666,392.672c-4.468,-0.077 -9.653,1.482 -12.442,5.127c-0.108,0.141 0.094,0.293 0.227,0.225c4.046,-2.069 7.891,-3.607 12.29,-4.802c0.311,-0.084 0.245,-0.544 -0.075,-0.55Z" style="fill:#0c2b34;fill-rule:nonzero;"/><path d="M115.998,397.336c-5.013,-0.003 -5.025,7.788 -0.004,7.791c5.013,0.002 5.026,-7.789 0.004,-7.791Z" style="fill:#0c2b34;fill-rule:nonzero;"/><path d="M154.687,386.174c-1.542,1.115 -3.13,2.148 -4.63,3.32c0.805,-2.224 1.511,-4.471 2.54,-6.613c0.492,-1.021 1.015,-2.062 1.643,-3.008c0.975,-1.473 5.374,-5.193 5.802,-0.33c0.236,2.681 -3.517,5.302 -5.355,6.631Zm5.514,-9.478c-2.255,-1.883 -5.111,-0.06 -6.512,1.883c-2.269,3.146 -3.836,7.561 -4.099,11.412c-0.006,0.095 0.066,0.133 0.139,0.128c0.095,0.321 0.472,0.591 0.803,0.364c3.188,-2.19 6.869,-4.136 9.29,-7.239c1.414,-1.811 2.512,-4.767 0.379,-6.548Z" style="fill:#0c2b34;fill-rule:nonzero;"/><path d="M135.794,389.057c-3.01,-3.843 2.743,-4.132 4.462,-3.724c1.105,0.263 2.198,0.665 3.255,1.075c2.214,0.86 4.265,2.019 6.373,3.092c-1.897,0.17 -3.761,0.5 -5.649,0.74c-2.25,0.285 -6.781,0.936 -8.441,-1.183Zm2.689,2.553c3.889,0.61 7.905,-0.484 11.73,-1.064c0.397,-0.06 0.488,-0.514 0.337,-0.813l0.014,-0.189c-2.823,-2.632 -6.984,-4.785 -10.79,-5.531c-2.351,-0.461 -5.681,0.158 -6.041,3.074c-0.341,2.758 2.48,4.166 4.75,4.523Z" style="fill:#0c2b34;fill-rule:nonzero;"/><path d="M84.672,205.683c0.01,0.032 32.489,62.392 33.466,67.055c1.509,7.197 -13.581,108.845 -13.581,108.845l51.884,0.309c-0,0 13.076,-96.965 9.915,-116.118c-2.809,-17.017 -44.633,-85.621 -46.273,-89.499c-1.981,-4.682 -3.266,-12.188 -4.092,-18.405l-49.011,-0c0,-0 -2.332,25.262 9.157,43.532c0,-0 5.202,2.408 8.535,4.281Z" style="fill:#0c2b34;fill-rule:nonzero;"/><path d="M107.314,372.019c5.993,-0.173 12.209,-0.35 18.205,-0.201c5.944,0.148 11.906,0.239 17.843,0.592c3.368,0.201 6.728,0.314 10.089,0.646c0.112,0.011 0.107,0.174 -0.004,0.18c-5.99,0.349 -12.003,0.28 -18.001,0.225c-5.952,-0.054 -11.9,-0.118 -17.848,-0.391c-3.368,-0.155 -6.728,-0.324 -10.091,-0.558c-0.363,-0.025 -0.555,-0.483 -0.193,-0.493Z" style="fill:#23434c;fill-rule:nonzero;"/><path d="M97.502,206.93c-2.584,-0.046 -5.16,-0.222 -7.704,-0.698c-2.569,-0.481 -4.968,-1.334 -7.465,-2.07c-2.369,-0.698 -4.889,-0.806 -7.319,-1.197c-2.465,-0.396 -4.925,-1.041 -7.174,-2.136c-0.107,-0.052 -0.196,0.107 -0.089,0.161c2.231,1.143 4.479,2.225 6.875,2.981c2.46,0.776 5.031,0.882 7.528,1.493c2.568,0.628 5.041,1.463 7.682,1.768c2.56,0.296 5.148,0.287 7.694,-0.13c0.101,-0.017 0.067,-0.17 -0.028,-0.172Z" style="fill:#23434c;fill-rule:nonzero;"/><path d="M84.672,205.683c11.064,20.827 21.92,41.776 32.172,63.017c0.587,1.284 1.19,2.46 1.715,3.878c0.399,2.857 -0.082,5.616 -0.251,8.456c-0.49,5.538 -1.194,11.044 -1.889,16.551c-1.408,11.011 -2.995,21.996 -4.71,32.962c1.385,-11.012 2.76,-22.023 4.038,-33.043c0.632,-5.51 1.212,-11.028 1.7,-16.545c0.156,-2.664 0.584,-5.513 0.241,-8.143c-0.451,-1.179 -1.104,-2.484 -1.682,-3.716c-9.356,-19.036 -22.195,-44.499 -31.334,-63.417Z" style="fill:#23434c;fill-rule:nonzero;"/><path d="M87.407,196.298c0.079,-3.295 0.331,-13.702 0.397,-15.609c0.033,-0.955 0.357,-6.46 0.732,-6.464c1.95,-0.022 3.961,0.444 5.898,0.663c1.924,0.218 3.853,0.4 5.787,0.545c3.91,0.294 7.837,0.42 11.762,0.41c0.589,-0.001 0.589,0.817 0,0.827c-3.972,0.063 -7.942,-0.026 -11.904,-0.257c-1.932,-0.113 -9.394,-0.696 -11.089,-1.11c-0.066,0.782 0.041,3.699 0.039,4.354c0.817,0.076 1.628,0.322 2.431,0.48c0.902,0.177 1.808,0.336 2.718,0.479c1.883,0.294 3.783,0.521 5.687,0.679c3.668,0.303 7.389,0.412 11.071,0.251c0.118,-0.005 0.114,0.154 -0,0.164c-3.787,0.346 -7.556,0.409 -11.347,0.089c-1.773,-0.15 -3.535,-0.369 -5.286,-0.658c-0.953,-0.157 -1.902,-0.333 -2.846,-0.527c-0.801,-0.164 -1.663,-0.294 -2.429,-0.575c-0.001,0.128 -0.001,0.256 -0.001,0.384c-0.008,1.821 -0.196,12.529 -0.238,16.063c1.827,1.149 10.786,6.769 11.984,6.308c2.274,-0.876 10.202,-4.803 12.487,-5.726c0.111,-3.164 0.112,-6.332 -0.015,-9.495c-0.066,-1.627 -0.164,-3.253 -0.288,-4.876c-0.126,-1.635 -0.406,-3.354 -0.261,-4.988c0.012,-0.137 0.234,-0.224 0.313,-0.078l0.118,0.215l-0.013,0.107c0.486,1.423 0.636,3.011 0.812,4.483c0.199,1.664 0.355,3.331 0.473,5.003c0.234,3.339 0.309,6.684 0.238,10.031c-0.005,0.205 -0.125,0.449 -0.343,0.541c-3.446,1.457 -12.975,5.975 -13.799,6.016c-1.586,0.081 -12.552,-6.469 -12.828,-6.717c-0.337,-0.301 -0.27,-0.6 -0.26,-1.012Z" style="fill:#23434c;fill-rule:nonzero;"/><path d="M74.217,192.048c0.626,-2.762 2.602,-11.486 2.953,-13.088c0.175,-0.801 1.116,-5.44 0.909,-5.488c-1.072,-0.254 -2.277,-0.108 -3.391,-0.158c-1.107,-0.051 -2.209,-0.132 -3.306,-0.244c-2.219,-0.227 -4.413,-0.596 -6.579,-1.078c-0.325,-0.073 -0.491,0.611 -0.168,0.69c2.181,0.533 4.391,0.938 6.626,1.223c1.09,0.14 5.328,0.553 6.349,0.412c-0.123,0.662 -0.775,3.086 -0.907,3.633c-0.467,-0.035 -0.964,0.073 -1.44,0.107c-0.534,0.039 -1.066,0.063 -1.598,0.072c-1.1,0.019 -2.195,-0.021 -3.278,-0.119c-2.087,-0.19 -4.164,-0.548 -6.165,-1.127l-0.033,0.136c2.021,0.747 4.09,1.255 6.247,1.445c1.01,0.089 2.028,0.119 3.053,0.089c0.558,-0.016 1.118,-0.048 1.679,-0.096c0.476,-0.041 0.978,-0.045 1.458,-0.188c-0.026,0.107 -0.052,0.214 -0.077,0.321c-0.366,1.522 -2.439,10.491 -3.133,13.448c-1.243,0.74 -7.332,4.352 -7.9,3.823c-1.078,-1.007 -4.657,-5.245 -5.732,-6.292c0.583,-2.657 1.225,-5.304 1.939,-7.931c0.366,-1.351 0.751,-2.697 1.15,-4.038c0.401,-1.35 0.905,-2.754 1.157,-4.136c0.021,-0.115 -0.083,-0.215 -0.157,-0.103l-0.109,0.166l-0.014,0.09c-0.558,1.131 -0.964,2.439 -1.36,3.647c-0.448,1.367 -0.873,2.741 -1.277,4.123c-0.808,2.761 -1.53,5.547 -2.171,8.352c-0.039,0.171 -0.022,0.39 0.08,0.493c1.606,1.634 5.95,6.558 6.397,6.693c0.859,0.258 8.246,-3.889 8.448,-4.063c0.248,-0.211 0.272,-0.468 0.35,-0.814Z" style="fill:#23434c;fill-rule:nonzero;"/><path d="M80.053,186.303c0.71,-4.834 1.455,-9.669 2.396,-14.464c0.542,-2.763 1.107,-5.52 1.741,-8.263c0.023,-0.1 0.181,-0.086 0.162,0.019c-0.866,4.85 -1.728,9.701 -2.54,14.56c-0.807,4.822 -1.447,9.663 -2.131,14.503c-0.394,2.784 -0.762,5.572 -1.153,8.356c-0.014,0.104 -0.17,0.086 -0.162,-0.019c0.367,-4.92 0.971,-9.812 1.687,-14.692Z" style="fill:#23434c;fill-rule:nonzero;"/><path d="M108.432,108.67c-0.185,1.085 1.829,9.482 6.433,11.172c1.501,0.548 4.856,-7.508 4.856,-7.508l0.384,-0.538l5.365,-7.536l-7.132,-10.386l-1.063,-1.425c0,0 -1.331,2.159 -2.963,4.863c-0.076,0.125 -0.153,0.25 -0.232,0.385c-0.096,0.15 -0.189,0.291 -0.272,0.436c-0.25,0.401 -0.502,0.811 -0.745,1.225c-0.186,0.315 -0.369,0.62 -0.552,0.956c-0.193,0.334 -0.373,0.661 -0.566,0.995c-1.828,3.33 -3.428,6.902 -3.513,7.361Z" style="fill:#bf665c;fill-rule:nonzero;"/><path d="M114.312,97.312c-0.405,7.624 3.747,12.552 5.793,14.484l5.365,-7.536l-7.132,-10.386l-1.063,-1.425c0,0 -1.331,2.159 -2.963,4.863Z" style="fill:#0c2b34;fill-rule:nonzero;"/><path d="M142.789,92.607c-0.648,16.221 -10.403,17.829 -13.935,17.521c-3.166,-0.276 -13.971,-0.978 -15.002,-17.18c-1.031,-16.201 6.716,-21.028 13.994,-21.114c7.278,-0.086 15.592,4.551 14.943,20.773Z" style="fill:#bf665c;fill-rule:nonzero;"/><path d="M141.403,89.005c-0.373,-0.086 -0.704,-0.228 -1.065,-0.351c-0.407,-0.139 -0.746,-0.207 -1.018,-0.564c-0.146,-0.192 -0.094,-0.542 0.078,-0.701c0.402,-0.371 0.943,-0.325 1.44,-0.178c0.54,0.16 0.914,0.421 1.231,0.885c0.307,0.449 -0.173,1.022 -0.666,0.909Z" style="fill:#0c2b34;fill-rule:nonzero;"/><path d="M130.145,90.004c0.357,0.14 0.709,0.209 1.078,0.31c0.415,0.114 0.733,0.247 1.159,0.106c0.229,-0.076 0.383,-0.395 0.329,-0.624c-0.123,-0.533 -0.596,-0.799 -1.09,-0.957c-0.536,-0.171 -0.993,-0.166 -1.515,0.039c-0.507,0.199 -0.433,0.942 0.039,1.126Z" style="fill:#0c2b34;fill-rule:nonzero;"/><path d="M132.475,92.625l-0.094,0.09c-0.06,1.104 -0.315,2.358 -1.344,2.638l0.004,0.062c1.231,-0.066 1.553,-1.734 1.434,-2.79Z" style="fill:#0c2b34;fill-rule:nonzero;"/><path d="M131.591,91.389c-1.759,-0.288 -2.207,3.252 -0.576,3.519c1.604,0.263 2.051,-3.277 0.576,-3.519Z" style="fill:#0c2b34;fill-rule:nonzero;"/><path d="M130.873,91.489c-0.336,0.161 -0.683,0.476 -1.06,0.466c-0.437,-0.012 -0.716,-0.424 -0.953,-0.816l-0.065,0.033c-0.096,0.678 0.076,1.406 0.791,1.599c0.652,0.176 1.203,-0.364 1.46,-1.025c0.047,-0.122 -0.039,-0.322 -0.173,-0.257Z" style="fill:#0c2b34;fill-rule:nonzero;"/><path d="M138.832,92.792l0.071,0.108c-0.182,1.091 -0.206,2.371 0.736,2.868l-0.017,0.06c-1.187,-0.333 -1.137,-2.032 -0.79,-3.036Z" style="fill:#0c2b34;fill-rule:nonzero;"/><path d="M139.964,91.779c1.78,0.103 1.444,3.655 -0.205,3.56c-1.623,-0.093 -1.288,-3.646 0.205,-3.56Z" style="fill:#0c2b34;fill-rule:nonzero;"/><path d="M140.682,92.083c0.263,0.215 0.509,0.583 0.842,0.637c0.386,0.062 0.71,-0.295 0.993,-0.64l0.051,0.044c-0.045,0.681 -0.337,1.367 -1.001,1.435c-0.606,0.063 -0.988,-0.561 -1.086,-1.253c-0.019,-0.128 0.095,-0.31 0.201,-0.223Z" style="fill:#0c2b34;fill-rule:nonzero;"/><path d="M131.388,101.089c0.217,0.3 0.417,0.696 0.806,0.797c0.374,0.098 0.848,0.003 1.218,-0.071l0.038,0.063c-0.355,0.37 -0.995,0.529 -1.485,0.353c-0.478,-0.171 -0.648,-0.639 -0.69,-1.111l0.113,-0.031Z" style="fill:#0c2b34;fill-rule:nonzero;"/><path d="M136.433,97.644c-0,0 0.04,1.666 -0.049,2.44c-0.008,0.072 -0.199,0.085 -0.464,0.07l-0.03,-0.002c-1.39,0.057 -2.713,-0.571 -3.415,-1.782l0.127,-0.094c0.934,0.866 2.039,1.188 3.249,1.346c0.079,-0.207 -0.163,-2.851 -0.039,-2.846c0.427,0.012 1.228,0.395 1.712,0.599c0.019,-3.473 -0.519,-6.921 -0.448,-10.379c0.004,-0.124 0.184,-0.14 0.207,-0.027c0.82,3.574 0.886,7.571 0.958,11.158c0.014,0.448 -1.513,-0.316 -1.808,-0.483Z" style="fill:#0c2b34;fill-rule:nonzero;"/><path d="M134.764,75.886c0,-0 0.254,2.515 -0.849,4.129c-2.269,3.318 -6.422,1.695 -8.115,2.882c-1.587,1.112 -1.538,3.943 -2.995,5.076c-2.017,1.57 -4.255,0.485 -4.735,1.68c-0.479,1.195 -1.918,5.013 -3.57,5.267c-1.651,0.255 -4.748,-27.139 15.679,-23.07c0,0 3.004,-0.712 7.031,2.193c4.446,3.206 5.294,11.52 5.294,11.52c-0,-0 -0.086,-0.125 -0.691,-0.859c-0.854,-1.036 -1.11,-1.91 -1.747,-2.594c-1.002,-1.075 -1.682,-0.835 -2.733,-1.894c-1.601,-1.613 -2.569,-4.33 -2.569,-4.33Z" style="fill:#0c2b34;fill-rule:nonzero;"/><path d="M134.631,74.694c0.156,1.08 0.199,2.177 0.104,3.254c-0.084,1.066 -0.312,2.163 -0.92,3.002c-0.609,0.813 -1.635,1.271 -2.648,1.471c-1.035,0.208 -2.13,0.141 -3.247,0.398c-0.551,0.147 -1.109,0.376 -1.542,0.822c-0.423,0.44 -0.652,0.983 -0.853,1.492c-0.384,1.025 -0.771,2.035 -1.589,2.68c-0.806,0.647 -1.895,0.942 -2.938,0.728c-1.036,-0.161 -2.135,-0.634 -3.217,-0.336c1.103,-0.209 2.102,0.33 3.17,0.583c1.089,0.278 2.303,0.021 3.225,-0.66c0.969,-0.682 1.389,-1.837 1.782,-2.819c0.202,-0.497 0.426,-0.979 0.77,-1.323c0.333,-0.339 0.821,-0.544 1.315,-0.666c1.003,-0.252 2.116,-0.206 3.215,-0.438c0.549,-0.113 1.094,-0.298 1.591,-0.575c0.489,-0.268 0.983,-0.629 1.29,-1.127c0.637,-0.976 0.81,-2.124 0.849,-3.219c0.011,-1.105 -0.118,-2.201 -0.357,-3.267Z" style="fill:#0c2b34;fill-rule:nonzero;"/><path d="M134.876,75.697c0.043,1.017 0.236,2.023 0.549,3.005c0.306,0.979 0.868,1.934 1.705,2.602c0.417,0.34 0.919,0.56 1.334,0.779c0.397,0.216 0.801,0.552 0.993,0.923c0.207,0.423 0.384,0.943 0.703,1.36c0.319,0.417 0.731,0.747 1.184,0.97c-0.389,-0.321 -0.745,-0.677 -0.973,-1.11c-0.258,-0.42 -0.367,-0.884 -0.553,-1.387c-0.228,-0.555 -0.662,-0.88 -1.114,-1.176c-0.463,-0.267 -0.894,-0.453 -1.256,-0.76c-0.743,-0.601 -1.265,-1.431 -1.636,-2.349c-0.386,-0.912 -0.669,-1.88 -0.936,-2.857Z" style="fill:#0c2b34;fill-rule:nonzero;"/><path d="M117.672,93.507c-0,-0 -3.578,-5.043 -5.869,-3.763c-2.29,1.279 0.424,8.606 3.131,9.592c2.706,0.986 3.668,-1.501 3.668,-1.501l-0.93,-4.328Z" style="fill:#bf665c;fill-rule:nonzero;"/><path d="M112.634,91.825l-0.014,0.072c1.898,0.754 2.907,2.502 3.617,4.317c-0.568,-0.697 -1.337,-1.075 -2.27,-0.399l0.051,0.101c0.775,-0.172 1.335,-0.041 1.863,0.576c0.374,0.438 0.631,0.992 0.9,1.498c0.09,0.168 0.395,0.076 0.329,-0.119l-0.016,-0.043c0.032,-2.414 -1.867,-5.778 -4.46,-6.003Z" style="fill:#0c2b34;fill-rule:nonzero;"/><path d="M121.489,158.672l-4.849,15.141l-56.192,-10.113c0,-0 20.871,-44.177 39.683,-54.751c9.408,-5.289 17.389,-2.07 20.877,4.901c0.882,1.764 9.678,23.765 8.753,32.236c-0.832,7.468 -8.272,12.586 -8.272,12.586Z" style="fill:#335863;fill-rule:nonzero;"/><path d="M61.652,161.22c-0.075,0.169 -0.16,0.324 -0.232,0.471l55.886,10.057l0.144,-0.486l-55.798,-10.042Zm1.53,-3.001c-0.084,0.156 -0.169,0.311 -0.243,0.468l55.357,9.963l0.155,-0.484l-55.269,-9.947Zm1.565,-3.006c-0.086,0.166 -0.171,0.321 -0.256,0.477l54.795,9.861l0.157,-0.495l-54.696,-9.843Zm1.608,-2.988c-0.085,0.155 -0.17,0.311 -0.255,0.466l54.178,9.75l0.155,-0.484l-54.078,-9.732Zm1.64,-2.981c-0.085,0.155 -0.17,0.31 -0.255,0.466l53.539,9.635l0.155,-0.484l-53.439,-9.617Zm1.697,-2.983c-0.098,0.164 -0.183,0.32 -0.268,0.475l54.575,9.822c0.138,-0.135 0.291,-0.289 0.444,-0.444l-54.751,-9.853Zm1.74,-2.964c-0.096,0.154 -0.192,0.307 -0.277,0.462l55.357,9.963c0.107,-0.152 0.225,-0.301 0.332,-0.453l-55.412,-9.972Zm1.772,-2.958c-0.096,0.154 -0.192,0.307 -0.277,0.463l55.413,9.972c0.085,-0.155 0.158,-0.313 0.221,-0.472l-55.357,-9.963Zm1.841,-2.956c-0.098,0.164 -0.205,0.315 -0.301,0.469l54.729,9.849c0.051,-0.161 0.081,-0.327 0.113,-0.503l-54.541,-9.815Zm54.77,6.58l-52.877,-9.516c-0.096,0.153 -0.202,0.304 -0.298,0.458l53.186,9.571c0.006,-0.169 -0.007,-0.342 -0.011,-0.513Zm-0.354,-3.341l-50.563,-9.099c-0.107,0.151 -0.203,0.304 -0.31,0.456l50.949,9.169c-0.026,-0.175 -0.05,-0.351 -0.076,-0.526Zm-0.661,-3.407l-47.863,-8.614c-0.107,0.152 -0.214,0.303 -0.323,0.466l48.304,8.693c-0.036,-0.178 -0.082,-0.368 -0.118,-0.545Zm-0.85,-3.43l-44.877,-8.076c-0.118,0.15 -0.236,0.299 -0.343,0.45l45.361,8.164c-0.047,-0.179 -0.094,-0.359 -0.141,-0.538Zm-0.983,-3.453l-41.67,-7.499c-0.118,0.149 -0.236,0.298 -0.353,0.448l42.176,7.59c-0.047,-0.179 -0.106,-0.36 -0.153,-0.539Zm-1.102,-3.487l-38.198,-6.874c-0.129,0.147 -0.26,0.306 -0.389,0.453l38.771,6.978c-0.056,-0.193 -0.126,-0.376 -0.184,-0.557Zm-1.192,-3.491l-34.462,-6.202c-0.14,0.146 -0.269,0.293 -0.409,0.438l35.068,6.311c-0.058,-0.181 -0.128,-0.364 -0.197,-0.547Zm-1.258,-3.503l-30.429,-5.476c-0.151,0.143 -0.302,0.287 -0.453,0.43l31.09,5.595c-0.07,-0.183 -0.139,-0.366 -0.208,-0.549Zm-1.367,-3.534l-25.899,-4.661c-0.184,0.137 -0.368,0.275 -0.543,0.425l26.67,4.8c-0.078,-0.196 -0.156,-0.392 -0.228,-0.564Zm-1.655,-3.575l-20.455,-3.681c-0.226,0.119 -0.443,0.25 -0.662,0.393l21.436,3.857c-0.092,-0.187 -0.205,-0.378 -0.319,-0.569Zm-2.681,-3.247l-13.346,-2.402c0.374,-0.115 0.745,-0.219 1.103,-0.313l11.407,2.052c0.294,0.201 0.559,0.431 0.836,0.663Z" style="fill:#23434c;fill-rule:nonzero;"/><path d="M107.573,119.054c-3.739,9.96 -10.354,41.491 -6.089,50.691c4.221,9.106 28.997,24.683 37.597,29.907c2.731,1.659 15.88,-24.609 10.269,-27.197c-7.245,-3.342 -21.359,-12.99 -24.263,-16.013c-1.982,-2.064 -2.811,-22.195 -4.303,-37.109c-1.244,-12.44 -8.472,-12.899 -13.211,-0.279Z" style="fill:#bf665c;fill-rule:nonzero;"/><path d="M179.252,206.872c-1.721,2.472 -4.698,1.541 -4.698,1.541c0,-0 -0.05,2.404 -1.695,4.026c-1.885,1.857 -5.624,-0.284 -5.624,-0.284c0,-0 -0.554,2.423 -2.465,3.961c-1.983,1.596 -6.064,-0.026 -6.064,-0.026c-0,-0 -1.756,1.973 -4.361,2.117c-4.454,0.248 -8.38,-5.32 -10.911,-8.834c-2.532,-3.514 -6.421,-15.853 -7.4,-18.129l11.618,-19.195c-0,-0 10.821,2.67 19.036,8.083c5.401,3.56 9.037,9.947 9.985,11.753c2.013,3.837 4.51,12.212 2.579,14.987Z" style="fill:#bf665c;fill-rule:nonzero;"/><path d="M174.801,207.994c-1.162,-4.593 -3.618,-8.592 -5.843,-12.723c-0.05,-0.092 -0.193,-0.014 -0.142,0.078c2.26,4.083 3.681,8.562 5.775,12.726c0.058,0.115 0.241,0.043 0.21,-0.081Z" style="fill:#0c2b34;fill-rule:nonzero;"/><path d="M167.476,211.868c-0.294,-1.031 -0.928,-1.962 -1.478,-2.872c-0.592,-0.979 -1.202,-1.947 -1.826,-2.907c-1.25,-1.921 -2.543,-3.813 -3.892,-5.666l-0.142,0.079c1.242,1.916 2.456,3.851 3.616,5.818c0.581,0.984 1.153,1.973 1.719,2.966c0.527,0.924 1.005,1.942 1.728,2.732c0.107,0.117 0.319,0.005 0.275,-0.15Z" style="fill:#0c2b34;fill-rule:nonzero;"/><path d="M158.656,216.007c-0.219,-0.906 -0.95,-1.753 -1.468,-2.514c-0.587,-0.863 -1.17,-1.73 -1.748,-2.599c-1.156,-1.739 -2.311,-3.479 -3.406,-5.257l-0.142,0.078c1.103,1.813 2.181,3.64 3.3,5.443c0.549,0.885 1.104,1.767 1.663,2.646c0.475,0.748 0.985,1.736 1.716,2.265l0.085,-0.062Z" style="fill:#0c2b34;fill-rule:nonzero;"/><path d="M124.62,149.702l-27.276,6.227c0,0 4.382,-23.652 9.255,-37.297c4.873,-13.645 12.308,-13.086 15.212,0.247c2.904,13.333 2.809,30.823 2.809,30.823Z" style="fill:#23434c;fill-rule:nonzero;"/><path d="M122.475,144.157c-0.924,0.23 -1.895,0.322 -2.827,0.48c-0.939,0.159 -1.879,0.351 -2.815,0.541c-1.81,0.366 -3.62,0.728 -5.431,1.082c-3.672,0.719 -7.359,1.349 -11.007,2.276l0.006,0.106c3.682,-0.26 7.366,-0.951 11.029,-1.681c1.839,-0.367 3.676,-0.758 5.51,-1.177c0.93,-0.213 1.864,-0.436 2.788,-0.693c0.919,-0.256 1.849,-0.603 2.77,-0.804l-0.023,-0.13Z" style="fill:#0c2b34;fill-rule:nonzero;"/><path d="M234.872,45.557c-0,14.29 11.59,25.88 25.88,25.88c5.774,0 11.106,-1.894 15.417,-5.104l12.678,3.237l-5.278,-11.805c1.961,-3.639 3.062,-7.802 3.062,-12.208c0,-14.289 -11.59,-25.879 -25.879,-25.879c-14.29,0 -25.88,11.59 -25.88,25.879Z" style="fill:#fff;fill-rule:nonzero;"/><path d="M234.872,45.557c0.064,-22.031 25.762,-34.094 42.78,-20.071c9.405,7.604 12.297,21.914 6.341,32.507l0.015,-0.424l5.24,11.821l0.37,0.836l-0.88,-0.231l-12.657,-3.316c-16.144,12.268 -41.08,0.745 -41.209,-21.122Zm-0,0c0.423,21.599 24.086,32.938 41.385,20.431l12.698,3.156l-0.509,0.605l-5.316,-11.787l-0.097,-0.214c7.988,-14.367 -0.106,-33.017 -16.059,-37.002c-15.994,-4.365 -32.187,8.267 -32.102,24.811Z" style="fill:#0c2b34;fill-rule:nonzero;"/><path d="M256.857,62.107l-11.597,-11.74l3.896,-3.849l6.775,6.857l14.075,-22.065l4.618,2.945l-17.767,27.852Z" style="fill:#fec130;fill-rule:nonzero;"/></g></svg>