<svg width="180" height="31" viewBox="0 0 180 31" fill="none" xmlns="http://www.w3.org/2000/svg">
<path d="M167.909 20.6793C161.662 17.7197 168.54 12.2588 173.956 14.8039C175.811 15.6753 176.997 17.2675 177.598 19.187C180.186 27.4547 169.645 29.3434 163.983 28.9519C140.985 27.3616 122.1 11.4251 99.7844 7.12279C92.2031 5.66099 79.3588 10.1067 79.3535 19.5456C79.3489 27.7922 91.3998 29.0908 96.5945 25.2941C98.935 23.5833 100.007 21.1466 100.246 18.3096C101.067 8.57912 89.3729 4.06018 81.7712 2.66136C65.1751 -0.392728 46.5946 7.69086 32.3701 15.432C21.7399 21.217 13.9602 29.4424 2 22.0463" stroke="black" stroke-width="3" stroke-miterlimit="1.5" stroke-linecap="round" stroke-linejoin="round"/>
</svg>
