<?xml version="1.0" encoding="UTF-8" standalone="no"?><!DOCTYPE svg PUBLIC "-//W3C//DTD SVG 1.1//EN" "http://www.w3.org/Graphics/SVG/1.1/DTD/svg11.dtd"><svg width="100%" height="100%" viewBox="0 0 436 411" version="1.1" xmlns="http://www.w3.org/2000/svg" xmlns:xlink="http://www.w3.org/1999/xlink" xml:space="preserve" xmlns:serif="http://www.serif.com/" style="fill-rule:evenodd;clip-rule:evenodd;stroke-linejoin:round;stroke-miterlimit:2;"><g><path d="M393.723,277.661l-0.142,-5.536c-0.046,-1.867 -0.112,-3.755 -0.131,-5.654l-0.003,-0.27l0.276,-0.003c4.413,-0.052 8.827,-0.159 13.24,-0.164l13.24,-0.062l0.502,-0.002l-0.002,0.501l-0.054,11.19l-0.002,0.449l-0.444,-0.004c-2.231,-0.017 -4.469,-0.008 -6.694,-0.054l-6.661,-0.113l-13.125,-0.278Zm-0,-0l13.355,-0.279l6.579,-0.112c2.189,-0.047 4.365,-0.038 6.546,-0.055l-0.445,0.446l-0.054,-11.19l0.499,0.5l-13.24,-0.064c-4.413,-0.005 -8.827,-0.112 -13.24,-0.163l0.272,-0.273c-0.018,1.832 -0.085,3.673 -0.131,5.536l-0.141,5.654Z" style="fill:#e5e5e4;fill-rule:nonzero;"/><path d="M408.494,291.77l-0.141,-5.536c-0.045,-1.867 -0.113,-3.755 -0.131,-5.653l-0.003,-0.27l0.275,-0.004c4.414,-0.05 8.827,-0.158 13.24,-0.163l13.241,-0.063l0.502,-0.002l-0.002,0.502l-0.054,11.189l-0.003,0.45l-0.443,-0.003c-2.232,-0.018 -4.469,-0.009 -6.695,-0.056l-6.661,-0.112l-13.125,-0.279Zm-0,-0l13.356,-0.278l6.58,-0.112c2.187,-0.047 4.363,-0.037 6.545,-0.055l-0.446,0.445l-0.053,-11.189l0.499,0.499l-13.241,-0.063c-4.413,-0.004 -8.826,-0.112 -13.24,-0.164l0.274,-0.272c-0.02,1.831 -0.086,3.673 -0.131,5.536l-0.143,5.653Z" style="fill:#e5e5e4;fill-rule:nonzero;"/><path d="M74.837,162.141l-0.142,-5.536c-0.045,-1.867 -0.112,-3.755 -0.131,-5.654l-0.002,-0.27l0.275,-0.002c4.414,-0.052 8.827,-0.159 13.24,-0.164l13.241,-0.063l0.502,-0.002l-0.003,0.501l-0.053,11.19l-0.002,0.449l-0.444,-0.003c-2.232,-0.018 -4.469,-0.008 -6.695,-0.055l-6.661,-0.112l-13.125,-0.279Zm-0,0l13.356,-0.278l6.579,-0.113c2.188,-0.047 4.364,-0.037 6.546,-0.054l-0.445,0.445l-0.054,-11.19l0.499,0.5l-13.241,-0.063c-4.413,-0.005 -8.826,-0.112 -13.24,-0.164l0.273,-0.273c-0.019,1.832 -0.086,3.674 -0.131,5.537l-0.142,5.653Z" style="fill:#e5e5e4;fill-rule:nonzero;"/><path d="M89.609,176.251l-0.142,-5.536c-0.045,-1.867 -0.112,-3.755 -0.131,-5.654l-0.003,-0.27l0.276,-0.003c4.413,-0.051 8.827,-0.158 13.241,-0.163l13.24,-0.063l0.502,-0.003l-0.003,0.502l-0.053,11.19l-0.003,0.449l-0.443,-0.003c-2.232,-0.018 -4.469,-0.008 -6.695,-0.056l-6.661,-0.111l-13.125,-0.279Zm0,0l13.356,-0.279l6.579,-0.112c2.188,-0.047 4.364,-0.037 6.546,-0.054l-0.446,0.445l-0.054,-11.19l0.5,0.499l-13.24,-0.062c-4.414,-0.005 -8.828,-0.113 -13.241,-0.164l0.272,-0.273c-0.018,1.831 -0.085,3.674 -0.13,5.536l-0.142,5.654Z" style="fill:#e5e5e4;fill-rule:nonzero;"/><path d="M104.323,162.141l-0.142,-5.536c-0.045,-1.867 -0.113,-3.755 -0.131,-5.654l-0.003,-0.27l0.276,-0.002c4.413,-0.052 8.827,-0.159 13.24,-0.164l13.239,-0.063l0.503,-0.002l-0.002,0.501l-0.054,11.19l-0.002,0.449l-0.445,-0.003c-2.23,-0.018 -4.468,-0.008 -6.693,-0.055l-6.661,-0.112l-13.125,-0.279Zm-0,0l13.355,-0.278l6.58,-0.113c2.187,-0.047 4.363,-0.037 6.544,-0.054l-0.444,0.445l-0.054,-11.19l0.498,0.5l-13.239,-0.063c-4.413,-0.005 -8.827,-0.112 -13.24,-0.164l0.273,-0.273c-0.019,1.832 -0.086,3.674 -0.131,5.537l-0.142,5.653Z" style="fill:#e5e5e4;fill-rule:nonzero;"/><path d="M9.957,297.031l-0.142,-5.536c-0.045,-1.867 -0.113,-3.755 -0.131,-5.654l-0.003,-0.27l0.276,-0.003c4.413,-0.052 8.827,-0.159 13.24,-0.164l13.24,-0.062l0.502,-0.002l-0.002,0.501l-0.054,11.19l-0.002,0.449l-0.444,-0.004c-2.231,-0.017 -4.469,-0.007 -6.695,-0.054l-6.66,-0.113l-13.125,-0.278Zm-0,-0l13.355,-0.279l6.58,-0.112c2.187,-0.047 4.364,-0.038 6.545,-0.055l-0.445,0.446l-0.054,-11.19l0.499,0.5l-13.24,-0.064c-4.413,-0.005 -8.827,-0.112 -13.24,-0.163l0.273,-0.273c-0.019,1.832 -0.086,3.674 -0.131,5.536l-0.142,5.654Z" style="fill:#e5e5e4;fill-rule:nonzero;"/><path d="M15.047,49.953l-0.142,-5.536c-0.045,-1.866 -0.112,-3.755 -0.131,-5.653l-0.003,-0.27l0.276,-0.003c4.413,-0.051 8.827,-0.159 13.24,-0.164l13.24,-0.063l0.502,-0.002l-0.002,0.502l-0.054,11.189l-0.002,0.45l-0.444,-0.004c-2.231,-0.017 -4.469,-0.008 -6.694,-0.055l-6.661,-0.112l-13.125,-0.279Zm-0,0l13.355,-0.278l6.58,-0.112c2.188,-0.047 4.363,-0.038 6.545,-0.055l-0.445,0.445l-0.054,-11.189l0.499,0.499l-13.24,-0.063c-4.413,-0.005 -8.827,-0.112 -13.24,-0.164l0.272,-0.272c-0.018,1.831 -0.085,3.673 -0.13,5.536l-0.142,5.653Z" style="fill:#e5e5e4;fill-rule:nonzero;"/><path d="M0.275,64.063l-0.142,-5.536c-0.045,-1.867 -0.112,-3.755 -0.131,-5.653l-0.002,-0.27l0.275,-0.003c4.414,-0.051 8.827,-0.159 13.24,-0.164l13.241,-0.063l0.501,-0.002l-0.002,0.502l-0.054,11.189l-0.002,0.45l-0.443,-0.004c-2.232,-0.017 -4.469,-0.008 -6.695,-0.055l-6.661,-0.112l-13.125,-0.279Zm0,-0l13.356,-0.279l6.579,-0.111c2.188,-0.047 4.364,-0.038 6.546,-0.056l-0.446,0.446l-0.054,-11.189l0.5,0.499l-13.241,-0.063c-4.413,-0.005 -8.826,-0.112 -13.24,-0.164l0.273,-0.272c-0.019,1.831 -0.086,3.673 -0.131,5.535l-0.142,5.654Z" style="fill:#e5e5e4;fill-rule:nonzero;"/><path d="M323.321,12.497l-0.142,-5.536c-0.045,-1.867 -0.112,-3.755 -0.131,-5.654l-0.003,-0.27l0.276,-0.002c4.413,-0.052 8.827,-0.159 13.241,-0.164l13.24,-0.063l0.502,-0.002l-0.003,0.501l-0.054,11.19l-0.002,0.449l-0.443,-0.003c-2.232,-0.018 -4.47,-0.008 -6.695,-0.055l-6.662,-0.112l-13.124,-0.279Zm0,0l13.356,-0.278l6.579,-0.113c2.187,-0.047 4.364,-0.037 6.546,-0.054l-0.446,0.445l-0.054,-11.19l0.5,0.499l-13.24,-0.062c-4.414,-0.005 -8.828,-0.113 -13.241,-0.164l0.273,-0.273c-0.019,1.832 -0.086,3.674 -0.131,5.537l-0.142,5.653Z" style="fill:#e5e5e4;fill-rule:nonzero;"/><rect x="22.899" y="105.62" width="163.633" height="7.175" style="fill:#e5e5e4;fill-rule:nonzero;"/><rect x="170.18" y="112.799" width="7.179" height="23.733" style="fill:#e5e5e4;fill-rule:nonzero;"/><rect x="170.18" y="112.799" width="7.179" height="7.335" style="fill:#d3d5d4;fill-rule:nonzero;"/><rect x="32.068" y="112.799" width="7.179" height="23.733" style="fill:#e5e5e4;fill-rule:nonzero;"/><rect x="32.068" y="112.799" width="7.179" height="7.335" style="fill:#d3d5d4;fill-rule:nonzero;"/><rect x="144.472" y="59.89" width="11.516" height="45.732" style="fill:#bec0c1;fill-rule:nonzero;"/><rect x="144.472" y="57.445" width="11.516" height="5.025" style="fill:#d3d5d4;fill-rule:nonzero;"/><rect x="144.472" y="68.909" width="11.516" height="1.865" style="fill:#d3d5d4;fill-rule:nonzero;"/><rect x="143.037" y="94.598" width="12.951" height="5.025" style="fill:#d3d5d4;fill-rule:nonzero;"/><rect x="136.423" y="52.275" width="8.049" height="53.347" style="fill:#d3d5d4;fill-rule:nonzero;"/><rect x="138.067" y="57.29" width="4.831" height="20.519" style="fill:#e5e5e4;fill-rule:nonzero;"/><path d="M84.818,105.631l37.942,-37.501l-5.658,-5.725l-37.942,37.502l5.658,5.724Z" style="fill:#bec0c1;fill-rule:nonzero;"/><path d="M92.572,95.668l14.594,-14.424l-3.396,-3.435l-14.593,14.423l3.395,3.436Z" style="fill:#d3d5d4;fill-rule:nonzero;"/><rect x="122.76" y="65.11" width="13.668" height="40.521" style="fill:#9c9ea0;fill-rule:nonzero;"/><rect x="122.76" y="97.559" width="13.668" height="3.776" style="fill:#bec0c1;fill-rule:nonzero;"/><rect x="122.76" y="93.616" width="13.668" height="1.464" style="fill:#bec0c1;fill-rule:nonzero;"/><rect x="155.988" y="67.55" width="9.442" height="38.081" style="fill:#9c9ea0;fill-rule:nonzero;"/><rect x="155.988" y="98.045" width="9.442" height="3.549" style="fill:#bec0c1;fill-rule:nonzero;"/><rect x="155.988" y="75.399" width="9.442" height="3.55" style="fill:#bec0c1;fill-rule:nonzero;"/><rect x="155.988" y="81.38" width="9.442" height="1.376" style="fill:#bec0c1;fill-rule:nonzero;"/><path d="M55.986,56.839c8.056,7.885 9.408,20.086 7.71,30.772c-0.044,0.242 -0.419,0.176 -0.419,-0.052c0,-2.432 0.074,-4.843 0.066,-7.246c-0.044,-0.111 -0.081,-0.214 -0.125,-0.323c-2.102,-1.529 -4.034,-3.256 -5.233,-5.623c-1.344,-2.646 -1.874,-5.63 -2.902,-8.393c-0.096,-0.265 0.186,-0.187 0.371,-0.05c4.9,3.613 6.461,7.502 7.867,12.698c-0.066,-2.697 -0.272,-5.394 -0.852,-8.091c-1.059,-4.932 -3.153,-9.819 -6.695,-13.479c-0.133,-0.14 0.073,-0.353 0.212,-0.213Z" style="fill:#9c9ea0;fill-rule:nonzero;"/><path d="M54.473,57.758c-1.386,0.047 -2.255,2.262 -3.335,2.908c-0.571,0.344 -1.127,0.323 -1.528,-0.24c-1.071,-1.494 0.397,-3.337 1.778,-4.367c-0.987,0.406 -1.807,1.119 -2.871,1.321c-0.645,0.119 -1.146,-0.12 -1.296,-0.776c-0.469,-2.036 2.085,-2.942 3.837,-2.985c-0.849,-0.591 -3.284,-2.196 -1.991,-2.986c1.311,-0.792 4.168,1.503 5.101,2.26c1.369,1.111 3.003,2.772 3.065,4.51c0.08,2.029 -1.694,0.78 -2.76,0.355Z" style="fill:#d3d5d4;fill-rule:nonzero;"/><path d="M54.874,58.1c-1.772,-0.806 -5.176,0.353 -5.465,-0.317c-0.587,-1.365 2.133,-2.301 3.601,-2.482c-1.352,-0.367 -3.942,-0.95 -3.863,-2.254c0.097,-1.593 3.974,-0.223 5.936,1.281c2.472,1.895 2.455,3.724 2.047,4.09c-0.561,0.503 -1.964,-0.185 -2.256,-0.318Z" style="fill:#e5e5e4;fill-rule:nonzero;"/><path d="M74.331,56.058c-8.349,7.574 -10.164,19.714 -8.874,30.456c0.035,0.245 0.412,0.193 0.42,-0.035c0.093,-2.431 0.111,-4.842 0.21,-7.244c0.048,-0.108 0.089,-0.209 0.137,-0.318c2.158,-1.447 4.156,-3.1 5.443,-5.419c1.444,-2.593 2.087,-5.555 3.22,-8.277c0.106,-0.261 -0.179,-0.193 -0.369,-0.064c-5.033,3.424 -6.742,7.251 -8.345,12.39c0.169,-2.693 0.477,-5.38 1.16,-8.054c1.245,-4.887 3.524,-9.691 7.203,-13.214c0.137,-0.135 -0.06,-0.355 -0.205,-0.221Z" style="fill:#9c9ea0;fill-rule:nonzero;"/><path d="M75.809,57.034c1.383,0.1 2.167,2.346 3.221,3.033c0.558,0.365 1.115,0.365 1.538,-0.182c1.126,-1.452 -0.271,-3.349 -1.612,-4.432c0.971,0.444 1.763,1.188 2.819,1.431c0.64,0.142 1.149,-0.078 1.325,-0.727c0.546,-2.017 -1.972,-3.019 -3.721,-3.129c0.871,-0.558 3.365,-2.07 2.103,-2.908c-1.28,-0.841 -4.223,1.344 -5.183,2.064c-1.411,1.058 -3.106,2.656 -3.234,4.391c-0.158,2.024 1.662,0.844 2.744,0.459Z" style="fill:#d3d5d4;fill-rule:nonzero;"/><path d="M75.395,57.361c1.801,-0.738 5.158,0.55 5.473,-0.109c0.638,-1.342 -2.044,-2.381 -3.504,-2.618c1.365,-0.314 3.976,-0.799 3.946,-2.105c-0.037,-1.595 -3.962,-0.374 -5.98,1.055c-2.542,1.8 -2.595,3.628 -2.201,4.009c0.541,0.524 1.969,-0.111 2.266,-0.232Z" style="fill:#e5e5e4;fill-rule:nonzero;"/><path d="M65.793,76.061c-0.617,3.992 -1.38,8.118 -2.592,11.975c-0.116,0.352 -0.637,0.262 -0.584,-0.117c0.549,-3.691 1.549,-7.313 2.097,-11.003c0.557,-3.734 0.855,-7.52 0.641,-11.297c-0.352,-6.218 -2.04,-12.834 -6.098,-17.699c-0.089,-0.116 0.1,-0.279 0.192,-0.172c8.124,9.473 6.832,21.087 6.825,22.128c1.149,-3.922 2.335,-8.417 6.685,-12.41c0.188,-0.172 0.334,-0.09 0.303,0.202c-0.778,7.274 -2.8,11.072 -7.017,14.96c-0.12,1.153 -0.269,2.301 -0.452,3.433Z" style="fill:#9c9ea0;fill-rule:nonzero;"/><path d="M59.184,49.009c-1.462,-0.649 -3.478,1.212 -4.924,1.339c-0.766,0.069 -1.332,-0.232 -1.465,-1.019c-0.359,-2.089 2.092,-3.261 4.044,-3.636c-1.229,-0.076 -2.438,0.253 -3.645,-0.074c-0.728,-0.202 -1.127,-0.702 -0.954,-1.458c0.539,-2.349 3.644,-2.003 5.484,-1.165c-0.584,-1.041 -2.302,-3.932 -0.563,-4.1c1.76,-0.162 3.569,3.658 4.155,4.911c0.862,1.843 1.721,4.389 0.91,6.223c-0.938,2.146 -2.15,-0.042 -3.042,-1.021Z" style="fill:#d3d5d4;fill-rule:nonzero;"/><path d="M59.428,49.566c-1.433,-1.728 -5.548,-2.239 -5.511,-3.08c0.079,-1.711 3.372,-1.313 4.986,-0.763c-1.218,-1.061 -3.612,-2.97 -2.874,-4.283c0.903,-1.603 4.236,1.769 5.514,4.318c1.61,3.211 0.673,5.1 0.065,5.274c-0.834,0.239 -1.944,-1.181 -2.18,-1.466Z" style="fill:#e5e5e4;fill-rule:nonzero;"/><path d="M71.138,78.25l3.583,27.376l-21.803,0c0.449,-2.425 4.507,-27.407 4.507,-27.407l13.713,0.031Z" style="fill:#d3d5d4;fill-rule:nonzero;"/><path d="M413.62,218.049l-135.74,-0l0,-179.724l135.74,0l-0,179.724Zm-139.52,-183.504l0,187.284l143.301,-0l0,-187.284l-143.301,0Z" style="fill:#e5e5e4;fill-rule:nonzero;"/><path d="M413.62,38.326l-0,179.723l-64.511,-0l0,-178.742l-3.772,0l0,178.742l-67.457,-0l0,-179.723l135.74,-0Z" style="fill:#fff;fill-rule:nonzero;"/><rect x="345.337" y="39.307" width="3.772" height="180.627" style="fill:#e5e5e4;fill-rule:nonzero;"/><rect x="270.676" y="42.182" width="150.147" height="5.262" style="fill:#e5e5e4;fill-rule:nonzero;"/><rect x="270.676" y="48.102" width="150.147" height="5.262" style="fill:#e5e5e4;fill-rule:nonzero;"/><rect x="270.676" y="54.021" width="150.147" height="5.262" style="fill:#e5e5e4;fill-rule:nonzero;"/><rect x="270.676" y="59.941" width="150.147" height="5.261" style="fill:#e5e5e4;fill-rule:nonzero;"/><rect x="270.676" y="65.86" width="150.147" height="5.262" style="fill:#e5e5e4;fill-rule:nonzero;"/><rect x="270.676" y="71.78" width="150.147" height="5.261" style="fill:#e5e5e4;fill-rule:nonzero;"/><rect x="270.676" y="77.699" width="150.147" height="5.262" style="fill:#e5e5e4;fill-rule:nonzero;"/><rect x="270.676" y="83.618" width="150.147" height="5.262" style="fill:#e5e5e4;fill-rule:nonzero;"/><rect x="270.676" y="89.538" width="150.147" height="5.262" style="fill:#e5e5e4;fill-rule:nonzero;"/><rect x="281.9" y="41.116" width="0.944" height="121.279" style="fill:#d3d5d4;fill-rule:nonzero;"/><path d="M280.693,166.795l3.353,-0l-0.841,-4.818l-1.672,0l-0.84,4.818Z" style="fill:#d3d5d4;fill-rule:nonzero;"/><rect x="278.494" y="41.116" width="0.945" height="175.449" style="fill:#d3d5d4;fill-rule:nonzero;"/><path d="M277.29,220.106l3.354,0l-0.841,-4.817l-1.672,0l-0.841,4.817Z" style="fill:#d3d5d4;fill-rule:nonzero;"/><rect x="264.813" y="33.805" width="161.875" height="11.008" style="fill:#d3d5d4;fill-rule:nonzero;"/><path d="M53.019,272.119c-0.779,3.312 -1.602,6.571 -1.763,9.971c0.091,0.166 0.073,0.783 -0.026,0.615c-0.02,0.548 -0.854,0.448 -0.854,-0.092c0.008,-0.352 0.017,-0.705 0.034,-1.047c-1.948,-2.419 -4.777,-3.951 -7.063,-6.053c-1.849,-1.702 -3.172,-3.729 -3.871,-6.161c-1.897,-6.536 -0.119,-13.462 -2.4,-19.98c-1.966,-5.621 -5.493,-10.508 -8.478,-15.601c-3.15,-5.385 -5.474,-11.045 -5.707,-17.352c-0.186,-4.831 0.39,-11.267 4.069,-14.885c3.9,-3.841 8.733,-0.963 11.721,2.461c8.657,9.936 12.663,22.491 14.282,35.33c0.893,7.106 1.82,14.254 1.606,21.427c-0.121,3.854 -0.675,7.623 -1.55,11.367Z" style="fill:#fec130;fill-rule:nonzero;"/><path d="M51.295,284.698c0.447,-6.715 0.419,-13.441 -0.238,-20.129l0.033,-0.074c0.109,-5.44 0.541,-10.86 0.328,-16.308c-0.232,-5.919 -1.099,-11.719 -2.396,-17.493l-0.106,0.018c1.068,5.631 1.688,11.378 1.894,17.106c0.11,3.073 0.088,6.151 -0.074,9.223c-0.053,0.999 -0.146,2.006 -0.212,3.014l-0.001,-0.009c-2.194,-15.314 -7.847,-29.84 -16.189,-42.841c-0.113,-0.177 -0.427,0.013 -0.316,0.193c6.008,9.81 10.437,20.585 13.176,31.765c-4.163,-7.713 -10.45,-14.056 -15.115,-21.467l-0.071,0.044c4.19,8.25 11.114,14.757 15.528,22.887c0.765,3.312 1.392,6.657 1.859,10.022c0.64,4.619 0.941,9.268 1.004,13.923c-2.536,-4.74 -5.168,-9.273 -7.243,-14.286c-0.055,-0.134 -0.246,-0.043 -0.201,0.091c1.764,5.207 4.137,10.815 7.457,15.257c0.018,3.295 -0.079,6.592 -0.273,9.884c-0.518,8.788 -2.019,17.459 -2.713,26.219c-0.021,0.264 0.35,0.295 0.402,0.044c1.825,-8.843 2.866,-18.08 3.467,-27.083Z" style="fill:#0c2b34;fill-rule:nonzero;"/><path d="M41.962,216.924l-0.098,0.044c1.605,4.438 2.513,8.935 3.672,13.486c0.053,0.207 0.354,0.163 0.332,-0.055c-0.472,-4.616 -2.12,-9.22 -3.906,-13.475Z" style="fill:#0c2b34;fill-rule:nonzero;"/><path d="M82.723,235.527c-1.04,2.607 -2.332,5.131 -3.692,7.584c-2.89,5.249 -5.905,10.059 -6.451,16.171c-0.243,2.729 -0.33,5.471 -1.162,8.101c-0.718,2.275 -1.885,4.376 -3.228,6.34c-3.133,4.564 -7.049,8.497 -9.952,13.232c-3.021,4.921 -5.248,10.336 -6.612,15.944c-0.072,0.307 -0.556,0.224 -0.484,-0.083l0.018,-0.069l-0.029,-0.065c-0.459,-13.105 0.586,-26.314 4.584,-38.869c1.749,-5.488 3.904,-10.949 6.351,-16.167c2.141,-4.552 4.81,-8.929 8.569,-12.331c2.439,-2.196 7.73,-6.36 11.203,-4.157c1.666,1.061 1.542,2.733 0.885,4.369Z" style="fill:#fec130;fill-rule:nonzero;"/><path d="M69.552,265.237c-2.248,3.842 -4.912,7.418 -7.616,10.948c-1.269,1.657 -2.555,3.299 -3.822,4.958c-0.599,0.784 -1.27,1.564 -1.819,2.406c0.346,-1.378 0.684,-2.758 1.035,-4.135c1.691,-6.622 3.317,-13.301 5.835,-19.667c2.462,-6.225 5.737,-12.068 9.1,-17.84c0.088,-0.151 -0.156,-0.262 -0.246,-0.114c-2.769,4.554 -5.58,9.102 -7.908,13.903c-1.301,2.683 -2.395,5.442 -3.356,8.25c1.132,-6.018 2.488,-11.8 4.468,-17.627l-0.079,-0.037c-2.415,5.715 -4.153,12.142 -4.637,18.335l0.009,0.03c-0.568,1.701 -1.09,3.42 -1.577,5.152c-2.065,7.332 -3.878,14.74 -5.558,22.174c0.028,-4.909 0.337,-9.729 1.264,-14.573c0.021,-0.111 -0.145,-0.137 -0.172,-0.029c-1.217,4.988 -1.768,10.238 -1.265,15.363c-0.636,2.827 -1.254,5.657 -1.858,8.489c-1.288,6.041 -2.871,12.19 -3.623,18.324c-0.02,0.159 0.2,0.192 0.242,0.041c0.898,-3.307 1.441,-6.735 2.176,-10.081c0.737,-3.359 1.497,-6.712 2.279,-10.06c1.138,-4.876 2.331,-9.738 3.545,-14.596c0.811,-1.782 2.381,-3.362 3.557,-4.856c1.29,-1.64 2.581,-3.279 3.836,-4.945c2.338,-3.103 4.483,-6.326 6.306,-9.758l-0.116,-0.055Z" style="fill:#0c2b34;fill-rule:nonzero;"/><path d="M70.111,259.632c-2.842,3.648 -5.422,7.687 -7.453,11.842l0.09,0.058c2.508,-3.931 4.975,-7.892 7.479,-11.826l-0.116,-0.074Z" style="fill:#0c2b34;fill-rule:nonzero;"/><path d="M14.322,247.952c1.699,2.926 3.637,6.438 2.908,9.95c-0.462,2.225 -2.09,4.028 -2.383,6.296c-0.658,5.006 4.33,8.314 7.941,10.679c8.998,5.904 21.34,11.169 22.976,23.226c0.063,0.427 0.801,0.321 0.747,-0.097l-0.018,-0.08l0.045,-0.072c1.165,-6.109 1.138,-12.333 -0.169,-18.415c-1.342,-6.216 -4.055,-11.8 -7.256,-17.259c-5.415,-9.239 -11.15,-18.701 -19.34,-25.778c-2.267,-1.957 -6.909,-5.477 -8.714,-1.058c-1.752,4.295 1.183,9.043 3.263,12.608Z" style="fill:#fec130;fill-rule:nonzero;"/><path d="M22.559,267.541c5.966,6.459 15.451,10.08 20.588,17.315c-3.044,-11.09 -8.08,-21.06 -15.824,-29.721c-0.198,-0.223 0.112,-0.538 0.329,-0.329c5.669,5.448 9.867,11.817 12.931,18.726c-1.378,-4.934 -3.305,-9.601 -5.568,-14.239c-0.086,-0.175 0.163,-0.326 0.264,-0.155c2.884,4.917 4.801,10.439 6.001,16.006c6.767,16.383 7.394,35.596 5.976,52.864c-0.02,0.246 -0.396,0.253 -0.389,0c0.389,-13.609 0.169,-27.453 -3.092,-40.744c-0.069,-0.277 -0.144,-0.55 -0.214,-0.827c-5.588,-7.788 -15.032,-11.397 -21.105,-18.793l0.103,-0.103Z" style="fill:#0c2b34;fill-rule:nonzero;"/><path d="M21.176,261.994c3.132,2.873 6.215,5.811 9.352,8.684l-0.046,0.059c-3.414,-2.309 -6.882,-5.363 -9.493,-8.557c-0.106,-0.129 0.059,-0.303 0.187,-0.186Z" style="fill:#0c2b34;fill-rule:nonzero;"/><path d="M20.681,249.544c2.844,4.559 5.827,8.835 9.37,12.889l-0.078,0.08c-3.803,-3.664 -7.182,-8.095 -9.46,-12.871c-0.053,-0.112 0.101,-0.206 0.168,-0.098Z" style="fill:#0c2b34;fill-rule:nonzero;"/><path d="M34.782,340.185l27.434,-0l-3.697,-36.911l-19.512,0l-4.225,36.911Z" style="fill:#335863;fill-rule:nonzero;"/><path d="M38.319,309.274l20.804,0l-0.602,-6l-19.515,0l-0.687,6Z" style="fill:#0c2b34;fill-rule:nonzero;"/><rect x="35.641" y="299.185" width="25.717" height="5.894" style="fill:#335863;fill-rule:nonzero;"/><path d="M9.794,340.185l52.428,-0.243l52.428,-0.088l104.856,-0.168l104.855,0.167l52.428,0.087l52.429,0.245l-52.429,0.245l-52.428,0.087l-104.855,0.167l-104.856,-0.168l-52.428,-0.087l-52.428,-0.244Z" style="fill:#0c2b34;fill-rule:nonzero;"/><path d="M424.497,396.077c0,8.242 -91.777,14.924 -204.991,14.924c-113.213,0 -204.991,-6.682 -204.991,-14.924c0,-8.242 91.778,-14.924 204.991,-14.924c113.214,-0 204.991,6.682 204.991,14.924Z" style="fill:#e5e5e4;fill-rule:nonzero;"/><path d="M273.024,396.881c2,0.714 59.603,1.726 61.819,0.37c0.851,-0.5 1.488,-8.885 1.967,-19.038c0.004,-0.107 0.008,-0.212 0.011,-0.319c0.104,-2.091 1.43,-38.399 1.43,-38.399l-37.409,-0.521l-1.176,37.852l0.003,0.631c0,0 -22.222,9.474 -24.503,11.222c-2.263,1.741 -4.142,7.498 -2.142,8.202Z" style="fill:#f69081;fill-rule:nonzero;"/><path d="M334.841,397.246c-2.214,1.356 -59.816,0.352 -61.816,-0.368c-2.006,-0.702 -0.117,-6.458 2.139,-8.197c1.231,-0.939 8.233,-4.121 14.44,-6.856c-7.697,4.475 -13.011,9.754 16.471,6.84c17.35,-1.711 26.113,-3.252 30.403,-4.239c-0.429,7.169 -0.971,12.431 -1.637,12.82Z" style="fill:#0c2b34;fill-rule:nonzero;"/><path d="M350.07,168.087c0,0 -9.391,97.569 -10.8,104.998c-0.327,1.692 -0.877,95.433 -0.877,95.433l-39.327,-0.598c0,-0 3.828,-80.637 5.625,-95.477c1.798,-14.847 10.222,-104.356 10.222,-104.356l35.157,0Z" style="fill:#0c2b34;fill-rule:nonzero;"/><path d="M337.184,360.323c-1.16,-0.199 -2.374,-0.206 -3.548,-0.261c-1.185,-0.053 -2.368,-0.115 -3.553,-0.161c-2.326,-0.09 -4.652,-0.193 -6.978,-0.273c-4.74,-0.165 -9.478,-0.323 -14.216,-0.498c-2.667,-0.098 -5.336,-0.101 -8.004,-0.076c-0.103,0.001 -0.109,0.149 -0.006,0.16c9.425,0.95 18.948,1.15 28.415,1.38c1.355,0.033 2.709,0.051 4.064,0.07c1.273,0.017 2.584,0.089 3.852,-0.057c0.177,-0.02 0.118,-0.259 -0.026,-0.284Z" style="fill:#23434c;fill-rule:nonzero;"/><path d="M344.761,172.386c-2.869,23.791 -5.736,47.587 -8.111,71.434c-1.178,11.826 -2.284,23.67 -3.018,35.532c-0.741,11.958 -1.034,23.929 -1.199,35.908c-0.188,13.539 -0.505,27.087 -0.29,40.627c0.002,0.129 0.193,0.122 0.2,-0.005c1.176,-23.928 0.841,-47.907 2.108,-71.835c1.27,-23.95 3.868,-47.775 6.502,-71.606c1.473,-13.33 2.857,-26.668 4.233,-40.008c0.025,-0.24 -0.396,-0.288 -0.425,-0.047Z" style="fill:#23434c;fill-rule:nonzero;"/><path d="M355.196,396.686c2.118,0.163 57.961,-13.999 59.744,-15.889c0.689,-0.706 -0.901,-8.964 -3.107,-18.886c-0.024,-0.104 -0.048,-0.207 -0.072,-0.311c-0.45,-2.044 -12.218,-36.42 -12.218,-36.42l-36.23,9.329l12.318,35.826l0.169,0.607c-0,0 -18.951,14.982 -20.692,17.268c-1.727,2.274 -2.028,8.322 0.088,8.476Z" style="fill:#f69081;fill-rule:nonzero;"/><path d="M414.936,380.793c-1.78,1.889 -57.62,16.059 -59.74,15.889c-2.12,-0.149 -1.81,-6.2 -0.09,-8.469c0.94,-1.231 6.86,-6.14 12.13,-10.41c-6.25,6.339 -9.99,12.83 17.69,2.27c16.29,-6.21 24.34,-10 28.22,-12.08c1.47,7.03 2.33,12.25 1.79,12.8Z" style="fill:#0c2b34;fill-rule:nonzero;"/><path d="M372.142,367.534l39.836,-9.603c-0,-0 -29.823,-77.615 -31.506,-82.825c-1.223,-3.782 -11.109,-49.938 -14.58,-70.103c-0,0 5.188,-14.718 -6.436,-36.949l-44.543,0c-0,0 1.045,21.155 6.394,34.569c0,0 4.074,1.263 10.366,4.732c0,-0 12.754,72.185 14.852,78.767c4.541,14.241 25.617,81.412 25.617,81.412Z" style="fill:#0c2b34;fill-rule:nonzero;"/><path d="M338.761,245.992c-1.605,-8.504 -3.193,-17.011 -4.785,-25.517c-0.451,-2.401 -0.953,-4.79 -1.451,-7.182c-0.496,-2.373 -0.927,-4.805 -1.613,-7.13c-0.044,-0.149 -0.283,-0.116 -0.273,0.044c0.127,2.172 0.527,4.335 0.815,6.492c0.279,2.096 0.6,4.194 0.956,6.278c0.734,4.287 1.53,8.562 2.342,12.833c1.622,8.527 3.239,17.082 5.222,25.534c1.116,4.757 2.156,9.533 3.338,14.273c0.025,0.102 0.17,0.053 0.153,-0.046c-1.488,-8.54 -3.097,-17.06 -4.704,-25.579Z" style="fill:#23434c;fill-rule:nonzero;"/><path d="M329.376,196.742c0.601,-1.486 0.123,-3.197 -0.148,-4.702c-0.344,-1.913 -0.68,-3.828 -1.033,-5.74c-0.795,-4.313 -1.671,-8.611 -2.598,-12.898l-0.078,0.013c0.42,3.43 0.882,6.853 1.381,10.273c0.5,3.436 1.164,6.862 1.585,10.308c0.137,1.118 0.044,3.313 -1.573,3.323c-1.362,0.007 -2.188,-2.033 -2.627,-3.04c-1.298,-2.985 -1.83,-6.279 -2.489,-9.447c-0.791,-3.793 -1.435,-7.618 -2.098,-11.435c-0.022,-0.129 -0.234,-0.092 -0.226,0.036c0.23,3.797 0.724,7.554 1.337,11.307c0.583,3.565 1.142,7.315 2.641,10.629c0.564,1.247 1.351,2.779 2.789,3.168c0.211,0.057 0.417,0.075 0.62,0.075c0.124,1.139 0.297,2.268 0.534,3.39c0.244,1.16 0.488,2.358 0.904,3.47c0.058,0.151 0.273,0.095 0.264,-0.045l0.007,0.001c-0.053,-1.165 -0.298,-2.339 -0.52,-3.483c-0.219,-1.135 -0.509,-2.248 -0.845,-3.353c0.974,-0.147 1.789,-0.902 2.173,-1.85Z" style="fill:#23434c;fill-rule:nonzero;"/><path d="M336.844,207.874c-2.217,-1.032 -4.677,-1.798 -7.066,-2.344c-2.419,-0.552 -4.66,-0.774 -7.115,-0.973l-0.017,0.158c2.379,0.368 11.799,2.685 14.154,3.269l0.044,-0.11Z" style="fill:#23434c;fill-rule:nonzero;"/><path d="M394.938,329.673c-2.129,-5.662 -4.262,-11.325 -6.399,-16.984c-4.237,-11.223 -8.599,-22.399 -12.815,-33.631c-4.163,-11.091 -5.946,-22.888 -8.222,-34.49c-1.16,-5.912 -2.304,-11.828 -3.475,-17.739c-1.159,-5.855 -2.557,-11.724 -3.242,-17.661c-0.67,-5.807 0.201,-11.619 -0.309,-17.427c-0.456,-5.19 -1.857,-10.265 -4.095,-14.948c-0.57,-1.192 -1.199,-2.349 -1.88,-3.479c-0.081,-0.133 -0.275,-0.008 -0.202,0.128c2.598,4.854 4.355,10.109 5.144,15.582c0.391,2.711 0.504,5.437 0.432,8.175c-0.077,2.93 -0.284,5.861 -0.145,8.793c0.278,5.86 1.641,11.634 2.761,17.37c1.144,5.857 2.307,11.709 3.46,17.564c1.164,5.911 2.335,11.821 3.491,17.735c1.125,5.757 2.28,11.5 4.144,17.064c1.87,5.585 4.06,11.068 6.148,16.57c2.145,5.658 4.283,11.318 6.447,16.968c4.308,11.251 8.528,22.544 13.03,33.716c0.525,1.302 1.057,2.593 1.627,3.875c0.076,0.17 0.347,0.04 0.291,-0.133c-1.833,-5.76 -4.066,-11.395 -6.191,-17.048Z" style="fill:#23434c;fill-rule:nonzero;"/><path d="M407.404,349.591c-1.168,0.146 -2.331,0.492 -3.47,0.781c-1.149,0.292 -2.299,0.577 -3.446,0.878c-2.253,0.589 -4.508,1.166 -6.758,1.765c-4.582,1.218 -9.162,2.442 -13.746,3.652c-2.582,0.681 -5.136,1.453 -7.682,2.251c-0.098,0.031 -0.061,0.175 0.041,0.155c9.294,-1.828 18.465,-4.402 27.591,-6.932c1.305,-0.362 2.607,-0.737 3.909,-1.114c1.224,-0.353 2.499,-0.665 3.669,-1.173c0.164,-0.07 0.038,-0.282 -0.108,-0.263Z" style="fill:#23434c;fill-rule:nonzero;"/><path d="M331.628,111.339c4.203,6.848 10.404,14.36 11.108,22.658c0.543,6.504 -2.424,12.728 -6.258,17.793c-8.44,11.133 -23.735,20.436 -37.705,13.675c-5.579,-2.702 -11.224,-11.638 -7.908,-17.888c1.707,-3.204 4.653,-5.357 7.21,-7.836c3.382,-3.26 5.014,-7.075 4.805,-11.79c-0.397,-9.187 -4.031,-14.065 -7.657,-22.234c-0.668,-1.518 -1.118,-3.13 -0.365,-5.138c0.515,-1.913 1.683,-3.673 3.202,-5.124c1.174,-1.441 2.566,-2.673 4.299,-3.402c3.651,-1.549 8.723,-0.2 12.49,0.305c3.812,0.514 6.215,1.923 8.299,5.197c2.892,4.551 5.653,9.189 8.48,13.784Z" style="fill:#0c2b34;fill-rule:nonzero;"/><path d="M334.328,114.169c-4.258,-6.029 -8.627,-11.965 -12.962,-17.934l-0.061,0.035c3.424,5.016 6.775,10.072 10.266,15.045c3.421,4.873 7.274,9.649 10.255,14.805c6.695,11.574 -2.697,22.992 -12.96,27.924c-0.466,0.224 -0.057,0.942 0.409,0.7c8.873,-4.613 17.659,-13.38 15.039,-24.347c-1.434,-5.999 -6.505,-11.3 -9.986,-16.228Z" style="fill:#0c2b34;fill-rule:nonzero;"/><path d="M295.447,104.79c-0.072,-0.123 -0.253,-0.015 -0.19,0.111c3.267,6.595 7.693,13.977 7.132,21.606c-0.276,3.733 -1.694,7.366 -4.045,10.283c-1.869,2.319 -4.383,3.823 -6.634,5.717c-8.802,7.405 -1.517,20.792 8.537,22.022c0.211,0.026 0.264,-0.337 0.052,-0.372c-7.278,-1.23 -12.992,-7.624 -11.847,-15.274c0.919,-6.14 8.025,-8.286 11.244,-13.107c6.672,-9.991 1.119,-21.755 -4.249,-30.986Z" style="fill:#0c2b34;fill-rule:nonzero;"/><path d="M319.245,134.2c-3.54,12.122 -9.769,32.391 -19.106,37.427c-7.509,4.05 -29.851,11.113 -36.381,11.389c-5.506,0.233 -7.437,-22.654 -3.034,-23.611c5.492,-1.194 26.767,-5.327 28.734,-6.331c1.792,-0.915 10.033,-10.662 21.612,-22.586c6.415,-6.606 9.945,-2.345 8.175,3.712Z" style="fill:#f69081;fill-rule:nonzero;"/><path d="M270.296,180.595c-2.319,1.665 -13.622,8.361 -17.185,9.521c-3.562,1.16 -14.055,3.754 -15.22,1.116c-1.166,-2.638 1.845,-3.643 1.845,-3.643c-0,0 -4.604,0.394 -5.535,-2.368c-0.93,-2.763 3.806,-4.173 3.806,-4.173c0,0 -4.759,0.06 -5.49,-2.762c-0.732,-2.821 4.268,-3.441 4.268,-3.441c0,0 -4.347,0.257 -3.972,-2.321c0.452,-3.101 8.521,-2.67 12.357,-4.245c0.872,-0.358 17.144,-8.509 17.144,-8.509l7.982,20.825Z" style="fill:#f69081;fill-rule:nonzero;"/><path d="M236.358,174.907c5.934,0.303 8.584,-0.591 13.683,-3.458c0.099,-0.056 0.205,0.08 0.107,0.148c-4.739,3.261 -7.9,4.862 -13.82,3.596c-0.29,-0.061 -0.253,-0.301 0.03,-0.286Z" style="fill:#0c2b34;fill-rule:nonzero;"/><path d="M237.535,181.016c6.192,-0.224 9.074,-1.168 14.635,-3.777l0.073,0.136c-5.242,3.016 -8.431,4.541 -14.647,3.952c-0.282,-0.027 -0.344,-0.301 -0.061,-0.311Z" style="fill:#0c2b34;fill-rule:nonzero;"/><path d="M240.016,187.447c5.978,-0.649 9.182,-1.549 14.257,-4.775c0.12,-0.076 0.242,0.091 0.129,0.179c-4.854,3.793 -8.844,4.945 -14.347,4.776c-0.376,-0.012 -0.416,-0.139 -0.039,-0.18Z" style="fill:#0c2b34;fill-rule:nonzero;"/><path d="M266.56,160.055c-0,-0 -7.047,-2.403 -10.377,-2.775c-3.328,-0.372 -16.245,2.806 -15.717,5.635c0.682,3.652 8.5,3.286 12.306,2.606c0,-0 1.569,8.451 7.237,9.402c5.667,0.951 6.551,-14.868 6.551,-14.868Z" style="fill:#f69081;fill-rule:nonzero;"/><path d="M240.983,163.857c3.024,2.883 7.961,1.668 11.703,1.284c0.284,-0.028 0.408,0.19 0.387,0.412c0.895,3.498 3.174,8.171 6.743,9.506c0.104,0.039 0.064,0.193 -0.047,0.168c-4.022,-0.912 -6.636,-5.321 -7.37,-9.215c-3.832,0.454 -8.836,1.454 -11.446,-2.127l0.03,-0.028Z" style="fill:#0c2b34;fill-rule:nonzero;"/><path d="M312.728,157.158l-17.116,-13.191c-0,0 9.47,-11.755 16.956,-16.929c7.486,-5.173 9.615,-0.118 7.504,8.491c-2.11,8.609 -7.344,21.629 -7.344,21.629Z" style="fill:#fec130;fill-rule:nonzero;"/><path d="M295.657,143.911l-0.001,-0.001c0.009,-0.009 0.018,-0.02 0.029,-0.033c-0.011,0.013 -0.02,0.024 -0.028,0.034Zm1.879,-2.246c0.118,-0.141 0.241,-0.287 0.373,-0.435c-0.128,0.15 -0.253,0.295 -0.373,0.435Zm1.519,-1.749l-0.001,-0.002c0.185,-0.211 0.378,-0.43 0.576,-0.654l0.004,0.003c-0.199,0.223 -0.392,0.44 -0.579,0.653Zm1.745,-1.947c0.185,-0.212 0.384,-0.424 0.588,-0.642l0.001,0.001c-0.2,0.216 -0.396,0.43 -0.589,0.641Zm1.778,-1.912l-0.002,-0.002c0.193,-0.206 0.391,-0.418 0.601,-0.63l0.001,0.002c-0.202,0.211 -0.402,0.421 -0.6,0.63Zm1.816,-1.877l-0.003,-0.002c0.169,-0.171 0.338,-0.341 0.515,-0.512c-0.172,0.172 -0.343,0.343 -0.512,0.514Zm1.866,-1.838l-0.005,-0.004c0.211,-0.2 0.421,-0.4 0.632,-0.599l0.004,0.004c-0.211,0.198 -0.422,0.399 -0.631,0.599Zm2.142,-1.979c0.141,-0.126 0.282,-0.252 0.423,-0.378l0.003,0.003c-0.142,0.124 -0.284,0.249 -0.426,0.375Zm1.89,-1.607c0.182,-0.15 0.368,-0.297 0.554,-0.444l0,0.001c-0.184,0.145 -0.369,0.292 -0.554,0.443Zm2.164,-1.639c0.03,-0.022 0.061,-0.044 0.092,-0.064c-0.031,0.021 -0.061,0.042 -0.092,0.064Zm0.373,-0.256c0.052,-0.036 0.103,-0.071 0.155,-0.104l0.001,0.001c-0.052,0.034 -0.104,0.068 -0.156,0.103Zm2.056,-1.186c0.169,-0.082 0.333,-0.155 0.494,-0.219l0.001,0.001c-0.161,0.066 -0.326,0.138 -0.495,0.218Z" style="fill:#05252d;fill-rule:nonzero;"/><path d="M301.633,148.606l-5.571,-4.293l-0.405,-0.402c0.008,-0.01 0.017,-0.021 0.028,-0.034c0.096,-0.113 0.272,-0.336 0.535,-0.646l5.062,5.027l-0.036,0.045l0.363,0.28l0.024,0.023Zm0.756,-1.702l-5.043,-5.007c0.062,-0.076 0.125,-0.153 0.19,-0.232c0.12,-0.14 0.245,-0.285 0.374,-0.435l5.032,4.997l-0.553,0.677Zm1.66,-2.03l-4.994,-4.958c0.187,-0.213 0.38,-0.43 0.579,-0.653l4.968,4.934l-0.553,0.677Zm1.66,-2.031l-4.909,-4.874c0.193,-0.211 0.389,-0.425 0.589,-0.641l4.873,4.838l-0.553,0.677Zm1.659,-2.03l-4.79,-4.756c0.198,-0.209 0.398,-0.419 0.6,-0.63l4.744,4.709l-0.554,0.677Zm1.66,-2.031l-4.634,-4.602c0.169,-0.171 0.34,-0.342 0.512,-0.514c0.036,-0.035 0.073,-0.071 0.111,-0.106l4.57,4.538l-0.559,0.684Zm1.655,-2.048l-4.423,-4.392c0.209,-0.2 0.42,-0.401 0.631,-0.599l4.158,4.129c-0.122,0.285 -0.244,0.572 -0.366,0.862Zm1.112,-2.574l-3.62,-3.594c0.076,-0.068 0.152,-0.136 0.227,-0.203c0.142,-0.126 0.284,-0.251 0.426,-0.375l3.346,3.322c-0.125,0.278 -0.251,0.562 -0.379,0.85Zm1.149,-2.538l-2.78,-2.76c0.042,-0.036 0.085,-0.071 0.128,-0.106c0.185,-0.151 0.37,-0.298 0.554,-0.443l2.489,2.471c-0.126,0.269 -0.257,0.548 -0.391,0.838Zm1.19,-2.497l-1.875,-1.862c0.064,-0.048 0.13,-0.098 0.197,-0.146c0.031,-0.022 0.061,-0.043 0.092,-0.064c0.007,-0.005 0.014,-0.01 0.021,-0.015c0.089,-0.058 0.175,-0.118 0.26,-0.177c0.052,-0.035 0.104,-0.069 0.156,-0.103l1.559,1.547c-0.124,0.243 -0.261,0.517 -0.41,0.82Zm1.339,-2.35l-0.932,-0.925c0.117,-0.062 0.231,-0.121 0.344,-0.175c0.169,-0.08 0.334,-0.152 0.495,-0.218l0.663,0.658c-0.195,0.211 -0.385,0.432 -0.57,0.66Z" style="fill:#f7b31f;fill-rule:nonzero;"/><path d="M298.867,141.56c2.772,1.882 10.134,7.213 14.442,11.334l-0.089,0.119c-4.12,-2.854 -11.892,-9.156 -14.481,-11.282l0.128,-0.171Z" style="fill:#0c2b34;fill-rule:nonzero;"/><path d="M306.393,152.275l-4.784,-3.692l-0.327,-0.325l1.107,-1.354l3.878,3.85c-0.004,0.132 -0.004,0.257 -0,0.377c0.013,0.386 0.057,0.768 0.126,1.144Zm-0.019,-2.641l-3.432,-3.407l0.538,-0.658c1.018,0.814 2.104,1.675 3.194,2.528c-0.129,0.55 -0.23,1.065 -0.3,1.537Z" style="fill:#f7b31f;fill-rule:nonzero;"/><path d="M306.267,150.754l-3.878,-3.85l0.553,-0.677l3.432,3.407c-0.06,0.408 -0.097,0.782 -0.107,1.12Zm-4.658,-2.171l-0.363,-0.28l0.036,-0.045l0.327,0.325Z" style="fill:#d9a024;fill-rule:nonzero;"/><path d="M307.055,146.632l-2.453,-2.435l1.107,-1.354l1.921,1.908c-0.212,0.65 -0.405,1.278 -0.575,1.881Zm-1.275,-0.039c-0.66,-0.507 -1.31,-0.998 -1.938,-1.466l0.207,-0.253l1.731,1.719Zm2.158,-2.762l-1.676,-1.665l1.106,-1.353l1.215,1.206c-0.225,0.613 -0.441,1.219 -0.645,1.812Zm0.98,-2.706l-0.996,-0.989l1.106,-1.354l0.579,0.574c-0.235,0.59 -0.466,1.181 -0.689,1.769Zm1.045,-2.654l-0.376,-0.373l1.075,-1.314c-0.234,0.555 -0.468,1.119 -0.699,1.687Z" style="fill:#f7b31f;fill-rule:nonzero;"/><path d="M306.842,147.415c-0.356,-0.278 -0.71,-0.552 -1.062,-0.822l-1.731,-1.719l0.553,-0.677l2.453,2.435c-0.076,0.267 -0.147,0.528 -0.213,0.783Zm0.788,-2.664l-1.921,-1.908l0.553,-0.677l1.676,1.665c-0.106,0.31 -0.209,0.617 -0.308,0.92Zm0.953,-2.732l-1.215,-1.206l0.554,-0.677l0.996,0.989c-0.113,0.299 -0.225,0.598 -0.335,0.894Zm1.024,-2.663l-0.579,-0.574l0.559,-0.684l0.376,0.373c-0.12,0.294 -0.239,0.589 -0.356,0.885Z" style="fill:#d9a024;fill-rule:nonzero;"/><path d="M306.674,148.097c-1.09,-0.853 -2.176,-1.714 -3.194,-2.528l0.362,-0.442c0.628,0.468 1.278,0.959 1.938,1.466c0.352,0.27 0.706,0.544 1.062,0.822c-0.06,0.232 -0.117,0.46 -0.168,0.682Z" style="fill:#05252d;fill-rule:nonzero;"/><path d="M313.255,180.642l49.167,-9.89c-0,-0 -21.602,-37.089 -34.128,-45.562c-5.7,-3.856 -10.012,-2.087 -13.093,1.929c-0.768,1.003 -9.122,18.589 -8.934,24.012c0.166,4.794 5.058,9.041 5.058,9.041l1.93,20.47Z" style="fill:#fec130;fill-rule:nonzero;"/><path d="M317.902,156.585c2.119,-0.189 4.264,-0.293 6.413,-0.103c1.069,0.095 2.131,0.249 3.199,0.429c0.531,0.089 1.061,0.158 1.594,0.224c0.545,0.067 1.126,0.114 1.662,0.02l0.018,0.09c-0.512,0.129 -1.003,0.251 -1.532,0.295c-0.502,0.044 -1.017,0.022 -1.525,-0.018c-1.084,-0.084 -2.169,-0.228 -3.254,-0.325c-2.187,-0.196 -4.373,-0.391 -6.555,-0.4c-0.101,-0 -0.12,-0.203 -0.02,-0.212Z" style="fill:#0c2b34;fill-rule:nonzero;"/><path d="M313.278,159.918c1.651,-0.577 3.355,-1.066 5.066,-1.41c0.861,-0.173 1.727,-0.285 2.603,-0.369c0.418,-0.041 0.838,-0.071 1.258,-0.097c0.462,-0.027 0.933,0.02 1.394,-0.016l0.018,0.091c-0.432,0.049 -0.854,0.185 -1.281,0.265c-0.43,0.08 -0.86,0.155 -1.29,0.235c-0.86,0.16 -1.718,0.331 -2.58,0.481c-1.727,0.3 -3.441,0.62 -5.152,0.992c-0.093,0.02 -0.121,-0.142 -0.036,-0.172Z" style="fill:#0c2b34;fill-rule:nonzero;"/><path d="M355.178,190.768l-30.969,24.747l-32.326,-40.45l23.35,-18.659l13.708,1.53l26.237,32.832Z" style="fill:#335863;fill-rule:nonzero;"/><path d="M328.941,157.936l-7.62,6.09l-6.088,-7.62l13.708,1.53Z" style="fill:#0c2b34;fill-rule:nonzero;"/><path d="M310.435,183.597c1.023,1.272 2.884,1.474 4.157,0.451c1.272,-1.024 1.474,-2.885 0.45,-4.157c-1.023,-1.273 -2.884,-1.474 -4.157,-0.451c-1.272,1.024 -1.474,2.885 -0.45,4.157Z" style="fill:#fff;fill-rule:nonzero;"/><path d="M322.195,191.008l15.662,-12.515l-15.47,-3.303l-0.192,15.818Z" style="fill:#fff;fill-rule:nonzero;"/><path d="M316.056,195.914l12.93,-10.333l-11.44,-1.059l-1.49,11.392Z" style="fill:#e5e5e4;fill-rule:nonzero;"/><path d="M305.235,180.773l10.978,13.736l20.239,-16.173l-10.977,-13.737l-20.24,16.174Zm10.664,16.547l-13.474,-16.861l23.364,-18.67l13.474,16.86l-23.364,18.671Z" style="fill:#fff;fill-rule:nonzero;"/><path d="M329.522,201.319l-2.804,-3.51c-0.148,-0.184 -0.119,-0.441 0.065,-0.588l0.018,-0.015l1.928,-1.54c0.171,-0.137 0.441,-0.118 0.587,0.066c0.149,0.185 0.112,0.457 -0.06,0.594l-1.611,1.289l0.869,1.088l1.386,-1.107c0.178,-0.143 0.452,-0.107 0.588,0.065c0.149,0.185 0.118,0.453 -0.06,0.595l-1.387,1.108l0.875,1.093l1.611,-1.287c0.173,-0.138 0.448,-0.113 0.594,0.072c0.143,0.178 0.108,0.451 -0.065,0.588l-1.927,1.54l-0.018,0.003l-0,0.012c-0.185,0.147 -0.446,0.111 -0.589,-0.066Z" style="fill:#fff;fill-rule:nonzero;"/><path d="M332.152,196.021l0.731,-0.585c0.346,-0.276 0.394,-0.763 0.135,-1.101c-0.283,-0.34 -0.768,-0.401 -1.114,-0.125l-0.732,0.585l0.98,1.226Zm1.258,0.075l-0.73,0.585l1.031,1.29c0.143,0.18 0.112,0.447 -0.071,0.594c-0.179,0.142 -0.447,0.113 -0.589,-0.067l-2.805,-3.508c-0.147,-0.184 -0.113,-0.447 0.067,-0.589l0.005,-0.005l1.058,-0.846c0.708,-0.565 1.735,-0.451 2.302,0.257c0.556,0.696 0.441,1.724 -0.268,2.289Z" style="fill:#fff;fill-rule:nonzero;"/><path d="M335.822,195.125c0.003,-0.217 0.185,-0.391 0.402,-0.389c0.432,0.005 1.084,-0.106 1.501,-0.45c0.299,-0.238 0.494,-0.541 0.568,-0.814c0.074,-0.273 0.033,-0.485 -0.086,-0.633l-0.207,-0.147c-0.082,-0.032 -0.184,-0.048 -0.32,-0.036c-0.264,0.025 -0.635,0.156 -1.039,0.372l-0.012,0.008c-0.322,0.17 -0.641,0.309 -0.951,0.382c-0.313,0.074 -0.628,0.082 -0.925,-0.022c-0.203,-0.071 -0.384,-0.2 -0.526,-0.379c-0.286,-0.357 -0.33,-0.828 -0.219,-1.248c0.119,-0.426 0.391,-0.829 0.777,-1.138c0.573,-0.456 1.217,-0.514 1.678,-0.56c0.213,-0.014 0.406,0.143 0.42,0.356c0.025,0.213 -0.131,0.407 -0.352,0.427c-0.464,0.04 -0.898,0.094 -1.261,0.384c-0.268,0.214 -0.44,0.488 -0.504,0.734c-0.067,0.248 -0.026,0.431 0.074,0.556l0.174,0.133c0.068,0.024 0.164,0.035 0.285,0.027c0.238,-0.017 0.583,-0.135 0.951,-0.333l0.013,-0.009c0.35,-0.183 0.692,-0.329 1.02,-0.406c0.34,-0.076 0.676,-0.093 0.99,0.017c0.202,0.073 0.399,0.208 0.547,0.392c0.304,0.381 0.351,0.879 0.225,1.331c-0.121,0.447 -0.408,0.881 -0.83,1.218c-0.647,0.508 -1.445,0.62 -1.998,0.622c-0.217,-0.002 -0.391,-0.184 -0.395,-0.395Z" style="fill:#fff;fill-rule:nonzero;"/><path d="M331.046,126.672c11.509,8.682 34.984,30.346 31.437,37.7c-5.833,12.09 -24.164,26.464 -30.164,29.937c-2.616,1.516 -18.057,-16.038 -15.87,-18.419c2.625,-2.857 22.899,-16.281 22.276,-18.16c-0.354,-1.065 -5.346,-9.4 -10.688,-20.412c-6.196,-12.773 -2.476,-14.784 3.009,-10.646Z" style="fill:#f69081;fill-rule:nonzero;"/><path d="M295.281,187.434c0.336,2.551 2.96,3.011 2.96,3.011c-0,0 -0.904,1.843 -0.291,3.719c0.701,2.147 4.377,1.989 4.377,1.989c-0,-0 -0.528,2.056 0.319,3.971c0.879,1.989 4.61,2.357 4.61,2.357c0,0 0.56,2.186 2.479,3.317c3.283,1.933 8.444,-0.753 11.742,-2.427c3.298,-1.673 11.085,-9.511 12.72,-10.854l-10.561,-21.26c-0,0 -16.926,3.299 -20.525,5.818c-3.031,2.122 -8.208,7.497 -7.83,10.359Z" style="fill:#f69081;fill-rule:nonzero;"/><path d="M298.218,190.03c2.682,-3.029 6.113,-5.101 9.421,-7.363l0.077,0.115c-3.316,2.212 -6.15,5.053 -9.37,7.392l-0.128,-0.144Z" style="fill:#0c2b34;fill-rule:nonzero;"/><path d="M302.258,195.841c0.627,-0.667 1.473,-1.125 2.246,-1.6c0.834,-0.511 1.676,-1.007 2.525,-1.49c1.702,-0.967 3.424,-1.896 5.174,-2.774l0.077,0.116c-1.694,0.967 -3.373,1.959 -5.024,2.997c-0.826,0.519 -1.648,1.045 -2.467,1.577c-0.762,0.494 -1.523,1.08 -2.382,1.396c-0.127,0.046 -0.244,-0.122 -0.149,-0.222Z" style="fill:#0c2b34;fill-rule:nonzero;"/><path d="M307.326,202.438c0.523,-0.601 1.409,-0.958 2.1,-1.332c0.784,-0.425 1.566,-0.854 2.346,-1.287c1.558,-0.866 3.117,-1.733 4.644,-2.654l0.077,0.116c-1.548,0.942 -3.082,1.906 -4.637,2.836c-0.764,0.456 -1.53,0.908 -2.299,1.356c-0.654,0.381 -1.428,0.931 -2.19,1.045l-0.041,-0.08Z" style="fill:#0c2b34;fill-rule:nonzero;"/><path d="M352.142,141.978l-18.511,11.149c0,0 -7.508,-13.095 -9.607,-21.949c-2.098,-8.855 3.385,-9 10.638,-3.905c7.253,5.096 17.48,14.705 17.48,14.705Z" style="fill:#fec130;fill-rule:nonzero;"/><path d="M350.056,140.056c-0.014,-0.013 -0.028,-0.026 -0.042,-0.039c0.014,0.013 0.028,0.026 0.043,0.039m-0.326,-0.297c-0.085,-0.077 -0.172,-0.155 -0.26,-0.236c0.089,0.08 0.175,0.159 0.26,0.236Z" style="fill:#dedfde;fill-rule:nonzero;"/><path d="M347.68,137.914c-0.069,-0.061 -0.14,-0.124 -0.21,-0.186c0.071,0.062 0.141,0.125 0.21,0.186Z" style="fill:#cbcdcd;fill-rule:nonzero;"/><path d="M345.136,135.676c-0.026,-0.023 -0.052,-0.046 -0.078,-0.068l0.001,-0.001c0.025,0.023 0.051,0.046 0.077,0.069Zm-1.538,-1.325c-0.246,-0.21 -0.494,-0.421 -0.743,-0.632l0.002,-0.001c0.246,0.208 0.496,0.424 0.742,0.633l-0.001,0Z" style="fill:#dedfde;fill-rule:nonzero;"/><path d="M340.668,131.896c-0.017,-0.014 -0.034,-0.027 -0.051,-0.041l0.001,-0.001c0.017,0.014 0.033,0.028 0.05,0.042Zm-12.511,-7.855c-0.482,-0.105 -0.934,-0.158 -1.352,-0.158c-0.078,-0 -0.155,0.002 -0.23,0.005c0.077,-0.004 0.155,-0.006 0.235,-0.006c0.415,-0 0.867,0.055 1.35,0.157l-0.003,0.002Z" style="fill:#05252d;fill-rule:nonzero;"/><path d="M333.595,153.066c-0.008,-0.015 -0.017,-0.031 -0.027,-0.049c0.011,0.018 0.02,0.034 0.028,0.048l-0.001,0.001Zm0.52,-0.231l1.505,-0.906c-0,-0 -0,-0.001 -0,-0l-1.503,0.905l-0.002,0.001Zm-1.928,-2.337c-0.09,-0.161 -0.18,-0.329 -0.271,-0.505l0.001,-0.001c0.093,0.175 0.183,0.344 0.27,0.506Zm-1.079,-2.05c-0.131,-0.25 -0.264,-0.508 -0.402,-0.774l0.005,-0.003c0.136,0.266 0.268,0.525 0.398,0.776l-0.001,0.001Zm-1.178,-2.333c-0.13,-0.25 -0.256,-0.512 -0.385,-0.782l0.001,0c0.129,0.264 0.257,0.525 0.384,0.781l-0,0.001Zm-1.138,-2.351c-0.122,-0.254 -0.247,-0.516 -0.368,-0.789l0.002,-0.001c0.123,0.265 0.245,0.528 0.368,0.789l-0.002,0.001Zm-1.089,-2.373c-0.1,-0.225 -0.2,-0.451 -0.297,-0.684c0.099,0.229 0.2,0.456 0.3,0.683l-0.003,0.001Zm-1.037,-2.406c-0.109,-0.268 -0.219,-0.537 -0.328,-0.806l0.006,-0.003c0.108,0.269 0.217,0.538 0.328,0.806l-0.006,0.003Zm-1.099,-2.826c-0.052,-0.141 -0.105,-0.282 -0.158,-0.424l0.004,-0.001c0.051,0.141 0.102,0.283 0.154,0.425Zm-0.803,-2.338c-0.061,-0.191 -0.12,-0.383 -0.179,-0.576l0.001,-0c0.058,0.191 0.117,0.383 0.178,0.576Zm-0.716,-2.546c-0.003,-0.01 -0.005,-0.019 -0.007,-0.029c0.002,0.01 0.004,0.019 0.007,0.029Zm-0.107,-0.465c-0.01,-0.041 -0.019,-0.082 -0.027,-0.122c0.009,0.04 0.018,0.081 0.027,0.122Zm-0.346,-2.3c-0.014,-0.182 -0.021,-0.358 -0.023,-0.526l0.001,0c0.003,0.17 0.01,0.345 0.022,0.526Zm0.511,-3.196c0.054,-0.099 0.113,-0.192 0.176,-0.279c-0.063,0.088 -0.122,0.18 -0.176,0.279Z" style="fill:#f7b31f;fill-rule:nonzero;"/><path d="M335.62,151.929c-0,-0.001 -0,-0 -0,-0l0.696,-0.419l-0.696,0.419Z" style="fill:#ed8674;fill-rule:nonzero;"/><path d="M333.596,153.065c-0.008,-0.014 -0.017,-0.03 -0.028,-0.048c-0.073,-0.133 -0.214,-0.375 -0.402,-0.723l6.976,-3.089l-3.826,2.305l-0.696,0.419l-1.505,0.906l-0.519,0.23Zm-1.263,-2.305c-0.048,-0.085 -0.097,-0.172 -0.146,-0.262c-0.087,-0.162 -0.177,-0.331 -0.27,-0.506l19.535,-8.652c0.442,0.411 0.687,0.638 0.687,0.638l-0.061,0.037l-19.745,8.745Zm-1.224,-2.313c-0.13,-0.251 -0.262,-0.51 -0.398,-0.776l18.64,-8.255c0.04,0.036 0.08,0.072 0.12,0.107c0.088,0.081 0.175,0.159 0.26,0.236c0.096,0.088 0.19,0.174 0.283,0.258c0.014,0.013 0.028,0.026 0.042,0.039l-18.947,8.391Zm-1.179,-2.333c-0.127,-0.256 -0.255,-0.517 -0.384,-0.781l17.671,-7.826c0.086,0.074 0.17,0.148 0.253,0.221c0.07,0.062 0.141,0.125 0.21,0.186c0.085,0.077 0.169,0.153 0.251,0.228l-18.001,7.973m-1.136,-2.352c-0.123,-0.261 -0.245,-0.524 -0.368,-0.789l16.632,-7.366c0.026,0.022 0.052,0.045 0.078,0.068c0.214,0.188 0.433,0.374 0.644,0.563l-16.986,7.524Zm-1.088,-2.373c-0.1,-0.227 -0.201,-0.454 -0.3,-0.683c-0.017,-0.041 -0.034,-0.082 -0.051,-0.123l15.5,-6.865c0.249,0.211 0.497,0.422 0.743,0.632l-15.892,7.039Zm-1.034,-2.408c-0.111,-0.268 -0.22,-0.537 -0.328,-0.806l14.273,-6.321c0.017,0.014 0.034,0.027 0.051,0.041c0.23,0.194 0.467,0.385 0.696,0.579l-14.692,6.507Zm-0.958,-2.43c-0.049,-0.131 -0.098,-0.262 -0.147,-0.393c-0.052,-0.142 -0.103,-0.284 -0.154,-0.425l12.903,-5.715c0.262,0.202 0.524,0.402 0.778,0.607l-13.38,5.926Zm-0.864,-2.472c-0.03,-0.086 -0.058,-0.173 -0.086,-0.259c-0.061,-0.193 -0.12,-0.385 -0.178,-0.576l11.362,-5.032c0.271,0.197 0.541,0.395 0.803,0.596l-11.901,5.271Zm-0.728,-2.533c-0.025,-0.088 -0.052,-0.18 -0.074,-0.272c-0.003,-0.01 -0.005,-0.019 -0.007,-0.029c-0.006,-0.023 -0.011,-0.046 -0.016,-0.069c-0.026,-0.125 -0.057,-0.247 -0.084,-0.367c-0.009,-0.041 -0.018,-0.082 -0.027,-0.122l9.539,-4.225c0.282,0.182 0.57,0.373 0.859,0.571l-10.19,4.513Zm-0.487,-2.639c-0.016,-0.136 -0.03,-0.269 -0.04,-0.398c-0.012,-0.181 -0.019,-0.356 -0.022,-0.526l7.007,-3.103c0.335,0.149 0.67,0.318 1.02,0.5l-7.965,3.527Zm0.201,-2.954c0.074,-0.234 0.164,-0.448 0.27,-0.64c0.054,-0.099 0.113,-0.191 0.176,-0.279c0.1,-0.14 0.212,-0.266 0.335,-0.378l1.68,-0.744c0.09,-0.011 0.183,-0.02 0.278,-0.025c0.075,-0.003 0.152,-0.005 0.23,-0.005c0.418,-0 0.87,0.053 1.352,0.158l-4.321,1.913Z" style="fill:#f7b31f;fill-rule:nonzero;"/><path d="M332.572,149.221c2.761,-1.898 10.404,-6.819 15.809,-9.334l0.078,0.127c-4.156,2.8 -12.852,7.749 -15.773,9.388l-0.114,-0.181Z" style="fill:#0c2b34;fill-rule:nonzero;"/><path d="M327.216,142.433l0.047,-0.027c0.496,0.617 0.953,1.25 1.398,1.903c-0.657,-1.489 -1.278,-2.994 -1.864,-4.505l0.082,-0.035c2.252,4.332 4.612,8.617 6.772,12.995c0.504,-0.125 1.01,-0.261 1.501,-0.43l0.053,0.127c-0.523,0.243 -1.033,0.526 -1.532,0.816c-0.111,0.065 -0.286,0.087 -0.368,-0.046c-1.505,-2.422 -2.829,-4.96 -4.027,-7.556c-0.293,-0.375 -0.581,-0.752 -0.844,-1.144c-0.456,-0.678 -0.863,-1.362 -1.218,-2.098Z" style="fill:#0c2b34;fill-rule:nonzero;"/><path d="M323.736,124.209c0.178,0.889 -1.287,7.855 -5.041,9.354c-1.223,0.486 -4.174,-6.073 -4.174,-6.073l-0.33,-0.434l-4.594,-6.085l5.636,-8.724l0.841,-1.198c0,0 1.148,1.748 2.555,3.938c0.065,0.101 0.132,0.202 0.2,0.312c0.083,0.122 0.162,0.236 0.235,0.353c0.214,0.324 0.431,0.656 0.641,0.992c0.161,0.255 0.319,0.502 0.478,0.775c0.166,0.271 0.322,0.536 0.488,0.807c1.585,2.701 2.985,5.607 3.065,5.983Z" style="fill:#f69081;fill-rule:nonzero;"/><path d="M318.629,114.987c0.511,6.273 -2.797,10.429 -4.438,12.069l-4.594,-6.085l5.636,-8.724l0.841,-1.198c0,0 1.148,1.748 2.555,3.938Z" style="fill:#0c2b34;fill-rule:nonzero;"/><path d="M293.968,112.847c1.686,13.275 9.828,13.764 12.69,13.396c2.598,-0.333 11.403,-1.797 11.096,-15.175c-0.307,-13.377 -7.012,-16.789 -12.994,-16.342c-5.983,0.448 -12.48,4.847 -10.792,18.121Z" style="fill:#f69081;fill-rule:nonzero;"/><path d="M295.549,110.318c0.306,-0.083 0.573,-0.21 0.866,-0.323c0.331,-0.127 0.608,-0.194 0.82,-0.497c0.115,-0.162 0.061,-0.449 -0.085,-0.574c-0.344,-0.293 -0.788,-0.238 -1.193,-0.101c-0.438,0.149 -0.739,0.376 -0.985,0.767c-0.239,0.381 0.175,0.837 0.577,0.728Z" style="fill:#0c2b34;fill-rule:nonzero;"/><path d="M304.62,108.932c-0.316,0.01 -0.609,-0.033 -0.923,-0.055c-0.354,-0.025 -0.638,-0.009 -0.93,-0.236c-0.157,-0.121 -0.189,-0.411 -0.085,-0.574c0.242,-0.381 0.682,-0.458 1.11,-0.446c0.463,0.015 0.817,0.143 1.167,0.446c0.339,0.294 0.077,0.851 -0.339,0.865Z" style="fill:#0c2b34;fill-rule:nonzero;"/><path d="M303.009,112.493l0.079,0.072c0.085,0.907 0.335,1.932 1.19,2.13l-0.001,0.051c-1.015,-0.015 -1.334,-1.379 -1.268,-2.253Z" style="fill:#0c2b34;fill-rule:nonzero;"/><path d="M303.696,111.448c1.441,-0.293 1.921,2.608 0.587,2.88c-1.312,0.268 -1.793,-2.634 -0.587,-2.88Z" style="fill:#0c2b34;fill-rule:nonzero;"/><path d="M304.292,111.507c0.28,0.122 0.577,0.371 0.888,0.351c0.359,-0.024 0.575,-0.372 0.758,-0.702l0.055,0.025c0.101,0.554 -0.018,1.16 -0.601,1.342c-0.532,0.165 -1.003,-0.262 -1.235,-0.798c-0.043,-0.099 0.022,-0.267 0.135,-0.218Z" style="fill:#0c2b34;fill-rule:nonzero;"/><path d="M297.981,113.132l-0.056,0.091c0.184,0.893 0.245,1.946 -0.515,2.385l0.016,0.049c0.967,-0.311 0.872,-1.709 0.555,-2.525Z" style="fill:#0c2b34;fill-rule:nonzero;"/><path d="M297.016,112.334c-1.463,0.14 -1.074,3.056 0.282,2.925c1.334,-0.128 0.944,-3.044 -0.282,-2.925Z" style="fill:#0c2b34;fill-rule:nonzero;"/><path d="M296.434,112.606c-0.21,0.186 -0.4,0.497 -0.673,0.552c-0.316,0.064 -0.594,-0.22 -0.838,-0.496l-0.041,0.038c0.059,0.56 0.321,1.115 0.87,1.151c0.502,0.032 0.797,-0.494 0.856,-1.067c0.01,-0.106 -0.089,-0.252 -0.174,-0.178Z" style="fill:#0c2b34;fill-rule:nonzero;"/><path d="M304.334,119.855c-0.169,0.254 -0.321,0.587 -0.639,0.683c-0.304,0.092 -0.698,0.029 -1.005,-0.021l-0.029,0.054c0.304,0.293 0.836,0.403 1.234,0.243c0.388,-0.156 0.513,-0.547 0.533,-0.937l-0.094,-0.022Z" style="fill:#0c2b34;fill-rule:nonzero;"/><path d="M300.624,118.921c-0,-0 0.701,0.787 1.585,1.014c0.325,0.085 0.669,0.099 1.017,-0.028c0.714,-0.258 0.671,-0.931 0.485,-1.493c-0.151,-0.463 -0.407,-0.85 -0.407,-0.85c-0,-0 -0.978,1.096 -2.68,1.357Z" style="fill:#0c2b34;fill-rule:nonzero;"/><path d="M302.209,119.935c0.325,0.085 0.669,0.099 1.017,-0.028c0.714,-0.258 0.671,-0.931 0.485,-1.493c-0.776,0.151 -1.505,0.753 -1.502,1.521Z" style="fill:#f491b3;fill-rule:nonzero;"/><path d="M300.068,117.178c-0,0 0.022,1.374 0.119,2.008c0.009,0.059 0.167,0.064 0.384,0.044l0.025,-0.004c1.147,0.003 2.216,-0.557 2.757,-1.576l-0.109,-0.073c-0.741,0.743 -1.641,1.043 -2.633,1.212c-0.071,-0.169 0.043,-2.354 -0.058,-2.346c-0.352,0.024 -0.998,0.364 -1.391,0.548c-0.126,-2.86 0.207,-5.717 0.039,-8.563c-0.008,-0.102 -0.156,-0.109 -0.172,-0.016c-0.561,2.97 -0.488,6.265 -0.433,9.221c0.003,0.369 1.235,-0.308 1.472,-0.455Z" style="fill:#0c2b34;fill-rule:nonzero;"/><path d="M318.4,115.959c-0.199,0.129 -0.387,0.221 -0.572,0.287c-0.214,0.089 -0.42,0.133 -0.612,0.15c-0.301,0.035 -0.572,-0.003 -0.808,-0.081c-0.216,-0.064 -0.412,-0.166 -0.576,-0.274c-0.424,-0.284 -0.654,-0.628 -0.654,-0.628l-0.032,-3.65c-0,0 1.975,-4.7 4.044,-4.081c2.076,0.618 1.212,6.999 -0.79,8.277Z" style="fill:#f69081;fill-rule:nonzero;"/><path d="M318.899,109.502l0.024,0.055c-1.392,0.948 -1.889,2.536 -2.134,4.124c0.332,-0.663 0.883,-1.105 1.755,-0.729l-0.023,0.09c-0.655,0.001 -1.081,0.207 -1.395,0.799c-0.223,0.419 -0.33,0.911 -0.455,1.366c-0.042,0.152 -0.304,0.132 -0.286,-0.036l0.005,-0.038c-0.459,-1.936 0.464,-4.984 2.509,-5.631Z" style="fill:#0c2b34;fill-rule:nonzero;"/><path d="M318.1,115.448c0.005,0.342 -0.269,0.624 -0.612,0.628c-0.341,0.005 -0.623,-0.269 -0.628,-0.611c-0.004,-0.342 0.269,-0.623 0.611,-0.628c0.343,-0.005 0.624,0.269 0.629,0.611Z" style="fill:#fff;fill-rule:nonzero;"/><path d="M319.148,114.264c0.002,0.242 -0.191,0.441 -0.433,0.444c-0.242,0.004 -0.44,-0.19 -0.444,-0.432c-0.003,-0.242 0.19,-0.441 0.432,-0.444c0.242,-0.004 0.441,0.19 0.445,0.432Z" style="fill:#fff;fill-rule:nonzero;"/><path d="M317.1,110.956c-2.145,0.581 -3.459,-4.375 -3.459,-4.375c-0,-0 -4.42,0.853 -7.086,-5.23c-0,0 0.658,2.942 2.956,4.887c-0,0 -8.006,1.142 -12.528,-4.761c0,-0 1.94,3.076 3.393,4.024c0,0 -3.444,-0.291 -5.543,-2.644c0,-0 -0.65,4.026 -1.504,5.265c0,0 -2.267,-13.704 10.648,-14.652c-0,0 8.014,-0.977 12.046,4.749c4.03,5.725 1.077,12.737 1.077,12.737Z" style="fill:#0c2b34;fill-rule:nonzero;"/><path d="M227.407,397.553c-2.031,0.61 -59.52,-1.291 -61.661,-2.755c-0.823,-0.542 -1.035,-8.936 -0.999,-19.084c0.002,-0.107 0.003,-0.212 0.004,-0.318c0.003,-2.091 0.906,-37.158 0.906,-37.158l40.242,1.213l-4.044,36.758l-0.035,0.629c0,0 21.679,10.57 23.866,12.428c2.169,1.85 3.752,7.685 1.721,8.287Z" style="fill:#f9b7b9;fill-rule:nonzero;"/><path d="M227.408,397.557c-2.031,0.609 -59.521,-1.294 -61.66,-2.756c-0.825,-0.55 -1.04,-8.94 -1.001,-19.085l-0,-0.325c0.009,-0.568 -0.004,-3.414 0.172,-7.721l37.716,1.443l-0.778,7.093l-0.04,0.628c0,-0 21.686,10.578 23.874,12.432c2.159,1.855 3.748,7.683 1.717,8.291Z" style="fill:#e5e5e4;fill-rule:nonzero;"/><path d="M227.845,397.804c-2.05,0.611 -60.103,-1.323 -62.271,-2.795c-0.825,-0.555 -1.036,-9.026 -1.001,-19.27l37.432,1.139c0,-0 21.895,10.681 24.099,12.551c2.191,1.871 3.792,7.763 1.741,8.375Z" style="fill:#fec130;fill-rule:nonzero;"/><path d="M227.09,395.453c-9.724,-0.563 -48.995,-1.916 -58.649,-1.733l-0.002,0.06c9.625,0.77 48.906,1.804 58.646,1.833c0.205,-0 0.21,-0.147 0.005,-0.16Z" style="fill:#0c2b34;fill-rule:nonzero;"/><path d="M222.44,387.217c-2.306,-0.171 -4.597,0.85 -5.901,2.182c-1.253,1.28 -2.349,3.104 -2.348,5.124l0.117,0.003c0.683,-3.789 4.258,-7.019 8.128,-7.187l0.004,-0.122Z" style="fill:#0c2b34;fill-rule:nonzero;"/><path d="M205.747,377.971c-3.893,-0.184 -8.455,1.04 -10.981,4.146c-0.098,0.12 0.074,0.258 0.192,0.201c3.582,-1.697 6.974,-2.938 10.84,-3.865c0.272,-0.066 0.228,-0.469 -0.051,-0.482Z" style="fill:#0c2b34;fill-rule:nonzero;"/><path d="M208.715,379.244c-3.894,-0.185 -8.455,1.04 -10.982,4.146c-0.098,0.12 0.075,0.256 0.193,0.201c3.581,-1.698 6.973,-2.939 10.84,-3.866c0.273,-0.065 0.228,-0.468 -0.051,-0.481Z" style="fill:#0c2b34;fill-rule:nonzero;"/><path d="M211.683,380.515c-3.894,-0.183 -8.455,1.041 -10.982,4.147c-0.097,0.12 0.075,0.257 0.193,0.201c3.581,-1.697 6.973,-2.938 10.84,-3.865c0.272,-0.066 0.228,-0.469 -0.051,-0.483Z" style="fill:#0c2b34;fill-rule:nonzero;"/><path d="M214.651,381.788c-3.894,-0.184 -8.455,1.041 -10.981,4.145c-0.099,0.121 0.074,0.258 0.191,0.203c3.582,-1.699 6.974,-2.939 10.841,-3.867c0.272,-0.064 0.227,-0.467 -0.051,-0.481Z" style="fill:#0c2b34;fill-rule:nonzero;"/><path d="M171.228,384.559c-4.371,-0.132 -4.584,6.66 -0.207,6.792c4.37,0.133 4.585,-6.659 0.207,-6.792Z" style="fill:#0c2b34;fill-rule:nonzero;"/><path d="M205.248,375.837c-1.373,0.931 -2.784,1.791 -4.123,2.773c0.76,-1.918 1.434,-3.858 2.387,-5.698c0.455,-0.878 0.939,-1.772 1.511,-2.58c0.889,-1.259 4.82,-4.387 5.066,-0.136c0.136,2.344 -3.204,4.53 -4.841,5.641Zm5.054,-8.119c-1.917,-1.701 -4.454,-0.186 -5.726,1.471c-2.06,2.684 -3.542,6.492 -3.871,9.843l0.118,0.115c0.074,0.281 0.396,0.528 0.69,0.338c2.837,-1.826 6.096,-3.427 8.288,-6.068c1.281,-1.543 2.314,-4.091 0.501,-5.699Z" style="fill:#0c2b34;fill-rule:nonzero;"/><path d="M188.702,377.858c-2.524,-3.429 2.499,-3.531 3.987,-3.13c0.956,0.257 1.899,0.636 2.809,1.022c1.909,0.807 3.666,1.871 5.476,2.861c-1.658,0.099 -3.292,0.338 -4.944,0.498c-1.969,0.191 -5.937,0.64 -7.328,-1.251Zm2.278,2.295c3.374,0.634 6.904,-0.215 10.254,-0.621c0.347,-0.042 0.438,-0.435 0.315,-0.7l0.017,-0.164c-2.393,-2.368 -5.964,-4.355 -9.263,-5.105c-2.037,-0.463 -4.957,-0.008 -5.347,2.524c-0.369,2.395 2.054,3.696 4.024,4.066Z" style="fill:#0c2b34;fill-rule:nonzero;"/><path d="M205.131,373.405l-45.02,-0c-0,-0 8.02,-61.29 5.349,-65.29c-0.28,-0.421 -3.833,-0.408 -9.312,-0.394c-3.882,0.01 -8.73,0.019 -14.067,-0.126c-18.63,-0.52 -43.221,-2.94 -53.331,-13.9c-15.63,-16.93 0.28,-48.649 0.28,-48.649l47.971,0c0,0 0.98,13.599 3.56,19.029c0.1,0.211 0.63,0.37 1.52,0.511c8.91,1.37 53.93,-0.111 61.56,13.809c11.21,20.46 1.49,95.01 1.49,95.01Z" style="fill:#23434c;fill-rule:nonzero;"/><path d="M164.86,364.842c5.079,-0.15 10.174,-0.349 15.258,-0.343c5.099,0.006 10.196,0.107 15.293,0.309c1.439,0.058 5.687,0.259 6.373,0.31c0.691,0.05 1.395,0.039 2.077,0.177l-0.009,0.135c-1.103,0.191 -12.625,0.322 -15.153,0.329c-5.068,0.014 -10.126,-0.135 -15.192,-0.316c-2.877,-0.102 -5.755,-0.209 -8.631,-0.327c-0.163,-0.007 -0.184,-0.27 -0.016,-0.274Z" style="fill:#0c2b34;fill-rule:nonzero;"/><path d="M170.32,305.219c-0.291,-1.146 -1.033,-1.887 -2.207,-2.093c-1.263,-0.221 -2.616,-0.09 -3.892,-0.078c-2.999,0.028 -5.999,0.062 -8.998,0.069c-11.814,0.024 -23.728,-0.31 -35.346,-2.637c-5.635,-1.129 -11.245,-2.703 -16.526,-4.988c-4.51,-1.951 -9.018,-4.627 -11.828,-8.774c-3.235,-4.775 -3.488,-11.023 -3.377,-16.606c0.119,-6.02 1.09,-12.026 2.894,-17.772c0.46,-1.463 0.977,-2.904 1.555,-4.324c0.037,-0.09 -0.094,-0.166 -0.134,-0.075c-2.367,5.485 -3.982,11.214 -4.688,17.151c-0.346,2.907 -0.483,5.833 -0.398,8.76c0.082,2.851 0.303,5.758 1.109,8.507c3.061,10.451 14.774,14.771 24.247,17.426c11.397,3.194 23.288,4.081 35.076,4.257c5.927,0.088 11.856,0.018 17.782,-0.08c1.133,-0.02 2.996,-0.336 3.667,0.852c0.352,0.622 0.421,1.462 0.53,2.156c0.132,0.834 0.223,1.674 0.286,2.516c0.234,3.149 0.059,6.309 -0.126,9.455c-0.376,6.397 -0.82,12.791 -1.327,19.179c-0.51,6.424 -1.226,12.834 -1.694,19.261c-0.114,1.574 -0.268,3.144 -0.418,4.716c-0.017,0.178 0.294,0.214 0.318,0.034c1.645,-12.7 2.823,-25.451 3.657,-38.231c0.207,-3.156 0.439,-6.316 0.526,-9.478c0.083,-3.036 0.062,-6.239 -0.688,-9.203Z" style="fill:#0c2b34;fill-rule:nonzero;"/><path d="M142.081,264.586l-0,43.009c-18.63,-0.52 -43.221,-2.94 -53.331,-13.9c-15.63,-16.93 0.28,-48.649 0.28,-48.649l47.971,0c0,0 0.98,13.599 3.56,19.029c0.1,0.211 0.63,0.37 1.52,0.511Z" style="fill:#0c2b34;fill-rule:nonzero;"/><path d="M13.622,395.129c0.231,-2.108 24.443,-54.285 26.627,-55.685c0.82,-0.546 8.629,2.539 17.957,6.537c0.097,0.043 0.194,0.085 0.291,0.128c1.924,0.82 37.418,10.356 37.418,10.356l-15.729,34.148l-36.933,-10.667l-0.565,-0.278c-0,-0 -18.201,15.827 -20.765,17.114c-2.55,1.273 -8.541,0.451 -8.301,-1.653Z" style="fill:#f9b7b9;fill-rule:nonzero;"/><path d="M65.246,348.092l-16.18,33.528l-5.809,-1.678l-0.569,-0.274c-0,-0 -18.202,15.827 -20.763,17.112c-2.551,1.275 -8.546,0.451 -8.301,-1.648c0.226,-2.11 24.442,-54.291 26.62,-55.685c0.825,-0.549 8.635,2.532 17.967,6.535c0.088,0.039 0.186,0.088 0.284,0.127c0.481,0.207 3.101,0.962 6.751,1.983Z" style="fill:#e5e5e4;fill-rule:nonzero;"/><path d="M13.415,395.39c0.231,-2.127 24.498,-54.9 26.695,-56.328c0.83,-0.546 8.722,2.54 18.153,6.54l-15.547,34.07c-0,0 -18.328,16.049 -20.906,17.356c-2.573,1.296 -8.626,0.489 -8.395,-1.638Z" style="fill:#fec130;fill-rule:nonzero;"/><path d="M15.874,395.604c4.285,-8.746 20.743,-44.428 24.314,-53.4l-0.056,-0.025c-4.436,8.577 -20.604,44.391 -24.403,53.359c-0.08,0.189 0.055,0.251 0.145,0.066Z" style="fill:#0c2b34;fill-rule:nonzero;"/><path d="M25.269,394.507c1.05,-2.059 0.997,-4.568 0.273,-6.285c-0.695,-1.652 -1.951,-3.369 -3.814,-4.15l-0.049,0.108c3.23,2.096 4.823,6.644 3.479,10.276l0.111,0.051Z" style="fill:#0c2b34;fill-rule:nonzero;"/><path d="M40.258,382.698c1.678,-3.518 2.315,-8.198 0.431,-11.729c-0.073,-0.137 -0.266,-0.032 -0.26,0.098c0.178,3.96 0.009,7.569 -0.635,11.491c-0.045,0.278 0.344,0.392 0.464,0.14Z" style="fill:#0c2b34;fill-rule:nonzero;"/><path d="M37.936,384.941c1.677,-3.518 2.315,-8.197 0.431,-11.729c-0.073,-0.137 -0.267,-0.032 -0.261,0.098c0.178,3.96 0.009,7.569 -0.634,11.493c-0.046,0.276 0.344,0.39 0.464,0.138Z" style="fill:#0c2b34;fill-rule:nonzero;"/><path d="M35.613,387.185c1.677,-3.518 2.315,-8.198 0.431,-11.73c-0.073,-0.137 -0.266,-0.03 -0.26,0.1c0.178,3.958 0.008,7.567 -0.635,11.491c-0.045,0.276 0.344,0.391 0.464,0.139Z" style="fill:#0c2b34;fill-rule:nonzero;"/><path d="M33.291,389.429c1.677,-3.519 2.315,-8.199 0.431,-11.73c-0.073,-0.138 -0.267,-0.031 -0.261,0.099c0.178,3.959 0.009,7.567 -0.634,11.491c-0.046,0.277 0.344,0.391 0.464,0.14Z" style="fill:#0c2b34;fill-rule:nonzero;"/><path d="M47.554,348.321c1.815,-3.977 -4.364,-6.805 -6.182,-2.82c-1.815,3.977 4.364,6.805 6.182,2.82Z" style="fill:#0c2b34;fill-rule:nonzero;"/><path d="M42.419,383.065c-0.327,-1.628 -0.573,-3.26 -0.96,-4.876c1.474,1.445 3.002,2.817 4.329,4.408c0.634,0.76 1.27,1.552 1.794,2.392c0.816,1.307 2.177,6.143 -1.837,4.724c-2.214,-0.783 -2.936,-4.709 -3.326,-6.648Zm5.528,7.804c2.31,-1.108 1.896,-4.034 0.861,-5.849c-1.676,-2.939 -4.614,-5.78 -7.575,-7.381l-0.152,0.064c-0.288,-0.041 -0.639,0.161 -0.579,0.506c0.585,3.322 0.798,6.947 2.385,9.991c0.926,1.777 2.875,3.718 5.06,2.669Z" style="fill:#0c2b34;fill-rule:nonzero;"/><path d="M46.964,367.027c4.139,-0.999 2.288,3.672 1.342,4.889c-0.608,0.781 -1.322,1.504 -2.03,2.194c-1.484,1.446 -3.145,2.655 -4.759,3.94c0.551,-1.567 0.963,-3.166 1.455,-4.751c0.588,-1.89 1.71,-5.721 3.992,-6.272Zm-2.999,1.211c-1.891,2.865 -2.475,6.449 -3.398,9.694c-0.096,0.337 0.232,0.574 0.523,0.562l0.145,0.08c3.11,-1.289 6.324,-3.812 8.294,-6.563c1.215,-1.7 1.928,-4.567 -0.256,-5.908c-2.066,-1.267 -4.203,0.463 -5.308,2.135Z" style="fill:#0c2b34;fill-rule:nonzero;"/><path d="M137.564,245.07c-0,0 2.723,12.933 2.566,19.529c0,-0 -6.606,10.647 -7.607,11.276c-0,0 22.383,62.951 20.935,86.358c-0.474,7.675 -8.642,17.387 -17.42,22.848c-15.535,9.667 -86.955,4.09 -86.955,4.09l11.003,-45.591c-0,0 43.009,2.669 44.22,0.073c1.536,-3.292 -8.01,-28.881 -15.633,-49.674c-0.771,-2.1 -8.44,-9.85 -7.547,-23.871c0.87,-13.649 6.6,-25.038 6.6,-25.038l49.838,0Z" style="fill:#23434c;fill-rule:nonzero;"/><path d="M68.831,348.647c10.458,-0.194 18.984,0.694 29.444,0.7c2.634,0.001 0.333,0.002 2.967,0.004c1.317,0 2.634,0.002 3.95,0.002c0.916,0 1.835,-0.03 2.73,-0.245c0.8,-0.192 1.63,-0.543 2.104,-1.251c0.695,-1.036 0.321,-2.354 0.082,-3.476c-0.526,-2.46 -1.121,-4.906 -1.769,-7.335c-2.634,-9.881 -6.075,-19.533 -9.313,-29.226c-1.667,-4.993 -3.334,-9.985 -5.003,-14.977c-0.405,-1.214 -0.81,-2.43 -1.321,-3.604c-0.472,-1.085 -1.05,-2.114 -1.644,-3.137c-1.148,-1.978 -2.173,-3.973 -2.841,-6.17c-2.829,-9.298 -0.108,-18.921 3.199,-27.694c0.444,-1.18 0.904,-2.35 1.384,-3.515l0.132,0.04c-3.014,9.261 -6.61,18.898 -4.585,28.783c0.476,2.329 1.277,4.563 2.415,6.65c0.579,1.061 1.214,2.09 1.779,3.157c0.574,1.085 1.043,2.218 1.459,3.372c1.771,4.91 3.341,9.9 5.002,14.847c3.305,9.842 6.78,19.657 9.535,29.672c0.685,2.493 1.321,5.001 1.883,7.525c0.414,1.859 1.345,4.392 -0.277,5.932c-1.188,1.128 -3.055,1.269 -4.606,1.279c-2.607,0.017 -5.215,-0.014 -7.822,-0.021c-10.608,-0.03 -27.577,-0.918 -28.893,-0.947c-0.235,-0.005 -0.225,-0.36 0.009,-0.365Z" style="fill:#0c2b34;fill-rule:nonzero;"/><path d="M57.135,387.05c1.027,-5.324 2.008,-10.676 3.187,-15.971c1.183,-5.31 2.458,-10.597 3.831,-15.859c0.388,-1.488 0.79,-2.969 1.186,-4.453c0.189,-0.708 0.379,-1.414 0.586,-2.117c0.208,-0.708 0.36,-1.444 0.652,-2.123l0.13,0.04c-0.078,1.356 -0.454,2.757 -0.725,4.087c-0.262,1.285 -0.509,2.573 -0.774,3.858c-0.545,2.641 -1.101,5.279 -1.678,7.914c-1.155,5.282 -2.467,10.516 -3.813,15.753c-0.764,2.974 -1.532,5.948 -2.311,8.918c-0.044,0.167 -0.305,0.129 -0.271,-0.047Z" style="fill:#0c2b34;fill-rule:nonzero;"/><path d="M131.495,265.703c-0.168,-1.643 -0.323,-3.286 -0.46,-4.93c-0.313,-3.749 -0.576,-7.52 -0.597,-11.268c-0.002,-0.293 0.372,-0.236 0.394,0.042c0.247,2.913 0.423,5.83 0.652,8.744c0.228,2.885 0.389,5.821 0.809,8.693c0.127,0.866 0.417,2.324 1.389,2.431c1.309,0.141 1.599,-1.815 1.735,-2.88c0.339,-2.66 0.37,-5.364 0.303,-8.072c-0.076,-3.081 -0.354,-6.175 -0.591,-9.255c-0.008,-0.11 0.155,-0.116 0.172,-0.008c0.998,6.041 1.944,12.369 0.88,18.356c-0.208,1.167 -0.705,2.392 -1.818,2.703l-0.052,0.008l0.031,0.104c0.006,0.174 -0.008,0.345 -0.007,0.518c0.004,0.144 0.002,0.289 -0.006,0.433c-0.005,0.301 0.005,0.603 -0.013,0.902c-0.017,0.277 -0.346,0.249 -0.395,0.005c-0.064,-0.022 -0.123,-0.067 -0.139,-0.162c-0.1,-0.584 -0.024,-1.189 0.069,-1.759c-0.64,-0.037 -1.215,-0.467 -1.589,-1.118c-0.596,-1.035 -0.649,-2.326 -0.767,-3.487Z" style="fill:#0c2b34;fill-rule:nonzero;"/><path d="M138.125,267.991c-3.184,3.091 -5.977,6.668 -8.568,10.259c-0.102,0.141 0.09,0.312 0.209,0.179c2.948,-3.323 6.002,-6.611 8.765,-10.09c0.217,-0.274 -0.162,-0.585 -0.406,-0.348Z" style="fill:#0c2b34;fill-rule:nonzero;"/><path d="M99.557,266.26c1.044,-0.027 2.066,-0.049 3.096,-0.24c0.908,-0.168 1.808,-0.422 2.693,-0.683c1.661,-0.491 3.686,-1.074 4.896,-2.387c1.23,-1.334 2.054,-3.151 2.784,-4.791c0.803,-1.804 1.416,-3.748 1.631,-5.717l0.138,0.004c-0.164,2.053 -0.43,4.071 -1.018,6.051c-0.292,0.983 -0.689,1.941 -1.133,2.863c-0.436,0.905 -0.917,1.822 -1.604,2.565c-1.341,1.446 -3.536,2.152 -5.416,2.528c-1.955,0.391 -4.142,0.387 -6.104,0.035c-0.135,-0.024 -0.088,-0.225 0.037,-0.228Z" style="fill:#0c2b34;fill-rule:nonzero;"/><path d="M144.821,202.765c8.691,12.498 21.988,29.004 29.635,29.463c5.952,0.358 23.502,-7.222 36.023,-15.461c2.511,-1.651 -16.572,-21.958 -18.181,-20.584c-4.739,4.046 -16.151,14.77 -17.025,14.207c-1.15,-0.741 -14.207,-8.051 -24.022,-15.746c-11.845,-9.285 -12.217,-0.201 -6.43,8.121Z" style="fill:#f9b7b9;fill-rule:nonzero;"/><path d="M209.797,217.078c2.71,-1.159 14.664,-7.564 17.592,-10.09c2.927,-2.527 10.827,-10.409 9.119,-12.848c-1.707,-2.438 -4.204,-0.315 -4.204,-0.315c0,-0 2.808,-3.857 0.866,-6.155c-1.941,-2.298 -5.718,1.132 -5.718,1.132c-0,0 2.595,-4.171 0.494,-6.325c-2.101,-2.153 -5.32,1.931 -5.32,1.931c0,0 2.551,-3.703 0.073,-4.748c-2.981,-1.259 -6.912,6.098 -10.354,8.645c-0.781,0.579 -16.675,10.594 -16.675,10.594l14.127,18.179Z" style="fill:#f9b7b9;fill-rule:nonzero;"/><path d="M222.909,184.063c-2.904,5.404 -5.109,7.266 -10.366,10.238c-0.102,0.057 -0.039,0.224 0.074,0.172c5.412,-2.441 8.515,-4.377 10.561,-10.283c0.1,-0.288 -0.131,-0.384 -0.269,-0.127Z" style="fill:#0c2b34;fill-rule:nonzero;"/><path d="M227.675,188.368c-3.506,5.349 -5.88,7.389 -11.157,10.907l0.082,0.138c5.465,-3.018 8.516,-5.021 11.317,-10.826c0.127,-0.262 -0.082,-0.464 -0.242,-0.219Z" style="fill:#0c2b34;fill-rule:nonzero;"/><path d="M232.03,193.995c-3.768,4.934 -6.275,7.283 -11.836,10.041c-0.131,0.064 -0.049,0.262 0.089,0.21c5.945,-2.261 9.094,-5.169 11.885,-10.12c0.19,-0.338 0.099,-0.442 -0.138,-0.131Z" style="fill:#0c2b34;fill-rule:nonzero;"/><path d="M249.836,202.305l-36.868,9.993l-12.828,-47.328l27.375,-7.42l11.938,6.445l10.383,38.31Z" style="fill:#e5e5e4;fill-rule:nonzero;"/><path d="M227.515,157.55l11.938,6.445l-9.494,2.573l-2.444,-9.018Z" style="fill:#d3d5d4;fill-rule:nonzero;"/><path d="M205.889,171.936l20.499,-5.556l0.329,1.215l-20.499,5.556l-0.329,-1.215Z" style="fill:#d3d5d4;fill-rule:nonzero;"/><path d="M206.72,175.003l20.499,-5.555l0.33,1.215l-20.499,5.556l-0.33,-1.216Z" style="fill:#d3d5d4;fill-rule:nonzero;"/><path d="M207.552,178.071l20.499,-5.556l0.329,1.215l-20.499,5.556l-0.329,-1.215Z" style="fill:#d3d5d4;fill-rule:nonzero;"/><path d="M208.383,181.138l30.034,-8.14l0.33,1.215l-30.034,8.14l-0.33,-1.215Z" style="fill:#d3d5d4;fill-rule:nonzero;"/><path d="M209.215,184.206l30.034,-8.141l0.329,1.216l-30.034,8.14l-0.329,-1.215Z" style="fill:#d3d5d4;fill-rule:nonzero;"/><path d="M210.046,187.273l30.034,-8.14l0.329,1.215l-30.033,8.141l-0.33,-1.216Z" style="fill:#d3d5d4;fill-rule:nonzero;"/><path d="M210.878,190.341l30.033,-8.14l0.33,1.215l-30.034,8.14l-0.329,-1.215Z" style="fill:#d3d5d4;fill-rule:nonzero;"/><path d="M211.709,193.408l30.034,-8.14l0.329,1.215l-30.033,8.14l-0.33,-1.215Z" style="fill:#d3d5d4;fill-rule:nonzero;"/><path d="M212.541,196.476l30.033,-8.141l0.329,1.216l-30.033,8.14l-0.329,-1.215Z" style="fill:#d3d5d4;fill-rule:nonzero;"/><path d="M213.372,199.543l30.033,-8.14l0.33,1.215l-30.034,8.141l-0.329,-1.216Z" style="fill:#d3d5d4;fill-rule:nonzero;"/><path d="M214.203,202.611l30.034,-8.141l0.33,1.215l-30.034,8.141l-0.33,-1.215Z" style="fill:#d3d5d4;fill-rule:nonzero;"/><path d="M215.035,205.678l30.033,-8.14l0.331,1.215l-30.035,8.14l-0.329,-1.215Z" style="fill:#d3d5d4;fill-rule:nonzero;"/><path d="M251.688,204.782l-34.879,18.841l-24.61,-45.559l26.297,-14.205l13.218,3.946l19.974,36.977Z" style="fill:#fec130;fill-rule:nonzero;"/><path d="M216.809,223.623l-4.258,-7.881l-11.076,-20.506l-9.276,-17.172l26.297,-14.205l13.218,3.946l19.974,36.977l-34.879,18.841Zm-1.04,-31.685l-3.495,10.945l6.915,-3.735l4.466,-2.412l3.183,-1.72l9.99,-5.397l-14.635,-6.002l-1.855,9.592l-4.569,-1.271Z" style="fill:#ffe3a3;fill-rule:nonzero;"/><path d="M231.714,167.805l-8.582,4.636l-4.636,-8.582l13.218,3.946Z" style="fill:#fec130;fill-rule:nonzero;"/><path d="M208.936,189.763c0.78,1.434 2.575,1.963 4.01,1.183c1.434,-0.781 1.964,-2.577 1.183,-4.011c-0.78,-1.434 -2.576,-1.964 -4.01,-1.183c-1.434,0.781 -1.964,2.576 -1.183,4.011Z" style="fill:#fec130;fill-rule:nonzero;"/><path d="M219.189,199.148l17.639,-9.529l-14.635,-6.002l-3.004,15.531Z" style="fill:#fec130;fill-rule:nonzero;"/><path d="M212.274,202.883l14.564,-7.867l-11.069,-3.078l-3.495,10.945Z" style="fill:#fec130;fill-rule:nonzero;"/><path d="M219.189,199.148l4.466,-2.412l-4.466,2.412Z" style="fill:#f7b31f;fill-rule:nonzero;"/><path d="M212.274,202.883l3.495,-10.945l11.069,3.078l-3.183,1.72l-4.466,2.412l-6.915,3.735Z" style="fill:#f7b31f;fill-rule:nonzero;"/><path d="M204.322,186.058l8.357,15.47l22.794,-12.313l-8.356,-15.47l-22.795,12.313Zm7.548,18.18l-10.258,-18.989l26.314,-14.214l10.258,18.989l-26.314,14.214Z" style="fill:#fec130;fill-rule:nonzero;"/><path d="M221.659,209.937c0.32,0.304 0.813,0.383 1.221,0.162c0.511,-0.274 0.7,-0.915 0.429,-1.417l-1.437,-2.66c-0.112,-0.207 -0.031,-0.459 0.177,-0.571c0.2,-0.108 0.455,-0.038 0.567,0.169l1.437,2.66c0.496,0.918 0.148,2.067 -0.771,2.563c-0.737,0.398 -1.628,0.255 -2.204,-0.298c-0.175,-0.165 -0.173,-0.435 -0.014,-0.589c0.164,-0.176 0.43,-0.182 0.595,-0.019Z" style="fill:#fec130;fill-rule:nonzero;"/><path d="M225.388,206.391l0.824,-0.445c0.389,-0.211 0.522,-0.681 0.327,-1.06c-0.217,-0.384 -0.683,-0.531 -1.072,-0.321l-0.824,0.446l0.745,1.38Zm1.225,0.298l-0.824,0.445l0.785,1.455c0.11,0.2 0.032,0.459 -0.175,0.57c-0.202,0.109 -0.458,0.031 -0.567,-0.169l-2.136,-3.952c-0.112,-0.208 -0.032,-0.46 0.169,-0.568l0.007,-0.004l1.194,-0.644c0.795,-0.431 1.787,-0.136 2.217,0.662c0.424,0.784 0.128,1.775 -0.67,2.205Z" style="fill:#fec130;fill-rule:nonzero;"/><path d="M229.738,206.88l-2.135,-3.953c-0.113,-0.207 -0.039,-0.455 0.169,-0.567l0.006,-0.004l0.013,-0.007l2.171,-1.172c0.195,-0.105 0.456,-0.038 0.567,0.169c0.113,0.208 0.03,0.469 -0.164,0.574l-1.816,0.981l0.662,1.226l1.561,-0.843c0.202,-0.109 0.462,-0.025 0.568,0.169c0.111,0.208 0.034,0.466 -0.166,0.574l-1.562,0.843l0.666,1.233l1.817,-0.98c0.193,-0.105 0.458,-0.032 0.569,0.176c0.11,0.2 0.027,0.463 -0.168,0.567l-2.172,1.173l-0.015,-0.001l-0.004,0.012c-0.206,0.112 -0.458,0.031 -0.567,-0.17Z" style="fill:#fec130;fill-rule:nonzero;"/><path d="M232.403,202.809c-0.727,-1.346 -0.195,-3.019 1.166,-3.754c0.57,-0.308 1.218,-0.406 1.81,-0.303c0.243,0.033 0.404,0.267 0.367,0.504c-0.041,0.229 -0.27,0.396 -0.51,0.353c-0.408,-0.065 -0.852,-0.007 -1.253,0.21c-0.483,0.26 -0.807,0.669 -0.942,1.14c-0.153,0.472 -0.12,0.982 0.126,1.437c0.24,0.443 0.649,0.749 1.126,0.881c0.468,0.146 0.987,0.099 1.469,-0.163c0.335,-0.18 0.596,-0.451 0.78,-0.749l-0.496,-0.918l-0.958,0.517c-0.206,0.112 -0.476,0.032 -0.588,-0.175c-0.115,-0.214 -0.026,-0.47 0.18,-0.582l1.319,-0.713l0.008,-0.003l0.006,-0.004c0.215,-0.116 0.475,-0.049 0.591,0.166l0.799,1.48l0.042,0.125l0.005,0.041l0.003,0.006l-0.039,0.23c-0.244,0.556 -0.67,1.036 -1.24,1.344c-1.358,0.735 -3.046,0.27 -3.771,-1.07Z" style="fill:#fec130;fill-rule:nonzero;"/><path d="M190.765,198.238c-0,0 4.504,-6.228 7.086,-8.528c2.582,-2.3 15.36,-7.329 16.603,-4.631c1.604,3.484 -5.2,7.84 -8.812,9.538c-0,0 3.72,8.054 -0.487,12.237c-4.207,4.183 -14.39,-8.616 -14.39,-8.616Z" style="fill:#f9b7b9;fill-rule:nonzero;"/><path d="M214.581,186.181c-0.828,4.232 -5.713,6.155 -9.093,8.064c-0.257,0.145 -0.231,0.404 -0.081,0.578c1.333,3.481 2.201,8.778 -0.009,12.032c-0.065,0.096 0.062,0.201 0.14,0.113c2.844,-3.168 2.416,-8.442 0.712,-12.161c3.497,-1.903 8.311,-4.047 8.372,-8.62l-0.041,-0.006Z" style="fill:#0c2b34;fill-rule:nonzero;"/><path d="M189.048,198.14l17.431,23.164c0,0 -27.196,13.983 -35.441,12.418c-4.82,-0.915 -22.308,-22.194 -29.156,-33.893c-3.713,-6.343 -3.302,-12.209 4.202,-8.961c7.251,3.138 27.239,17.819 28.862,17.583c1.622,-0.235 14.102,-10.311 14.102,-10.311Z" style="fill:#fec130;fill-rule:nonzero;"/><path d="M164.336,202.053c0.04,0.609 0.15,1.22 0.4,1.839c0.18,-0.449 0.29,-0.89 0.36,-1.339l-0.76,-0.5Zm27.55,20.53c-0.59,0.599 -1.13,1.26 -1.48,2.099c0.85,-0.349 1.5,-0.889 2.1,-1.469c0.6,-0.62 1.12,-1.271 1.48,-2.12c-0.85,0.36 -1.49,0.889 -2.1,1.49Zm-26.8,-5.811c-0.59,0.601 -1.13,1.261 -1.48,2.101c0.85,-0.351 1.49,-0.891 2.1,-1.471c0.59,-0.619 1.13,-1.269 1.48,-2.119c-0.84,0.359 -1.49,0.89 -2.1,1.489Zm32.77,-6.009c-0.6,-0.601 -1.26,-1.141 -2.1,-1.48c0.35,0.85 0.89,1.49 1.47,2.109c0.62,0.581 1.26,1.121 2.12,1.471c-0.37,-0.84 -0.91,-1.5 -1.49,-2.1Zm-44.76,-2.88c-0.61,-0.59 -1.26,-1.131 -2.1,-1.48c0.35,0.849 0.89,1.489 1.47,2.11c0.62,0.58 1.26,1.12 2.11,1.469c-0.36,-0.84 -0.9,-1.49 -1.48,-2.099Zm16.93,24.269c-0.52,0.011 -1.05,0.04 -1.57,0.16c0.36,0.271 0.7,0.511 1.01,0.701c0.19,0.02 0.38,0.03 0.56,0.03c0.86,-0.021 1.69,-0.09 2.53,-0.441c-0.84,-0.36 -1.67,-0.439 -2.53,-0.45Zm12.77,-21.53c-0.84,0.02 -1.69,0.11 -2.53,0.451c0.84,0.339 1.69,0.429 2.53,0.44c0.85,-0.011 1.69,-0.09 2.52,-0.44c-0.83,-0.36 -1.67,-0.431 -2.52,-0.451Zm-4.95,10.471c-0.34,0.839 -0.42,1.69 -0.43,2.53c0.01,0.85 0.09,1.689 0.43,2.529c0.35,-0.84 0.43,-1.679 0.45,-2.529c-0.02,-0.84 -0.1,-1.691 -0.45,-2.53Z" style="fill:#fff;fill-rule:nonzero;"/><path d="M198.992,221.66c-1.305,-1.31 -2.401,-2.87 -3.527,-4.338c-1.108,-1.445 -2.204,-2.899 -3.293,-4.358c-1.066,-1.429 -2.109,-2.877 -3.136,-4.334c-0.524,-0.742 -1.039,-1.49 -1.553,-2.238c-0.277,-0.402 -0.554,-0.804 -0.829,-1.208c-0.308,-0.452 -0.562,-0.961 -0.914,-1.379l0.103,-0.076c0.298,0.458 0.714,0.848 1.057,1.273c0.286,0.353 0.569,0.707 0.853,1.061c0.589,0.736 1.178,1.472 1.759,2.215c1.121,1.433 2.229,2.879 3.308,4.344c1.058,1.437 2.114,2.875 3.156,4.324c1.079,1.5 2.257,2.997 3.134,4.627l-0.118,0.087Z" style="fill:#0c2b34;fill-rule:nonzero;"/><path d="M160.126,224.173l-0.21,-0.241c-1.077,-1.211 -2.18,-2.493 -3.289,-3.818c1.178,1.407 2.348,2.764 3.49,4.041l0.009,0.018Zm-7.895,-9.505c-3.199,-4.103 -6.219,-8.294 -8.552,-11.922c2.334,3.628 5.354,7.819 8.552,11.922Zm-11.709,-17.576c-0.812,-2.003 -1.118,-3.81 -0.809,-5.105c-0.307,1.297 -0.001,3.105 0.809,5.105Z" style="fill:#dedfde;fill-rule:nonzero;"/><path d="M160.117,224.155c-1.142,-1.277 -2.312,-2.634 -3.49,-4.041c-1.471,-1.758 -2.952,-3.593 -4.396,-5.446c-3.198,-4.103 -6.218,-8.294 -8.552,-11.922c-0.656,-1.021 -1.257,-1.996 -1.793,-2.914c-0.547,-0.933 -1.005,-1.855 -1.364,-2.74c-0.81,-2 -1.116,-3.808 -0.809,-5.105c0.222,-0.934 0.763,-1.601 1.663,-1.885l18.741,34.053Z" style="fill:#f7b31f;fill-rule:nonzero;"/><path d="M82.933,249.55c0.076,0.197 56.681,21.704 57.416,21.316c1.03,-0.548 11.349,-66.761 8.388,-76.536c-0.634,-2.091 -4.568,-4.086 -8.222,-4.966c-1.01,-0.249 -1.998,-0.407 -2.893,-0.463l-0.099,-0.01c-0.91,-0.043 -1.722,0.026 -2.339,0.224c-12.624,4.095 -30.99,28.108 -35.961,35.524c-8.208,12.21 -16.556,24.203 -16.29,24.911Z" style="fill:#fec130;fill-rule:nonzero;"/><path d="M137.756,195.213c-0.35,0.849 -0.42,1.69 -0.44,2.539c0.02,0.841 0.09,1.671 0.44,2.531c0.35,-0.86 0.43,-1.69 0.45,-2.531c-0.02,-0.849 -0.1,-1.69 -0.45,-2.539Zm8.23,29.83c-0.35,0.83 -0.42,1.689 -0.45,2.519c0.03,0.851 0.1,1.691 0.45,2.531c0.35,-0.84 0.43,-1.68 0.44,-2.531c-0.01,-0.83 -0.09,-1.689 -0.44,-2.519Zm-30.26,-2.53c-0.35,0.839 -0.42,1.69 -0.44,2.53c0.02,0.849 0.09,1.689 0.44,2.519c0.35,-0.83 0.43,-1.67 0.45,-2.519c-0.02,-0.84 -0.1,-1.691 -0.45,-2.53Zm13.839,29.04c-0.349,0.849 -0.429,1.689 -0.439,2.53c0.01,0.849 0.1,1.689 0.439,2.54c0.341,-0.851 0.42,-1.691 0.451,-2.54c-0.02,-0.841 -0.11,-1.681 -0.451,-2.53Zm-11.919,-10.96c-0.83,0.03 -1.68,0.099 -2.52,0.45c0.84,0.349 1.69,0.43 2.52,0.439c0.84,-0.009 1.69,-0.09 2.53,-0.439c-0.84,-0.351 -1.69,-0.42 -2.53,-0.45Zm-30.701,9.849c-0.469,0.021 -0.949,0.04 -1.43,0.151c0.551,0.21 1.18,0.46 1.89,0.73l0.011,-0c0.69,-0.04 1.369,-0.141 2.06,-0.431c-0.841,-0.339 -1.68,-0.419 -2.531,-0.45Zm49.911,-35.099c-0.84,0.029 -1.69,0.109 -2.53,0.45c0.84,0.349 1.69,0.43 2.53,0.439c0.85,-0.009 1.69,-0.09 2.53,-0.439c-0.84,-0.341 -1.68,-0.421 -2.53,-0.45Zm7.08,28.049c-0.84,0.01 -1.68,0.09 -2.53,0.431c0.85,0.35 1.69,0.43 2.53,0.46c0.33,-0.011 0.66,-0.03 0.99,-0.07c0.03,-0.25 0.07,-0.5 0.11,-0.75c-0.36,-0.05 -0.73,-0.071 -1.1,-0.071Zm-22.39,-36.489c-0.61,-0.58 -1.27,-1.12 -2.1,-1.471c0.34,0.841 0.89,1.5 1.47,2.101c0.61,0.58 1.26,1.12 2.11,1.469c-0.36,-0.84 -0.9,-1.489 -1.48,-2.099Zm-20.24,38.61c-0.61,-0.6 -1.26,-1.13 -2.1,-1.47c0.349,0.83 0.89,1.49 1.47,2.099c0.6,0.581 1.26,1.121 2.1,1.47c-0.35,-0.84 -0.89,-1.5 -1.47,-2.099Zm-4.211,-15.73c-0.58,0.609 -1.13,1.26 -1.469,2.1c0.83,-0.35 1.489,-0.891 2.1,-1.47c0.579,-0.601 1.119,-1.261 1.469,-2.101c-0.839,0.351 -1.489,0.891 -2.1,1.471Zm14.571,26.459c-0.58,0.601 -1.12,1.261 -1.47,2.101c0.84,-0.35 1.49,-0.889 2.1,-1.47c0.58,-0.61 1.12,-1.271 1.47,-2.101c-0.84,0.34 -1.5,0.891 -2.1,1.47Zm20.56,-24.399c-0.59,0.599 -1.13,1.259 -1.48,2.099c0.85,-0.349 1.5,-0.889 2.1,-1.469c0.59,-0.621 1.12,-1.27 1.48,-2.121c-0.85,0.371 -1.49,0.89 -2.1,1.491Z" style="fill:#fff;fill-rule:nonzero;"/><path d="M145.309,200.766c-3.114,-0.109 -7.45,-6.5 -8.44,-10.665c-0.066,-0.285 1.031,-2.798 2.221,-5.914c0.714,-1.894 1.465,-4.02 2.01,-6.009l11.645,6.449c-0,-0 -2.368,3.834 -3.298,7.308c-0.074,0.291 -0.119,0.568 -0.137,0.84l-0.019,0.14c-0.173,1.62 -0.972,7.955 -3.982,7.851Z" style="fill:#f9b7b9;fill-rule:nonzero;"/><path d="M141.504,178.403c-0.426,2.679 -1.256,11.828 6.49,14.229c0.461,0.145 0.892,0.233 1.3,0.286l0.018,-0.139c0.015,-0.273 0.061,-0.549 0.131,-0.841c0.935,-3.473 3.301,-7.307 3.301,-7.307l-11.24,-6.228Z" style="fill:#0c2b34;fill-rule:nonzero;"/><path d="M156.68,161.221c-0,-0 3.909,1.653 4.601,5.64c0.69,3.987 -0.246,8.157 -0.591,8.359c-0.347,0.202 -4.01,-13.999 -4.01,-13.999Z" style="fill:#0c2b34;fill-rule:nonzero;"/><path d="M139.306,166.143c-1.363,4.598 1.165,17.828 4.451,20.756c4.764,4.245 12.51,4.592 16.103,-1.122c3.483,-5.539 -0.118,-22.722 -3.783,-25.378c-5.399,-3.911 -14.759,-1.048 -16.771,5.744Z" style="fill:#f9b7b9;fill-rule:nonzero;"/><path d="M152.001,174.652l-0.054,0.092c0.194,0.887 0.267,1.935 -0.484,2.381l0.017,0.049c0.958,-0.322 0.847,-1.713 0.521,-2.522Z" style="fill:#0c2b34;fill-rule:nonzero;"/><path d="M151.031,173.869c-1.455,0.158 -1.032,3.056 0.316,2.91c1.327,-0.144 0.904,-3.042 -0.316,-2.91Z" style="fill:#0c2b34;fill-rule:nonzero;"/><path d="M157.49,173.728l0.08,0.069c0.103,0.902 0.372,1.918 1.228,2.097l0,0.052c-1.011,0.005 -1.356,-1.347 -1.308,-2.218Z" style="fill:#0c2b34;fill-rule:nonzero;"/><path d="M158.155,172.674c1.428,-0.321 1.963,2.559 0.641,2.855c-1.303,0.293 -1.838,-2.587 -0.641,-2.855Z" style="fill:#0c2b34;fill-rule:nonzero;"/><path d="M149.694,172.711c0.38,-0.157 0.705,-0.365 1.065,-0.559c0.406,-0.22 0.752,-0.352 0.977,-0.778c0.121,-0.228 0.004,-0.589 -0.207,-0.727c-0.491,-0.321 -1.055,-0.177 -1.555,0.067c-0.542,0.264 -0.892,0.607 -1.145,1.153c-0.245,0.53 0.363,1.051 0.865,0.844Z" style="fill:#0c2b34;fill-rule:nonzero;"/><path d="M159.063,171.051c-0.412,-0.007 -0.79,-0.082 -1.196,-0.131c-0.458,-0.055 -0.829,-0.052 -1.194,-0.366c-0.196,-0.168 -0.219,-0.547 -0.073,-0.752c0.339,-0.479 0.917,-0.551 1.471,-0.507c0.601,0.048 1.053,0.238 1.488,0.654c0.422,0.403 0.046,1.111 -0.496,1.102Z" style="fill:#0c2b34;fill-rule:nonzero;"/><path d="M152.411,182.802c0.246,0.179 0.503,0.437 0.833,0.417c0.316,-0.019 0.662,-0.214 0.932,-0.367l0.045,0.041c-0.182,0.378 -0.641,0.665 -1.068,0.653c-0.417,-0.011 -0.669,-0.333 -0.822,-0.691l0.08,-0.053Z" style="fill:#0c2b34;fill-rule:nonzero;"/><path d="M152.963,179.977c0.616,0.705 1.417,1.023 2.239,1.062c0.367,0.019 0.744,-0.023 1.107,-0.11l0.206,-0.055l0.192,-0.059c0.103,-0.03 0.148,-0.126 0.151,-0.227l-0.001,-0.007l-0.022,-0.09l-0.001,-0.007l-0.013,-0.078c-0.082,-0.695 -0.302,-1.736 -0.302,-1.736c0.271,0.09 1.643,0.481 1.569,0.123c-0.614,-2.964 -1.298,-6.259 -2.535,-9.078c-0.037,-0.096 -0.184,-0.051 -0.161,0.047c0.478,2.871 1.458,5.639 1.984,8.516c-0.433,-0.096 -1.146,-0.287 -1.506,-0.227c-0.095,0.042 0.462,2.005 0.473,2.319l-0.001,0.034c-1.139,0.318 -2.066,0.095 -3.307,-0.52l-0.072,0.093Z" style="fill:#0c2b34;fill-rule:nonzero;"/><path d="M142.224,176.918c-0,-0 -3.115,-4.198 -5.029,-3.076c-1.913,1.123 0.514,7.268 2.819,8.053c2.306,0.786 3.074,-1.334 3.074,-1.334l-0.864,-3.643Z" style="fill:#f9b7b9;fill-rule:nonzero;"/><path d="M137.935,175.586l-0.011,0.062c1.619,0.603 2.502,2.063 3.136,3.584c-0.493,-0.578 -1.15,-0.885 -1.927,-0.296l0.046,0.084c0.651,-0.158 1.127,-0.058 1.585,0.454c0.324,0.363 0.551,0.827 0.788,1.25c0.078,0.141 0.335,0.057 0.276,-0.106l-0.014,-0.037c-0.018,-2.041 -1.684,-4.851 -3.879,-4.995Z" style="fill:#0c2b34;fill-rule:nonzero;"/><path d="M140.871,176.764c2.308,-0.469 1.977,-6.374 1.977,-6.374c0,-0 2.832,-1.278 3.408,-6.701c-0,-0 2.325,5.155 11.926,3.356c0,-0 0.417,-2.323 -1.032,-4.997c-0,0 1.282,1.815 2.781,5.058c-0,0 1.79,-8.199 -5.262,-10.59c-2.805,-0.95 -6.945,-0.45 -13.057,3.08c-0,-0 -1.456,-3.703 -2.15,-3.16c-0.695,0.544 0.935,3.986 0.935,3.986c0,-0 -2.829,-0.679 -3.258,-0.068c-0.369,0.525 2.347,1.053 2.347,1.053c-0,-0 -4.155,1.628 -3.131,6.475c0.94,4.447 3.374,9.114 4.516,8.882Z" style="fill:#0c2b34;fill-rule:nonzero;"/><path d="M140.25,161.29c-2.51,0.076 -4.646,2.047 -4.849,4.567c-0.111,1.398 0.332,2.867 0.858,4.146c0.576,1.4 1.404,2.609 2.307,3.814l0.094,-0.089c-0.83,-1.071 -1.429,-2.343 -1.89,-3.615c-0.434,-1.196 -0.838,-2.525 -0.865,-3.806c-0.053,-2.542 1.866,-4.593 4.358,-4.876l-0.013,-0.141Z" style="fill:#0c2b34;fill-rule:nonzero;"/><path d="M149.052,155.536c-1.614,0.451 -3.187,1.199 -4.627,2.053c-1.378,0.818 -2.716,1.752 -3.75,2.99l0.089,0.095c2.318,-1.986 5.201,-3.361 8.062,-4.381c2.677,-0.955 5.905,-1.163 8.126,0.92l0.057,-0.053c-2.005,-2.205 -5.248,-2.38 -7.957,-1.624Z" style="fill:#0c2b34;fill-rule:nonzero;"/><path d="M125.31,195.263c-12.633,10.04 -40.283,33.309 -36.422,41.593c6.348,13.619 26.701,29.742 33.315,33.957c2.855,1.821 20.45,-17.681 18.038,-20.38c-2.896,-3.237 -22.978,-18.526 -22.778,-19.652c0.219,-1.237 8.849,-15.544 13.71,-27.389c6.035,-14.701 -0.593,-12.318 -5.863,-8.129Z" style="fill:#f9b7b9;fill-rule:nonzero;"/><path d="M135.921,247.496c0,0 9.073,6.466 15.037,9.732c3.327,1.823 8.752,5.457 10.584,7.914c2.74,3.675 11.853,20.796 7.75,23.095c-3.715,2.081 -9.677,-13.622 -9.677,-13.622c0,0 7.417,15.314 2.483,16.997c-4.933,1.683 -9.309,-16.955 -9.309,-16.955c0,-0 7.267,15.905 1.905,16.836c-4.052,0.704 -8.966,-15.953 -8.966,-15.953c-0,-0 6.15,13.714 2.015,14.617c-4.57,0.998 -10.071,-14.093 -10.071,-14.093c-10.9,0.526 -17.036,-6.652 -20.524,-10.104c-0.845,-0.835 18.773,-18.464 18.773,-18.464Z" style="fill:#f9b7b9;fill-rule:nonzero;"/><path d="M157.835,270.054c3.559,6.554 5.589,13.958 5.896,17.077c0.038,0.381 0.059,0.718 0.05,0.691c-1.22,-3.822 -5.244,-15.899 -6.017,-17.741l0.071,-0.027Z" style="fill:#0c2b34;fill-rule:nonzero;"/><path d="M150.679,271.835c3.407,4.572 4.995,11.576 5.822,13.984c0.064,0.186 -0.057,0.159 -0.128,-0.025c-0.923,-2.373 -4.719,-11.62 -5.751,-13.938l0.057,-0.021Z" style="fill:#0c2b34;fill-rule:nonzero;"/><path d="M144.765,273.689c3.038,4.644 3.713,9.105 3.929,10.37c0.033,0.192 -0.097,0.135 -0.164,-0.052c-1.324,-3.669 -2.077,-5.968 -3.885,-10.253l0.12,-0.065Z" style="fill:#0c2b34;fill-rule:nonzero;"/><path d="M141.014,249.181l-21.365,24.613c0,0 -31.484,-30.262 -31.594,-38.597c-0.111,-8.335 30.098,-36.261 38.318,-41.376c8.22,-5.115 9.454,-1.712 7.046,6.1c-2.408,7.813 -15.537,30.566 -15.517,31.067c0.019,0.5 23.112,18.193 23.112,18.193Z" style="fill:#fec130;fill-rule:nonzero;"/><path d="M111.666,256.242c-0.58,0.601 -1.12,1.261 -1.47,2.101c0.84,-0.35 1.49,-0.889 2.1,-1.47c0.58,-0.61 1.12,-1.271 1.47,-2.101c-0.84,0.34 -1.5,0.891 -2.1,1.47Zm-14.571,-26.459c-0.58,0.609 -1.13,1.26 -1.469,2.1c0.83,-0.35 1.489,-0.891 2.1,-1.47c0.579,-0.601 1.119,-1.261 1.469,-2.101c-0.839,0.351 -1.489,0.891 -2.1,1.471Zm25.181,37.81c-0.6,-0.59 -1.26,-1.12 -2.1,-1.47c0.35,0.84 0.89,1.489 1.47,2.1c0.51,0.49 1.06,0.95 1.72,1.28l0.18,-0.2c-0.32,-0.661 -0.78,-1.21 -1.27,-1.71Zm-20.97,-22.08c-0.61,-0.6 -1.26,-1.13 -2.1,-1.47c0.349,0.83 0.89,1.49 1.47,2.099c0.6,0.581 1.26,1.121 2.1,1.47c-0.35,-0.84 -0.89,-1.5 -1.47,-2.099Zm20.24,-38.61c-0.61,-0.58 -1.27,-1.12 -2.1,-1.471c0.34,0.841 0.89,1.5 1.47,2.101c0.61,0.58 1.26,1.12 2.11,1.469c-0.36,-0.84 -0.9,-1.489 -1.48,-2.099Zm-17.52,6.469l-0.01,-0c-0.25,0.25 -0.5,0.511 -0.75,0.761c0.68,-0.031 1.36,-0.14 2.04,-0.42c-0.43,-0.18 -0.86,-0.281 -1.28,-0.341Zm13.62,27.221c-0.83,0.03 -1.68,0.099 -2.52,0.45c0.84,0.349 1.69,0.43 2.52,0.439c0.84,-0.009 1.69,-0.09 2.53,-0.439c-0.84,-0.351 -1.69,-0.42 -2.53,-0.45Zm11.919,10.96c-0.349,0.849 -0.429,1.689 -0.439,2.53c0.01,0.849 0.1,1.689 0.439,2.54c0.341,-0.851 0.42,-1.691 0.451,-2.54c-0.02,-0.841 -0.11,-1.681 -0.451,-2.53Zm-13.839,-29.04c-0.35,0.839 -0.42,1.69 -0.44,2.53c0.02,0.849 0.09,1.689 0.44,2.519c0.35,-0.83 0.43,-1.67 0.45,-2.519c-0.02,-0.84 -0.1,-1.691 -0.45,-2.53Z" style="fill:#fff;fill-rule:nonzero;"/><path d="M141.487,249.052c0.113,-0.135 -21.983,-17.223 -23.355,-18.39c2.127,-3.356 4.007,-6.884 5.857,-10.398c0.597,-1.135 1.174,-2.281 1.755,-3.423c0.385,-0.493 0.766,-0.989 1.118,-1.508c0.608,-0.897 1.159,-1.818 1.681,-2.768l-0.064,-0.04c-0.624,0.882 -1.25,1.761 -1.866,2.649l-0.06,0.09c0.057,-0.113 0.117,-0.225 0.173,-0.338c0.43,-0.858 0.853,-1.718 1.256,-2.589c0.195,-0.424 0.395,-0.848 0.587,-1.274c0.127,-0.282 0.241,-0.561 0.396,-0.828c0.208,-0.356 0.044,-0.183 0.242,-0.676l-0.088,-0.04c-0.427,0.722 -0.105,0.038 -0.468,0.81c-0.097,0.21 -0.231,0.409 -0.342,0.613c-0.224,0.411 -0.446,0.824 -0.67,1.236c-0.486,0.894 -0.955,1.795 -1.429,2.695c-0.911,1.732 -1.835,3.459 -2.768,5.18c-1.905,3.512 -3.916,6.971 -5.767,10.513c-0.047,0.091 -0.021,0.171 0.027,0.236l0.066,0.144c1.339,1.194 21.893,17.328 23.1,18.326c-0.057,0.061 -0.313,0.372 -0.383,0.468c-0.14,0.191 -0.285,0.38 -0.433,0.566l0.107,0.106c0.163,-0.183 0.323,-0.368 0.478,-0.557c0.075,-0.091 0.512,-0.4 0.85,-0.803Z" style="fill:#0c2b34;fill-rule:nonzero;"/><path d="M124.473,256.597c1.505,-1.698 7.572,-8.445 9.207,-10.003l0.053,0.041c-1.27,1.793 -7.061,8.626 -8.565,10.329c-2.999,3.395 -5.945,6.871 -9.304,9.921l-0.117,-0.091c2.676,-3.589 5.76,-6.853 8.726,-10.197Z" style="fill:#0c2b34;fill-rule:nonzero;"/><path d="M104.999,258.769c-0.714,-0.797 -1.343,-1.67 -2.024,-2.495c-0.681,-0.825 -1.358,-1.654 -2.042,-2.477c-1.345,-1.615 -2.669,-3.246 -3.97,-4.895c-1.301,-1.646 -2.591,-3.303 -3.873,-4.965c-0.652,-0.844 -1.298,-1.694 -1.938,-2.547c-0.623,-0.831 -1.207,-1.807 -1.973,-2.514l-0.111,0.074c0.389,0.892 1.09,1.711 1.659,2.506c0.622,0.869 1.249,1.735 1.883,2.597c1.266,1.722 2.565,3.417 3.901,5.089c1.334,1.67 2.691,3.325 4.07,4.96c0.689,0.818 1.397,1.621 2.111,2.418c0.714,0.797 1.493,1.539 2.194,2.348l0.113,-0.099Z" style="fill:#0c2b34;fill-rule:nonzero;"/><path d="M132.232,400.555l153.587,0l-0.108,-111.558l-153.587,0l0.108,111.558Z" style="fill:#fec130;fill-rule:nonzero;"/><path d="M228.678,277.443l57.022,-0l0.011,11.554l-60.299,0l3.266,-11.554Z" style="fill:#fec130;fill-rule:nonzero;"/><path d="M285.819,400.555l-153.587,0l-0.014,-13.736l-0.094,-97.822l116.376,0l0.958,0.227l0.054,-0.227l36.199,0l0.108,111.558Z" style="fill:#d89e25;fill-rule:nonzero;"/><path d="M285.711,288.997l-36.199,0l2.743,-11.554l33.445,-0l0.011,11.554Zm-37.211,0l-23.088,0l1.452,-5.136l21.636,5.136Z" style="fill:#d89e25;fill-rule:nonzero;"/><path d="M194.363,299.301l-40.622,7.633l-9.799,-52.145l30.161,-5.669l12.327,7.972l7.933,42.209Z" style="fill:#e5e5e4;fill-rule:nonzero;"/><path d="M174.103,249.12l12.327,7.972l-10.46,1.964l-1.867,-9.936Z" style="fill:#d3d5d4;fill-rule:nonzero;"/><path d="M149.548,262.795l22.586,-4.246l0.251,1.339l-22.585,4.245l-0.252,-1.338Z" style="fill:#d3d5d4;fill-rule:nonzero;"/><path d="M150.184,266.173l22.585,-4.244l0.252,1.338l-22.585,4.246l-0.252,-1.34Z" style="fill:#d3d5d4;fill-rule:nonzero;"/><path d="M150.819,269.553l22.585,-4.245l0.252,1.339l-22.586,4.244l-0.251,-1.338Z" style="fill:#d3d5d4;fill-rule:nonzero;"/><path d="M151.454,272.932l33.092,-6.218l0.251,1.339l-33.091,6.218l-0.252,-1.339Z" style="fill:#d3d5d4;fill-rule:nonzero;"/><path d="M152.089,276.312l33.091,-6.218l0.252,1.338l-33.091,6.219l-0.252,-1.339Z" style="fill:#d3d5d4;fill-rule:nonzero;"/><path d="M152.724,279.692l33.092,-6.219l0.251,1.339l-33.091,6.219l-0.252,-1.339Z" style="fill:#d3d5d4;fill-rule:nonzero;"/><path d="M153.359,283.072l33.092,-6.219l0.251,1.339l-33.091,6.219l-0.252,-1.339Z" style="fill:#d3d5d4;fill-rule:nonzero;"/><path d="M167.108,291.272l-1.289,0.242l0.813,4.325c0.048,0.251 -0.111,0.481 -0.362,0.529c-0.244,0.045 -0.48,-0.111 -0.528,-0.362l-0.812,-4.324l-1.28,0.241c-0.251,0.047 -0.485,-0.127 -0.532,-0.369c-0.046,-0.251 0.112,-0.483 0.363,-0.531l3.458,-0.649c0.242,-0.046 0.481,0.111 0.529,0.362c0.045,0.243 -0.117,0.491 -0.36,0.536Z" style="fill:#d3d5d4;fill-rule:nonzero;"/><path d="M172.922,290.046l-1.145,2.379l1.934,1.815c0.175,0.169 0.194,0.458 0.019,0.633l-0.244,0.139c-0.145,0.027 -0.288,-0.021 -0.399,-0.118l-1.711,-1.615l-1.017,2.127c-0.068,0.131 -0.184,0.228 -0.321,0.254c-0.097,0.018 -0.193,0.003 -0.276,-0.041c-0.228,-0.1 -0.322,-0.375 -0.221,-0.595l1.142,-2.394l-1.93,-1.8c-0.177,-0.177 -0.187,-0.46 -0.011,-0.635c0.165,-0.191 0.457,-0.204 0.634,-0.019l1.717,1.605l1.012,-2.118c0.114,-0.239 0.374,-0.33 0.605,-0.214c0.227,0.101 0.313,0.368 0.212,0.597Z" style="fill:#d3d5d4;fill-rule:nonzero;"/><path d="M178.203,289.187l-1.288,0.243l0.812,4.323c0.048,0.251 -0.111,0.482 -0.362,0.529c-0.241,0.046 -0.48,-0.11 -0.527,-0.361l-0.813,-4.324l-1.28,0.241c-0.251,0.048 -0.485,-0.127 -0.532,-0.37c-0.046,-0.25 0.111,-0.482 0.363,-0.53l3.458,-0.649c0.242,-0.046 0.481,0.11 0.529,0.362c0.046,0.242 -0.118,0.491 -0.36,0.536Z" style="fill:#d3d5d4;fill-rule:nonzero;"/><path d="M249.458,289.224l-41.735,-9.906l12.94,-54.514l31.467,7.469l7.831,12.706l-10.503,44.245Z" style="fill:#fec130;fill-rule:nonzero;"/><path d="M249.458,289.224l-41.735,-9.906l12.94,-54.514l31.467,7.469l7.831,12.706l-10.449,44.018l-0.054,0.227Zm-22.185,-27.955l21.107,5.01l-7.495,-15.389l-8.407,6.41l-2.775,-4.317l-10.704,6.321l8.274,1.965Z" style="fill:#ffe3a3;fill-rule:nonzero;"/><path d="M259.961,244.979l-10.269,-2.437l2.438,-10.269l7.831,12.706Z" style="fill:#fec130;fill-rule:nonzero;"/><path d="M225.753,246.305c-0.402,1.72 0.666,3.441 2.386,3.844c1.72,0.403 3.441,-0.666 3.845,-2.386c0.402,-1.721 -0.667,-3.442 -2.387,-3.844c-1.721,-0.403 -3.442,0.665 -3.844,2.386Z" style="fill:#fec130;fill-rule:nonzero;"/><path d="M227.273,261.269l21.107,5.01l-7.495,-15.389l-13.612,10.379Z" style="fill:#fec130;fill-rule:nonzero;"/><path d="M218.999,259.304l17.426,4.137l-6.722,-10.458l-10.704,6.321Z" style="fill:#fec130;fill-rule:nonzero;"/><path d="M236.425,263.441l-17.426,-4.137l10.704,-6.321l6.722,10.458Z" style="fill:#f7b31f;fill-rule:nonzero;"/><path d="M220.203,258.562l27.435,6.513l4.431,-18.67l-27.434,-6.513l-4.432,18.67Zm28.919,8.921l-31.327,-7.436l5.355,-22.563l31.328,7.437l-5.356,22.562Z" style="fill:#fec130;fill-rule:nonzero;"/><path d="M223.697,271.855c0.382,-1.61 2.017,-2.578 3.645,-2.192c0.682,0.161 1.276,0.55 1.679,1.06c0.173,0.201 0.134,0.506 -0.065,0.67c-0.198,0.156 -0.505,0.126 -0.667,-0.082c-0.282,-0.345 -0.683,-0.62 -1.165,-0.734c-0.576,-0.136 -1.132,-0.04 -1.58,0.244c-0.464,0.27 -0.804,0.706 -0.934,1.251c-0.126,0.529 -0.016,1.071 0.275,1.522c0.273,0.454 0.727,0.791 1.304,0.927c0.401,0.095 0.806,0.065 1.17,-0.043l0.259,-1.099l-1.145,-0.273c-0.248,-0.058 -0.406,-0.316 -0.348,-0.564c0.062,-0.258 0.316,-0.4 0.564,-0.341l1.579,0.375l0.007,0.003l0.008,0.001c0.258,0.06 0.421,0.303 0.359,0.559l-0.419,1.772l-0.059,0.131l-0.024,0.036l-0.002,0.008c-0.041,0.065 -0.104,0.119 -0.197,0.156c-0.599,0.273 -1.288,0.355 -1.97,0.192c-1.627,-0.385 -2.655,-1.975 -2.274,-3.579Z" style="fill:#fec130;fill-rule:nonzero;"/><path d="M231.072,271.183c0.059,-0.248 0.297,-0.393 0.545,-0.336c0.241,0.058 0.405,0.3 0.346,0.548l-1.123,4.73c-0.059,0.248 -0.315,0.391 -0.555,0.334c-0.248,-0.059 -0.394,-0.297 -0.336,-0.546l1.123,-4.73Z" style="fill:#fec130;fill-rule:nonzero;"/><path d="M232.34,276.48l1.123,-4.728c0.057,-0.241 0.296,-0.396 0.545,-0.337l0.008,0.002l0.015,0.005l2.597,0.616c0.232,0.055 0.394,0.305 0.337,0.546c-0.06,0.248 -0.315,0.398 -0.548,0.343l-2.172,-0.515l-0.347,1.467l1.867,0.442c0.241,0.058 0.391,0.315 0.336,0.546c-0.059,0.249 -0.306,0.4 -0.547,0.345l-1.867,-0.444l-0.458,1.924c-0.056,0.24 -0.306,0.395 -0.553,0.334c-0.249,-0.059 -0.393,-0.304 -0.336,-0.546Z" style="fill:#fec130;fill-rule:nonzero;"/><path d="M244.97,322.516l-25.092,-32.845l42.162,-32.21l18.631,24.387l-1.572,14.596l-34.129,26.072Z" style="fill:#e5e5e4;fill-rule:nonzero;"/><path d="M280.671,281.848l-1.572,14.596l-6.461,-8.458l8.033,-6.138Z" style="fill:#d3d5d4;fill-rule:nonzero;"/><path d="M257.414,266.07l13.951,18.262l-1.083,0.827l-13.95,-18.262l1.082,-0.827Z" style="fill:#d3d5d4;fill-rule:nonzero;"/><path d="M254.682,268.158l13.95,18.261l-1.082,0.827l-13.951,-18.261l1.083,-0.827Z" style="fill:#d3d5d4;fill-rule:nonzero;"/><path d="M251.949,270.245l13.951,18.262l-1.083,0.827l-13.951,-18.262l1.083,-0.827Z" style="fill:#d3d5d4;fill-rule:nonzero;"/><path d="M249.216,272.333l20.44,26.757l-1.083,0.827l-20.439,-26.757l1.082,-0.827Z" style="fill:#d3d5d4;fill-rule:nonzero;"/><path d="M246.484,274.421l20.44,26.756l-1.083,0.827l-20.441,-26.756l1.084,-0.827Z" style="fill:#d3d5d4;fill-rule:nonzero;"/><path d="M243.751,276.508l20.44,26.756l-1.082,0.828l-20.441,-26.756l1.083,-0.828Z" style="fill:#d3d5d4;fill-rule:nonzero;"/><path d="M241.018,278.596l20.44,26.756l-1.083,0.828l-20.439,-26.757l1.082,-0.827Z" style="fill:#d3d5d4;fill-rule:nonzero;"/><path d="M238.285,280.683l20.441,26.757l-1.083,0.827l-20.441,-26.756l1.083,-0.828Z" style="fill:#d3d5d4;fill-rule:nonzero;"/><path d="M235.553,282.771l20.439,26.756l-1.082,0.827l-20.44,-26.756l1.083,-0.827Z" style="fill:#d3d5d4;fill-rule:nonzero;"/><path d="M232.819,284.858l20.441,26.757l-1.083,0.827l-20.44,-26.757l1.082,-0.827Z" style="fill:#d3d5d4;fill-rule:nonzero;"/><path d="M230.087,286.946l20.44,26.757l-1.083,0.827l-20.44,-26.757l1.083,-0.827Z" style="fill:#d3d5d4;fill-rule:nonzero;"/><path d="M227.355,289.034l20.439,26.756l-1.082,0.827l-20.44,-26.756l1.083,-0.827Z" style="fill:#d3d5d4;fill-rule:nonzero;"/><path d="M230.985,299.314l-41.963,8.89l-11.611,-54.813l31.638,-6.702l12.513,8.138l9.423,44.487Z" style="fill:#335863;fill-rule:nonzero;"/><path d="M221.562,254.827l-10.325,2.188l-2.188,-10.326l12.513,8.138Z" style="fill:#0c2b34;fill-rule:nonzero;"/><path d="M198.159,278.83c0.535,0.376 0.67,1.069 0.312,1.6c-0.19,0.258 -0.436,0.417 -0.72,0.473c-0.302,0.059 -0.608,0.007 -0.88,-0.161l-5.986,-4.095l-0.109,-0.09l-0.06,-0.024l-0.082,-0.133l-0.067,-0.06l-0.057,-0.101l-0.052,-0.081l-0.024,-0.125l-0.039,-0.103l0.001,-0.092l-0.025,-0.125l0.022,-0.077l0.008,-0.15l0.011,-0.039l0.058,-0.177l0.028,-0.043l0.083,-0.145l4.01,-6.042c0.362,-0.514 1.091,-0.656 1.601,-0.312c0.531,0.358 0.669,1.069 0.312,1.6l-3.388,5.071l5.043,3.431Z" style="fill:#fff;fill-rule:nonzero;"/><path d="M201.181,279.521l2.66,-12.766c0.132,-0.615 0.729,-1.004 1.363,-0.876c0.591,0.118 0.984,0.734 0.846,1.327l-2.655,12.787c-0.099,0.461 -0.477,0.786 -0.903,0.869c-0.121,0.024 -0.287,0.035 -0.42,-0.002c-0.631,-0.108 -1.024,-0.726 -0.891,-1.339Z" style="fill:#fff;fill-rule:nonzero;"/><path d="M216.763,271.46l-0.015,0.02l-0.101,0.15l-4.01,6.042c-0.172,0.254 -0.453,0.42 -0.737,0.475c-0.303,0.059 -0.59,0.004 -0.863,-0.164c-0.532,-0.358 -0.667,-1.052 -0.312,-1.6l3.387,-5.073l-5.043,-3.429c-0.531,-0.358 -0.669,-1.07 -0.312,-1.601c0.345,-0.51 1.073,-0.651 1.601,-0.311l5.984,4.095l0.149,0.1l0.026,0.033l0.119,0.142l0.025,0.033l0.084,0.148l0.028,0.051l0.024,0.124l0.037,0.085l-0.002,0.094l0.028,0.141l-0.01,0.04l-0.023,0.169l-0.007,0.058l-0.057,0.178Z" style="fill:#fff;fill-rule:nonzero;"/><path d="M198.072,296.788l-1.007,-4.755c-0.053,-0.25 0.099,-0.484 0.349,-0.537c0.249,-0.054 0.492,0.099 0.546,0.348l0.409,1.934l2.088,-0.441l-0.41,-1.936c-0.053,-0.25 0.1,-0.484 0.349,-0.537c0.25,-0.053 0.493,0.099 0.546,0.348l1.006,4.756c0.054,0.249 -0.107,0.485 -0.357,0.538c-0.249,0.053 -0.483,-0.099 -0.537,-0.35l-0.41,-1.934l-2.088,0.443l0.41,1.934c0.053,0.249 -0.107,0.486 -0.357,0.539c-0.249,0.052 -0.484,-0.099 -0.537,-0.35Z" style="fill:#fff;fill-rule:nonzero;"/><path d="M206.325,290.543l-1.282,0.271l0.912,4.305c0.053,0.249 -0.099,0.483 -0.348,0.536c-0.242,0.052 -0.485,-0.099 -0.538,-0.35l-0.912,-4.303l-1.274,0.27c-0.249,0.053 -0.487,-0.116 -0.538,-0.358c-0.052,-0.25 0.099,-0.484 0.349,-0.537l3.442,-0.73c0.242,-0.05 0.484,0.101 0.537,0.35c0.051,0.243 -0.106,0.495 -0.348,0.546Z" style="fill:#fff;fill-rule:nonzero;"/><path d="M212.856,288.688l1.007,4.755c0.052,0.242 -0.115,0.488 -0.357,0.538c-0.25,0.054 -0.486,-0.106 -0.538,-0.348l-0.719,-3.394l-0.819,1.858c-0.062,0.14 -0.177,0.232 -0.322,0.263l-0.008,0.001l-0.009,0.002c-0.144,0.03 -0.295,-0.006 -0.411,-0.106l-1.493,-1.369l0.719,3.393c0.052,0.242 -0.107,0.485 -0.357,0.539c-0.241,0.051 -0.485,-0.107 -0.537,-0.348l-1.007,-4.756c-0.051,-0.243 0.108,-0.487 0.348,-0.538l0.025,-0.004c0.128,-0.029 0.287,0.006 0.394,0.109l2.075,1.886l1.132,-2.565c0.063,-0.139 0.179,-0.232 0.323,-0.263l0.009,-0.001c0.243,-0.042 0.494,0.106 0.545,0.348Z" style="fill:#fff;fill-rule:nonzero;"/><path d="M215.816,293.029l-1.008,-4.755c-0.05,-0.242 0.101,-0.484 0.351,-0.538c0.249,-0.053 0.493,0.107 0.544,0.349l0.912,4.303l2.184,-0.462c0.233,-0.049 0.486,0.108 0.539,0.357c0.052,0.241 -0.116,0.487 -0.349,0.537l-2.611,0.554l-0.016,0.003l-0.007,0.002c-0.251,0.052 -0.487,-0.108 -0.539,-0.35Z" style="fill:#fff;fill-rule:nonzero;"/><path d="M132.124,400.555l153.587,0l19.19,-102.302l-153.587,-0l-19.19,102.302Z" style="fill:#fec130;fill-rule:nonzero;"/><path d="M249.866,287.658l57.023,-0l-1.988,10.595l-60.299,-0l5.264,-10.595Z" style="fill:#fec130;fill-rule:nonzero;"/><path d="M249.996,363.894l-62.085,4.09l3.991,-36.792l62.084,-4.09l-3.99,36.792Z" style="fill:#fff;fill-rule:nonzero;"/><path d="M187.842,326.495l4.824,-2.965l4.804,10.089l-4.824,2.965l-4.804,-10.089Z" style="fill:#d3d5d4;fill-rule:nonzero;"/><path d="M245.692,360.249l4.824,-2.965l4.804,10.089l-4.824,2.965l-4.804,-10.089Z" style="fill:#d3d5d4;fill-rule:nonzero;"/><path d="M260.243,321.974l-4.245,-2.367l-7.077,10.871l4.245,2.368l7.077,-10.872Z" style="fill:#d3d5d4;fill-rule:nonzero;"/><path d="M194.24,363.388l-4.245,-2.368l-7.078,10.872l4.246,2.368l7.077,-10.872Z" style="fill:#d3d5d4;fill-rule:nonzero;"/><path d="M218.153,342.032l-8.971,11.325l6.823,-0.45c0.658,-0.042 1.129,0.462 1.057,1.132c-0.073,0.669 -0.66,1.221 -1.316,1.266l-9.133,0.6l-0.21,-0.008l-0.061,-0.016l-0.147,-0.012l-0.056,-0.062l-0.1,-0.035l-0.08,-0.037l0.002,-0.023l-0.059,-0.037l-0.074,-0.104l-0.077,-0.058l-0.054,-0.083l-0.031,-0.105l-0.051,-0.103l-0.028,-0.127l-0.013,-0.084l-0.005,-0.151l0.007,-0.066l0.002,-0.021l0.038,-0.152l0.012,-0.108l0.053,-0.11l0.034,-0.111l0.073,-0.088l0.075,-0.114l0.021,-0.001l8.953,-11.346l-6.845,0.451c-0.658,0.043 -1.105,-0.485 -1.035,-1.132c0.073,-0.669 0.637,-1.22 1.295,-1.264l9.132,-0.602l0.022,-0.002l0.148,-0.009l0.083,0.016l0.124,0.015l0.08,0.037l0.099,0.057l0.099,0.059l0.022,-0.002l0.056,0.06l0.075,0.081l0.054,0.082l0.076,0.081l0.051,0.103l0.034,0.084l0.007,0.128l0.031,0.105l0.007,0.128l-0.01,0.086l-0.016,0.152l-0.03,0.089l-0.057,0.131l-0.056,0.131l-0.049,0.068l-0.076,0.112l-0.005,0.044Z" style="fill:#23434c;fill-rule:nonzero;"/><path d="M221.942,341.075c0.072,-0.669 0.636,-1.221 1.294,-1.264c0.635,-0.043 1.131,0.439 1.058,1.109l-1.381,12.732c-0.072,0.67 -0.68,1.224 -1.315,1.266c-0.658,0.044 -1.111,-0.442 -1.037,-1.111l1.381,-12.732Z" style="fill:#23434c;fill-rule:nonzero;"/><path d="M229.997,346.158l2.606,-0.172c1.23,-0.081 2.292,-1.136 2.442,-2.347c0.116,-1.25 -0.729,-2.179 -1.96,-2.098l-2.606,0.172l-0.482,4.445Zm2.345,2.225l-2.606,0.171l-0.507,4.682c-0.071,0.648 -0.658,1.222 -1.316,1.266c-0.635,0.042 -1.106,-0.462 -1.036,-1.111l1.381,-12.731c0.073,-0.669 0.659,-1.224 1.294,-1.266l0.021,-0.001l3.772,-0.249c2.523,-0.166 4.333,1.773 4.054,4.341c-0.274,2.525 -2.533,4.731 -5.057,4.898Z" style="fill:#23434c;fill-rule:nonzero;"/><path d="M240.413,103.803c1.123,10.733 10.739,18.529 21.472,17.406c4.339,-0.454 8.195,-2.295 11.182,-5.045l9.776,1.435l-4.892,-8.452c1.187,-2.888 1.688,-6.102 1.341,-9.41c-1.122,-10.734 -10.739,-18.529 -21.473,-17.407c-10.733,1.123 -18.529,10.74 -17.406,21.473Z" style="fill:#fff;fill-rule:nonzero;"/><path d="M244.416,113.665c0.516,0.738 1.178,1.353 1.777,2.018c0.681,0.584 1.315,1.226 2.065,1.724c1.424,1.092 3.041,1.914 4.714,2.54c1.666,0.668 3.448,0.967 5.219,1.15c0.893,0.032 1.785,0.098 2.675,0.003c0.89,-0.035 1.778,-0.146 2.652,-0.322c3.497,-0.697 6.77,-2.392 9.358,-4.82l0.096,-0.09l0.135,0.018l9.787,1.371l-0.35,0.516l-4.921,-8.436l-0.094,-0.16l0.072,-0.175c1.085,-2.688 1.557,-5.618 1.375,-8.513c-0.233,-2.886 -0.999,-5.761 -2.481,-8.269c-1.453,-2.515 -3.464,-4.705 -5.847,-6.379c-2.39,-1.67 -5.185,-2.745 -8.072,-3.188c-2.889,-0.435 -5.889,-0.226 -8.692,0.651c-2.8,0.89 -5.394,2.423 -7.537,4.447c-4.317,4.046 -6.528,10.162 -5.934,16.052c0.433,3.565 1.76,7.046 4.003,9.862Zm1.847,-26.002c2.122,-2.07 4.712,-3.67 7.537,-4.621c2.827,-0.94 5.874,-1.21 8.837,-0.817c2.959,0.401 5.848,1.452 8.341,3.13c2.494,1.672 4.606,3.915 6.121,6.517c3.039,5.198 3.573,11.841 1.204,17.419l-0.024,-0.335l4.864,8.47l0.359,0.625l-0.709,-0.109l-9.767,-1.5l0.231,-0.071c-2.706,2.452 -6.093,4.126 -9.669,4.774c-0.894,0.164 -1.798,0.261 -2.705,0.282c-0.907,0.079 -1.812,-0.003 -2.715,-0.052c-1.793,-0.216 -3.591,-0.551 -5.262,-1.255c-1.678,-0.661 -3.285,-1.523 -4.714,-2.625c-0.75,-0.505 -1.383,-1.154 -2.063,-1.746c-0.599,-0.673 -1.259,-1.295 -1.771,-2.039c-2.232,-2.842 -3.537,-6.339 -3.945,-9.907c-0.635,-5.884 1.534,-12.038 5.85,-16.14Z" style="fill:#0c2b34;fill-rule:nonzero;"/><path d="M257.344,112.915l-8.347,-8.449l2.804,-2.771l4.877,4.936l10.13,-15.882l3.324,2.12l-12.788,20.046Z" style="fill:#fec130;fill-rule:nonzero;"/></g></svg>