<?xml version="1.0" encoding="UTF-8" standalone="no"?><!DOCTYPE svg PUBLIC "-//W3C//DTD SVG 1.1//EN" "http://www.w3.org/Graphics/SVG/1.1/DTD/svg11.dtd"><svg width="100%" height="100%" viewBox="0 0 411 409" version="1.1" xmlns="http://www.w3.org/2000/svg" xmlns:xlink="http://www.w3.org/1999/xlink" xml:space="preserve" xmlns:serif="http://www.serif.com/" style="fill-rule:evenodd;clip-rule:evenodd;stroke-linejoin:round;stroke-miterlimit:2;"><g><path d="M42.571,221.409l-0.142,-5.653c-0.045,-1.863 -0.112,-3.705 -0.131,-5.536l0.273,0.273c-4.413,0.051 -8.827,0.158 -13.24,0.163l-13.24,0.063l0.499,-0.499l-0.054,11.189l-0.445,-0.445c2.181,0.017 4.358,0.008 6.545,0.055l6.58,0.112l13.355,0.278Zm-0,-0l-13.125,0.279l-6.661,0.112c-2.225,0.047 -4.463,0.038 -6.694,0.055l-0.444,0.004l-0.002,-0.45l-0.054,-11.189l-0.002,-0.502l0.502,0.002l13.24,0.063c4.413,0.005 8.827,0.112 13.24,0.164l0.276,0.003l-0.003,0.27c-0.019,1.898 -0.086,3.786 -0.131,5.653l-0.142,5.536Z" style="fill:#e5e5e4;fill-rule:nonzero;"/><path d="M27.8,235.519l-0.142,-5.653c-0.046,-1.863 -0.113,-3.705 -0.131,-5.536l0.272,0.272c-4.413,0.052 -8.826,0.159 -13.24,0.164l-13.24,0.063l0.499,-0.499l-0.053,11.189l-0.446,-0.445c2.182,0.017 4.358,0.007 6.546,0.055l6.579,0.112l13.356,0.278Zm-0,-0l-13.125,0.279l-6.661,0.112c-2.226,0.047 -4.463,0.037 -6.695,0.055l-0.444,0.003l-0.002,-0.449l-0.054,-11.189l-0.002,-0.502l0.502,0.002l13.24,0.063c4.414,0.005 8.827,0.112 13.24,0.164l0.276,0.003l-0.003,0.27c-0.018,1.898 -0.085,3.786 -0.131,5.653l-0.141,5.536Z" style="fill:#e5e5e4;fill-rule:nonzero;"/><path d="M232.554,142.488l-0.142,-5.654c-0.045,-1.863 -0.112,-3.705 -0.131,-5.536l0.273,0.273c-4.414,0.051 -8.827,0.158 -13.241,0.163l-13.24,0.063l0.5,-0.499l-0.054,11.19l-0.446,-0.446c2.182,0.018 4.358,0.008 6.546,0.055l6.579,0.112l13.356,0.279Zm0,0l-13.125,0.278l-6.661,0.112c-2.226,0.047 -4.463,0.038 -6.695,0.055l-0.443,0.004l-0.003,-0.449l-0.053,-11.19l-0.003,-0.502l0.502,0.002l13.24,0.063c4.414,0.005 8.827,0.113 13.241,0.164l0.275,0.003l-0.002,0.27c-0.019,1.899 -0.086,3.787 -0.131,5.654l-0.142,5.536Z" style="fill:#e5e5e4;fill-rule:nonzero;"/><path d="M217.782,156.597l-0.142,-5.653c-0.045,-1.863 -0.112,-3.705 -0.131,-5.536l0.273,0.273c-4.413,0.051 -8.827,0.158 -13.24,0.163l-13.24,0.063l0.499,-0.499l-0.054,11.189l-0.445,-0.445c2.181,0.017 4.357,0.008 6.545,0.055l6.579,0.112l13.356,0.278Zm-0,0l-13.125,0.279l-6.661,0.112c-2.225,0.047 -4.463,0.038 -6.694,0.055l-0.444,0.004l-0.002,-0.45l-0.054,-11.189l-0.002,-0.502l0.502,0.002l13.24,0.063c4.413,0.005 8.827,0.113 13.24,0.164l0.276,0.003l-0.003,0.27c-0.019,1.898 -0.086,3.786 -0.131,5.653l-0.142,5.536Z" style="fill:#e5e5e4;fill-rule:nonzero;"/><path d="M203.069,142.488l-0.142,-5.654c-0.046,-1.863 -0.113,-3.705 -0.131,-5.536l0.272,0.273c-4.413,0.051 -8.826,0.158 -13.24,0.163l-13.24,0.063l0.499,-0.499l-0.053,11.19l-0.446,-0.446c2.182,0.018 4.358,0.008 6.546,0.055l6.579,0.112l13.356,0.279Zm0,0l-13.125,0.278l-6.661,0.112c-2.226,0.047 -4.463,0.038 -6.695,0.055l-0.444,0.004l-0.002,-0.449l-0.054,-11.19l-0.002,-0.502l0.502,0.002l13.24,0.063c4.414,0.005 8.827,0.113 13.24,0.164l0.276,0.003l-0.003,0.27c-0.018,1.899 -0.085,3.787 -0.13,5.654l-0.142,5.536Z" style="fill:#e5e5e4;fill-rule:nonzero;"/><path d="M398.637,235.519l-0.142,-5.653c-0.045,-1.863 -0.112,-3.705 -0.131,-5.536l0.273,0.272c-4.413,0.052 -8.827,0.159 -13.24,0.164l-13.24,0.063l0.499,-0.499l-0.054,11.189l-0.445,-0.445c2.181,0.017 4.357,0.007 6.545,0.055l6.579,0.112l13.356,0.278Zm-0,-0l-13.125,0.279l-6.661,0.112c-2.225,0.047 -4.463,0.037 -6.694,0.055l-0.444,0.003l-0.002,-0.449l-0.054,-11.189l-0.002,-0.502l0.502,0.002l13.24,0.063c4.413,0.005 8.827,0.112 13.24,0.164l0.276,0.003l-0.003,0.27c-0.019,1.898 -0.086,3.786 -0.131,5.653l-0.142,5.536Z" style="fill:#e5e5e4;fill-rule:nonzero;"/><path d="M383.865,11.812l-0.142,-5.654c-0.045,-1.862 -0.112,-3.704 -0.13,-5.536l0.272,0.273c-4.413,0.051 -8.826,0.159 -13.24,0.164l-13.24,0.063l0.499,-0.5l-0.053,11.19l-0.446,-0.446c2.182,0.018 4.358,0.008 6.546,0.055l6.579,0.112l13.355,0.279Zm-0,0l-13.124,0.279l-6.661,0.112c-2.226,0.047 -4.463,0.037 -6.695,0.055l-0.444,0.003l-0.002,-0.449l-0.054,-11.19l-0.002,-0.502l0.502,0.003l13.24,0.063c4.414,0.005 8.827,0.112 13.24,0.163l0.276,0.004l-0.003,0.269c-0.018,1.899 -0.085,3.787 -0.131,5.654l-0.142,5.536Z" style="fill:#e5e5e4;fill-rule:nonzero;"/><path d="M398.637,25.922l-0.142,-5.654c-0.045,-1.863 -0.112,-3.705 -0.131,-5.536l0.273,0.273c-4.413,0.051 -8.827,0.159 -13.24,0.164l-13.24,0.062l0.499,-0.499l-0.054,11.19l-0.445,-0.446c2.181,0.018 4.357,0.008 6.545,0.055l6.579,0.112l13.356,0.279Zm-0,-0l-13.125,0.279l-6.661,0.112c-2.225,0.047 -4.463,0.037 -6.694,0.055l-0.444,0.003l-0.002,-0.449l-0.054,-11.19l-0.002,-0.502l0.502,0.003l13.24,0.062c4.413,0.005 8.827,0.113 13.24,0.164l0.276,0.003l-0.003,0.27c-0.019,1.899 -0.086,3.787 -0.131,5.654l-0.142,5.536Z" style="fill:#e5e5e4;fill-rule:nonzero;"/><path d="M42.571,11.812l-0.142,-5.654c-0.045,-1.862 -0.112,-3.704 -0.131,-5.536l0.273,0.273c-4.413,0.051 -8.827,0.159 -13.24,0.164l-13.24,0.063l0.499,-0.5l-0.054,11.19l-0.445,-0.446c2.181,0.018 4.358,0.008 6.545,0.055l6.58,0.112l13.355,0.279Zm-0,0l-13.125,0.279l-6.661,0.112c-2.225,0.047 -4.463,0.037 -6.694,0.055l-0.444,0.003l-0.002,-0.449l-0.054,-11.19l-0.002,-0.502l0.502,0.003l13.24,0.063c4.413,0.005 8.827,0.112 13.24,0.163l0.276,0.004l-0.003,0.269c-0.019,1.899 -0.086,3.787 -0.131,5.654l-0.142,5.536Z" style="fill:#e5e5e4;fill-rule:nonzero;"/><rect x="123.612" y="50.237" width="59.81" height="72.548" style="fill:#d3d5d4;fill-rule:nonzero;"/><rect x="130.446" y="56.858" width="46.142" height="59.306" style="fill:#fff;fill-rule:nonzero;"/><rect x="130.446" y="56.858" width="1.801" height="59.306" style="fill:#bec0c1;fill-rule:nonzero;"/><rect x="183.422" y="50.237" width="1.801" height="72.548" style="fill:#bec0c1;fill-rule:nonzero;"/><rect x="145.91" y="70.572" width="10.879" height="32.413" style="fill:#d3d5d4;fill-rule:nonzero;"/><path d="M170.173,65.035l0,-0.5l-29.51,0l-0,16.88l30.01,0l0,-16.88l-0.5,0l0,0.5l-0.5,0l0,15.38l-28.01,0l-0,-14.88l28.51,0l0,-0.5l-0.5,0l0.5,0Z" style="fill:#e5e5e4;fill-rule:nonzero;"/><rect x="35.2" y="20.583" width="59.81" height="72.549" style="fill:#d3d5d4;fill-rule:nonzero;"/><rect x="42.035" y="27.205" width="46.141" height="59.306" style="fill:#fff;fill-rule:nonzero;"/><rect x="42.035" y="27.205" width="1.8" height="59.306" style="fill:#bec0c1;fill-rule:nonzero;"/><rect x="95.01" y="20.583" width="1.801" height="72.549" style="fill:#bec0c1;fill-rule:nonzero;"/><rect x="60.637" y="42.535" width="9.321" height="23.567" style="fill:#e5e5e4;fill-rule:nonzero;"/><path d="M79.773,73.104l0,-0.5l-24.54,0l0,-15.246l24.04,0l0,15.746l0.5,0l0,-0.5l0,0.5l0.5,0l0,-16.746l-26.04,0l0,17.246l26.04,0l0,-0.5l-0.5,0Z" style="fill:#d3d5d4;fill-rule:nonzero;"/><rect x="252.302" y="2.833" width="157.712" height="210.327" style="fill:#d3d5d4;fill-rule:nonzero;"/><rect x="259.777" y="11.258" width="68.195" height="93.552" style="fill:#fff;fill-rule:nonzero;"/><rect x="334.344" y="11.258" width="68.195" height="93.552" style="fill:#fff;fill-rule:nonzero;"/><rect x="259.777" y="111.183" width="68.195" height="93.552" style="fill:#fff;fill-rule:nonzero;"/><rect x="334.344" y="111.183" width="68.195" height="93.552" style="fill:#fff;fill-rule:nonzero;"/><rect x="252.302" y="2.833" width="32.489" height="265.235" style="fill:#e5e5e4;fill-rule:nonzero;"/><path d="M278.631,17.14l0.251,32.535l0.091,32.535l0.173,65.069l-0.172,65.07l-0.09,11.132l-0.253,18.266l-0.252,-18.266l-0.091,-11.132l-0.171,-65.07l0.173,-65.069l0.09,-32.535l0.251,-32.535Z" style="fill:#fff;fill-rule:nonzero;"/><path d="M263.713,24.684l0.25,29.051l0.144,29.051l0.121,58.101l-0.119,58.102l-0.144,14.782l-0.252,21.917l-0.253,-21.917l-0.144,-14.782l-0.118,-58.102l0.12,-58.101l0.144,-29.051l0.251,-29.051Z" style="fill:#fff;fill-rule:nonzero;"/><path d="M271.172,31.543l0.251,34.016l0.091,34.017l0.172,68.032l-0.171,53.765l-0.091,12.613l-0.252,34.017l-0.252,-34.017l-0.091,-12.613l-0.172,-53.765l0.173,-68.032l0.091,-34.017l0.251,-34.016Z" style="fill:#fff;fill-rule:nonzero;"/><path d="M258.164,18.854l0.251,35.603l0.091,35.603l0.172,71.204l-0.172,56.937l-0.089,28.468l-0.253,21.334l-0.253,-21.334l-0.09,-28.468l-0.171,-56.937l0.173,-71.204l0.091,-35.603l0.25,-35.603Z" style="fill:#fff;fill-rule:nonzero;"/><rect x="377.526" y="2.833" width="32.488" height="265.235" style="fill:#e5e5e4;fill-rule:nonzero;"/><path d="M383.685,17.14l0.251,32.535l0.091,32.535l0.173,65.069l-0.172,65.07l-0.091,11.132l-0.252,18.266l-0.252,-18.266l-0.091,-11.132l-0.171,-65.07l0.172,-65.069l0.091,-32.535l0.251,-32.535Z" style="fill:#fff;fill-rule:nonzero;"/><path d="M398.604,24.684l0.25,29.051l0.144,29.051l0.121,58.101l-0.119,58.102l-0.144,14.782l-0.252,21.917l-0.253,-21.917l-0.144,-14.782l-0.118,-58.102l0.12,-58.101l0.144,-29.051l0.251,-29.051Z" style="fill:#fff;fill-rule:nonzero;"/><path d="M391.144,31.543l0.251,34.016l0.091,34.017l0.173,68.032l-0.172,53.765l-0.09,12.613l-0.253,34.017l-0.252,-34.017l-0.091,-12.613l-0.171,-53.765l0.173,-68.032l0.091,-34.017l0.25,-34.016Z" style="fill:#fff;fill-rule:nonzero;"/><path d="M404.152,18.854l0.251,35.603l0.091,35.603l0.172,71.204l-0.171,56.937l-0.091,28.468l-0.252,21.334l-0.252,-21.334l-0.091,-28.468l-0.172,-56.937l0.173,-71.204l0.091,-35.603l0.251,-35.603Z" style="fill:#fff;fill-rule:nonzero;"/><path d="M90.57,299.418l-44.267,-0l-25.337,-126.309l40.532,-18.622l29.072,144.931Z" style="fill:#23434c;fill-rule:nonzero;"/><path d="M210.058,299.418l-119.488,-0l-29.072,-144.931l119.488,-0l29.072,144.931Z" style="fill:#335863;fill-rule:nonzero;"/><rect x="0" y="231.649" width="67.842" height="139.203" style="fill:#23434c;fill-rule:nonzero;"/><path d="M232.382,370.852l-8.299,0l-27.619,-139.203l35.918,0l0,139.203Z" style="fill:#23434c;fill-rule:nonzero;"/><rect x="67.842" y="231.649" width="37.277" height="139.203" style="fill:#335863;fill-rule:nonzero;"/><rect x="232.382" y="231.649" width="37.277" height="139.203" style="fill:#335863;fill-rule:nonzero;"/><rect x="105.119" y="299.418" width="127.263" height="71.434" style="fill:#335863;fill-rule:nonzero;"/><rect x="105.119" y="268.536" width="127.263" height="31.172" style="fill:#335863;fill-rule:nonzero;"/><path d="M76.976,231.649l14.071,-0.252l14.072,-0.175l0.423,-0.005l0.004,0.432l0.158,16.291l0.058,16.29c0.044,10.86 0.078,21.721 0.016,32.581c-0.034,10.86 -0.051,21.721 -0.186,32.581c-0.091,10.86 -0.242,21.721 -0.473,32.581c-0.23,-10.86 -0.381,-21.721 -0.472,-32.581c-0.135,-10.86 -0.152,-21.721 -0.186,-32.581c-0.062,-10.86 -0.028,-21.721 0.016,-32.581l0.057,-16.29l0.159,-16.291l0.426,0.427l-14.072,-0.176l-14.071,-0.251Z" style="fill:#0c2b34;fill-rule:nonzero;"/><path d="M232.382,231.649c0.29,10.901 0.426,21.801 0.539,32.702l0.164,32.702l-0.162,32.702l-0.196,16.35l-0.345,16.352l-0.344,-16.352l-0.196,-16.35l-0.161,-32.702l0.163,-32.702c0.113,-10.901 0.249,-21.801 0.538,-32.702Z" style="fill:#0c2b34;fill-rule:nonzero;"/><path d="M232.382,299.418c-12.059,0.29 -13.883,0.426 -25.942,0.538l-36.178,0.164l-28.964,-0.162l-18.089,-0.196l-18.09,-0.344l18.09,-0.345l18.089,-0.196l28.964,-0.161l36.178,0.164c12.059,0.112 13.883,0.248 25.942,0.538Z" style="fill:#0c2b34;fill-rule:nonzero;"/><path d="M232.382,268.536c-12.059,0.29 -13.883,0.426 -25.942,0.539l-36.178,0.163l-28.964,-0.161l-18.089,-0.196l-18.09,-0.345l18.09,-0.344l18.089,-0.196l28.964,-0.162l36.178,0.164c12.059,0.112 13.883,0.248 25.942,0.538Z" style="fill:#0c2b34;fill-rule:nonzero;"/><path d="M25.782,370.851l-0.919,11.276l-2.141,26.058l-9.824,0l-2.142,-26.058l-0.918,-11.276l15.944,0Z" style="fill:#bec0c1;fill-rule:nonzero;"/><path d="M9.838,370.851l15.944,0l-0.919,11.276l-14.107,0l-0.918,-11.276Z" style="fill:#9c9ea0;fill-rule:nonzero;"/><path d="M94.453,370.851l-0.918,11.276l-2.142,26.058l-9.824,0l-2.142,-26.058l-0.918,-11.276l15.944,0Z" style="fill:#bec0c1;fill-rule:nonzero;"/><path d="M78.509,370.851l15.944,0l-0.918,11.276l-14.108,0l-0.918,-11.276Z" style="fill:#9c9ea0;fill-rule:nonzero;"/><path d="M190.905,370.851l-0.918,11.276l-2.142,26.058l-9.824,0l-2.142,-26.058l-0.918,-11.276l15.944,0Z" style="fill:#bec0c1;fill-rule:nonzero;"/><path d="M174.961,370.851l15.944,0l-0.918,11.276l-14.108,0l-0.918,-11.276Z" style="fill:#9c9ea0;fill-rule:nonzero;"/><path d="M259.591,370.851l-0.918,11.276l-2.142,26.058l-9.823,0l-2.142,-26.058l-0.918,-11.276l15.943,0Z" style="fill:#bec0c1;fill-rule:nonzero;"/><path d="M259.591,370.851l-0.918,11.276l-14.107,0l-0.918,-11.276l15.943,0Z" style="fill:#9c9ea0;fill-rule:nonzero;"/><path d="M0,408.223l49.994,-0.243l49.995,-0.088l99.989,-0.168l99.989,0.167l49.995,0.088l49.994,0.244l-49.994,0.245l-49.995,0.088l-99.989,0.166l-99.989,-0.167l-49.995,-0.089l-49.994,-0.243Z" style="fill:#0c2b34;fill-rule:nonzero;"/><path d="M211.338,407.223c-2.747,-0.372 -71.851,-34.856 -73.603,-37.758c-0.216,-0.336 2.76,-6.646 6.992,-15.231c9.554,-19.431 28.669,-52.284 28.669,-52.284l41.603,23.383l-22.906,43.378c0,-0 7.689,9.305 13.926,17.204l0.012,0.03c3.84,4.859 7.138,9.184 7.744,10.477c1.577,3.379 0.305,11.183 -2.437,10.801Z" style="fill:#f37a6d;fill-rule:nonzero;"/><path d="M211.336,407.22c-2.75,-0.372 -71.848,-34.851 -73.6,-37.752c-0.221,-0.337 2.762,-6.65 6.986,-15.238c3.354,-6.812 7.88,-15.273 12.336,-23.385l43.764,21.331l-8.727,16.537c0,0 7.682,9.308 13.926,17.199l0.012,0.035c3.841,4.851 7.137,9.18 7.74,10.48c1.579,3.377 0.302,11.176 -2.437,10.793Z" style="fill:#e5e5e4;fill-rule:nonzero;"/><path d="M212.125,408.983c-2.85,-0.436 -72.445,-36.206 -74.237,-39.248c-0.829,-1.404 6.16,-16.523 13.871,-32.31l45.341,23.138l-4.404,8.059c-0,0 20.52,25.613 22.127,29.16c1.593,3.539 0.151,11.638 -2.698,11.201Z" style="fill:#fec130;fill-rule:nonzero;"/><path d="M212.557,405.686c-11.519,-6.282 -58.572,-30.535 -70.436,-35.87c-0.096,-0.043 -0.129,0.021 -0.037,0.074c11.281,6.476 58.529,30.347 70.376,35.988c0.249,0.119 0.341,-0.059 0.097,-0.192Z" style="fill:#0c2b34;fill-rule:nonzero;"/><path d="M195.672,366.875c-4.15,-3.216 -10.127,-5.398 -15.316,-3.93c-0.201,0.057 -0.118,0.342 0.055,0.372c5.263,0.9 9.964,2.158 14.945,4.129c0.351,0.138 0.613,-0.34 0.316,-0.571Z" style="fill:#0c2b34;fill-rule:nonzero;"/><path d="M197.959,370.575c-4.15,-3.216 -10.127,-5.397 -15.316,-3.93c-0.201,0.057 -0.117,0.342 0.056,0.372c5.263,0.9 9.963,2.158 14.944,4.129c0.351,0.139 0.614,-0.34 0.316,-0.571Z" style="fill:#0c2b34;fill-rule:nonzero;"/><path d="M200.247,374.275c-4.151,-3.216 -10.128,-5.397 -15.317,-3.929c-0.201,0.056 -0.117,0.341 0.056,0.371c5.263,0.9 9.964,2.158 14.944,4.129c0.351,0.139 0.614,-0.34 0.317,-0.571Z" style="fill:#0c2b34;fill-rule:nonzero;"/><path d="M202.534,377.976c-4.15,-3.217 -10.127,-5.398 -15.316,-3.93c-0.201,0.057 -0.118,0.342 0.055,0.371c5.263,0.901 9.964,2.158 14.945,4.129c0.351,0.139 0.613,-0.34 0.316,-0.57Z" style="fill:#0c2b34;fill-rule:nonzero;"/><path d="M197.386,364.694c-2.226,-0.214 -4.427,-0.536 -6.66,-0.667c2.437,-1.336 4.804,-2.77 7.374,-3.859c1.226,-0.52 2.496,-1.031 3.784,-1.379c2.004,-0.541 8.771,-0.406 5.373,4.215c-1.873,2.548 -7.218,1.945 -9.871,1.69Zm12.222,-4.078c-0.527,-3.411 -4.461,-4.02 -7.205,-3.395c-4.444,1.013 -9.254,3.69 -12.475,6.882l0.023,0.221c-0.166,0.356 -0.043,0.887 0.425,0.944c4.513,0.544 9.269,1.686 13.814,0.829c2.653,-0.5 5.916,-2.253 5.418,-5.481Z" style="fill:#0c2b34;fill-rule:nonzero;"/><path d="M178.486,352.569c0.329,-5.727 5.627,-1.515 6.826,0.18c0.77,1.089 1.423,2.291 2.036,3.474c1.285,2.478 2.194,5.092 3.22,7.675c-1.804,-1.323 -3.705,-2.479 -5.557,-3.733c-2.205,-1.495 -6.707,-4.439 -6.525,-7.596Zm0.39,4.338c2.955,3.558 7.347,5.712 11.17,8.17c0.396,0.255 0.83,-0.076 0.929,-0.456c0.086,0.003 0.17,-0.044 0.159,-0.155c-0.446,-4.513 -2.444,-9.643 -5.222,-13.257c-1.715,-2.231 -5.133,-4.271 -7.715,-1.978c-2.442,2.168 -1.046,5.599 0.679,7.676Z" style="fill:#0c2b34;fill-rule:nonzero;"/><path d="M202.501,361.075l-50.177,-25.344c0,0 36.562,-68.368 35.596,-69.622c-3.373,-4.351 -44.093,-2.37 -61.68,-19.854c-18.623,-18.508 -4.021,-47.357 -4.021,-47.357l48.652,-0c0,-0 -0.822,15.705 1.272,17.431c1.381,1.151 72.914,8.052 75.714,26.926c4.848,32.678 -45.356,117.82 -45.356,117.82Z" style="fill:#0c2b34;fill-rule:nonzero;"/><path d="M204.477,353.246c-5.798,-3.505 -11.737,-6.728 -17.7,-9.943c-5.957,-3.212 -11.958,-6.347 -18.023,-9.35c-3.419,-1.694 -6.913,-3.228 -10.337,-4.911c-0.108,-0.054 -0.198,0.107 -0.091,0.165c3.003,1.613 5.919,3.381 8.913,5.008c2.95,1.604 5.906,3.197 8.873,4.77c5.98,3.17 11.996,6.269 17.993,9.406c3.381,1.768 6.804,3.437 10.249,5.078c0.148,0.07 0.263,-0.138 0.123,-0.223Z" style="fill:#23434c;fill-rule:nonzero;"/><path d="M207.082,258.106c-1.195,-2.47 -4.371,-2.834 -6.737,-3.425c-6.468,-1.616 -12.935,-3.231 -19.406,-4.834c-11.463,-2.839 -23.277,-5.519 -33.548,-11.59c-4.906,-2.9 -9.669,-6.569 -12.121,-11.861c-2.4,-5.18 -2.446,-10.933 -2.484,-16.525c-0.01,-1.382 0.073,-2.762 0.163,-4.141c0.008,-0.121 -0.181,-0.116 -0.188,0.004c-0.358,5.505 -0.921,11.015 0.312,16.462c0.594,2.626 1.593,5.174 3.085,7.423c1.505,2.27 3.459,4.203 5.595,5.878c9.083,7.125 20.478,10.537 31.494,13.35c6.227,1.591 12.476,3.102 18.719,4.631c3.214,0.787 6.427,1.574 9.64,2.361c1.354,0.332 2.887,0.601 3.959,1.564c0.994,0.892 1.279,2.207 1.19,3.493c-0.09,1.319 -0.51,2.606 -0.978,3.834c-0.577,1.512 -1.188,3.011 -1.796,4.511c-1.187,2.927 -2.407,5.841 -3.658,8.742c-2.52,5.847 -5.14,11.653 -7.854,17.413c-5.41,11.484 -11.189,22.793 -17.084,34.033c-0.735,1.401 -1.447,2.812 -2.168,4.219l0.132,0.073c6.312,-11.114 12.211,-22.481 17.825,-33.962c5.572,-11.395 10.877,-22.972 15.387,-34.833c0.796,-2.094 1.558,-4.673 0.521,-6.82Z" style="fill:#23434c;fill-rule:nonzero;"/><path d="M229.893,308.134l-48.684,-27.505c4.166,-8.251 6.986,-14.158 6.708,-14.518c-3.366,-4.352 -44.089,-2.367 -61.682,-19.857c-18.615,-18.51 -4.016,-47.361 -4.016,-47.361l48.65,0c0,0 -0.824,15.714 1.276,17.431c1.381,1.161 72.916,8.055 75.713,26.936c2.228,15.006 -7.149,41.071 -17.965,64.874Z" style="fill:#23434c;fill-rule:nonzero;"/><path d="M319.464,407.073c-2.633,0.865 -79.859,0.047 -82.703,-1.798c-0.341,-0.209 -0.366,-16.755 -0.366,-16.755c-4.173,-21.588 -8.499,-56.638 -8.499,-56.638l51.575,-0.066l5.854,49.027c0,0 10.982,5.009 20.044,9.388l0.024,0.022c5.577,2.692 10.433,5.142 11.544,6.04c2.895,2.35 5.16,9.925 2.527,10.78Z" style="fill:#f37a6d;fill-rule:nonzero;"/><path d="M319.459,407.071c-2.623,0.87 -79.856,0.046 -82.699,-1.799c-0.337,-0.209 -0.36,-16.758 -0.36,-16.758c-1.509,-7.776 -3.029,-17.292 -4.364,-26.286l51.064,0l2.228,18.615c0,0 10.978,5.013 20.042,9.389l0.023,0.023c5.582,2.692 10.433,5.141 11.547,6.034c2.89,2.356 5.153,9.935 2.519,10.782Z" style="fill:#e5e5e4;fill-rule:nonzero;"/><path d="M320.535,407.744c-2.739,0.898 -80.987,0.432 -83.96,-1.472c-0.921,-0.588 -1.492,-8.261 -1.846,-18.547c-0.174,-5.059 -1.655,-10.752 -1.739,-16.544l52.264,0.155l-0.287,9.18c0,0 29.879,13.578 32.915,16.016c3.02,2.438 5.392,10.314 2.653,11.212Z" style="fill:#fec130;fill-rule:nonzero;"/><path d="M319.432,404.607c-13.115,-0.4 -66.05,-0.776 -79.044,-0.175c-0.106,0.004 -0.106,0.076 0,0.082c12.99,0.681 65.926,0.628 79.043,0.308c0.277,-0.007 0.278,-0.206 0.001,-0.215Z" style="fill:#0c2b34;fill-rule:nonzero;"/><path d="M286.833,377.612c-5.156,-0.994 -11.474,-0.239 -15.44,3.415c-0.154,0.141 0.05,0.358 0.218,0.306c5.102,-1.575 9.863,-2.577 15.197,-3.069c0.376,-0.034 0.394,-0.58 0.025,-0.652Z" style="fill:#0c2b34;fill-rule:nonzero;"/><path d="M290.545,379.88c-5.156,-0.994 -11.473,-0.239 -15.44,3.414c-0.153,0.142 0.05,0.358 0.218,0.307c5.102,-1.575 9.863,-2.577 15.197,-3.069c0.376,-0.035 0.394,-0.581 0.025,-0.652Z" style="fill:#0c2b34;fill-rule:nonzero;"/><path d="M294.257,382.148c-5.156,-0.995 -11.473,-0.24 -15.439,3.414c-0.154,0.141 0.05,0.358 0.217,0.306c5.102,-1.575 9.864,-2.577 15.198,-3.069c0.376,-0.034 0.394,-0.58 0.024,-0.651Z" style="fill:#0c2b34;fill-rule:nonzero;"/><path d="M297.97,384.415c-5.156,-0.994 -11.474,-0.239 -15.44,3.415c-0.154,0.141 0.05,0.357 0.217,0.306c5.102,-1.575 9.864,-2.577 15.198,-3.069c0.376,-0.035 0.394,-0.581 0.025,-0.652Z" style="fill:#0c2b34;fill-rule:nonzero;"/><path d="M287.376,374.892c-2.082,0.815 -4.191,1.523 -6.243,2.414c1.57,-2.292 3.034,-4.641 4.835,-6.774c0.859,-1.018 1.761,-2.047 2.753,-2.94c1.543,-1.388 7.641,-4.325 6.697,1.333c-0.52,3.119 -5.56,4.996 -8.042,5.967Zm9.061,-9.16c-2.012,-2.805 -5.796,-1.571 -7.962,0.227c-3.507,2.911 -6.588,7.473 -8.019,11.776c-0.036,0.106 0.035,0.171 0.12,0.187c0.013,0.392 0.363,0.81 0.806,0.649c4.271,-1.553 9.031,-2.684 12.698,-5.501c2.141,-1.645 4.26,-4.684 2.357,-7.338Z" style="fill:#0c2b34;fill-rule:nonzero;"/><path d="M265.036,372.615c-2.294,-5.257 4.336,-3.894 6.171,-2.924c1.18,0.623 2.305,1.402 3.387,2.18c2.266,1.63 4.258,3.551 6.34,5.392c-2.207,-0.365 -4.426,-0.537 -6.644,-0.82c-2.643,-0.337 -7.989,-0.93 -9.254,-3.828Zm2.309,3.694c4.243,1.839 9.134,1.776 13.656,2.241c0.468,0.049 0.706,-0.442 0.623,-0.826c0.078,-0.036 0.131,-0.116 0.071,-0.21c-2.437,-3.825 -6.537,-7.499 -10.647,-9.468c-2.539,-1.215 -6.51,-1.49 -7.777,1.721c-1.2,3.038 1.596,5.469 4.074,6.542Z" style="fill:#0c2b34;fill-rule:nonzero;"/><path d="M287.042,368.591l-58.296,-0.427c0,0 -11.23,-86.157 -15.961,-91.221c-2.394,-2.567 -79.331,-2.901 -98.197,-20.881c-19.012,-18.12 -0,-57.164 -0,-57.164l49.642,-0c-0,-0 1.232,15.319 -2.566,24.7c0,0 69.416,1.119 88.337,15.991c25.379,19.948 37.041,129.002 37.041,129.002Z" style="fill:#0c2b34;fill-rule:nonzero;"/><path d="M282.286,359.296c-6.756,-0.494 -13.512,-0.672 -20.284,-0.833c-6.765,-0.161 -13.536,-0.232 -20.303,-0.159c-3.815,0.042 -7.626,0.259 -11.441,0.312c-0.12,0.002 -0.127,0.186 -0.005,0.188c3.407,0.076 6.808,0.329 10.214,0.421c3.357,0.091 6.714,0.171 10.072,0.227c6.767,0.113 13.534,0.146 20.302,0.221c3.815,0.043 7.623,-0.022 11.437,-0.123c0.163,-0.004 0.172,-0.242 0.008,-0.254Z" style="fill:#23434c;fill-rule:nonzero;"/><path d="M139.867,206.14c-0.071,0.231 -0.163,0.452 -0.278,0.664l0.029,0.114c-0.655,2.031 -0.924,4.194 -1.555,6.23c-0.685,2.213 -1.852,4.051 -3.772,5.384c-3.847,2.67 -8.48,3.883 -12.956,4.994c-0.145,0.036 -0.098,0.245 0.04,0.249c2.545,0.073 5.214,-0.441 7.644,-1.172c2.247,-0.676 4.574,-1.645 6.442,-3.089c1.87,-1.444 3.09,-3.28 3.695,-5.566c0.309,-1.171 0.466,-2.382 0.644,-3.579c0.203,-1.364 0.46,-2.806 0.449,-4.187c-0.002,-0.221 -0.326,-0.252 -0.382,-0.042Z" style="fill:#23434c;fill-rule:nonzero;"/><path d="M170.738,220.188c-3.061,0.741 -6.039,2.165 -8.924,3.409l-0.14,0.062c0.069,-0.172 0.105,-0.362 0.134,-0.541c0.034,-0.214 0.069,-0.429 0.103,-0.643c0.036,-0.224 0.051,-0.451 0.074,-0.676c0.011,-0.115 0.022,-0.229 0.033,-0.343l0.005,-0.039c0.696,-0.038 1.394,-0.354 1.916,-0.983c0.663,-0.798 0.933,-1.826 1.193,-2.808c0.336,-1.269 0.643,-2.547 0.922,-3.83c0.31,-1.427 0.571,-2.864 0.798,-4.306c0.223,-1.408 0.488,-2.845 0.49,-4.274c0.001,-0.23 -0.343,-0.264 -0.398,-0.044c-0.334,1.314 -0.485,2.676 -0.734,4.007c-0.251,1.338 -0.538,2.669 -0.841,3.995c-0.303,1.328 -0.637,2.649 -1.001,3.961c-0.323,1.162 -0.654,2.859 -2.006,3.243c-2.785,0.792 -1.535,-5.463 -1.413,-6.686c0.285,-2.833 0.459,-5.723 0.955,-8.528c0.02,-0.118 -0.155,-0.165 -0.183,-0.046c-0.604,2.58 -1.298,5.113 -1.756,7.729c-0.225,1.279 -0.388,2.573 -0.525,3.864c-0.116,1.092 -0.261,2.307 0.255,3.326c0.409,0.807 1.1,1.251 1.841,1.361c-0.029,0.097 -0.059,0.195 -0.088,0.292c-0.062,0.207 -0.132,0.413 -0.183,0.624c-0.05,0.21 -0.099,0.421 -0.149,0.632c-0.055,0.233 -0.166,0.538 -0.091,0.771l0.139,0.168c-1.191,0.516 -2.382,1.032 -3.56,1.578c-1.417,0.657 -2.981,1.212 -4.28,2.081c-0.16,0.074 -0.032,0.296 0.119,0.264c1.532,-0.328 3.024,-1.063 4.487,-1.623c1.49,-0.571 2.962,-1.179 4.436,-1.789c2.843,-1.177 5.878,-2.309 8.487,-3.953c0.139,-0.088 0.039,-0.293 -0.115,-0.255Z" style="fill:#23434c;fill-rule:nonzero;"/><path d="M113.534,222.219c0.525,-4.893 1.557,-9.729 3.026,-14.428c0.381,-1.216 0.785,-2.425 1.212,-3.625c0.042,-0.117 0.228,-0.063 0.188,0.056c-1.567,4.715 -2.66,9.596 -3.313,14.517c-0.631,4.759 -1.027,9.646 -0.452,14.431c0.53,4.402 1.956,8.57 4.579,12.186c2.36,3.255 5.474,5.943 8.883,8.077c8.037,5.03 17.586,6.858 26.777,8.644c10.109,1.965 20.259,3.725 30.435,5.313c11.441,1.786 33.892,3.019 34.884,5.039c1.912,3.892 4.933,22.039 6.881,33.158c1.937,11.06 3.265,19.831 4.46,30.994c0.679,6.335 1.272,12.681 1.637,19.043c0.024,0.412 -0.601,0.382 -0.638,-0.016c-1.07,-11.252 -1.953,-20.134 -3.528,-31.33c-1.557,-11.077 -3.443,-22.11 -5.665,-33.075c-1.235,-6.096 -3.565,-16.876 -4.303,-17.887c-1.147,-1.57 -20.39,-2.948 -30.686,-4.535c-10.412,-1.605 -20.795,-3.397 -31.141,-5.376c-9.458,-1.808 -19.301,-3.432 -27.805,-8.167c-7.337,-4.086 -13.313,-10.51 -15.108,-18.826c-1.005,-4.652 -0.828,-9.49 -0.323,-14.193Z" style="fill:#23434c;fill-rule:nonzero;"/><path d="M184.806,273.791c2.009,-0.053 25.28,2.107 29.246,2.897c0.282,0.056 7.347,39.445 8.033,46.704c0.09,0.959 -0.279,1.841 -0.557,-0c-0.539,-3.57 -8.686,-45.674 -8.698,-45.698c-3.974,-0.455 -26.11,-3.284 -28.068,-3.627c-0.164,-0.029 -0.107,-0.272 0.044,-0.276Z" style="fill:#23434c;fill-rule:nonzero;"/><path d="M163.603,223.499c13.116,0.189 27.793,1.563 40.796,3.23c6.034,0.773 12.069,1.657 18.053,2.754c5.333,0.978 10.656,2.192 15.747,4.079c2.789,1.034 5.5,2.251 8.057,3.776c2.567,1.532 4.845,3.452 7.036,5.472c0.094,0.086 -0.047,0.213 -0.141,0.134c-4.048,-3.389 -9.117,-5.807 -14.025,-7.676c-4.99,-1.9 -10.196,-3.184 -15.433,-4.186c-5.85,-1.12 -11.758,-1.935 -17.657,-2.745c-6.383,-0.877 -12.774,-1.641 -19.181,-2.314c-7.224,-0.759 -16.035,-1.374 -23.263,-2.096c-0.271,-0.027 -0.268,-0.432 0.011,-0.428Z" style="fill:#23434c;fill-rule:nonzero;"/><path d="M171.153,97.737c-0,-0 -9.427,-7.52 -19.65,-3.34c-10.223,4.18 -17.033,17.606 -17.47,29.77c-0.438,12.164 -11.468,18.37 -14.018,27.028c-2.551,8.658 2.555,13.731 3.715,18.699c1.327,5.687 -10.808,23.028 11.176,31.264c27.49,10.299 41.335,-5.33 40.892,-20.277c-0.217,-7.321 -3.344,-13.028 -2.297,-18.743c1.047,-5.715 5.871,-9.591 4.993,-17.213c-0.878,-7.621 -3.842,-7.11 -3.057,-18.709c0.784,-11.599 5.449,-24.83 -4.284,-28.479Z" style="fill:#0c2b34;fill-rule:nonzero;"/><path d="M153.514,94.459c-6.837,2.966 -12.389,7.804 -16.186,13.884c-1.924,3.08 -3.342,6.435 -4.167,9.938c-1.081,4.597 -1.109,9.068 -3.607,13.284c-3.996,6.753 -10.559,11.839 -11.664,19.929c-0.51,3.732 0.041,7.572 1.633,11.078c1.839,4.052 4.849,7.515 6.243,11.757c0.058,0.175 0.332,0.077 0.281,-0.096c-1.125,-3.751 -3.456,-6.866 -5.241,-10.356c-2.137,-4.176 -2.952,-8.848 -2.051,-13.361c1.519,-7.611 7.981,-12.562 11.718,-19.099c1.691,-2.959 2.285,-6.003 2.744,-9.327c0.544,-3.928 1.612,-7.69 3.43,-11.253c3.586,-7.027 9.627,-12.598 16.931,-16.268l-0.064,-0.11Z" style="fill:#0c2b34;fill-rule:nonzero;"/><path d="M126.792,179.288l-0.009,0.051l0.009,-0.051Z" style="fill:#0c2b34;fill-rule:nonzero;"/><path d="M176.044,178.816c-0.135,-3.54 -1.396,-6.945 -1.53,-10.472c-0.161,-4.249 1.571,-8.159 3.038,-12.054c2.093,-5.556 2.889,-11.005 1.272,-16.848c-1.046,-3.777 -2.489,-7.39 -3.08,-11.279c-0.641,-4.21 -0.671,-8.52 -0.071,-12.718c0.013,-0.092 -0.133,-0.116 -0.149,-0.024c-1.091,6.152 -0.93,12.182 0.808,18.264c0.998,3.494 2.412,6.857 2.71,10.495c0.359,4.376 -0.747,8.354 -2.194,12.433c-0.964,2.719 -2.037,5.459 -2.499,8.317c-0.481,2.973 0.008,5.762 0.586,8.711c1.499,7.642 0.206,14.99 -3.811,21.663c-0.069,0.115 0.135,0.24 0.21,0.127c3.234,-4.962 4.934,-10.698 4.71,-16.615Z" style="fill:#0c2b34;fill-rule:nonzero;"/><path d="M119.425,150.043c1.323,-6.256 6.439,-9.788 10.032,-14.796c2.714,-3.784 4.83,-7.956 4.936,-12.616l-0.143,-0.007c-0.777,6.64 -4.553,12.137 -9.132,17.027c-3.044,3.252 -5.646,6.433 -6.418,10.839c-0.756,4.315 0.352,8.248 2.204,12.241c1.321,2.845 2.643,5.514 2.873,8.651c0.228,3.12 -0.471,6.239 -1.134,9.255c-0.034,0.158 0.224,0.198 0.264,0.045c1.22,-4.647 2.067,-9.212 0.425,-13.924c-2.018,-5.789 -5.251,-10.358 -3.907,-16.715Z" style="fill:#0c2b34;fill-rule:nonzero;"/><path d="M177.895,174.531c-0.582,-2.323 -1.58,-4.522 -2.584,-6.715c-1.807,-3.952 -1.721,-6.894 -0.204,-10.964c0.035,-0.093 -0.104,-0.158 -0.152,-0.068c-1.744,3.268 -2.507,6.1 -0.996,9.64c2.109,4.939 4.227,9.473 3.914,14.889c-0.557,9.611 -7.382,17.503 -16.83,20.809c-0.133,0.047 -0.054,0.236 0.081,0.196c7.856,-2.339 14.036,-7.933 16.389,-15.371c1.263,-3.992 1.409,-8.312 0.382,-12.416Z" style="fill:#0c2b34;fill-rule:nonzero;"/><path d="M152.587,153.291c2.495,19.048 10.335,49.079 20.11,50.011c8.924,0.85 37.621,-7.102 46.517,-11.35c8.952,-4.276 -6.937,-28.796 -12.495,-27.011c-8.387,2.695 -27.26,9.614 -29.063,8.807c-2.248,-1.006 -4.574,-7.067 -15.983,-25.448c-4.667,-7.52 -10.149,-3.116 -9.086,4.991Z" style="fill:#f37a6d;fill-rule:nonzero;"/><path d="M218.215,192.128c3.324,-0.5 18.351,-4.131 22.307,-6.077c3.956,-1.946 14.934,-8.371 13.752,-11.552c-1.183,-3.181 -4.547,-1.557 -4.547,-1.557c0,0 4.206,-3.447 2.724,-6.54c-1.483,-3.093 -6.634,-0.395 -6.634,-0.395c0,0 4.062,-3.855 2.363,-6.835c-1.699,-2.979 -6.424,0.601 -6.424,0.601c-0,-0 3.878,-3.351 1.445,-5.217c-2.927,-2.244 -9.378,4.742 -13.906,6.563c-1.029,0.413 -21.441,6.896 -21.441,6.896l10.361,24.113Z" style="fill:#f37a6d;fill-rule:nonzero;"/><path d="M242.167,159.474c-4.756,5.127 -7.724,6.547 -14.377,8.316c-0.13,0.034 -0.108,0.235 0.031,0.212c6.673,-1.139 10.652,-2.383 14.606,-8.31c0.193,-0.29 -0.034,-0.461 -0.26,-0.218Z" style="fill:#0c2b34;fill-rule:nonzero;"/><path d="M246.188,165.593c-5.405,4.894 -8.61,6.462 -15.442,8.827c-0.097,0.034 -0.05,0.201 0.05,0.175c6.896,-1.759 10.838,-3.092 15.596,-8.69c0.216,-0.254 0.043,-0.535 -0.204,-0.312Z" style="fill:#0c2b34;fill-rule:nonzero;"/><path d="M249.375,173.052c-5.575,4.36 -9.014,6.231 -15.942,7.675c-0.163,0.035 -0.129,0.276 0.038,0.258c7.207,-0.786 11.517,-3.089 16.019,-7.749c0.307,-0.318 0.236,-0.458 -0.115,-0.184Z" style="fill:#0c2b34;fill-rule:nonzero;"/><path d="M203.673,168.842c0,-0 5.366,-6.927 8.395,-9.449c3.029,-2.523 17.777,-7.771 19.091,-4.65c1.697,4.03 -6.22,8.736 -10.399,10.535c-0,-0 3.934,9.317 -1.017,13.924c-4.951,4.607 -16.07,-10.36 -16.07,-10.36Z" style="fill:#f37a6d;fill-rule:nonzero;"/><path d="M231.262,156.003c-1.103,4.791 -6.741,6.798 -10.664,8.846c-0.299,0.155 -0.278,0.45 -0.114,0.655c1.388,4.015 2.177,10.084 -0.464,13.708c-0.077,0.106 0.063,0.23 0.155,0.134c3.36,-3.502 3.071,-9.528 1.269,-13.828c4.057,-2.037 9.622,-4.298 9.865,-9.506l-0.047,-0.009Z" style="fill:#0c2b34;fill-rule:nonzero;"/><path d="M203.069,165.392l12.695,31.97c0,-0 -36.664,10.083 -44.488,6.591c-7.825,-3.493 -17.493,-28.113 -20.269,-49.083c-2.777,-20.969 8.881,-11.759 13.042,-4.911c4.162,6.848 13.091,22.601 13.687,22.474c0.597,-0.128 25.333,-7.041 25.333,-7.041Z" style="fill:#fec130;fill-rule:nonzero;"/><path d="M180.557,176.706c-0.246,0.194 -0.471,0.297 -0.727,0.358c-0.512,0.102 -1.013,-0.051 -1.351,-0.409c-0.553,-0.543 -1.443,-0.696 -2.119,-0.379c-0.327,0.143 -0.614,0.45 -0.778,0.696c-0.174,0.266 -0.368,0.512 -0.532,0.798c0.287,-0.174 0.532,-0.358 0.798,-0.532c0.256,-0.215 0.471,-0.328 0.727,-0.389c0.492,-0.123 1.024,0.01 1.362,0.358c0.511,0.532 1.402,0.737 2.088,0.43c0.337,-0.133 0.634,-0.409 0.808,-0.665c0.164,-0.266 0.359,-0.512 0.522,-0.799c-0.286,0.164 -0.522,0.348 -0.798,0.533Zm-18.22,-29.162c-0.174,0.113 -0.338,0.235 -0.511,0.348c-0.246,0.195 -0.471,0.307 -0.727,0.358c-0.512,0.103 -1.003,-0.041 -1.351,-0.419c-0.553,-0.533 -1.444,-0.686 -2.109,-0.359c-0.338,0.133 -0.624,0.44 -0.788,0.686c-0.174,0.256 -0.369,0.512 -0.522,0.788c0.276,-0.153 0.522,-0.348 0.788,-0.532c0.256,-0.205 0.461,-0.307 0.727,-0.379c0.491,-0.123 1.023,0.011 1.361,0.359c0.512,0.532 1.413,0.737 2.088,0.429c0.338,-0.133 0.635,-0.409 0.809,-0.665c0.112,-0.164 0.225,-0.327 0.327,-0.491c0.072,-0.102 0.134,-0.195 0.195,-0.307c-0.102,0.061 -0.195,0.123 -0.287,0.184Zm-2.907,19.458c-0.061,-0.307 -0.102,-0.624 -0.184,-0.931c-0.092,0.307 -0.133,0.624 -0.194,0.931c-0.031,0.338 -0.103,0.553 -0.236,0.788c-0.266,0.441 -0.737,0.717 -1.218,0.707c-0.737,-0 -1.515,0.481 -1.781,1.177c-0.143,0.327 -0.153,0.727 -0.102,1.034c0.071,0.307 0.102,0.624 0.194,0.931c0.082,-0.307 0.123,-0.624 0.185,-0.931c0.04,-0.307 0.122,-0.543 0.266,-0.768c0.286,-0.43 0.747,-0.686 1.259,-0.665c0.767,-0.011 1.494,-0.533 1.74,-1.229c0.143,-0.337 0.133,-0.757 0.071,-1.044Zm36.726,16.705c-0.061,-0.317 -0.102,-0.624 -0.194,-0.932c-0.082,0.308 -0.123,0.615 -0.184,0.932c-0.031,0.338 -0.103,0.553 -0.236,0.788c-0.266,0.44 -0.737,0.717 -1.218,0.706c-0.747,-0.01 -1.515,0.471 -1.781,1.167c-0.143,0.338 -0.154,0.737 -0.102,1.044c0.061,0.307 0.102,0.625 0.194,0.932c0.082,-0.307 0.123,-0.625 0.184,-0.932c0.041,-0.317 0.123,-0.542 0.266,-0.767c0.287,-0.43 0.748,-0.686 1.249,-0.666c0.778,-0.01 1.505,-0.532 1.751,-1.238c0.143,-0.328 0.122,-0.747 0.071,-1.034Zm-34.3,4.36c-0.317,-0.041 -0.553,-0.122 -0.767,-0.266c-0.43,-0.286 -0.686,-0.747 -0.666,-1.249c-0.01,-0.777 -0.532,-1.514 -1.238,-1.75c-0.144,-0.061 -0.287,-0.092 -0.44,-0.102c0.092,0.235 0.184,0.471 0.276,0.706c0.389,0.266 0.635,0.706 0.624,1.157c0,0.194 0.031,0.389 0.082,0.573l0.021,0.051c0.041,0.092 0.082,0.184 0.112,0.276l0.021,0.031c0.204,0.389 0.532,0.696 0.931,0.85c0.338,0.153 0.737,0.153 1.044,0.092c0.307,-0.061 0.625,-0.092 0.932,-0.184c-0.307,-0.093 -0.625,-0.123 -0.932,-0.185Zm40.493,-16.899c-0.317,-0.041 -0.553,-0.123 -0.778,-0.266c-0.42,-0.287 -0.676,-0.747 -0.655,-1.249c-0.01,-0.778 -0.532,-1.515 -1.239,-1.75c-0.337,-0.143 -0.747,-0.123 -1.033,-0.072c-0.318,0.062 -0.625,0.103 -0.942,0.195c0.317,0.082 0.624,0.112 0.942,0.174c0.327,0.041 0.552,0.112 0.777,0.245c0.441,0.267 0.727,0.737 0.717,1.218c-0.02,0.748 0.471,1.515 1.167,1.781c0.338,0.154 0.737,0.154 1.044,0.093c0.307,-0.062 0.624,-0.093 0.931,-0.185c-0.307,-0.092 -0.624,-0.122 -0.931,-0.184Zm9.57,24.238c-0.317,-0.03 -0.552,-0.112 -0.778,-0.255c-0.429,-0.297 -0.675,-0.748 -0.665,-1.259c-0.01,-0.768 -0.532,-1.505 -1.228,-1.741c-0.348,-0.143 -0.758,-0.133 -1.034,-0.071c-0.317,0.061 -0.624,0.102 -0.942,0.184c0.318,0.092 0.625,0.123 0.942,0.184c0.317,0.041 0.553,0.103 0.778,0.246c0.43,0.256 0.716,0.737 0.706,1.218c-0.01,0.737 0.481,1.505 1.177,1.771c0.328,0.153 0.727,0.164 1.044,0.102c0.307,-0.061 0.614,-0.102 0.932,-0.184c-0.318,-0.092 -0.625,-0.123 -0.932,-0.195Zm-29.079,0.891c-0.318,-0.031 -0.543,-0.113 -0.768,-0.256c-0.43,-0.287 -0.686,-0.747 -0.666,-1.249c-0.01,-0.778 -0.532,-1.515 -1.238,-1.76c-0.328,-0.133 -0.737,-0.113 -1.034,-0.062c-0.317,0.062 -0.624,0.093 -0.931,0.185c0.307,0.092 0.614,0.122 0.931,0.184c0.338,0.041 0.553,0.112 0.788,0.245c0.44,0.267 0.717,0.737 0.707,1.208c-0.011,0.758 0.481,1.525 1.167,1.791c0.337,0.154 0.736,0.154 1.044,0.093c0.307,-0.062 0.624,-0.103 0.931,-0.185c-0.307,-0.092 -0.624,-0.122 -0.931,-0.194Z" style="fill:#fff;fill-rule:nonzero;"/><clipPath id="_clip1"><path d="M160.712,189.386c-0.275,-0.61 -0.55,-1.236 -0.82,-1.871c0.001,0.001 0.001,0.002 0.001,0.003c0.27,0.634 0.544,1.259 0.819,1.868Zm-0.992,-2.278c-0.235,-0.559 -0.467,-1.125 -0.698,-1.701c0.001,-0 0.001,0.001 0.001,0.001c0.23,0.574 0.462,1.14 0.696,1.697c-0,0.001 -0,0.002 0.001,0.003Zm-0.759,-1.855c-3.615,-9.084 -6.604,-20.166 -7.958,-30.385c-1.029,-7.752 -0.081,-11.382 1.733,-12.523c-1.809,1.148 -2.755,4.776 -1.729,12.525c1.347,10.175 4.317,21.211 7.912,30.275c0.014,0.036 0.028,0.072 0.042,0.108Z"/></clipPath><g clip-path="url(#_clip1)"><rect x="149.974" y="142.345" width="10.738" height="47.041" style="fill:#05252d;fill-rule:nonzero;"/></g><path d="M176.427,204.685c-2.206,-0 -3.992,-0.22 -5.147,-0.736c-3.414,-1.522 -7.178,-7.06 -10.568,-14.563c-0.275,-0.609 -0.549,-1.234 -0.819,-1.868c0.206,0.378 0.528,0.675 0.919,0.826c0.207,0.094 0.437,0.13 0.655,0.13c0.138,-0 0.27,-0.014 0.389,-0.038c0.307,-0.061 0.625,-0.092 0.932,-0.184c-0.307,-0.093 -0.625,-0.123 -0.932,-0.185c-0.317,-0.041 -0.553,-0.122 -0.767,-0.266c-0.43,-0.286 -0.686,-0.747 -0.666,-1.249c-0.01,-0.777 -0.532,-1.514 -1.238,-1.75c-0.144,-0.061 -0.287,-0.092 -0.44,-0.102c0.058,0.148 0.116,0.296 0.174,0.445c-3.595,-9.064 -6.565,-20.1 -7.912,-30.275c-1.026,-7.749 -0.08,-11.377 1.729,-12.525c0.453,-0.285 0.96,-0.415 1.504,-0.415c0.17,-0 0.344,0.013 0.522,0.038l3.929,5.354c-0.095,-0.014 -0.191,-0.021 -0.286,-0.021c-0.267,-0 -0.531,0.055 -0.766,0.171c-0.338,0.133 -0.624,0.44 -0.788,0.686c-0.174,0.256 -0.369,0.512 -0.522,0.788c0.276,-0.153 0.522,-0.348 0.788,-0.532c0.256,-0.205 0.461,-0.307 0.727,-0.379c0.12,-0.03 0.243,-0.045 0.364,-0.045c0.376,-0 0.742,0.141 0.997,0.404c0.156,0.162 0.348,0.294 0.559,0.39l20.595,28.062c-0.173,0.107 -0.343,0.173 -0.529,0.218c-0.104,0.021 -0.208,0.031 -0.311,0.031c-0.399,0 -0.771,-0.155 -1.04,-0.44c-0.361,-0.355 -0.865,-0.543 -1.36,-0.543c-0.263,-0 -0.524,0.054 -0.759,0.164c-0.327,0.143 -0.614,0.45 -0.778,0.696c-0.174,0.266 -0.368,0.512 -0.532,0.798c0.287,-0.174 0.532,-0.358 0.798,-0.532c0.256,-0.215 0.471,-0.328 0.727,-0.389c0.12,-0.03 0.243,-0.045 0.365,-0.045c0.375,0 0.741,0.14 0.997,0.403c0.349,0.363 0.873,0.574 1.39,0.574c0.24,0 0.479,-0.046 0.698,-0.144c0.23,-0.09 0.441,-0.248 0.607,-0.419l17.848,24.319c-7.69,1.65 -16.298,3.148 -22.053,3.148Zm3.15,-11.754c-0.158,-0 -0.312,0.017 -0.443,0.039c-0.317,0.062 -0.624,0.093 -0.931,0.185c0.307,0.092 0.614,0.122 0.931,0.184c0.338,0.041 0.553,0.112 0.788,0.245c0.44,0.267 0.717,0.737 0.707,1.208c-0.011,0.758 0.481,1.525 1.167,1.791c0.206,0.095 0.436,0.131 0.654,0.131c0.138,0 0.271,-0.015 0.39,-0.038c0.307,-0.062 0.624,-0.103 0.931,-0.185c-0.307,-0.092 -0.624,-0.122 -0.931,-0.194c-0.318,-0.031 -0.543,-0.113 -0.768,-0.256c-0.43,-0.287 -0.686,-0.747 -0.666,-1.249c-0.01,-0.778 -0.532,-1.515 -1.238,-1.76c-0.183,-0.074 -0.391,-0.101 -0.591,-0.101Zm-21.979,-24.434c-0.737,-0 -1.515,0.481 -1.781,1.177c-0.143,0.327 -0.153,0.727 -0.102,1.034c0.071,0.307 0.102,0.624 0.194,0.931c0.082,-0.307 0.123,-0.624 0.185,-0.931c0.04,-0.307 0.122,-0.543 0.266,-0.768c0.276,-0.414 0.713,-0.667 1.202,-0.667c0.019,-0 0.038,0.001 0.057,0.002c0.767,-0.011 1.494,-0.533 1.74,-1.229c0.143,-0.337 0.133,-0.757 0.071,-1.044c-0.061,-0.307 -0.102,-0.624 -0.184,-0.931c-0.092,0.307 -0.133,0.624 -0.194,0.931c-0.031,0.338 -0.103,0.553 -0.236,0.788c-0.261,0.433 -0.72,0.707 -1.192,0.707l-0.026,-0Zm2.121,18.608c-0.234,-0.557 -0.466,-1.123 -0.696,-1.697c0.388,0.266 0.633,0.705 0.622,1.155c0,0.183 0.028,0.367 0.074,0.542Z" style="fill:#f7b31f;fill-rule:nonzero;"/><path d="M182.45,196.714c-0.218,0 -0.448,-0.036 -0.654,-0.131c-0.686,-0.266 -1.178,-1.033 -1.167,-1.791c0.01,-0.471 -0.267,-0.941 -0.707,-1.208c-0.235,-0.133 -0.45,-0.204 -0.788,-0.245c-0.317,-0.062 -0.624,-0.092 -0.931,-0.184c0.307,-0.092 0.614,-0.123 0.931,-0.185c0.131,-0.022 0.285,-0.039 0.443,-0.039c0.2,-0 0.408,0.027 0.591,0.101c0.706,0.245 1.228,0.982 1.238,1.76c-0.02,0.502 0.236,0.962 0.666,1.249c0.225,0.143 0.45,0.225 0.768,0.256c0.307,0.072 0.624,0.102 0.931,0.194c-0.307,0.082 -0.624,0.123 -0.931,0.185c-0.119,0.023 -0.252,0.038 -0.39,0.038Zm-20.983,-8.24c-0.218,-0 -0.448,-0.036 -0.655,-0.13c-0.391,-0.151 -0.713,-0.448 -0.919,-0.826c0,-0.001 0,-0.002 -0.001,-0.003c-0.058,-0.135 -0.115,-0.271 -0.172,-0.407c-0.001,-0.001 -0.001,-0.002 -0.001,-0.003c-0.046,-0.175 -0.074,-0.359 -0.074,-0.542c0.011,-0.45 -0.234,-0.889 -0.622,-1.155c-0,0 -0,-0.001 -0.001,-0.001c-0.02,-0.051 -0.041,-0.103 -0.061,-0.154c-0.014,-0.036 -0.028,-0.072 -0.042,-0.108c-0.058,-0.149 -0.116,-0.297 -0.174,-0.445c0.153,0.01 0.296,0.041 0.44,0.102c0.706,0.236 1.228,0.973 1.238,1.75c-0.02,0.502 0.236,0.963 0.666,1.249c0.214,0.144 0.45,0.225 0.767,0.266c0.307,0.062 0.625,0.092 0.932,0.185c-0.307,0.092 -0.625,0.123 -0.932,0.184c-0.119,0.024 -0.251,0.038 -0.389,0.038Zm17.86,-10.693c-0.517,0 -1.041,-0.211 -1.39,-0.574c-0.256,-0.263 -0.622,-0.403 -0.997,-0.403c-0.122,0 -0.245,0.015 -0.365,0.045c-0.256,0.061 -0.471,0.174 -0.727,0.389c-0.266,0.174 -0.511,0.358 -0.798,0.532c0.164,-0.286 0.358,-0.532 0.532,-0.798c0.164,-0.246 0.451,-0.553 0.778,-0.696c0.235,-0.11 0.496,-0.164 0.759,-0.164c0.495,-0 0.999,0.188 1.36,0.543c0.269,0.285 0.641,0.44 1.04,0.44c0.103,0 0.207,-0.01 0.311,-0.031c0.186,-0.045 0.356,-0.111 0.529,-0.218l0.273,0.372c-0.166,0.171 -0.377,0.329 -0.607,0.419c-0.219,0.098 -0.458,0.144 -0.698,0.144Zm-23.418,-6.142c-0.092,-0.307 -0.123,-0.624 -0.194,-0.931c-0.051,-0.307 -0.041,-0.707 0.102,-1.034c0.266,-0.696 1.044,-1.177 1.781,-1.177l0.026,-0c0.472,-0 0.931,-0.274 1.192,-0.707c0.133,-0.235 0.205,-0.45 0.236,-0.788c0.061,-0.307 0.102,-0.624 0.194,-0.931c0.082,0.307 0.123,0.624 0.184,0.931c0.062,0.287 0.072,0.707 -0.071,1.044c-0.246,0.696 -0.973,1.218 -1.74,1.229c-0.019,-0.001 -0.038,-0.002 -0.057,-0.002c-0.489,-0 -0.926,0.253 -1.202,0.667c-0.144,0.225 -0.226,0.461 -0.266,0.768c-0.062,0.307 -0.103,0.624 -0.185,0.931Zm0.42,-22.693c0.153,-0.276 0.348,-0.532 0.522,-0.788c0.164,-0.246 0.45,-0.553 0.788,-0.686c0.235,-0.116 0.499,-0.171 0.766,-0.171c0.095,-0 0.191,0.007 0.286,0.021l1.073,1.462c-0.211,-0.096 -0.403,-0.228 -0.559,-0.39c-0.255,-0.263 -0.621,-0.404 -0.997,-0.404c-0.121,-0 -0.244,0.015 -0.364,0.045c-0.266,0.072 -0.471,0.174 -0.727,0.379c-0.266,0.184 -0.512,0.379 -0.788,0.532Z" style="fill:#dedfde;fill-rule:nonzero;"/><path d="M206.571,192.296c-0.378,-1.091 -0.766,-2.179 -1.157,-3.266c-0.783,-2.177 -5.505,-15.102 -7.571,-19.147c-0.055,-0.108 -0.218,-0.028 -0.19,0.083c1.138,4.42 6.155,17.182 6.994,19.287c0.429,1.077 0.861,2.152 1.302,3.224c0.445,1.079 1.014,2.102 1.454,3.181c0.043,0.106 0.213,0.061 0.174,-0.051c-0.381,-1.086 -0.628,-2.22 -1.006,-3.311Z" style="fill:#0c2b34;fill-rule:nonzero;"/><path d="M174.737,213.708l-67.597,1.852c-0,-0 17.186,-55.262 31.089,-70.18c6.327,-6.788 12.527,-5.766 17.788,-1.418c1.312,1.086 17.601,21.672 18.993,28.856c1.229,6.349 -3.918,13.409 -3.918,13.409l3.645,27.481Z" style="fill:#fec130;fill-rule:nonzero;"/><path d="M141.149,160.431c-0.317,-0.031 -0.542,-0.113 -0.767,-0.256c-0.43,-0.287 -0.676,-0.747 -0.676,-1.259c-0,-0.768 -0.522,-1.494 -1.228,-1.74c-0.328,-0.143 -0.737,-0.133 -1.034,-0.072c-0.307,0.062 -0.624,0.103 -0.931,0.184c0.307,0.093 0.624,0.134 0.931,0.195c0.327,0.041 0.563,0.102 0.788,0.235c0.44,0.267 0.717,0.737 0.706,1.218c-0.01,0.737 0.471,1.515 1.167,1.771c0.328,0.154 0.747,0.164 1.044,0.103c0.318,-0.062 0.625,-0.103 0.932,-0.185c-0.307,-0.092 -0.614,-0.133 -0.932,-0.194Zm-26.807,54.741c-0.43,-0.287 -0.686,-0.747 -0.676,-1.259c0,-0.768 -0.522,-1.495 -1.228,-1.74c-0.338,-0.144 -0.747,-0.133 -1.044,-0.072c-0.307,0.061 -0.614,0.102 -0.931,0.184c0.317,0.092 0.624,0.133 0.931,0.195c0.338,0.03 0.563,0.102 0.798,0.235c0.43,0.266 0.707,0.737 0.707,1.218c-0.011,0.532 0.245,1.095 0.655,1.454l1.187,-0.031c-0.154,-0.041 -0.276,-0.102 -0.399,-0.184Zm34.679,-2.058c-0.338,-0.143 -0.748,-0.133 -1.034,-0.071c-0.318,0.061 -0.625,0.102 -0.942,0.184c0.317,0.092 0.624,0.123 0.942,0.184c0.327,0.041 0.553,0.102 0.788,0.246c0.287,0.174 0.512,0.44 0.624,0.747l0.778,-0.02c-0.153,-0.584 -0.593,-1.085 -1.156,-1.27Zm12.835,-25.047c-0.317,-0.041 -0.553,-0.122 -0.767,-0.266c-0.43,-0.286 -0.686,-0.747 -0.666,-1.249c-0.01,-0.777 -0.532,-1.514 -1.238,-1.75c-0.338,-0.143 -0.747,-0.123 -1.034,-0.071c-0.317,0.061 -0.625,0.102 -0.942,0.194c0.317,0.082 0.625,0.113 0.942,0.174c0.327,0.041 0.553,0.113 0.788,0.246c0.43,0.266 0.717,0.737 0.706,1.218c-0.01,0.747 0.471,1.515 1.167,1.781c0.338,0.153 0.737,0.153 1.044,0.092c0.307,-0.062 0.625,-0.092 0.932,-0.184c-0.307,-0.092 -0.625,-0.123 -0.932,-0.185Zm-35.549,4.033c-0.317,-0.041 -0.552,-0.123 -0.777,-0.266c-0.43,-0.286 -0.676,-0.737 -0.666,-1.259c-0,-0.768 -0.522,-1.494 -1.228,-1.74c-0.338,-0.143 -0.747,-0.133 -1.044,-0.072c-0.307,0.062 -0.614,0.103 -0.932,0.185c0.318,0.092 0.625,0.133 0.932,0.194c0.327,0.031 0.563,0.102 0.788,0.236c0.44,0.266 0.717,0.737 0.717,1.218c-0.021,0.737 0.46,1.514 1.166,1.781c0.328,0.143 0.737,0.153 1.044,0.102c0.307,-0.072 0.615,-0.102 0.932,-0.194c-0.317,-0.082 -0.625,-0.123 -0.932,-0.185Zm33.123,-25.098c-0.061,-0.307 -0.102,-0.624 -0.184,-0.931c-0.092,0.307 -0.133,0.624 -0.194,0.931c-0.031,0.338 -0.103,0.553 -0.236,0.788c-0.266,0.441 -0.737,0.717 -1.218,0.707c-0.737,-0 -1.515,0.481 -1.781,1.177c-0.143,0.327 -0.153,0.726 -0.102,1.034c0.071,0.307 0.102,0.624 0.194,0.931c0.082,-0.307 0.123,-0.624 0.185,-0.931c0.04,-0.308 0.122,-0.543 0.266,-0.768c0.286,-0.43 0.747,-0.686 1.259,-0.665c0.767,-0.011 1.494,-0.533 1.74,-1.229c0.143,-0.338 0.133,-0.757 0.071,-1.044Zm-31.454,-0c-0.072,-0.307 -0.102,-0.624 -0.195,-0.931c-0.081,0.307 -0.122,0.624 -0.184,0.931c-0.041,0.338 -0.102,0.563 -0.245,0.799c-0.267,0.43 -0.727,0.706 -1.208,0.696c-0.748,-0 -1.525,0.481 -1.781,1.177c-0.154,0.327 -0.154,0.726 -0.103,1.034c0.062,0.317 0.103,0.624 0.185,0.931c0.092,-0.307 0.133,-0.614 0.194,-0.931c0.041,-0.308 0.123,-0.543 0.256,-0.758c0.287,-0.44 0.747,-0.686 1.259,-0.675c0.768,-0.011 1.505,-0.533 1.75,-1.229c0.144,-0.338 0.122,-0.747 0.072,-1.044Zm18.486,28.701c-0.072,-0.317 -0.103,-0.624 -0.185,-0.941c-0.092,0.317 -0.133,0.624 -0.194,0.941c-0.041,0.328 -0.102,0.553 -0.235,0.788c-0.267,0.441 -0.737,0.717 -1.219,0.707c-0.747,-0.011 -1.514,0.471 -1.781,1.167c-0.153,0.337 -0.163,0.737 -0.092,1.044c0.062,0.307 0.103,0.624 0.185,0.931c0.092,-0.307 0.122,-0.624 0.194,-0.931c0.031,-0.318 0.102,-0.553 0.246,-0.768c0.297,-0.43 0.757,-0.686 1.259,-0.665c0.778,-0.011 1.504,-0.533 1.75,-1.239c0.143,-0.327 0.133,-0.747 0.072,-1.034Zm12.446,-48.333c-0.419,-0.113 -0.88,-0.092 -1.269,0.102c-0.338,0.133 -0.624,0.44 -0.788,0.686c-0.174,0.256 -0.369,0.512 -0.522,0.788c0.276,-0.153 0.522,-0.348 0.788,-0.532c0.256,-0.205 0.461,-0.307 0.727,-0.379c0.491,-0.123 1.023,0.011 1.361,0.359c0.236,0.245 0.553,0.419 0.891,0.501c-0.42,-0.542 -0.819,-1.054 -1.188,-1.525Zm-17.319,33.389c-0.245,0.195 -0.46,0.297 -0.726,0.358c-0.502,0.103 -1.014,-0.051 -1.362,-0.409c-0.552,-0.553 -1.433,-0.696 -2.108,-0.379c-0.328,0.143 -0.614,0.451 -0.778,0.696c-0.174,0.266 -0.369,0.512 -0.532,0.788c0.286,-0.163 0.532,-0.348 0.798,-0.522c0.266,-0.215 0.471,-0.327 0.727,-0.389c0.501,-0.122 1.023,0.021 1.361,0.359c0.512,0.532 1.402,0.726 2.088,0.429c0.338,-0.133 0.625,-0.409 0.799,-0.665c0.174,-0.266 0.378,-0.512 0.532,-0.798c-0.287,0.164 -0.532,0.348 -0.799,0.532Zm24.935,21.035c-0.256,0.204 -0.471,0.307 -0.727,0.368c-0.512,0.102 -1.013,-0.051 -1.372,-0.409c-0.542,-0.553 -1.422,-0.696 -2.098,-0.379c-0.338,0.143 -0.614,0.45 -0.778,0.696c-0.174,0.266 -0.379,0.512 -0.532,0.788c0.286,-0.164 0.532,-0.348 0.788,-0.522c0.266,-0.215 0.471,-0.327 0.727,-0.399c0.501,-0.113 1.023,0.02 1.371,0.368c0.512,0.533 1.392,0.727 2.078,0.43c0.348,-0.133 0.625,-0.409 0.809,-0.665c0.174,-0.266 0.368,-0.522 0.522,-0.798c-0.276,0.163 -0.532,0.348 -0.788,0.522Zm-34.904,5.107c-0.246,0.205 -0.471,0.307 -0.727,0.358c-0.512,0.103 -1.013,-0.051 -1.361,-0.409c-0.553,-0.543 -1.433,-0.696 -2.109,-0.368c-0.327,0.143 -0.614,0.44 -0.778,0.685c-0.174,0.266 -0.368,0.512 -0.532,0.799c0.287,-0.164 0.532,-0.359 0.798,-0.533c0.256,-0.204 0.471,-0.327 0.717,-0.389c0.501,-0.122 1.034,0.021 1.37,0.359c0.513,0.532 1.403,0.737 2.09,0.43c0.337,-0.133 0.624,-0.41 0.798,-0.655c0.174,-0.277 0.368,-0.522 0.532,-0.799c-0.286,0.154 -0.532,0.348 -0.798,0.522Z" style="fill:#fff;fill-rule:nonzero;"/><path d="M162.452,183.34c-2.902,0.324 -5.813,0.748 -8.639,1.498c-1.405,0.374 -2.784,0.81 -4.161,1.277c-0.687,0.233 -1.377,0.442 -2.072,0.648c-0.713,0.211 -1.478,0.409 -2.224,0.439l0.002,0.105c0.727,0.013 1.422,0.025 2.146,-0.059c0.688,-0.079 1.372,-0.232 2.043,-0.404c1.429,-0.365 2.841,-0.796 4.267,-1.176c2.876,-0.766 5.751,-1.531 8.677,-2.088c0.134,-0.026 0.098,-0.255 -0.039,-0.24Z" style="fill:#0c2b34;fill-rule:nonzero;"/><path d="M169.676,185.858c-2.39,-0.222 -4.828,-0.334 -7.23,-0.284c-1.208,0.025 -2.405,0.12 -3.606,0.247c-0.574,0.061 -1.146,0.131 -1.718,0.209c-0.628,0.086 -1.246,0.256 -1.876,0.333l0.003,0.104c0.596,-0.054 1.203,-0.01 1.801,-0.03c0.601,-0.019 1.202,-0.043 1.803,-0.063c1.204,-0.04 2.407,-0.067 3.61,-0.118c2.409,-0.103 4.808,-0.18 7.218,-0.2c0.131,-0.001 0.119,-0.186 -0.005,-0.198Z" style="fill:#0c2b34;fill-rule:nonzero;"/><path d="M145.864,141.835c-0.036,1.222 3.478,10.154 8.806,11.302c1.736,0.371 4.184,-9.013 4.184,-9.013l0.34,-0.652l4.74,-9.123l-9.454,-10.329l-1.389,-1.405c0,-0 -1.133,2.582 -2.51,5.81c-0.065,0.15 -0.13,0.299 -0.197,0.46c-0.082,0.181 -0.163,0.35 -0.232,0.522c-0.212,0.48 -0.426,0.97 -0.63,1.464c-0.156,0.374 -0.31,0.738 -0.46,1.138c-0.16,0.397 -0.308,0.785 -0.469,1.182c-1.498,3.947 -2.707,8.126 -2.729,8.644Z" style="fill:#f37a6d;fill-rule:nonzero;"/><path d="M150.581,128.425c0.731,8.455 6.063,13.237 8.613,15.047l4.74,-9.123l-9.454,-10.329l-1.389,-1.405c0,-0 -1.133,2.582 -2.51,5.81Z" style="fill:#0c2b34;fill-rule:nonzero;"/><path d="M181.641,123.035c-2.869,17.813 -13.863,18.106 -17.703,17.483c-3.486,-0.565 -15.286,-2.934 -14.272,-20.948c1.013,-18.015 10.202,-22.312 18.244,-21.44c8.042,0.871 16.6,7.091 13.731,24.905Z" style="fill:#f37a6d;fill-rule:nonzero;"/><path d="M177.881,120.77c-0.387,-0.159 -0.719,-0.371 -1.086,-0.568c-0.415,-0.222 -0.768,-0.357 -0.998,-0.79c-0.123,-0.233 -0.005,-0.602 0.21,-0.742c0.5,-0.329 1.075,-0.183 1.585,0.065c0.553,0.268 0.911,0.617 1.17,1.174c0.251,0.539 -0.369,1.071 -0.881,0.861Z" style="fill:#0c2b34;fill-rule:nonzero;"/><path d="M166.308,118.261c0.414,0.066 0.807,0.058 1.223,0.081c0.471,0.026 0.842,0.095 1.264,-0.156c0.227,-0.134 0.317,-0.51 0.207,-0.742c-0.255,-0.541 -0.822,-0.715 -1.387,-0.77c-0.612,-0.059 -1.099,0.053 -1.61,0.393c-0.495,0.33 -0.243,1.107 0.303,1.194Z" style="fill:#0c2b34;fill-rule:nonzero;"/><path d="M167.75,122.311l-0.116,0.08c-0.263,1.18 -0.762,2.488 -1.921,2.606l-0.007,0.068c1.34,0.149 1.985,-1.594 2.044,-2.754Z" style="fill:#0c2b34;fill-rule:nonzero;"/><path d="M167.018,120.82c-1.847,-0.625 -2.961,3.115 -1.25,3.694c1.684,0.57 2.798,-3.171 1.25,-3.694Z" style="fill:#0c2b34;fill-rule:nonzero;"/><path d="M166.224,120.799c-0.389,0.114 -0.82,0.392 -1.226,0.314c-0.469,-0.091 -0.697,-0.585 -0.882,-1.05l-0.077,0.024c-0.224,0.713 -0.167,1.53 0.569,1.866c0.672,0.306 1.364,-0.178 1.757,-0.846c0.073,-0.123 0.016,-0.354 -0.141,-0.308Z" style="fill:#0c2b34;fill-rule:nonzero;"/><path d="M174.672,123.915l0.06,0.129c-0.368,1.151 -0.596,2.533 0.346,3.218l-0.028,0.062c-1.232,-0.546 -0.911,-2.377 -0.378,-3.409Z" style="fill:#0c2b34;fill-rule:nonzero;"/><path d="M176.056,122.997c1.91,0.39 0.988,4.182 -0.781,3.82c-1.742,-0.356 -0.821,-4.148 0.781,-3.82Z" style="fill:#0c2b34;fill-rule:nonzero;"/><path d="M176.786,123.438c0.25,0.274 0.458,0.711 0.811,0.822c0.407,0.128 0.814,-0.208 1.174,-0.537l0.049,0.056c-0.156,0.729 -0.579,1.426 -1.309,1.396c-0.666,-0.027 -0.981,-0.763 -0.979,-1.526c0.001,-0.142 0.153,-0.321 0.254,-0.211Z" style="fill:#0c2b34;fill-rule:nonzero;"/><path d="M165.358,130.962c0.181,0.362 0.326,0.825 0.728,1.004c0.385,0.171 0.914,0.154 1.327,0.14l0.029,0.075c-0.449,0.335 -1.168,0.393 -1.665,0.116c-0.485,-0.27 -0.585,-0.806 -0.546,-1.322l0.127,-0.013Z" style="fill:#0c2b34;fill-rule:nonzero;"/><path d="M166.917,128.821c0.442,1.139 1.282,1.884 2.271,2.296c0.442,0.187 0.922,0.302 1.405,0.357c0.094,0.017 0.19,0.026 0.278,0.025c0.086,0.007 0.165,0.013 0.262,0.013c0.139,0.008 0.236,-0.088 0.285,-0.212l0.002,-0.008l0.013,-0.121l0.002,-0.009l0.019,-0.101c0.208,-0.887 0.4,-2.261 0.4,-2.261c0.293,0.23 1.8,1.319 1.869,0.848c0.564,-3.904 1.19,-8.245 0.926,-12.249c-0.002,-0.133 -0.202,-0.143 -0.217,-0.014c-0.69,3.731 -0.719,7.557 -1.353,11.315c-0.488,-0.31 -1.276,-0.861 -1.745,-0.947c-0.134,0.01 -0.324,2.662 -0.45,3.052l-0.016,0.041c-1.537,-0.117 -2.573,-0.802 -3.821,-2.107c-0.073,-0.084 -0.18,-0.025 -0.13,0.082Z" style="fill:#0c2b34;fill-rule:nonzero;"/><path d="M149.199,121.428c3.916,0.745 5.895,-8.264 5.895,-8.264c-0,0 6.85,0.091 10.487,-3.892c-0,0 -2.609,3.558 -5.519,4.651c-0.489,0.184 13.195,1.53 16.532,-8.605c-0,-0 -0.073,10.656 5.627,13.995c0.272,0.159 0.966,-9.522 -0.567,-12.113c-1.532,-2.591 -3.173,-4.119 -3.173,-4.119c0,-0 -4.855,-6.078 -13.334,-6.531c-8.479,-0.454 -15.613,7.206 -16.954,10.671c-2.637,6.813 -0.853,13.854 1.006,14.207Z" style="fill:#0c2b34;fill-rule:nonzero;"/><path d="M160.445,114.233c7.377,1.158 14.139,-2.385 16.254,-9.818c0.053,-0.185 0.338,-0.123 0.325,0.065c-0.537,7.865 -9.853,11.825 -16.672,9.871c-0.165,-0.047 -0.08,-0.145 0.093,-0.118Z" style="fill:#0c2b34;fill-rule:nonzero;"/><path d="M149.299,121.013c4.373,-1.255 5.804,-5.155 6.917,-9.184c0.033,-0.119 0.237,-0.081 0.214,0.043c-0.737,4.023 -2.44,8.791 -7.055,9.506c-0.237,0.037 -0.305,-0.3 -0.076,-0.365Z" style="fill:#0c2b34;fill-rule:nonzero;"/><path d="M176.97,103.77l0.077,0.015c0.046,4.416 -1.197,11.6 3.955,13.758c0.135,0.056 0.067,0.264 -0.075,0.219c-5.127,-1.627 -5.396,-9.726 -3.957,-13.992Z" style="fill:#0c2b34;fill-rule:nonzero;"/><path d="M167.031,118.082c-0.376,-0.114 -0.772,-0.182 -1.181,-0.199c-2.655,-0.114 -4.906,1.954 -5.021,4.609c-0.112,2.654 1.956,4.909 4.61,5.02c2.655,0.112 4.906,-1.955 5.02,-4.61c0.095,-2.245 -1.368,-4.202 -3.428,-4.82Zm-2.987,9.943c-2.377,-0.714 -4.068,-2.973 -3.958,-5.564c0.132,-3.065 2.731,-5.452 5.795,-5.321c3.065,0.13 5.451,2.729 5.321,5.794c-0.131,3.064 -2.73,5.451 -5.795,5.321c-0.473,-0.021 -0.929,-0.099 -1.363,-0.23Z" style="fill:#fec130;fill-rule:nonzero;"/><path d="M179.063,120.108c-0.09,-0.027 -0.182,-0.049 -0.275,-0.065c-0.871,-0.154 -1.782,0.178 -2.567,0.934c-0.815,0.788 -1.39,1.931 -1.619,3.219c-0.461,2.617 0.657,5.012 2.508,5.337c1.845,0.327 3.722,-1.537 4.185,-4.153c0.228,-1.289 0.08,-2.56 -0.417,-3.58c-0.426,-0.875 -1.063,-1.465 -1.815,-1.692Zm-2.437,10.074c-2.038,-0.613 -3.26,-3.257 -2.755,-6.115c0.254,-1.442 0.906,-2.73 1.835,-3.625c0.958,-0.926 2.1,-1.328 3.211,-1.132c1.117,0.195 2.046,0.965 2.63,2.165c0.565,1.16 0.735,2.592 0.48,4.034c-0.534,3.02 -2.798,5.154 -5.046,4.757c-0.121,-0.022 -0.239,-0.05 -0.355,-0.084Z" style="fill:#fec130;fill-rule:nonzero;"/><path d="M170.906,123.535l-0.372,-0.644c0.954,-0.551 3.042,-1.149 4.126,0.519l-0.623,0.405c-0.97,-1.496 -3.043,-0.329 -3.131,-0.28Z" style="fill:#fec130;fill-rule:nonzero;"/><path d="M147.297,121.022l-0.592,-0.452c0.211,-0.275 2.105,-2.692 3.788,-2.668c1.571,0.026 10.179,2.29 10.589,2.403l-0.198,0.717c-2.767,-0.764 -9.187,-2.36 -10.402,-2.376c-1.111,-0.016 -2.675,1.709 -3.185,2.376Z" style="fill:#fec130;fill-rule:nonzero;"/><path d="M148.575,126.132c0.262,0.182 0.512,0.315 0.758,0.413c0.285,0.129 0.56,0.198 0.819,0.229c0.404,0.061 0.771,0.022 1.091,-0.073c0.294,-0.077 0.564,-0.206 0.789,-0.344c0.585,-0.364 0.911,-0.816 0.911,-0.816l0.206,-4.918c0,-0 -2.451,-6.422 -5.266,-5.681c-2.826,0.74 -1.948,9.378 0.692,11.19Z" style="fill:#f37a6d;fill-rule:nonzero;"/><path d="M148.193,117.408l-0.035,0.074c1.833,1.339 2.431,3.501 2.69,5.651c-0.417,-0.907 -1.139,-1.528 -2.332,-1.06l0.028,0.122c0.881,0.031 1.447,0.328 1.844,1.139c0.28,0.575 0.403,1.243 0.552,1.862c0.049,0.206 0.403,0.191 0.387,-0.036l-0.005,-0.052c0.705,-2.588 -0.402,-6.736 -3.129,-7.7Z" style="fill:#0c2b34;fill-rule:nonzero;"/><path d="M149.003,125.456c-0.022,0.461 0.335,0.853 0.796,0.875c0.461,0.022 0.852,-0.335 0.874,-0.796c0.022,-0.461 -0.335,-0.852 -0.796,-0.874c-0.461,-0.022 -0.852,0.334 -0.874,0.795Z" style="fill:#fff;fill-rule:nonzero;"/><path d="M147.645,123.814c-0.016,0.326 0.236,0.603 0.562,0.618c0.326,0.016 0.603,-0.236 0.618,-0.562c0.016,-0.326 -0.236,-0.603 -0.562,-0.618c-0.326,-0.016 -0.603,0.236 -0.618,0.562Z" style="fill:#fff;fill-rule:nonzero;"/><path d="M135.084,154.414c-4.024,18.575 -2.495,56.956 5.783,63.837c9.584,7.967 52.705,11.108 62.411,8.629c3.863,-0.986 -4.311,-26.631 -8.572,-26.757c-17.861,-0.528 -32.835,-3.133 -34.291,-5.3c-2.236,-3.327 -7.563,-26.356 -11.239,-40.791c-4.618,-18.137 -12.286,-7.953 -14.092,0.382Z" style="fill:#f37a6d;fill-rule:nonzero;"/><path d="M261.995,174.704l-15.916,-20.406l-28.924,35.337l16.604,18.13l28.236,-33.061Z" style="fill:#23434c;fill-rule:nonzero;"/><path d="M259.431,173.757l-13.594,-17.155l-1.166,1.016l-23.07,28.474c-0,-0 1.742,3.261 2.598,5.993c0.856,2.732 3.099,11.362 8.351,13.539l26.881,-31.867Z" style="fill:#fff;fill-rule:nonzero;"/><path d="M257.924,175.584c0,-0 -3.946,-3.6 -5.526,-6.627c-1.58,-3.027 -2.998,-6.27 -4.53,-7.979c-1.532,-1.709 -3.062,-3.478 -3.062,-3.478l1.031,-0.898l13.594,17.155l-1.507,1.827Z" style="fill:#e5e5e4;fill-rule:nonzero;"/><path d="M203.469,199.336l31.978,10.025l26.548,-34.657l-32.573,-12.89l-25.953,37.522Z" style="fill:#335863;fill-rule:nonzero;"/><path d="M202.083,227.006c1.944,0.077 17.064,-3.714 22.117,-6.316c3.222,-1.66 8.781,-4.537 14.605,-10.336c6.721,-6.693 10.733,-11.955 10.962,-14.943c0.267,-3.47 0.191,-4.082 -13.296,6.089c-7.631,5.754 -12.339,4.854 -16.097,3.261c-15.404,-6.53 -29.303,-4.791 -29.303,-4.791c-0,0 3.539,26.74 11.012,27.036Z" style="fill:#f37a6d;fill-rule:nonzero;"/><path d="M212.646,195.283c-2.821,-0.306 -5.641,-0.486 -8.463,-0.074c-2.624,0.384 -5,1.498 -7.273,2.823c-0.098,0.057 -0.028,0.218 0.074,0.162c4.788,-2.651 10.33,-2.717 15.651,-2.787l0.011,-0.124Z" style="fill:#0c2b34;fill-rule:nonzero;"/><path d="M222.29,205.457c-3.934,-1.513 11.965,-4.338 13.946,-8.71c1.981,-4.373 -2.918,-4.716 -7.347,-3.578c-15.373,3.952 -24.159,-0.073 -33.526,5.844c-9.368,5.916 26.927,6.444 26.927,6.444Z" style="fill:#f37a6d;fill-rule:nonzero;"/><path d="M161.683,194.086c2.709,2.046 26.226,4.749 26.226,4.749l0.338,33.569c-0,0 -40.337,-6.237 -47.749,-12.678c-7.412,-6.441 -9.064,-41.085 -6.567,-59.826c2.347,-17.62 11.971,-25.868 16.728,-4.726c-0,-0 9.608,37.843 11.024,38.912Z" style="fill:#fec130;fill-rule:nonzero;"/><path d="M166.524,201.794c-0.256,0.204 -0.471,0.307 -0.727,0.368c-0.512,0.102 -1.013,-0.051 -1.372,-0.409c-0.542,-0.553 -1.422,-0.696 -2.098,-0.379c-0.338,0.143 -0.614,0.45 -0.778,0.696c-0.174,0.266 -0.379,0.512 -0.532,0.788c0.286,-0.164 0.532,-0.348 0.788,-0.522c0.266,-0.215 0.471,-0.327 0.727,-0.399c0.501,-0.113 1.023,0.02 1.371,0.368c0.512,0.533 1.392,0.727 2.078,0.43c0.348,-0.133 0.625,-0.409 0.809,-0.665c0.174,-0.266 0.368,-0.522 0.522,-0.798c-0.276,0.163 -0.532,0.348 -0.788,0.522Zm-1.679,24.913c-0.256,0.195 -0.471,0.307 -0.727,0.359c-0.511,0.102 -1.013,-0.041 -1.371,-0.41c-0.543,-0.542 -1.423,-0.696 -2.099,-0.368c-0.276,0.123 -0.522,0.348 -0.675,0.552c0.194,0.052 0.379,0.093 0.563,0.133c0.102,-0.051 0.205,-0.092 0.317,-0.122c0.502,-0.123 1.024,0.01 1.372,0.358c0.082,0.082 0.163,0.153 0.256,0.225l0.01,0.01c0.471,0.103 0.931,0.215 1.402,0.318c0.143,-0.021 0.276,-0.062 0.41,-0.113c0.348,-0.133 0.624,-0.409 0.808,-0.676c0.174,-0.255 0.369,-0.511 0.522,-0.788c-0.276,0.154 -0.532,0.348 -0.788,0.522Zm-23.256,-45.948c-0.245,0.195 -0.46,0.297 -0.726,0.358c-0.502,0.103 -1.014,-0.051 -1.362,-0.409c-0.552,-0.553 -1.433,-0.696 -2.108,-0.379c-0.328,0.143 -0.614,0.451 -0.778,0.696c-0.174,0.266 -0.369,0.512 -0.532,0.788c0.286,-0.163 0.532,-0.348 0.798,-0.522c0.266,-0.215 0.471,-0.327 0.727,-0.389c0.501,-0.122 1.023,0.021 1.361,0.359c0.512,0.532 1.402,0.726 2.088,0.429c0.338,-0.133 0.625,-0.409 0.799,-0.665c0.174,-0.266 0.378,-0.512 0.532,-0.798c-0.287,0.164 -0.532,0.348 -0.799,0.532Zm4.873,14.944c-0.072,-0.317 -0.103,-0.624 -0.185,-0.941c-0.092,0.317 -0.133,0.624 -0.194,0.941c-0.041,0.328 -0.102,0.553 -0.235,0.788c-0.267,0.441 -0.737,0.717 -1.219,0.707c-0.747,-0.011 -1.514,0.471 -1.781,1.167c-0.153,0.337 -0.163,0.737 -0.092,1.044c0.062,0.307 0.103,0.624 0.185,0.931c0.092,-0.307 0.122,-0.624 0.194,-0.931c0.031,-0.318 0.102,-0.553 0.246,-0.768c0.297,-0.43 0.757,-0.686 1.259,-0.665c0.778,-0.011 1.504,-0.533 1.75,-1.239c0.143,-0.327 0.133,-0.747 0.072,-1.034Zm30.164,18.322c-0.061,-0.317 -0.092,-0.624 -0.184,-0.941c-0.082,0.317 -0.123,0.624 -0.184,0.941c-0.041,0.318 -0.102,0.553 -0.246,0.778c-0.266,0.44 -0.726,0.717 -1.208,0.706c-0.757,0 -1.525,0.482 -1.791,1.178c-0.143,0.327 -0.153,0.726 -0.092,1.044c0.062,0.307 0.102,0.624 0.184,0.931c0.092,-0.307 0.133,-0.624 0.195,-0.931c0.031,-0.318 0.112,-0.553 0.256,-0.778c0.286,-0.43 0.747,-0.676 1.248,-0.666c0.778,-0.01 1.515,-0.532 1.761,-1.228c0.133,-0.338 0.123,-0.757 0.061,-1.034Zm-18.096,-29.335c-0.144,0 -0.266,0.02 -0.379,0.041c-0.317,0.061 -0.625,0.102 -0.942,0.194c0.317,0.082 0.625,0.113 0.942,0.174c0.205,0.031 0.379,0.061 0.532,0.123c-0.051,-0.174 -0.102,-0.348 -0.153,-0.532Zm-6.838,31.679c-0.317,-0.041 -0.553,-0.112 -0.768,-0.256c-0.429,-0.296 -0.685,-0.747 -0.665,-1.259c-0.01,-0.767 -0.532,-1.504 -1.238,-1.74c-0.338,-0.143 -0.748,-0.133 -1.034,-0.071c-0.318,0.061 -0.625,0.102 -0.942,0.184c0.317,0.092 0.624,0.123 0.942,0.184c0.327,0.041 0.553,0.102 0.788,0.246c0.43,0.256 0.716,0.737 0.706,1.218c-0.01,0.737 0.471,1.504 1.167,1.771c0.338,0.153 0.737,0.163 1.044,0.102c0.307,-0.072 0.625,-0.102 0.932,-0.184c-0.307,-0.092 -0.625,-0.133 -0.932,-0.195Zm-10.543,-55.938c-0.317,-0.031 -0.542,-0.113 -0.767,-0.256c-0.43,-0.287 -0.676,-0.747 -0.676,-1.259c-0,-0.768 -0.522,-1.494 -1.228,-1.74c-0.328,-0.143 -0.737,-0.133 -1.034,-0.072c-0.307,0.062 -0.624,0.103 -0.931,0.184c0.307,0.093 0.624,0.134 0.931,0.195c0.327,0.041 0.563,0.102 0.788,0.235c0.44,0.267 0.717,0.737 0.706,1.218c-0.01,0.737 0.471,1.515 1.167,1.771c0.328,0.154 0.747,0.164 1.044,0.103c0.318,-0.062 0.625,-0.103 0.932,-0.185c-0.307,-0.092 -0.614,-0.133 -0.932,-0.194Zm47.064,69.214c-0.409,-0.297 -0.645,-0.737 -0.624,-1.228c-0.01,-0.768 -0.532,-1.505 -1.239,-1.751c-0.327,-0.133 -0.737,-0.122 -1.033,-0.061c-0.307,0.061 -0.625,0.092 -0.932,0.184c0.307,0.092 0.625,0.123 0.932,0.184c0.337,0.041 0.552,0.103 0.788,0.236c0.44,0.266 0.716,0.747 0.706,1.218c-0.01,0.747 0.481,1.515 1.167,1.781l0.246,0.082l-0.011,-0.645Z" style="fill:#fff;fill-rule:nonzero;"/><path d="M168.496,228.757c-0.945,-0.194 -1.9,-0.393 -2.862,-0.607" style="fill:#e5e5e4;fill-rule:nonzero;"/><path d="M166.191,195.537c0.862,0.186 1.796,0.377 2.781,0.563" style="fill:#e5e5e4;fill-rule:nonzero;"/><path d="M140.398,218.657c-5.731,-6.594 -6.857,-29.508 -7.044,-33.99c-0.12,-2.869 -0.129,-5.741 -0.116,-8.613c0.026,-5.749 0.231,-11.493 0.535,-17.232c0.005,-0.097 -0.137,-0.11 -0.151,-0.013c-0.619,4.276 -1.025,8.594 -1.231,12.923c-0.309,-1.765 -0.488,-3.553 -0.589,-5.342l-0.151,0.006c-0.032,2.087 0.24,4.154 0.701,6.185c-0.18,4.357 -0.157,8.723 0.076,13.066c0.067,1.252 0.84,29.075 8.019,34.515c2.495,1.892 12.366,5.055 14.589,5.408c0.096,0.015 0.161,-0.085 0.063,-0.127c-2.741,-1.177 -12.653,-4.43 -14.701,-6.786Z" style="fill:#0c2b34;fill-rule:nonzero;"/><path d="M181.678,225.717c0.044,-1.137 0.077,-2.275 0.107,-3.412c0.061,-2.278 0.351,-15.832 -0.098,-20.284c-0.012,-0.12 -0.19,-0.104 -0.203,0.008c-0.537,4.464 -0.5,17.973 -0.483,20.206c0.009,1.142 0.02,2.284 0.042,3.426c0.022,1.15 0.179,2.292 0.196,3.44c0.002,0.112 0.174,0.132 0.178,0.016c0.039,-1.134 0.218,-2.263 0.261,-3.4Z" style="fill:#0c2b34;fill-rule:nonzero;"/><path d="M187.897,198.885c-1.786,-0.628 -19.123,-3.314 -22.939,-3.933c-0.901,-0.146 -1.93,-0.206 -2.731,-0.684c-0.855,-0.509 -1.147,-1.505 -1.454,-2.388c-0.612,-1.758 -6.423,-23.129 -7,-24.296c-0.218,-0.441 -0.463,-0.608 -0.349,0.039c0.195,1.109 5.747,22.137 6.33,23.849c0.541,1.593 0.999,3.22 2.737,3.837c0.764,0.271 24.072,4.068 25.298,4.051c0.261,-0.003 0.388,-0.376 0.108,-0.475Z" style="fill:#0c2b34;fill-rule:nonzero;"/><rect x="277.801" y="250.076" width="122.143" height="8.417" style="fill:#335863;fill-rule:nonzero;"/><rect x="286.961" y="258.493" width="103.822" height="16.206" style="fill:#335863;fill-rule:nonzero;"/><path d="M390.783,261.696l-103.822,1.567l-0,-4.77l103.822,-0l-0,3.203Z" style="fill:#0c2b34;fill-rule:nonzero;"/><path d="M373.248,271.305l-0,-0.5l-68.252,-0l0,-8.418l67.752,-0l-0,8.918l0.5,-0l-0,-0.5l-0,0.5l0.5,-0l-0,-9.918l-69.752,-0l0,10.418l69.752,-0l-0,-0.5l-0.5,-0Z" style="fill:#23434c;fill-rule:nonzero;"/><rect x="330.7" y="265.237" width="16.345" height="2.719" style="fill:#23434c;fill-rule:nonzero;"/><path d="M286.046,408.223l-3.749,-0l10.91,-133.524l9.567,0l-16.728,133.524Z" style="fill:#335863;fill-rule:nonzero;"/><path d="M302.772,274.702l-1.12,8.934l-9.172,0l0.728,-8.934l9.564,-0Z" style="fill:#0c2b34;fill-rule:nonzero;"/><path d="M391.699,408.223l3.749,-0l-10.91,-133.524l-9.567,0l16.728,133.524Z" style="fill:#335863;fill-rule:nonzero;"/><path d="M374.973,274.702l1.12,8.934l9.171,0l-0.727,-8.934l-9.564,-0Z" style="fill:#0c2b34;fill-rule:nonzero;"/><path d="M334.685,215.331l22.551,-0l6.126,34.745l-22.551,0l-6.126,-34.745Z" style="fill:#fec130;fill-rule:nonzero;"/><path d="M363.362,250.076l-12.369,0l6.126,-34.745l-1.253,-0l1.37,-0l6.126,34.745Z" style="fill:#d89e25;fill-rule:nonzero;"/><path d="M357.119,215.331l-22.551,-0l-6.127,34.745l22.552,0l6.126,-34.745Z" style="fill:#fec130;fill-rule:nonzero;"/><path d="M350.993,250.076l-22.552,0l6.127,-34.745l1.18,-0l-5.077,28.793c-0.16,0.909 0.434,1.647 1.326,1.647l0.809,-0c0.03,0.002 0.061,0.003 0.092,0.003l15.983,0c0.887,0 1.748,-0.741 1.908,-1.649l5.077,-28.794l1.253,-0l-6.126,34.745Z" style="fill:#f7b31f;fill-rule:nonzero;"/><path d="M356.589,211.23l-5.8,32.895c-0.16,0.908 -1.021,1.649 -1.908,1.649l-15.983,0c-0.887,0 -1.487,-0.741 -1.327,-1.649l5.8,-32.895c0.16,-0.908 1.021,-1.649 1.908,-1.649l15.984,-0c0.887,-0 1.486,0.741 1.326,1.649Z" style="fill:#0c2b34;fill-rule:nonzero;"/><path d="M349.053,243.107c-0.152,0.866 -0.924,1.567 -1.724,1.567l-14.295,-0c-0.802,-0 -1.327,-0.701 -1.174,-1.567l5.401,-30.63c0.311,-1.763 0.975,-1.849 1.776,-1.849l2.864,0c0.166,0 0.269,0.189 0.228,0.423l-0.018,0.101c-0.097,0.549 0.203,0.551 0.572,0.551l6.622,0c0.372,0 0.672,-0.002 0.768,-0.551l0.018,-0.101c0.041,-0.234 0.209,-0.423 0.378,-0.423l2.863,0c0.8,0 1.407,0.234 1.122,1.849l-5.401,30.63Zm5.304,-33.523l-15.979,-0c-0.892,-0 -1.746,0.736 -1.907,1.647l-5.8,32.893c-0.16,0.909 0.434,1.647 1.326,1.647l15.98,-0c0.892,-0 1.748,-0.738 1.908,-1.647l5.8,-32.893c0.161,-0.911 -0.435,-1.647 -1.328,-1.647Z" style="fill:#23434c;fill-rule:nonzero;"/><path d="M354.45,212.504l-5.401,30.63c-0.152,0.866 -0.924,1.567 -1.724,1.567l-14.295,0c-0.802,0 -1.326,-0.701 -1.174,-1.567l5.401,-30.63c0.311,-1.763 0.975,-1.849 1.776,-1.849l2.864,-0c0.167,-0 0.269,0.189 0.228,0.423l-0.018,0.101c-0.097,0.549 0.204,0.551 0.572,0.551l6.622,-0c0.373,-0 0.672,-0.002 0.769,-0.551l0.017,-0.101c0.042,-0.234 0.209,-0.423 0.378,-0.423l2.863,-0c0.8,-0 1.407,0.234 1.122,1.849Z" style="fill:#0c2b34;fill-rule:nonzero;"/><path d="M351.871,227.134l0.808,-4.587l-0.801,4.582l-0.007,0.005Z" style="fill:#23434c;fill-rule:nonzero;"/><path d="M332.034,242.131l1.106,-6.27l19.833,-14.992l-0.294,1.678l-0.808,4.587l-19.837,14.997Z" style="fill:#183840;fill-rule:nonzero;"/><path d="M335.697,221.348l0.372,-2.109l0.475,-2.688l-0.846,4.796l-0.001,0.001Z" style="fill:#183840;fill-rule:nonzero;"/><path d="M335.696,221.349l0.373,-2.11l-0.372,2.109l-0.001,0.001Z" style="fill:#23434c;fill-rule:nonzero;"/><path d="M348.423,211.73l-5.744,-0c-0.137,-0 -0.265,-0 -0.366,-0.029c0.101,0.028 0.227,0.028 0.363,0.028l5.748,0l-0.001,0.001Zm-6.246,-0.102c-0.076,-0.073 -0.108,-0.199 -0.076,-0.414c-0.005,0.042 -0.008,0.081 -0.008,0.116c-0.008,0.146 0.024,0.239 0.084,0.298Z" style="fill:#183840;fill-rule:nonzero;"/><path d="M342.093,211.33c-0,-0.035 0.003,-0.074 0.008,-0.116c0.002,-0.011 0.004,-0.023 0.006,-0.035l0.013,-0.074l-0.008,0.071c-0.01,0.057 -0.017,0.108 -0.019,0.154Z" style="fill:#23434c;fill-rule:nonzero;"/><path d="M335.698,221.347l0.846,-4.796l0.258,-1.462l5.321,-4.017l-0,0.011l-0.003,0.022l-0.013,0.074c-0.002,0.012 -0.004,0.024 -0.006,0.035c-0.032,0.215 0,0.341 0.076,0.414c0.036,0.035 0.082,0.058 0.136,0.073c0.101,0.029 0.229,0.029 0.366,0.029l5.744,-0l-12.725,9.617Z" style="fill:#183840;fill-rule:nonzero;"/><path d="M349.159,242.511l0.552,-3.129l0.007,-0.005l-0.553,3.13l-0.006,0.004Z" style="fill:#23434c;fill-rule:nonzero;"/><path d="M346.254,244.698l-3.589,-0l7.046,-5.316l-0.552,3.129l-2.905,2.187Z" style="fill:#183840;fill-rule:nonzero;"/><path d="M334.27,229.443l0.551,-3.129l0.001,-0.001l-0.551,3.129l-0.001,0.001Z" style="fill:#183840;fill-rule:nonzero;"/><path d="M334.267,229.445l0.553,-3.13l0.001,-0.001l-0.551,3.129l-0.003,0.002Z" style="fill:#23434c;fill-rule:nonzero;"/><path d="M354.483,212.295c0.048,-0.347 0.05,-0.622 0.014,-0.84l0.007,-0.005c0.033,0.22 0.029,0.497 -0.021,0.845Z" style="fill:#183840;fill-rule:nonzero;"/><path d="M354.108,214.443l0.342,-1.939c0.013,-0.072 0.024,-0.142 0.033,-0.209c0.05,-0.348 0.054,-0.625 0.021,-0.845l0.003,-0.002c0.031,0.261 0.031,0.605 -0.052,1.053l-0.345,1.941l-0.002,0.001Z" style="fill:#23434c;fill-rule:nonzero;"/><path d="M334.271,229.442l0.551,-3.129l19.675,-14.858c0.036,0.218 0.034,0.493 -0.014,0.84c-0.009,0.067 -0.02,0.137 -0.033,0.209l-0.342,1.939l-19.837,14.999Z" style="fill:#183840;fill-rule:nonzero;"/><path d="M333.577,233.375l0.023,-0.136l0.064,-0.364l0.001,0l-0.088,0.5Z" style="fill:#183840;fill-rule:nonzero;"/><path d="M333.6,233.239l0.062,-0.362l0.002,-0.002l-0.064,0.364Zm19.707,-14.248l0.194,-1.103l0.004,-0.003l-0.198,1.106Z" style="fill:#23434c;fill-rule:nonzero;"/><path d="M333.474,233.983l0.103,-0.608l0.088,-0.5l19.836,-14.987l-0.194,1.103l-19.833,14.992Z" style="fill:#183840;fill-rule:nonzero;"/><path d="M350.076,237.311l0.099,-0.562l0.002,-0.001l-0.101,0.563Z" style="fill:#23434c;fill-rule:nonzero;"/><path d="M340.933,244.698l-1.272,-0l10.514,-7.949l-0.099,0.562l-0.097,0.543l-9.046,6.844Z" style="fill:#183840;fill-rule:nonzero;"/><path d="M347.019,211.017l-1.807,-0l-0.091,-0.111l0.131,-0.112l1.806,0l0.092,0.112l-0.131,0.111Z" style="fill:#0c2b34;fill-rule:nonzero;"/><path d="M350.911,250.076l-23.597,0l0.806,-4.302l23.597,0l-0.806,4.302Z" style="fill:#fec130;fill-rule:nonzero;"/><path d="M304.473,220.996c1.126,-2.036 2.253,-4.78 2.448,-7.836l8.783,0c-1.67,3.156 -4.747,5.852 -7.563,7.835l-3.668,0.001Z" style="fill:#eee;fill-rule:nonzero;"/><path d="M315.704,213.16l-8.783,0c0.076,-1.201 0.008,-2.451 -0.26,-3.724c-0.263,-1.248 -1.061,-2.515 -2.151,-3.824c0.386,-0.29 0.772,-0.583 1.153,-0.877l10.232,0c0.669,1.19 1.059,2.433 1.06,3.742c-0,1.644 -0.473,3.213 -1.251,4.683Z" style="fill:#dedfde;fill-rule:nonzero;"/><path d="M315.895,204.735l-10.232,0c2.174,-1.681 4.192,-3.432 5.363,-5.328c2.034,1.677 3.805,3.435 4.869,5.328Zm-15.806,-3.715c-3.655,-3.642 -7.451,-7.742 -7.452,-12.716c-0.003,-9.135 13.363,-13.707 13.363,-13.707c0,0 -8.462,4.252 -8.46,11.475c0.001,3.448 4.426,6.604 9.05,9.967c-1.098,1.685 -3.634,3.311 -6.501,4.981Z" style="fill:#eee;fill-rule:nonzero;"/><path d="M295.25,220.999c-3.315,-2.004 -6.629,-4.72 -7.342,-7.839l8.682,0c-0.115,0.285 -0.201,0.572 -0.252,0.861c-0.474,2.637 0.848,5.094 2.411,6.977l-3.499,0.001Z" style="fill:#eee;fill-rule:nonzero;"/><path d="M296.59,213.16l-8.682,0c-0.092,-0.402 -0.141,-0.81 -0.141,-1.224c-0.001,-2.695 2.667,-5.034 6.025,-7.201l9.952,0c0.268,0.295 0.524,0.587 0.766,0.877c-3.399,2.555 -6.879,4.978 -7.92,7.548Z" style="fill:#dedfde;fill-rule:nonzero;"/><path d="M303.744,204.735l-9.952,0c1.994,-1.286 4.231,-2.512 6.297,-3.715c1.294,1.29 2.571,2.522 3.655,3.715Zm7.282,-5.328c-1.402,-1.156 -2.93,-2.273 -4.436,-3.368c0.371,-0.569 0.578,-1.145 0.578,-1.731c-0.002,-5.679 -8.466,-9.017 -8.466,-9.017c-0,0 13.369,3.587 13.371,10.769c-0,1.171 -0.389,2.282 -1.047,3.347Z" style="fill:#eee;fill-rule:nonzero;"/><path d="M304.51,205.612c-0.242,-0.29 -0.498,-0.582 -0.766,-0.877l1.919,0c-0.381,0.294 -0.767,0.587 -1.153,0.877Z" style="fill:#e3e3e2;fill-rule:nonzero;"/><path d="M305.663,204.735l-1.919,0c-1.084,-1.193 -2.361,-2.425 -3.655,-3.715c2.867,-1.67 5.403,-3.296 6.501,-4.981c1.506,1.095 3.034,2.212 4.436,3.368c-1.171,1.896 -3.189,3.647 -5.363,5.328Z" style="fill:#e8e8e7;fill-rule:nonzero;"/><path d="M309.279,247.85l0.001,2.221l-14.234,0.005l-0.001,-2.221l14.234,-0.005Z" style="fill:#fec130;fill-rule:nonzero;"/><path d="M295.045,249.32l0,-1.188l0,1.188Z" style="fill:#dedfde;fill-rule:nonzero;"/><path d="M295.045,249.32l0,-1.188c0.902,0.212 1.742,0.266 2.459,0.266l0.005,-0c2.567,-0.001 2.324,-0.001 4.658,-0.001c2.324,-0.001 2.091,-0.001 4.648,-0.002c0.718,0 1.56,-0.054 2.464,-0.267l0.001,1.187l-14.235,0.005Z" style="fill:#f7b31f;fill-rule:nonzero;"/><path d="M278.147,241.888c1.684,2.365 4.664,4.058 8.016,3.425c0.476,-0.09 0.954,-0.224 1.444,-0.415c0.663,-0.257 1.332,-0.602 2.012,-1.059l-1.809,-2.68c-0.368,0.255 -0.725,0.454 -1.068,0.606c-3.389,1.538 -5.536,-1.133 -5.958,-1.744c-1.952,-2.741 -2.653,-9.004 -0.677,-11.414c0.131,-0.178 0.702,-0.46 2.994,0.027c0.424,0.095 0.904,0.201 1.447,0.351c0.601,0.171 0.959,0.267 1.301,0.28l0.057,-1.61l0.157,-1.606c-0.148,-0.027 -0.379,-0.093 -0.68,-0.179c-0.865,-0.231 -2.03,-0.547 -3.236,-0.67c-1.687,-0.174 -3.455,0.028 -4.54,1.361c-3.21,3.935 -1.905,11.89 0.54,15.327Z" style="fill:#fec130;fill-rule:nonzero;"/><path d="M287.607,244.898l-0.865,-3.133c0.31,-0.137 0.631,-0.313 0.961,-0.534c0.06,0.132 0.12,0.261 0.18,0.387c0.45,0.929 0.926,1.732 1.42,2.426c-0.571,0.357 -1.136,0.637 -1.696,0.854Z" style="fill:#f7b31f;fill-rule:nonzero;"/><path d="M284.432,228.953c-0.496,-0.133 -0.937,-0.231 -1.331,-0.319l-0.954,-3.434c0.587,0.06 1.164,0.166 1.702,0.285c0.164,1.05 0.359,2.228 0.583,3.468Z" style="fill:#f7b31f;fill-rule:nonzero;"/><path d="M321.087,220.99c0,0 -1.703,14.507 -4.651,20.618c-2.947,6.101 -7.064,6.786 -9.621,6.787c-2.557,0.001 -2.324,0.001 -4.648,0.002c-2.334,0 -2.091,0 -4.658,0.001c-2.558,0.001 -6.674,-0.681 -9.626,-6.78c-2.951,-6.11 -4.664,-20.615 -4.664,-20.615l37.868,-0.013Z" style="fill:#fec130;fill-rule:nonzero;"/><path d="M318.379,235.913c0.244,-0.936 0.473,-1.903 0.686,-2.873l0.003,-0c-0.214,0.973 -0.443,1.938 -0.689,2.873Zm-32.767,-1.286c-0.126,-0.52 -0.247,-1.047 -0.364,-1.576l0.001,-0c0.116,0.528 0.237,1.055 0.363,1.576Z" style="fill:#dedfde;fill-rule:nonzero;"/><path d="M286.221,236.952c-0.215,-0.752 -0.418,-1.531 -0.609,-2.325c-0.126,-0.521 -0.247,-1.048 -0.363,-1.576l33.816,-0.011c-0.213,0.97 -0.442,1.937 -0.686,2.873c-0.091,0.347 -0.185,0.69 -0.282,1.028l-31.876,0.011Z" style="fill:#f7b31f;fill-rule:nonzero;"/><path d="M287.344,240.38c-0.093,-0.235 -0.184,-0.478 -0.274,-0.728c0.09,0.25 0.182,0.493 0.275,0.728l-0.001,0Zm29.63,-0.01c0.186,-0.473 0.367,-0.977 0.542,-1.505c-0.174,0.529 -0.352,1.033 -0.54,1.505l-0.002,-0Z" style="fill:#dedfde;fill-rule:nonzero;"/><path d="M287.345,240.38c-0.093,-0.235 -0.185,-0.478 -0.275,-0.728c-0.14,-0.391 -0.277,-0.8 -0.411,-1.222l31.001,-0.011c-0.048,0.151 -0.095,0.299 -0.144,0.446c-0.175,0.528 -0.356,1.032 -0.542,1.505l-29.629,0.01Z" style="fill:#f7b31f;fill-rule:nonzero;"/><path d="M284.892,231.334c-0.138,-0.664 -0.261,-1.314 -0.377,-1.951l35.284,-0.012c-0.116,0.637 -0.239,1.287 -0.376,1.951l-34.531,0.012Z" style="fill:#f7b31f;fill-rule:nonzero;"/><path d="M368.793,356.831c-0,0 7.628,-27.377 13.719,-36.675c6.091,-9.297 17.444,-19.51 17.444,-19.51c-0,0 -0.266,42.208 -31.163,56.185Z" style="fill:#fec130;fill-rule:nonzero;"/><path d="M369.34,356.362c2.613,-4.248 4.833,-8.728 6.953,-13.265c0.938,-4.858 2.08,-9.749 3.787,-14.395l0.135,0.048c-1.012,4.325 -2.189,8.611 -3.259,12.924c3.079,-6.663 6.005,-13.41 9.673,-19.709c0.741,-3.053 2.144,-5.989 3.535,-8.76l0.135,0.048c-0.979,2.144 -1.683,4.353 -2.38,6.571c1.734,-2.787 3.635,-5.475 5.795,-8.005c0.134,-0.156 0.401,0.017 0.269,0.185c-4.903,6.258 -8.287,13.376 -11.511,20.585c3.484,-3.725 6.652,-7.8 9.571,-11.963l0.067,0.047c-3.013,4.79 -6.483,9.086 -10.248,13.286c-2.348,5.281 -4.656,10.583 -7.455,15.607c5.593,-4.727 9.894,-10.843 14.152,-16.745c0.096,-0.133 0.301,0.007 0.211,0.144c-4.26,6.476 -8.669,12.574 -14.797,17.369c-1.254,2.196 -2.595,4.342 -4.095,6.398c-0.249,0.34 -0.759,-0.012 -0.538,-0.37Z" style="fill:#0c2b34;fill-rule:nonzero;"/><path d="M366.429,359.296c-0,0 13.71,-25.243 9.727,-49.717c-3.983,-24.474 -8.247,-33.189 -8.247,-33.189c-0,-0 -21.55,38.066 -1.48,82.906Z" style="fill:#fec130;fill-rule:nonzero;"/><path d="M360.801,319.611c1.095,7.068 3.013,13.684 5.293,20.383c0.038,-8.982 0.209,-17.964 0.449,-26.944c-1.578,-5.46 -2.371,-11.049 -2.587,-16.727c-0.006,-0.166 0.241,-0.156 0.255,0.005c0.406,4.885 1.264,9.652 2.401,14.393c0.208,-7.409 0.454,-14.818 0.724,-22.223c0.004,-0.125 0.193,-0.122 0.193,0.003c-0.011,11.573 -0.005,23.149 -0.078,34.723c1.77,-4.458 2.879,-9.046 3.952,-13.75l0.08,0.012c-0.411,5.405 -2.055,10.632 -4.046,15.647c-0.053,7.399 -0.133,14.797 -0.298,22.194c2.319,-7.865 4.796,-15.483 5.467,-23.794c0.009,-0.11 0.176,-0.11 0.174,0.003c-0.182,9.166 -2.545,18.47 -5.568,27.089c-0.034,0.097 -0.09,0.163 -0.153,0.217c-0.069,2.704 -0.145,5.407 -0.236,8.111c-0.013,0.388 -0.595,0.376 -0.602,-0.011c-0.107,-5.532 -0.144,-11.064 -0.135,-16.595c-3.08,-7.11 -4.719,-15.038 -5.405,-22.722l0.12,-0.014Z" style="fill:#0c2b34;fill-rule:nonzero;"/><path d="M361.741,315.707c0.434,2.169 0.842,4.46 0.957,6.669l-0.13,0.016c-0.567,-2.142 -0.877,-4.449 -1.128,-6.649c-0.02,-0.171 0.268,-0.203 0.301,-0.036Z" style="fill:#0c2b34;fill-rule:nonzero;"/><path d="M369.757,297.255l0.13,0.02c0.019,1.517 -0.287,3.142 -0.688,4.6c-0.033,0.122 -0.209,0.066 -0.186,-0.055c0.3,-1.517 0.484,-3.044 0.744,-4.565Z" style="fill:#0c2b34;fill-rule:nonzero;"/><path d="M361.43,361.229c-0,0 0.559,-26.35 -7.001,-39.448c-7.559,-13.098 -20.096,-19.771 -20.096,-19.771c0,0 5.055,46.448 27.097,59.219Z" style="fill:#fec130;fill-rule:nonzero;"/><path d="M347.654,338.693c3.178,4.577 6.335,8.986 10.229,12.967c-1.509,-5.388 -3.261,-10.682 -5.232,-15.891c-4.238,-3.716 -8.441,-7.567 -11.041,-12.651l0.124,-0.072c2.795,4.503 6.533,8.106 10.467,11.572c-3.019,-7.827 -6.531,-15.464 -10.523,-22.915c-0.101,-0.19 0.175,-0.352 0.289,-0.169c2.421,3.884 4.617,7.903 6.598,12.027c-0.708,-2.817 -1.275,-5.697 -2.001,-8.493l0.12,-0.033c1.341,3.52 2.675,7.413 3.104,11.176c2.645,5.84 4.872,11.871 6.655,18.031c-0.195,-3.95 -0.442,-7.883 -0.85,-11.822l0.132,-0.017c0.819,4.373 1.249,8.823 1.145,13.272c1.089,3.927 2.006,7.9 2.742,11.903c0.02,0.108 -0.139,0.155 -0.166,0.046c-0.41,-1.678 -0.856,-3.342 -1.311,-5.003l-0.086,-0.034c-4.055,-4.061 -7.905,-8.691 -10.436,-13.869l0.041,-0.025Z" style="fill:#0c2b34;fill-rule:nonzero;"/><path d="M338.895,317.253c0.843,0.91 1.615,1.866 2.429,2.803c0.719,0.829 1.597,1.61 2.176,2.542l-0.059,0.059c-0.975,-0.619 -1.756,-1.619 -2.514,-2.481c-0.798,-0.908 -1.515,-1.805 -2.152,-2.83l0.12,-0.093Z" style="fill:#0c2b34;fill-rule:nonzero;"/><path d="M383.886,358.011l-0.952,12.482l-2.872,37.73l-25.04,-0l-2.872,-37.73l-0.953,-12.482l32.689,0Z" style="fill:#335863;fill-rule:nonzero;"/><path d="M383.886,358.011l-0.952,12.482l-30.784,0l-0.953,-12.482l32.689,0Z" style="fill:#23434c;fill-rule:nonzero;"/><rect x="348.972" y="351.887" width="37.138" height="9.569" style="fill:#335863;fill-rule:nonzero;"/><path d="M366.333,136.496c13.268,11.29 14.873,31.209 3.582,44.478c-4.562,5.362 -10.533,8.816 -16.92,10.283l-7.012,14.329l-6.79,-14.228c-4.929,-1.055 -9.665,-3.322 -13.755,-6.803c-13.268,-11.29 -14.872,-31.209 -3.582,-44.477c11.291,-13.268 31.21,-14.872 44.477,-3.582Z" style="fill:#fec130;fill-rule:nonzero;"/><path d="M347.21,177.766c-8.96,0.81 -16.63,-5.55 -17.85,-14.03c-1.28,-8.97 4.62,-15.98 11.21,-18.02l0.01,0.18c-0,1.84 -0,3.67 0.01,5.51c-0,0.14 -0.06,0.22 -0.18,0.28c-2.38,1.32 -4.09,3.24 -5.07,5.78c-0.88,2.3 -0.99,4.66 -0.24,7c1.3,4.11 4.09,6.71 8.29,7.68c4.64,1.06 9.53,-1.16 11.88,-5.28c1.19,-2.09 1.69,-4.33 1.42,-6.71c-0.32,-2.92 -1.65,-5.32 -3.9,-7.2c-0.57,-0.48 -1.23,-0.86 -1.85,-1.27c-0.11,-0.08 -0.16,-0.14 -0.16,-0.28l-0,-5.46c-0,-0.07 0.01,-0.14 0.01,-0.25c2.31,0.76 4.34,1.93 6.09,3.56c3.25,3.04 5.07,6.78 5.3,11.23c0.45,9.07 -6.36,16.51 -14.97,17.28Z" style="fill:#fff;fill-rule:nonzero;"/><path d="M348.49,142.376l-0,19.12c-0,0.2 -0.05,0.25 -0.25,0.25c-1.7,-0.01 -3.4,-0.01 -5.09,0c-0.2,0 -0.25,-0.05 -0.25,-0.25l-0,-19.08c-0,-0.27 -0,-0.27 0.27,-0.27c1.7,-0 3.39,-0 5.08,-0.01c0.19,-0 0.24,0.05 0.24,0.24Z" style="fill:#fff;fill-rule:nonzero;"/></g></svg>