<svg width="404" height="28" viewBox="0 0 404 28" fill="none" xmlns="http://www.w3.org/2000/svg">
<path d="M280.585 26C234.609 18.5373 183.286 22.5866 136.768 23.272C123.392 23.4693 109.707 24.7846 96.3444 24.2214C94.6015 24.1482 86.9975 23.8737 85.5712 22.4071C85.3849 22.2162 91.3144 21.4636 94.1951 21.1417C99.7963 20.5157 105.395 20.0539 110.992 19.3927C125.705 17.6556 140.676 16.8081 155.519 16.0273C193.619 14.0247 261.779 7.85303 299.016 16.5564C300.861 16.9876 295.157 16.4822 293.228 16.4422C290.058 16.3769 286.889 16.2824 283.718 16.2068C273.376 15.961 262.946 15.5239 252.602 15.5926C219.269 15.8127 185.818 14.7555 152.493 15.7024C142.465 15.9877 132.47 16.5801 122.438 16.8091C116.627 16.9416 116.887 17.0538 110.881 16.8991C108.278 16.8318 101.057 17.4267 103.117 16.2147C106.744 14.0795 118.08 14.6136 122.465 14.1779C142.485 12.1911 162.455 9.59655 182.577 8.2026C234.172 4.62849 286.696 4.62008 338.409 6.11539C359.563 6.72706 380.936 4.361 402 6.27266C350.89 1.26109 297.765 1.97264 246.375 2.11752C188.514 2.2807 130.718 2.29158 72.8564 3.21725C49.102 3.59701 25.8267 7.03158 2 6.78088" stroke="#8B44FF" stroke-width="3" stroke-miterlimit="1.5" stroke-linecap="round" stroke-linejoin="round"/>
</svg>
