<svg width="28" height="28" viewBox="0 0 28 28" fill="none" xmlns="http://www.w3.org/2000/svg">
<path d="M25.4 2.0067V9.2067H18.2M2.6 26.0067V18.8067H9.8M2 13.4067C2.11366 10.7805 3.08649 8.26428 4.76903 6.24465C6.45156 4.22502 8.75071 2.81373 11.3132 2.22763C13.8757 1.64153 16.5597 1.91305 18.9529 3.00046C21.3461 4.08788 23.316 5.93103 24.56 8.2467M26 14.6067C25.8627 17.2233 24.8727 19.723 23.1813 21.7241C21.4899 23.7252 19.19 25.1177 16.6329 25.689C14.0757 26.2603 11.4019 25.9789 9.01967 24.8879C6.63746 23.7968 4.67782 21.9561 3.44 19.6467" stroke="#0246FF" stroke-width="2.7" stroke-linecap="round" stroke-linejoin="round"/>
</svg>
