<svg width="15" height="15" viewBox="0 0 15 15" fill="none" xmlns="http://www.w3.org/2000/svg">
<path d="M5.72339 0.819534C6.52236 -0.273179 8.15336 -0.273178 8.95232 0.819536L10.2381 2.57802C10.4849 2.91562 10.8314 3.16734 11.2288 3.29779L13.2985 3.97722C14.5846 4.39942 15.0886 5.95059 14.2963 7.04812L13.0212 8.81436C12.7764 9.15345 12.6441 9.56075 12.6428 9.97897L12.6362 12.1574C12.6321 13.511 11.3126 14.4697 10.0239 14.0553L7.95013 13.3884C7.55199 13.2604 7.12373 13.2604 6.72559 13.3884L4.65177 14.0553C3.36311 14.4697 2.04361 13.511 2.03951 12.1574L2.03291 9.97897C2.03164 9.56075 1.8993 9.15345 1.65451 8.81436L0.379413 7.04812C-0.412924 5.95059 0.0910819 4.39942 1.37721 3.97722L3.44695 3.29779C3.84431 3.16734 4.19078 2.91562 4.43762 2.57802L5.72339 0.819534Z" fill="#FF9900"/>
</svg>
