<?xml version="1.0" encoding="UTF-8" standalone="no"?><!DOCTYPE svg PUBLIC "-//W3C//DTD SVG 1.1//EN" "http://www.w3.org/Graphics/SVG/1.1/DTD/svg11.dtd"><svg width="100%" height="100%" viewBox="0 0 424 452" version="1.1" xmlns="http://www.w3.org/2000/svg" xmlns:xlink="http://www.w3.org/1999/xlink" xml:space="preserve" xmlns:serif="http://www.serif.com/" style="fill-rule:evenodd;clip-rule:evenodd;stroke-linejoin:round;stroke-miterlimit:2;"><g><path d="M20.029,164.394c2.233,-4.163 7.424,-5.73 11.587,-3.497c4.164,2.233 5.723,7.42 3.49,11.583c-2.232,4.163 -7.412,5.727 -11.575,3.494c-4.163,-2.232 -5.734,-7.416 -3.502,-11.58Zm-2.616,16.483c0.8,-0.496 1.801,-0.468 2.606,0.018c0.219,0.132 0.442,0.259 0.668,0.381c0.23,0.123 0.46,0.239 0.692,0.349c0.848,0.4 1.423,1.215 1.452,2.153l0.099,3.204l10.438,-0.324l-0.098,-3.203c-0.029,-0.94 0.485,-1.801 1.31,-2.252c0.455,-0.248 0.897,-0.52 1.324,-0.817c0.769,-0.534 1.766,-0.609 2.592,-0.166l2.817,1.511l4.938,-9.206l-2.818,-1.511c-0.826,-0.443 -1.315,-1.314 -1.296,-2.251c0.011,-0.52 -0.006,-1.039 -0.051,-1.555c-0.082,-0.937 0.351,-1.841 1.15,-2.337l2.723,-1.69l-5.505,-8.874l-2.737,1.695c-0.796,0.493 -1.792,0.465 -2.593,-0.019c-0.219,-0.132 -0.442,-0.259 -0.668,-0.38c-0.227,-0.122 -0.456,-0.238 -0.687,-0.346c-0.851,-0.402 -1.427,-1.221 -1.455,-2.161l-0.097,-3.207l-10.438,0.324l0.101,3.196c0.03,0.94 -0.483,1.801 -1.308,2.252c-0.456,0.249 -0.899,0.524 -1.328,0.823c-0.769,0.535 -1.767,0.61 -2.593,0.167l-2.817,-1.511l-4.938,9.206l2.818,1.511c0.826,0.443 1.316,1.315 1.295,2.253c-0.011,0.522 0.005,1.043 0.05,1.561c0.08,0.937 -0.353,1.841 -1.153,2.336l-2.718,1.684l5.505,8.874l2.72,-1.688Z" style="fill:#d3d5d4;fill-rule:nonzero;"/><path d="M271.297,223.251c3.309,0 5.996,2.686 5.996,5.995c-0,3.31 -2.687,5.99 -5.996,5.99c-3.309,-0 -5.99,-2.68 -5.99,-5.99c0,-3.309 2.681,-5.995 5.99,-5.995Zm-11.042,3.842c0.57,0.33 0.885,0.956 0.85,1.615c-0.009,0.179 -0.013,0.358 -0.013,0.538c0,0.183 0.004,0.364 0.013,0.543c0.035,0.656 -0.278,1.281 -0.847,1.609l-1.946,1.123l3.655,6.336l1.946,-1.121c0.571,-0.329 1.273,-0.297 1.824,0.064c0.304,0.198 0.619,0.381 0.943,0.546c0.585,0.298 0.961,0.889 0.961,1.545l-0,2.24l7.318,-0l0,-2.24c0,-0.656 0.376,-1.247 0.961,-1.545c0.324,-0.165 0.639,-0.348 0.943,-0.546c0.551,-0.361 1.253,-0.393 1.824,-0.064l1.944,1.121l3.657,-6.336l-1.954,-1.129c-0.568,-0.328 -0.88,-0.952 -0.846,-1.607c0.009,-0.179 0.013,-0.358 0.013,-0.539c0,-0.18 -0.004,-0.359 -0.013,-0.538c-0.034,-0.658 0.28,-1.285 0.851,-1.614l1.949,-1.122l-3.657,-6.336l-1.939,1.12c-0.57,0.33 -1.272,0.298 -1.823,-0.062c-0.305,-0.199 -0.622,-0.381 -0.948,-0.547c-0.585,-0.298 -0.962,-0.889 -0.962,-1.546l0,-2.239l-7.318,-0l-0,2.239c-0,0.657 -0.377,1.248 -0.962,1.546c-0.327,0.166 -0.643,0.348 -0.948,0.547c-0.551,0.36 -1.253,0.392 -1.823,0.062l-1.941,-1.12l-3.655,6.336l1.943,1.121Z" style="fill:#d3d5d4;fill-rule:nonzero;"/><path d="M374.46,312.912c-0,-7.351 5.959,-13.31 13.31,-13.31c7.35,0 13.309,5.959 13.309,13.31c0,7.35 -5.959,13.302 -13.309,13.302c-7.351,-0 -13.31,-5.952 -13.31,-13.302Zm-15.183,0c0,15.732 12.76,28.492 28.493,28.492c15.739,-0 28.492,-12.76 28.492,-28.492c-0,-15.74 -12.753,-28.493 -28.492,-28.493c-15.733,0 -28.493,12.753 -28.493,28.493Z" style="fill:#e5e5e4;fill-rule:nonzero;"/><path d="M382.291,285.601l10.957,-0l-0.605,-7.756l-9.746,0l-0.606,7.756Z" style="fill:#e5e5e4;fill-rule:nonzero;"/><path d="M403.146,289.292l7.748,7.748l5.056,-5.913l-6.891,-6.891l-5.913,5.056Z" style="fill:#e5e5e4;fill-rule:nonzero;"/><path d="M415.283,306.649l-0,10.957l7.756,-0.606l0,-9.745l-7.756,-0.606Z" style="fill:#e5e5e4;fill-rule:nonzero;"/><path d="M411.591,327.504l-7.748,7.748l5.913,5.056l6.891,-6.891l-5.056,-5.913Z" style="fill:#e5e5e4;fill-rule:nonzero;"/><path d="M394.234,339.641l-10.957,-0l0.606,7.756l9.745,0l0.606,-7.756Z" style="fill:#e5e5e4;fill-rule:nonzero;"/><path d="M373.379,335.949l-7.748,-7.748l-5.056,5.913l6.891,6.891l5.913,-5.056Z" style="fill:#e5e5e4;fill-rule:nonzero;"/><path d="M361.243,318.592l0,-10.957l-7.756,0.606l-0,9.745l7.756,0.606Z" style="fill:#e5e5e4;fill-rule:nonzero;"/><path d="M364.934,297.737l7.748,-7.748l-5.913,-5.056l-6.891,6.891l5.056,5.913Z" style="fill:#e5e5e4;fill-rule:nonzero;"/><path d="M142.029,73.688c0,-7.35 5.959,-13.309 13.31,-13.309c7.35,-0 13.309,5.959 13.309,13.309c-0,7.351 -5.959,13.303 -13.309,13.303c-7.351,-0 -13.31,-5.952 -13.31,-13.303Zm-15.183,-0c0,15.733 12.76,28.492 28.493,28.492c15.739,-0 28.492,-12.759 28.492,-28.492c-0,-15.739 -12.753,-28.492 -28.492,-28.492c-15.733,0 -28.493,12.753 -28.493,28.492Z" style="fill:#e5e5e4;fill-rule:nonzero;"/><path d="M149.86,46.377l10.957,0l-0.605,-7.756l-9.746,0l-0.606,7.756Z" style="fill:#e5e5e4;fill-rule:nonzero;"/><path d="M170.715,50.069l7.748,7.748l5.056,-5.913l-6.891,-6.891l-5.913,5.056Z" style="fill:#e5e5e4;fill-rule:nonzero;"/><path d="M182.852,67.426l0,10.957l7.756,-0.606l0,-9.745l-7.756,-0.606Z" style="fill:#e5e5e4;fill-rule:nonzero;"/><path d="M179.16,88.281l-7.747,7.748l5.912,5.056l6.891,-6.891l-5.056,-5.913Z" style="fill:#e5e5e4;fill-rule:nonzero;"/><path d="M161.803,100.418l-10.957,-0l0.606,7.755l9.745,0l0.606,-7.755Z" style="fill:#e5e5e4;fill-rule:nonzero;"/><path d="M140.948,96.726l-7.748,-7.748l-5.056,5.913l6.891,6.89l5.913,-5.055Z" style="fill:#e5e5e4;fill-rule:nonzero;"/><path d="M128.812,79.369l-0,-10.957l-7.756,0.606l-0,9.745l7.756,0.606Z" style="fill:#e5e5e4;fill-rule:nonzero;"/><path d="M132.503,58.514l7.748,-7.748l-5.913,-5.056l-6.891,6.891l5.056,5.913Z" style="fill:#e5e5e4;fill-rule:nonzero;"/><path d="M17.401,403.684l36.76,0.01l-0,16.81l-36.77,-0.02l0.01,-16.8Z" style="fill:#e5e5e4;fill-rule:nonzero;"/><path d="M17.391,443.784l36.76,0.01l0,3.2l-36.76,-0.01l0,-3.2Z" style="fill:#e5e5e4;fill-rule:nonzero;"/><path d="M70.661,270.275l-16.45,-0.01l-0.04,125.989l-36.77,0l0.05,-125.979l-16.45,-0.01l34.86,-60.301l34.8,60.311Z" style="fill:#e5e5e4;fill-rule:nonzero;"/><path d="M17.391,427.134l36.76,0.011l0,10.88l-36.75,-0.01l-0.01,-10.881Z" style="fill:#e5e5e4;fill-rule:nonzero;"/><path d="M197.538,223.303l36.76,0.01l0,16.81l-36.77,-0.02l0.01,-16.8Z" style="fill:#e5e5e4;fill-rule:nonzero;"/><path d="M197.528,263.403l36.76,0.01l-0,3.2l-36.76,-0.01l-0,-3.2Z" style="fill:#e5e5e4;fill-rule:nonzero;"/><path d="M250.798,152.775l-16.45,-0.01l-0.04,63.108l-36.77,0l0.05,-63.098l-16.45,-0.01l34.86,-60.3l34.8,60.31Z" style="fill:#e5e5e4;fill-rule:nonzero;"/><path d="M197.528,246.753l36.76,0.01l-0,10.881l-36.75,-0.011l-0.01,-10.88Z" style="fill:#e5e5e4;fill-rule:nonzero;"/><path d="M44.817,90.871l26.761,0.007l0,12.237l-26.768,-0.015l0.007,-12.229Z" style="fill:#e5e5e4;fill-rule:nonzero;"/><path d="M44.81,120.063l26.761,0.007l-0,2.329l-26.761,-0.007l0,-2.329Z" style="fill:#e5e5e4;fill-rule:nonzero;"/><path d="M83.59,54.086l-11.975,-0.007l-0.029,31.383l-26.769,0l0.037,-31.376l-11.976,-0.007l25.378,-43.898l25.334,43.905Z" style="fill:#e5e5e4;fill-rule:nonzero;"/><path d="M44.81,107.941l26.761,0.008l-0,7.92l-26.754,-0.007l-0.007,-7.921Z" style="fill:#e5e5e4;fill-rule:nonzero;"/><path d="M1.001,446.996c134.559,-0.612 285.503,-0.617 420.06,-0c-134.558,0.617 -285.502,0.612 -420.06,-0Z" style="fill:#0c2b34;fill-rule:nonzero;"/><path d="M161.849,18.912c-0,9.986 -8.1,18.085 -18.086,18.085c-4.036,0 -7.762,-1.323 -10.774,-3.566l-8.86,2.262l3.688,-8.25c-1.37,-2.543 -2.14,-5.453 -2.14,-8.531c0,-9.986 8.1,-18.086 18.086,-18.086c9.986,-0 18.086,8.1 18.086,18.086Z" style="fill:#fff;fill-rule:nonzero;"/><path d="M161.849,18.912c0.077,-11.51 -11.303,-20.373 -22.415,-17.259c-11.04,2.75 -16.682,15.877 -11.081,25.774l-0.096,0.213l-3.727,8.232l-0.51,-0.605c3.011,-0.763 6.03,-1.492 9.05,-2.222c2.621,2.041 5.827,3.33 9.156,3.649c10.311,1.146 19.696,-7.427 19.623,-17.782Zm-0,-0c0.198,10.388 -9.335,19.178 -19.664,18.254c-3.366,-0.242 -6.663,-1.451 -9.409,-3.449l0.301,0.059c-2.945,0.791 -5.888,1.583 -8.839,2.342l-0.876,0.226l0.366,-0.83l3.65,-8.267l0.015,0.424c-5.788,-10.306 0.382,-24.022 11.909,-26.55c11.244,-2.874 22.732,6.21 22.547,17.791Z" style="fill:#0c2b34;fill-rule:nonzero;"/><path d="M140.833,29.673l-8.105,-8.204l2.723,-2.69l4.735,4.792l9.836,-15.42l3.227,2.058l-12.416,19.464Z" style="fill:#fec130;fill-rule:nonzero;"/><rect x="75.066" y="359.094" width="87.901" height="87.9" style="fill:#fec130;fill-rule:nonzero;"/><rect x="162.962" y="359.118" width="22.296" height="87.878" style="fill:#fec130;fill-rule:nonzero;"/><rect x="162.962" y="359.118" width="22.296" height="87.878" style="fill:#f7b31f;fill-rule:nonzero;"/><rect x="62.805" y="271.193" width="87.9" height="87.9" style="fill:#335863;fill-rule:nonzero;"/><rect x="150.701" y="271.217" width="22.295" height="87.877" style="fill:#23434c;fill-rule:nonzero;"/><rect x="64.836" y="386.604" width="60.392" height="60.391" style="fill:#d3d5d4;fill-rule:nonzero;"/><rect x="125.225" y="386.62" width="15.318" height="60.376" style="fill:#bec0c1;fill-rule:nonzero;"/><rect x="272.939" y="271.193" width="87.901" height="175.798" style="fill:#fec130;fill-rule:nonzero;"/><rect x="360.835" y="271.24" width="22.296" height="175.754" style="fill:#fec130;fill-rule:nonzero;"/><path d="M383.131,446.994l-22.296,-0l-0,-175.184c2.696,-0.176 4.558,-0.368 5.136,-0.57l17.16,0l0,175.754Z" style="fill:#f7b31f;fill-rule:nonzero;"/><path d="M325.416,45.195c-9.755,15.052 -24.962,49.95 -27.641,54.917c-1.819,3.37 14.729,12.535 15.621,10.061c1.142,-3.166 16.788,-43.132 18.527,-61.574c0.806,-8.548 -3.387,-8.218 -6.507,-3.404Z" style="fill:#f69081;fill-rule:nonzero;"/><path d="M314.613,105.794c0.055,-2.295 -13.129,-8.838 -15.049,-7.473c-1.732,1.231 -7.284,3.845 -11.899,4.299c-3.876,0.388 -9.676,0.52 -9.545,2.612c0.182,3.051 7.535,3.765 11.781,3.918c-1.206,1.971 -2.058,3.78 -2.168,5.016c-0.366,4.105 17.751,8.069 20.651,5.043c2.797,-2.917 6.175,-11.121 6.229,-13.415Z" style="fill:#f69081;fill-rule:nonzero;"/><path d="M271.455,124l-4.967,33.845l55.865,8.197l4.966,-33.844l-55.864,-8.198Z" style="fill:#fec130;fill-rule:nonzero;"/><path d="M322.353,166.042l-55.865,-8.197l3.379,-23.023l-0.751,5.117l55.864,8.197l0.751,-5.117l-3.378,23.023Z" style="fill:#ba8a27;fill-rule:nonzero;"/><path d="M324.98,148.136l-55.864,-8.197l0.751,-5.117l55.864,8.197l-0.751,5.117Z" style="fill:#a47a25;fill-rule:nonzero;"/><path d="M268.549,134.629l58.505,8.584l2.318,-15.796l-58.506,-8.585l-2.317,15.797Z" style="fill:#fec130;fill-rule:nonzero;"/><path d="M327.054,143.213l-1.323,-0.194l-55.864,-8.197l-1.318,-0.193l2.317,-15.797l58.506,8.585l-2.318,15.796Z" style="fill:#ba8a27;fill-rule:nonzero;"/><path d="M289.125,112.307l-1.322,9.01l4.237,0.622l0.752,-5.125l16.159,2.371l-0.752,5.125l4.237,0.622l1.322,-9.01l-24.633,-3.615Z" style="fill:#0c2b34;fill-rule:nonzero;"/><path d="M314.658,145.248l3.813,0.559l1.107,-7.544l-3.813,-0.56l-1.107,7.545Z" style="fill:#0c2b34;fill-rule:nonzero;"/><path d="M276.025,139.579l3.813,0.56l1.107,-7.545l-3.813,-0.56l-1.107,7.545Z" style="fill:#0c2b34;fill-rule:nonzero;"/><path d="M289.561,107.957c2.068,-0.557 1.541,2.198 1.541,2.198c-0,-0 1.714,-3.784 4.069,-3.534c2.268,0.246 1.514,3.553 1.463,3.791c0.093,-0.2 1.759,-3.636 4.099,-3.141c2.431,0.516 1.105,3.705 1.018,3.911c0.146,-0.161 2.118,-2.255 3.81,-1.475c2.907,1.341 -1.986,6.836 -1.728,9.415c0,0 4.422,0.062 4.55,0.09c-0,0 -4.549,5.323 -8.048,5.478c-1.844,0.081 -2.284,-1.622 -2.284,-1.622c-0,-0 -1.277,1.878 -3.131,1.547c-0.952,-0.172 -1.522,-1.848 -1.522,-1.848c0,-0 -1.085,1.462 -2.717,1.064c-1.302,-0.313 -1.672,-1.945 -1.672,-1.945c0,-0 -1.693,0.92 -2.92,0.167c-2.478,-1.511 -0.954,-12.898 3.472,-14.096Z" style="fill:#f69081;fill-rule:nonzero;"/><path d="M288.911,121.637l-0.06,0.003c-0.413,-3.867 0.318,-8.242 2.264,-11.636c0.064,-0.112 0.272,-0.056 0.225,0.08c-1.336,3.882 -2.212,7.433 -2.429,11.553Z" style="fill:#0c2b34;fill-rule:nonzero;"/><path d="M293.367,122.821l-0.081,-0.007c-0.404,-3.986 0.556,-8.892 3.259,-12.54c0.093,-0.125 0.302,-0.145 0.206,0.007c-1.614,2.563 -3.208,8.83 -3.384,12.54Z" style="fill:#0c2b34;fill-rule:nonzero;"/><path d="M302.027,110.993c-2.456,3.598 -3.513,7.622 -4.003,11.911l-0.092,-0.007c-0.332,-2.164 0.266,-4.865 0.909,-6.927c0.616,-1.976 1.568,-3.635 3.061,-5.063l0.125,0.086Z" style="fill:#0c2b34;fill-rule:nonzero;"/><path d="M291.072,110.089c0.077,-0.133 0.188,0.126 0.268,-0.005c0.341,-0.552 2.675,-3.695 3.992,-3.232c1.055,0.373 1.286,2.05 1.122,2.728l-0.413,1.707l0.981,-1.46c0.429,-0.637 0.97,-1.249 1.579,-1.71c0.607,-0.46 1.334,-0.758 2.009,-0.615c0.709,0.136 1.216,0.635 1.268,1.344c0.079,0.699 -0.137,1.501 -0.439,2.182l-0.843,1.902l1.413,-1.515c0.383,-0.41 0.844,-0.8 1.325,-1.101c0.482,-0.297 1.019,-0.518 1.527,-0.493c0.499,0.022 0.99,0.319 1.167,0.763c0.192,0.464 0.126,1.07 0.008,1.636c-0.255,1.154 -0.762,2.269 -1.209,3.398c-0.228,0.565 -0.458,1.131 -0.661,1.709c-0.191,0.575 -0.398,1.181 -0.333,1.795c-0.001,-0.613 0.265,-1.177 0.49,-1.733c0.244,-0.555 0.514,-1.099 0.785,-1.644c0.542,-1.091 1.076,-2.196 1.416,-3.408c0.148,-0.605 0.286,-1.267 0.052,-1.962c-0.247,-0.716 -0.971,-1.155 -1.677,-1.192c-0.721,-0.04 -1.36,0.237 -1.912,0.561c-0.555,0.339 -1.038,0.733 -1.494,1.205l0.57,0.387c0.363,-0.802 0.62,-1.632 0.543,-2.572c-0.04,-0.462 -0.236,-0.957 -0.595,-1.311c-0.359,-0.358 -0.806,-0.554 -1.269,-0.643c-0.965,-0.18 -1.876,0.253 -2.544,0.778c-0.687,0.542 -1.235,1.182 -1.708,1.908l0.569,0.247c0.179,-0.87 0.126,-2.772 -1.438,-3.557c-2.191,-0.718 -4.227,3.166 -4.549,3.903Z" style="fill:#0c2b34;fill-rule:nonzero;"/><path d="M291.102,110.155c-0.014,-0.467 -0.071,-0.92 -0.207,-1.297c-0.134,-0.38 -0.409,-0.63 -0.735,-0.69c-0.327,-0.067 -0.736,0.065 -1.126,0.236c-0.39,0.185 -0.79,0.399 -1.195,0.638c0.243,-0.405 0.564,-0.763 0.96,-1.043c0.391,-0.272 0.885,-0.512 1.474,-0.419c0.288,0.067 0.546,0.21 0.739,0.424c0.187,0.22 0.296,0.481 0.334,0.736c0.085,0.51 -0.034,0.995 -0.244,1.415Z" style="fill:#0c2b34;fill-rule:nonzero;"/><path d="M297.843,96.62l19.307,10.657c-0,0 12.649,-41.34 14.646,-55.656c1.998,-14.315 -3.698,-11.283 -7.85,-4.72c-5.676,8.973 -26.103,49.719 -26.103,49.719Z" style="fill:#0c2b34;fill-rule:nonzero;"/><path d="M317.359,101.332c-2.626,-1.26 -13.18,-6.81 -15.379,-8.163c-0.153,-0.094 -0.13,-0.214 0.041,-0.137c7.958,3.588 12.872,6.827 15.383,8.195l-0.045,0.105Z" style="fill:#335863;fill-rule:nonzero;"/><path d="M317.15,107.277c0.004,-0.015 12.649,-41.343 14.646,-55.656c0.307,-2.196 0.432,-3.984 0.41,-5.414l0.001,0c0.023,1.431 -0.102,3.219 -0.408,5.418c-1.999,14.315 -14.649,55.652 -14.649,55.652Zm8.335,-62.553c1.464,-1.844 2.978,-3.11 4.198,-3.284c-1.22,0.174 -2.733,1.44 -4.198,3.284Z" style="fill:#dedfde;fill-rule:nonzero;"/><path d="M317.15,107.277l-3.74,-2.068l0.241,-5.755c1.619,0.838 2.973,1.525 3.708,1.878l0.045,-0.105c-0.915,-0.499 -2.151,-1.246 -3.736,-2.169l1.517,-36.282c3.657,-6.956 6.959,-13.021 8.762,-15.876c0.496,-0.784 1.014,-1.517 1.538,-2.176c1.465,-1.844 2.978,-3.11 4.198,-3.284c0.095,-0.014 0.189,-0.021 0.281,-0.021c0.031,0 0.062,0.001 0.092,0.002c-0.145,1.371 -1.363,4.291 1.05,4.8c0.144,0.03 0.301,0.045 0.469,0.045c0.196,-0 0.407,-0.02 0.631,-0.059c0.022,1.43 -0.103,3.218 -0.41,5.414c-1.997,14.313 -14.642,55.641 -14.646,55.656Z" style="fill:#05252d;fill-rule:nonzero;"/><path d="M317.359,101.332c-0.735,-0.353 -2.089,-1.04 -3.708,-1.878l0.017,-0.396c1.585,0.923 2.821,1.67 3.736,2.169l-0.045,0.105Z" style="fill:#2b4f58;fill-rule:nonzero;"/><path d="M278.344,272.583c1.699,0.532 49.98,-0.528 51.791,-1.737c0.696,-0.448 0.952,-7.492 1.017,-16.012l-0.001,-0.267c0.017,-1.755 0.024,-3.564 0.01,-5.396c-0.002,-0.252 -0.003,-0.504 0.002,-0.756l-2.568,-25.029l-31.169,0.603l2.282,24.797l0.045,0.982l0.242,5.135l0.023,0.528c0,-0 -18.299,8.672 -20.152,10.211c-1.838,1.533 -3.222,6.417 -1.522,6.941Z" style="fill:#f69081;fill-rule:nonzero;"/><path d="M278.344,272.583c1.699,0.532 49.98,-0.528 51.791,-1.737c0.696,-0.448 0.952,-7.492 1.017,-16.012l-0.001,-0.267c0.017,-1.755 0.024,-3.564 0.01,-5.396c-0.002,-0.252 -0.003,-0.504 0.002,-0.756l-31.455,0.371l0.045,0.982l0.242,5.135l0.023,0.528c0,-0 -18.299,8.672 -20.152,10.211c-1.838,1.533 -3.222,6.417 -1.522,6.941Z" style="fill:#e5e5e4;fill-rule:nonzero;"/><path d="M278.339,272.58c0.875,0.273 13.993,0.125 26.814,-0.248c2.578,-0.075 5.14,-0.157 7.585,-0.246c9.142,-0.333 16.695,-0.778 17.393,-1.242c0.69,-0.442 0.946,-7.292 1.012,-15.655c-0.001,-0.118 0.005,-0.237 0.004,-0.355l0.005,-0.273l-0.037,0l-31.12,0.339l0.02,0.531c0,-0 -18.302,8.667 -20.15,10.206c-1.84,1.538 -3.222,6.419 -1.526,6.943Z" style="fill:#fec130;fill-rule:nonzero;"/><path d="M283.304,272.72c-2.816,0 -4.656,-0.044 -4.965,-0.14c-0.54,-0.167 -0.768,-0.775 -0.768,-1.577c-0.002,-1.716 1.04,-4.318 2.294,-5.366c1.848,-1.539 20.15,-10.206 20.15,-10.206l-0.02,-0.531l31.12,-0.339l0.037,0l-0.037,0c-3.598,2.574 -14.916,10.275 -22.405,15.358c-11.795,0.204 -25.086,0.558 -29.861,0.78c-0.172,0.008 -0.169,0.132 0.003,0.133c0.51,0.005 1.117,0.007 1.809,0.007c5.636,0 16.897,-0.138 27.205,-0.347c-0.997,0.676 -1.912,1.296 -2.713,1.84c-8.289,0.241 -16.701,0.388 -21.849,0.388Z" style="fill:#805f1e;fill-rule:nonzero;"/><path d="M278.849,270.699c8.135,-0.379 40.979,-1.137 49.049,-0.894l0.001,0.052c-8.055,0.551 -40.904,1.044 -49.047,0.975c-0.172,-0.001 -0.175,-0.125 -0.003,-0.133Z" style="fill:#0c2b34;fill-rule:nonzero;"/><path d="M296.529,255.068c3.19,-0.668 7.118,-0.262 9.615,1.965c0.097,0.087 -0.027,0.223 -0.132,0.193c-3.181,-0.927 -6.146,-1.501 -9.461,-1.754c-0.234,-0.018 -0.25,-0.356 -0.022,-0.404Z" style="fill:#0c2b34;fill-rule:nonzero;"/><path d="M294.248,256.512c3.19,-0.668 7.118,-0.263 9.615,1.966c0.097,0.086 -0.028,0.222 -0.132,0.192c-3.182,-0.927 -6.146,-1.502 -9.461,-1.754c-0.234,-0.018 -0.25,-0.356 -0.022,-0.404Z" style="fill:#0c2b34;fill-rule:nonzero;"/><path d="M291.967,257.956c3.19,-0.668 7.118,-0.263 9.615,1.965c0.097,0.087 -0.028,0.223 -0.132,0.193c-3.182,-0.927 -6.147,-1.501 -9.461,-1.754c-0.234,-0.018 -0.25,-0.356 -0.022,-0.404Z" style="fill:#0c2b34;fill-rule:nonzero;"/><path d="M305.153,272.332c0.801,-0.544 1.716,-1.164 2.713,-1.84c1.964,-0.04 3.894,-0.082 5.744,-0.127c-0.041,0.279 -0.063,0.546 -0.063,0.795c-0,0.338 0.042,0.641 0.13,0.891c-0.311,0.012 -0.624,0.024 -0.939,0.035c-2.445,0.089 -5.007,0.171 -7.585,0.246Z" style="fill:#71541b;fill-rule:nonzero;"/><path d="M308.71,269.919c7.489,-5.083 18.807,-12.784 22.405,-15.358l0.037,0l-0.005,0.273l0,0.033c0,0.1 -0.005,0.2 -0.005,0.3c-0,0.007 0.001,0.014 0.001,0.022c-0.008,0.958 -0.018,1.896 -0.031,2.808c-5.571,2.664 -14.022,6.779 -15.253,7.793c-0.965,0.8 -1.809,2.518 -2.151,4.05c-1.614,0.023 -3.291,0.049 -4.998,0.079Z" style="fill:#71541b;fill-rule:nonzero;"/><path d="M307.866,270.492c0.275,-0.187 0.557,-0.378 0.844,-0.573c1.707,-0.03 3.384,-0.056 4.998,-0.079c-0.039,0.178 -0.072,0.354 -0.098,0.525c-1.85,0.045 -3.78,0.087 -5.744,0.127Z" style="fill:#05252d;fill-rule:nonzero;"/><path d="M298.136,255.027l34.776,-0.312c-0,-0 -7.732,-81.161 -7.471,-82.582c0.331,-1.82 2.311,-10.06 4.947,-20.825c0.827,-3.368 1.718,-6.982 2.644,-10.728c2.503,-10.128 5.262,-21.197 7.665,-30.829c3.608,-14.43 6.46,-21.875 6.46,-21.875l-29.473,0.264c-0,0 -23.589,69.59 -24.423,83.935c-0.727,12.509 4.875,82.952 4.875,82.952Z" style="fill:#23434c;fill-rule:nonzero;"/><path d="M299.623,249.08c5.31,-0.159 3.784,-0.188 9.095,-0.287c2.6,-0.048 19.68,-0.35 22.112,0.03l0.001,0.108c-2.425,0.424 -19.508,0.429 -22.108,0.427c-5.312,-0.003 -3.787,-0.06 -9.099,-0.123c-0.099,-0.001 -0.101,-0.152 -0.001,-0.155Z" style="fill:#0c2b34;fill-rule:nonzero;"/><path d="M318.853,167.228c1.095,-5.038 2.754,-9.98 4.193,-14.927c2.925,-10.054 5.873,-20.1 8.827,-30.145c1.478,-5.022 8.375,-23.822 9.051,-26.319c0.275,-1.015 0.435,-0.46 0.083,0.829c-0.71,2.601 -12.45,39.857 -15.411,50.062c-1.485,5.116 -2.98,10.229 -4.466,15.345c-0.711,2.445 -1.406,4.904 -1.814,7.42c-0.425,2.625 -0.425,5.276 -0.236,7.923c0.382,5.318 1.046,10.625 1.585,15.929c0.54,5.315 1.08,10.63 1.62,15.945c1.075,10.577 2.15,21.154 3.198,31.734c0.133,1.341 0.263,2.682 0.378,4.025c0.039,0.449 -0.641,0.421 -0.692,-0.011c-1.24,-10.458 -2.212,-20.952 -3.289,-31.427c-1.072,-10.424 -2.144,-20.847 -3.213,-31.271c-0.268,-2.617 -0.57,-5.238 -0.596,-7.872c-0.024,-2.443 0.263,-4.855 0.782,-7.24Z" style="fill:#0c2b34;fill-rule:nonzero;"/><path d="M321.031,88.11c2.188,15.811 6.32,41.692 9.357,63.198c6.414,-26.149 16.769,-63.432 16.769,-63.432l-26.126,0.234Z" style="fill:#0c2b34;fill-rule:nonzero;"/><path d="M314.312,272.726c1.697,0.537 49.981,-0.346 51.797,-1.549c0.698,-0.445 0.979,-7.488 1.075,-16.008l-0,-0.267c0.024,-1.755 0.037,-3.564 0.03,-5.396c-0.001,-0.252 -0.001,-0.504 0.005,-0.756c0.002,-12.295 -0.999,-25.043 -0.999,-25.043l-31.562,0.489l1.104,24.81l0.042,0.983l0.223,5.136l0.021,0.528c0,-0 -18.33,8.605 -20.189,10.137c-1.843,1.527 -3.245,6.405 -1.547,6.936Z" style="fill:#f69081;fill-rule:nonzero;"/><path d="M314.312,272.726c1.697,0.537 49.981,-0.346 51.797,-1.549c0.698,-0.445 0.979,-7.488 1.075,-16.008l-0,-0.267c0.024,-1.755 0.037,-3.564 0.03,-5.396c-0.001,-0.252 -0.001,-0.504 0.005,-0.756l-31.457,0.256l0.042,0.983l0.223,5.136l0.021,0.528c0,-0 -18.33,8.605 -20.189,10.137c-1.843,1.527 -3.245,6.405 -1.547,6.936Z" style="fill:#e5e5e4;fill-rule:nonzero;"/><path d="M314.312,272.726c1.697,0.537 49.981,-0.346 51.797,-1.549c0.698,-0.445 0.979,-7.488 1.075,-16.008l-0,-0.267l-31.157,0.223l0.021,0.528c0,-0 -18.33,8.605 -20.189,10.137c-1.843,1.527 -3.245,6.405 -1.547,6.936Z" style="fill:#fec130;fill-rule:nonzero;"/><path d="M320.455,272.887c-3.477,-0 -5.795,-0.051 -6.143,-0.161c-0.309,-0.097 -0.515,-0.337 -0.635,-0.675c-0.088,-0.25 -0.13,-0.553 -0.13,-0.891c-0.001,-1.716 1.052,-4.326 2.312,-5.37c1.859,-1.532 20.189,-10.137 20.189,-10.137l-0.021,-0.528l31.157,-0.223l-0,0.267c-0.096,8.52 -0.377,15.563 -1.075,16.008c-0.032,0.021 -0.078,0.042 -0.138,0.063c-0.578,0.202 -2.44,0.394 -5.136,0.57c-9.679,0.635 -30.101,1.077 -40.38,1.077Z" style="fill:#805f1e;fill-rule:nonzero;"/><path d="M314.824,270.843c8.136,-0.348 40.982,-0.988 49.051,-0.714l0.001,0.051c-8.056,0.522 -40.907,0.895 -49.05,0.797c-0.172,-0.002 -0.174,-0.126 -0.002,-0.134Z" style="fill:#0c2b34;fill-rule:nonzero;"/><path d="M332.561,255.277c3.192,-0.657 7.118,-0.237 9.607,2.001c0.097,0.086 -0.028,0.223 -0.132,0.191c-3.178,-0.938 -6.141,-1.523 -9.455,-1.788c-0.233,-0.018 -0.249,-0.357 -0.02,-0.404Z" style="fill:#0c2b34;fill-rule:nonzero;"/><path d="M330.275,256.713c3.192,-0.657 7.118,-0.237 9.607,2c0.097,0.087 -0.028,0.224 -0.132,0.192c-3.179,-0.938 -6.141,-1.524 -9.455,-1.787c-0.234,-0.02 -0.249,-0.358 -0.02,-0.405Z" style="fill:#0c2b34;fill-rule:nonzero;"/><path d="M327.988,258.148c3.192,-0.655 7.119,-0.236 9.608,2.001c0.096,0.087 -0.029,0.223 -0.133,0.191c-3.178,-0.938 -6.141,-1.523 -9.455,-1.787c-0.233,-0.019 -0.248,-0.358 -0.02,-0.405Z" style="fill:#0c2b34;fill-rule:nonzero;"/><path d="M317.884,88.139c0,0 0.772,10.331 4.1,21.47c0.267,0.921 0.556,1.827 0.867,2.696c0,-0 2.619,1.195 7.781,4.296c-0,0 0.441,11.343 0.895,23.993c0.504,14.142 1.037,29.917 0.985,33.264c-0.183,12.523 2.297,81.35 2.297,81.35l34.771,-0.172c-0,-0 -6.977,-76.824 -6.974,-81.412c-0,-7.372 -1.847,-36.954 -3.412,-60.705c0,0 1.582,-5.464 1.457,-7.241c-0.763,-10.844 -3.358,-17.893 -3.358,-17.893l-39.409,0.354Z" style="fill:#23434c;fill-rule:nonzero;"/><path d="M335.945,249.012c5.311,-0.135 3.785,-0.171 9.097,-0.248c2.599,-0.037 19.681,-0.267 22.111,0.124l0.001,0.108c-2.427,0.414 -19.51,0.346 -22.11,0.333c-5.312,-0.026 -3.787,-0.076 -9.098,-0.162c-0.1,-0.001 -0.101,-0.152 -0.001,-0.155Z" style="fill:#0c2b34;fill-rule:nonzero;"/><path d="M354.417,92.85c0.813,19.392 1.631,35.021 2.673,54.403c1.045,19.448 2.393,38.887 4.195,58.281c1.007,10.835 2.001,26.079 3.269,36.887l-0.113,0.026c-2.705,-19.219 -4.329,-43 -5.748,-62.353c-1.419,-19.35 -2.437,-38.737 -3.271,-58.12c-0.472,-10.965 -0.821,-18.169 -1.248,-29.135c-0.006,-0.156 0.236,-0.144 0.243,0.011Z" style="fill:#0c2b34;fill-rule:nonzero;"/><path d="M353.195,105.466c-0.857,-0.212 -1.773,-0.273 -2.646,-0.403c-0.706,-0.105 -1.41,-0.223 -2.108,-0.37c-1.315,-0.278 -2.649,-0.7 -3.728,-1.529c-1.746,-1.343 -3.799,-8.188 -4.046,-8.624c-0.424,-0.747 -0.543,-0.086 -0.543,-0.016c0.004,0.797 1.888,6.792 2.603,7.908c1.309,2.042 3.623,2.848 5.932,3.118c0.661,0.078 1.328,0.118 1.994,0.15c0.823,0.039 1.7,0.105 2.519,-0.004c0.125,-0.017 0.159,-0.197 0.023,-0.23Z" style="fill:#0c2b34;fill-rule:nonzero;"/><path d="M322.965,112.469c3.401,1.136 6.689,2.763 9.834,4.471c0.124,0.067 0.045,0.258 -0.089,0.202c-3.312,-1.386 -6.688,-2.711 -9.919,-4.278c-0.254,-0.122 -0.087,-0.482 0.174,-0.395Z" style="fill:#0c2b34;fill-rule:nonzero;"/><path d="M321.764,89.884c0.008,-0.114 0.207,-0.142 0.208,-0.019c0.009,3.917 0.291,7.36 0.655,11.017c0.169,1.698 1.622,11.076 4.562,10.364c0.492,-0.119 0.74,-0.607 0.81,-1.351c0.085,-0.895 -0.262,-1.989 -0.418,-2.877c-0.345,-1.962 -0.626,-3.932 -0.812,-5.917c-0.35,-3.703 -0.4,-7.41 0.017,-11.109c0.014,-0.121 0.189,-0.114 0.19,0.009c0.043,5.131 0.224,10.252 1.038,15.327c0.392,2.439 1.656,6.105 -0.895,6.504c-2.599,0.407 -4.339,-5.737 -4.672,-7.419c-0.929,-4.693 -1.011,-9.769 -0.683,-14.529Z" style="fill:#0c2b34;fill-rule:nonzero;"/><path d="M327.113,111.499c0.272,0.629 0.492,1.283 0.681,1.941c0.146,0.511 0.343,1.063 0.29,1.597c-0.011,0.104 -0.148,0.115 -0.204,0.046c-0.35,-0.435 -0.501,-1.033 -0.699,-1.551c-0.229,-0.6 -0.472,-1.196 -0.685,-1.802c-0.141,-0.402 0.449,-0.618 0.617,-0.231Z" style="fill:#0c2b34;fill-rule:nonzero;"/><path d="M315.389,92.443c0.632,0.734 42.991,1.855 43.216,1.598c0.612,-0.7 -9.449,-43.917 -17.804,-52.826c-2.881,-3.072 -8.145,-2.96 -10.952,-1.251c-1.116,0.68 -4.146,6.25 -5.84,10.972c-3.391,9.452 -9.171,40.861 -8.62,41.507Z" style="fill:#e5e5e4;fill-rule:nonzero;"/><path d="M332.226,50.659l-1.298,-4.111l-2.933,2.008l0.682,3.43l2.496,0.385l1.053,-1.712Z" style="fill:#fec130;fill-rule:nonzero;"/><path d="M331.173,52.371l0.496,28.178l-5.509,9.177l-4.108,-11.29l6.625,-26.45l2.496,0.385Z" style="fill:#fec130;fill-rule:nonzero;"/><path d="M311.242,101.337l9.762,1.647c-0,0 3.487,-8.621 3.595,-8.613c0.072,0.147 1.454,6.467 1.93,9.019c7.248,0.173 35.278,-0.476 35.541,-0.654c0.237,-0.154 -2.701,-9.076 -3.007,-10.38c-2.367,-10.31 -6.432,-30.73 -10.116,-38.484c-2.274,-4.793 -4.263,-8.023 -5.734,-10.123c-0.226,-0.306 -0.427,-0.591 -0.624,-0.85l-1.407,-1.865l-14.701,25.256c-0.002,-0.46 1.573,-24.463 1.573,-24.463c-0.682,0.855 -4.154,7.884 -6.914,16.769c-3.441,11.09 -6.005,27.204 -7.276,34.986c0,0 -2.61,7.596 -2.622,7.755Z" style="fill:#0c2b34;fill-rule:nonzero;"/><path d="M326.481,66.29c-0.125,9.386 -0.75,18.763 -1.882,28.081c0.121,-9.385 0.753,-18.763 1.882,-28.081Z" style="fill:#335863;fill-rule:nonzero;"/><path d="M326.446,91.465c0.112,-1.342 2.158,-1.281 2.097,0.166c-0.158,1.435 -2.211,1.167 -2.097,-0.166Zm0,-0c-0.051,1.116 1.532,1.14 1.599,0.127c0.092,-1.009 -1.473,-1.237 -1.599,-0.127Z" style="fill:#335863;fill-rule:nonzero;"/><path d="M326.977,84.242c0.112,-1.341 2.158,-1.281 2.097,0.167c-0.158,1.435 -2.211,1.166 -2.097,-0.167Zm-0,0c-0.05,1.117 1.532,1.14 1.599,0.127c0.092,-1.008 -1.472,-1.236 -1.599,-0.127Z" style="fill:#335863;fill-rule:nonzero;"/><path d="M327.508,77.02c0.112,-1.341 2.158,-1.281 2.097,0.167c-0.157,1.434 -2.21,1.166 -2.097,-0.167Zm-0,-0c-0.05,1.117 1.532,1.14 1.599,0.127c0.092,-1.009 -1.472,-1.236 -1.599,-0.127Z" style="fill:#335863;fill-rule:nonzero;"/><path d="M328.04,69.798c0.112,-1.342 2.158,-1.281 2.097,0.166c-0.158,1.435 -2.211,1.167 -2.097,-0.166Zm0,0c-0.051,1.116 1.532,1.14 1.599,0.127c0.092,-1.009 -1.473,-1.237 -1.599,-0.127Z" style="fill:#335863;fill-rule:nonzero;"/><path d="M347.857,46.691c4.566,3.689 22.487,20.998 23.697,25.621c1.838,7.023 -6.672,31.126 -9.056,36.423c-1.038,2.308 -18.795,-6.336 -17.862,-8.876c0.629,-1.714 10.04,-20.377 10.039,-22.4c-0.001,-2.024 -8.551,-18.293 -13.821,-26.47c-5.02,-7.787 -2.675,-12.117 7.003,-4.298Z" style="fill:#f69081;fill-rule:nonzero;"/><path d="M332.237,121.607c1.327,1.698 3.417,0.915 3.417,0.915c-0,0 0.13,1.716 1.37,2.81c1.42,1.252 4.007,-0.425 4.007,-0.425c0,0 0.492,1.709 1.918,2.733c1.479,1.062 4.331,-0.258 4.331,-0.258c-0,-0 1.333,1.34 3.2,1.341c3.192,0.001 5.777,-4.132 7.447,-6.743c1.67,-2.611 3.961,-11.58 4.571,-13.245l-16.663,-10.862c-0,-0 -10.82,9.576 -12.347,12.925c-1.287,2.82 -2.741,8.903 -1.251,10.809Z" style="fill:#f69081;fill-rule:nonzero;"/><path d="M335.461,122.233c0.649,-3.328 2.246,-6.282 3.673,-9.321l0.104,0.05c-1.454,3.006 -2.292,6.263 -3.624,9.321l-0.153,-0.05Z" style="fill:#0c2b34;fill-rule:nonzero;"/><path d="M340.847,124.712c0.17,-0.748 0.586,-1.439 0.943,-2.111c0.384,-0.723 0.782,-1.438 1.19,-2.149c0.817,-1.422 1.667,-2.825 2.557,-4.202l0.105,0.051c-0.812,1.418 -1.603,2.848 -2.355,4.299c-0.376,0.727 -0.745,1.456 -1.111,2.188c-0.339,0.681 -0.641,1.427 -1.126,2.02c-0.072,0.088 -0.228,0.016 -0.203,-0.096Z" style="fill:#0c2b34;fill-rule:nonzero;"/><path d="M347.312,127.321c0.121,-0.656 0.61,-1.291 0.95,-1.854c0.386,-0.64 0.768,-1.282 1.147,-1.927c0.757,-1.288 1.514,-2.576 2.226,-3.89l0.104,0.05c-0.716,1.339 -1.415,2.687 -2.143,4.019c-0.357,0.654 -0.719,1.307 -1.084,1.957c-0.31,0.553 -0.635,1.279 -1.137,1.686l-0.063,-0.041Z" style="fill:#0c2b34;fill-rule:nonzero;"/><path d="M344.35,97.367l19.778,11.566c-0,0 10.101,-24.721 8.048,-36.4c-0.846,-4.815 -17.541,-20.758 -24.878,-26.698c-7.26,-5.877 -13.947,-6.531 -6.696,5.728c7.252,12.258 13.289,23.414 12.948,24.319c-0.341,0.904 -9.2,21.485 -9.2,21.485Z" style="fill:#0c2b34;fill-rule:nonzero;"/><path d="M347.687,93.355c1.446,0.574 2.827,1.375 4.206,2.093c1.438,0.748 2.851,1.541 4.268,2.328c1.415,0.785 6.978,4.117 8.366,4.949l-0.057,0.098c-1.44,-0.745 -7.148,-3.702 -8.534,-4.479c-1.386,-0.778 -2.779,-1.546 -4.144,-2.361c-1.381,-0.825 -2.84,-1.604 -4.131,-2.565l0.026,-0.063Z" style="fill:#335863;fill-rule:nonzero;"/><path d="M362.837,108.178l1.332,0.685l-0.117,0.042c1.626,-5.418 3.86,-12.077 5.602,-17.491c0.611,-1.945 1.226,-3.886 1.69,-5.879c-1.099,8.145 -4.128,15.93 -7.179,23.519l-0.078,-0.051l-1.25,-0.825Z" style="fill:#0c2b34;fill-rule:nonzero;"/><path d="M345.589,98.092l-1.25,-0.704l-0.019,-0.01l0.009,-0.021l4.464,-10.55c1.44,-3.676 3.422,-7.32 4.363,-11.075c-0.936,-2.818 -3.314,-6.868 -4.634,-9.57l-5.311,-10.148c3.008,4.88 5.892,9.836 8.542,14.921c0.754,1.522 1.606,2.996 2.123,4.63c0.094,0.336 -0.01,0.667 -0.07,0.888c-2.667,7.2 -6.057,14.044 -9.434,20.924c-0.086,-0.108 1.23,0.736 1.217,0.715Z" style="fill:#335863;fill-rule:nonzero;"/><path d="M345.229,59.596c-0.845,-0.386 -1.566,-1.114 -1.883,-1.994c0.617,0.706 1.229,1.323 1.883,1.994Z" style="fill:#335863;fill-rule:nonzero;"/><path d="M341.124,42.833c0.607,2.278 1.358,5.619 1.897,7.95l0.073,0.32l-0.342,0.003c-1.947,0.015 -3.894,-0.018 -5.841,-0.042l0.34,-0.423c0.507,2.06 1.033,4.115 1.496,6.184l0.052,0.228l-0.178,0.137c-3.992,3.107 -8.008,6.179 -12.14,9.1c3.81,-3.33 7.739,-6.512 11.697,-9.663l-0.127,0.365c-0.56,-2.199 -1.051,-4.416 -1.567,-6.625c2.092,0.057 4.187,0.101 6.279,0.201l-0.269,0.322c-0.433,-2.361 -1.019,-5.713 -1.37,-8.057Z" style="fill:#0c2b34;fill-rule:nonzero;"/><path d="M324.792,57.118c1.067,2.961 1.635,6.025 1.689,9.172c-1.072,-2.959 -1.632,-6.025 -1.689,-9.172Z" style="fill:#0c2b34;fill-rule:nonzero;"/><path d="M331.106,46.221c2.265,0.478 7.656,-2.927 9.184,-6.184c0.103,-0.224 -0.861,-7.63 -0.969,-9.36c-0.02,-0.355 -10.687,3.314 -10.687,3.314c0,-0 1.293,3.561 1.463,6.579c0.011,0.252 0.001,0.488 -0.03,0.714l-0.009,0.119c-0.136,1.362 -1.376,4.307 1.048,4.818Z" style="fill:#f69081;fill-rule:nonzero;"/><path d="M330.063,41.284l-0.003,0.118c0.342,0.025 0.711,0.022 1.114,-0.011c6.379,-0.54 7.565,-8.64 7.763,-10.687c-1.911,0.397 -10.304,3.287 -10.304,3.287c-0,-0 1.295,3.563 1.465,6.581c0.008,0.251 0.001,0.488 -0.035,0.712Z" style="fill:#0c2b34;fill-rule:nonzero;"/><path d="M342.84,18.199c0.793,3.952 -2.326,14.837 -5.298,17.039c-4.31,3.193 -10.821,2.897 -13.396,-2.159c-2.496,-4.901 1.819,-19.013 5.089,-20.959c4.816,-2.865 12.434,0.241 13.605,6.079Z" style="fill:#f69081;fill-rule:nonzero;"/><path d="M332.569,23.882l0.038,0.08c-0.23,0.728 -0.371,1.6 0.225,2.03l-0.018,0.04c-0.778,-0.342 -0.58,-1.498 -0.245,-2.15Z" style="fill:#0c2b34;fill-rule:nonzero;"/><path d="M333.44,23.299c1.206,0.243 0.632,2.637 -0.485,2.412c-1.1,-0.221 -0.526,-2.615 0.485,-2.412Z" style="fill:#0c2b34;fill-rule:nonzero;"/><path d="M328.246,22.974l-0.072,0.052c-0.155,0.747 -0.457,1.577 -1.187,1.663l-0.003,0.043c0.846,0.081 1.236,-1.025 1.262,-1.758Z" style="fill:#0c2b34;fill-rule:nonzero;"/><path d="M327.77,22.041c-1.171,-0.376 -1.838,1.994 -0.753,2.342c1.068,0.344 1.734,-2.027 0.753,-2.342Z" style="fill:#0c2b34;fill-rule:nonzero;"/><path d="M334.647,22.431c-0.307,-0.16 -0.562,-0.359 -0.849,-0.549c-0.323,-0.214 -0.603,-0.351 -0.759,-0.724c-0.084,-0.201 0.041,-0.494 0.228,-0.594c0.435,-0.232 0.897,-0.068 1.297,0.174c0.433,0.262 0.701,0.576 0.871,1.052c0.165,0.462 -0.384,0.852 -0.788,0.641Z" style="fill:#0c2b34;fill-rule:nonzero;"/><path d="M327.133,20.614c0.345,0.025 0.667,-0.009 1.01,-0.019c0.388,-0.012 0.698,0.019 1.027,-0.216c0.177,-0.126 0.226,-0.441 0.119,-0.625c-0.247,-0.426 -0.726,-0.53 -1.193,-0.535c-0.507,-0.006 -0.899,0.12 -1.295,0.435c-0.384,0.305 -0.123,0.926 0.332,0.96Z" style="fill:#0c2b34;fill-rule:nonzero;"/><path d="M331.605,30.929c-0.219,0.131 -0.453,0.328 -0.728,0.286c-0.263,-0.04 -0.538,-0.229 -0.752,-0.378l-0.042,0.031c0.125,0.331 0.487,0.606 0.845,0.628c0.35,0.022 0.585,-0.228 0.741,-0.516l-0.064,-0.051Z" style="fill:#0c2b34;fill-rule:nonzero;"/><path d="M331.358,28.522c-0.57,0.544 -1.264,0.75 -1.955,0.72c-0.309,-0.012 -0.621,-0.076 -0.918,-0.176l-0.169,-0.062l-0.156,-0.063l-0.109,-0.202l0.001,-0.006l0.025,-0.074l0.001,-0.006l0.017,-0.064c0.121,-0.575 0.385,-1.43 0.385,-1.43c-0.234,0.055 -1.412,0.278 -1.324,-0.016c0.739,-2.434 1.561,-5.141 2.811,-7.408l0.131,0.052c-0.618,2.367 -1.648,4.61 -2.306,6.979c0.37,-0.048 0.981,-0.154 1.278,-0.076c0.076,0.042 -0.539,1.643 -0.572,1.906l-0.002,0.028c0.93,0.353 1.723,0.236 2.808,-0.185l0.054,0.083Z" style="fill:#0c2b34;fill-rule:nonzero;"/><path d="M329.556,37.15c-2.236,-0.444 -4.236,-1.76 -5.413,-4.069c-0.854,-1.674 -0.909,-4.423 -0.486,-7.397c0,0.002 0.001,0.004 0.002,0.005c-0.424,2.97 -0.365,5.717 0.487,7.39c1.177,2.311 3.175,3.627 5.41,4.07l-0,0.001Z" style="fill:#b3bbbe;fill-rule:nonzero;"/><path d="M329.556,37.15c-0,-0 0.001,-0 -0,-0l-0,-0.001l-0,0.001Z" style="fill:#bc746b;fill-rule:nonzero;"/><path d="M330.291,37.263c-0.247,-0.027 -0.492,-0.065 -0.735,-0.113l-0,-0.001c0.243,0.049 0.488,0.086 0.735,0.114Z" style="fill:#0c2b34;fill-rule:nonzero;"/><path d="M331.326,37.32c-0.347,0 -0.693,-0.019 -1.035,-0.057c-0.247,-0.028 -0.492,-0.065 -0.735,-0.114c-2.235,-0.443 -4.233,-1.759 -5.41,-4.07c-0.852,-1.673 -0.911,-4.42 -0.487,-7.39c0.387,1.075 1.252,1.357 2.054,1.357c0.669,-0 1.294,-0.196 1.562,-0.293c-0.04,0.13 -0.079,0.26 -0.119,0.39c-0.033,0.112 0.116,0.149 0.326,0.149c0.345,-0 0.853,-0.099 0.998,-0.133c0,-0 -0.264,0.855 -0.385,1.43l-0.017,0.064l-0.001,0.006l-0.025,0.074l-0.001,0.006l0.109,0.202l0.156,0.063l0.169,0.062c0.297,0.1 0.609,0.164 0.918,0.176c0.044,0.002 0.087,0.003 0.131,0.003c0.492,-0 0.983,-0.123 1.424,-0.407c0.636,0.201 1.339,0.294 2.038,0.294c1.014,-0 2.021,-0.195 2.808,-0.539c1.606,-0.697 3.216,-3.913 3.216,-3.913l1.938,4.636c-0.985,2.705 -2.215,5.028 -3.417,5.919c-1.832,1.358 -4.06,2.085 -6.215,2.085Zm-1.201,-6.483l-0.042,0.031c0.125,0.331 0.487,0.606 0.845,0.628c0.014,0.001 0.028,0.002 0.042,0.002c0.327,-0 0.55,-0.242 0.699,-0.518l-0.064,-0.051c-0.198,0.119 -0.41,0.292 -0.652,0.292c-0.025,0 -0.05,-0.002 -0.076,-0.006c-0.263,-0.04 -0.538,-0.229 -0.752,-0.378Zm-0.54,-2.005c-0.359,0 -0.713,-0.065 -1.089,-0.208l0.002,-0.028c0.019,-0.153 0.234,-0.755 0.397,-1.243c0.369,0.612 0.958,1.05 1.658,1.338c-0.34,0.092 -0.656,0.141 -0.968,0.141Z" style="fill:#bc746b;fill-rule:nonzero;"/><path d="M330.97,31.498c-0.014,-0 -0.028,-0.001 -0.042,-0.002c-0.358,-0.022 -0.72,-0.297 -0.845,-0.628l0.042,-0.031c0.214,0.149 0.489,0.338 0.752,0.378c0.026,0.004 0.051,0.006 0.076,0.006c0.242,0 0.454,-0.173 0.652,-0.292l0.064,0.051c-0.149,0.276 -0.372,0.518 -0.699,0.518Z" style="fill:#0c2b34;fill-rule:nonzero;"/><path d="M329.534,29.245c-0.044,-0 -0.087,-0.001 -0.131,-0.003c-0.309,-0.012 -0.621,-0.076 -0.918,-0.176l-0.169,-0.062l-0.156,-0.063l-0.109,-0.202l0.001,-0.006l0.025,-0.074l0.001,-0.006l0.017,-0.064c0.121,-0.575 0.385,-1.43 0.385,-1.43c-0.145,0.034 -0.653,0.133 -0.998,0.133c-0.21,-0 -0.359,-0.037 -0.326,-0.149c0.04,-0.13 0.079,-0.26 0.119,-0.39c0.088,-0.032 0.137,-0.053 0.137,-0.053l1.292,0.275c0.055,0.133 0.118,0.259 0.191,0.378c-0.163,0.488 -0.378,1.09 -0.397,1.243l-0.002,0.028c0.376,0.143 0.73,0.208 1.089,0.208c0.312,0 0.628,-0.049 0.968,-0.141c0.131,0.054 0.266,0.103 0.405,0.147c-0.441,0.284 -0.932,0.407 -1.424,0.407Z" style="fill:#0c2b34;fill-rule:nonzero;"/><path d="M341.256,27.719c-1.687,0.115 -2.298,-1.431 -2.502,-2.51c-0.203,-1.08 1.393,-7.076 0.925,-8.728c-0.469,-1.651 -1.959,-2.821 -3.352,-2.703c-1.393,0.118 -3.447,1.495 -4.398,1.206c-0.951,-0.288 -0.751,-2.434 -1.426,-2.573c-1.485,-0.307 -3.808,3.034 -4.411,4.608c0,0 1.392,-6.983 8.637,-6.155c7.068,0.807 8.321,6.032 8.495,8.248c0.335,4.246 -1.968,8.607 -1.968,8.607Z" style="fill:#0c2b34;fill-rule:nonzero;"/><path d="M338.973,26.69c-0,0 2.926,-3.279 4.443,-2.194c1.517,1.084 -0.98,6.045 -2.97,6.528c-1.989,0.483 -2.472,-1.35 -2.472,-1.35l0.999,-2.984Z" style="fill:#f69081;fill-rule:nonzero;"/><path d="M342.665,25.9l0.004,0.052c-1.401,0.382 -2.251,1.537 -2.896,2.763c0.456,-0.447 1.029,-0.653 1.635,-0.102l-0.045,0.067c-0.533,-0.182 -0.939,-0.134 -1.361,0.26c-0.299,0.279 -0.524,0.65 -0.754,0.986c-0.077,0.113 -0.285,0.023 -0.223,-0.109l0.014,-0.03c0.169,-1.707 1.777,-3.933 3.626,-3.887Z" style="fill:#0c2b34;fill-rule:nonzero;"/><path d="M330.034,39.813l1.443,5.892l8.693,-7.245l1.813,3.019c0,0 -8.953,11.64 -8.937,11.07l-1.959,-5.642l-4.114,3.311l1.35,-9.319l1.711,-1.086Z" style="fill:#e5e5e4;fill-rule:nonzero;"/><path d="M327.38,45.574c0.274,-1.531 0.508,-3.081 0.853,-4.597l0.106,-0.003c0.142,1.524 -0.938,7.373 -1.09,8.788l0.018,-0.014c0.172,-0.144 3.793,-2.894 3.82,-2.841c0.46,0.913 1.901,5.023 1.989,5.392c1.417,-1.849 6.804,-8.546 8.427,-10.263l0.087,0.064c-1.29,1.976 -8.436,11.006 -8.526,10.969c-0.069,0.041 -1.865,-5.023 -2.042,-5.962c-0.63,0.617 -4.327,3.764 -4.312,3.533c0.098,-1.556 0.395,-3.533 0.67,-5.066Z" style="fill:#0c2b34;fill-rule:nonzero;"/><path d="M110.342,14.845c0,0 -6.664,-3.63 -12.585,0c-5.922,3.63 -8.74,12.577 -7.725,20.085c1.014,7.508 -5.194,12.466 -5.866,18.044c-0.672,5.577 3.043,8.157 4.291,11.084c1.427,3.35 -4.291,15.254 10.264,18.014c18.201,3.452 25.165,-7.58 23.308,-16.703c-0.909,-4.469 -3.46,-7.644 -3.412,-11.259c0.046,-3.615 2.639,-6.497 1.286,-11.081c-1.352,-4.584 -3.143,-3.961 -3.882,-11.159c-0.739,-7.197 0.765,-15.801 -5.679,-17.025Z" style="fill:#0c2b34;fill-rule:nonzero;"/><path d="M99.015,14.673c-3.942,2.533 -6.886,6.08 -8.606,10.206c-0.872,2.09 -1.4,4.296 -1.542,6.531c-0.187,2.933 0.268,5.679 -0.839,8.526c-1.774,4.56 -5.321,8.364 -5.153,13.442c0.078,2.343 0.827,4.642 2.188,6.626c1.574,2.295 3.814,4.105 5.13,6.562c0.055,0.101 0.215,0.013 0.165,-0.088c-1.097,-2.184 -2.877,-3.852 -4.358,-5.807c-1.772,-2.339 -2.773,-5.12 -2.69,-7.983c0.14,-4.827 3.639,-8.538 5.273,-12.939c0.74,-1.991 0.787,-3.921 0.722,-6.008c-0.078,-2.466 0.189,-4.886 0.944,-7.261c1.488,-4.685 4.659,-8.732 8.817,-11.746l-0.051,-0.061Z" style="fill:#0c2b34;fill-rule:nonzero;"/><path d="M91.356,69.501l0,0.033l0,-0.033Z" style="fill:#0c2b34;fill-rule:nonzero;"/><path d="M121.964,64.076c-0.459,-2.158 -1.604,-4.115 -2.06,-6.265c-0.55,-2.59 0.114,-5.169 0.615,-7.712c0.715,-3.626 0.634,-7.052 -0.991,-10.468c-1.05,-2.208 -2.33,-4.275 -3.11,-6.598c-0.844,-2.517 -1.319,-5.157 -1.39,-7.795l-0.095,0c-0.028,3.888 0.71,7.571 2.435,11.121c0.991,2.04 2.227,3.955 2.797,6.156c0.687,2.647 0.419,5.202 -0.05,7.856c-0.312,1.769 -0.69,3.561 -0.675,5.363c0.015,1.874 0.614,3.534 1.286,5.283c1.741,4.532 1.714,9.175 -0.08,13.687l0.144,0.056c1.488,-3.381 1.939,-7.077 1.174,-10.684Z" style="fill:#0c2b34;fill-rule:nonzero;"/><path d="M83.677,52.328c0.161,-3.976 2.972,-6.676 4.679,-10.123c1.289,-2.604 2.165,-5.385 1.738,-8.255l-0.09,0.011c0.219,4.155 -1.55,7.92 -3.883,11.398c-1.551,2.313 -2.834,4.535 -2.848,7.319c-0.014,2.726 1.091,5.023 2.667,7.279c1.123,1.609 2.228,3.108 2.703,5.009c0.473,1.89 0.367,3.876 0.274,5.796c-0.005,0.1 0.16,0.098 0.169,-0c0.267,-2.978 0.312,-5.867 -1.209,-8.587c-1.868,-3.341 -4.364,-5.807 -4.2,-9.847Z" style="fill:#0c2b34;fill-rule:nonzero;"/><path d="M122.663,61.254c-0.608,-1.364 -1.462,-2.609 -2.319,-3.85c-1.543,-2.236 -1.801,-4.05 -1.287,-6.705l-0.102,-0.025c-0.74,2.186 -0.915,4.003 0.4,6.017c1.835,2.81 3.633,5.371 4.011,8.726c0.671,5.955 -2.743,11.508 -8.274,14.521l0.072,0.112c4.642,-2.254 7.897,-6.331 8.574,-11.139c0.364,-2.58 -0.002,-5.246 -1.075,-7.657Z" style="fill:#0c2b34;fill-rule:nonzero;"/><path d="M113.611,50.228c9.756,15.052 24.962,49.949 27.642,54.916c1.818,3.371 -15.78,13.373 -16.672,10.9c-1.142,-3.167 -15.738,-43.97 -17.477,-62.413c-0.806,-8.548 3.387,-8.217 6.507,-3.403Z" style="fill:#f37a6d;fill-rule:nonzero;"/><path d="M129.85,120.931c-0.824,-0.896 -1.3,-0.469 -1.132,1.688c0.166,2.183 2.665,10.555 -0.338,11.178c-3.012,0.631 -6.354,-11.274 -6.359,-14.889c-0.013,-3.615 1.254,-9.462 1.254,-9.462c1.117,2.185 4.33,7.226 6.575,11.485Z" style="fill:#f37a6d;fill-rule:nonzero;"/><path d="M140.168,103.037c3.78,6.445 6.936,13.896 6.187,21.663c-0.147,1.524 -0.995,2.326 -0.995,2.326c-0.274,3.487 -2.002,4.405 -2.002,4.405c-1.25,3.17 -3.147,3.865 -3.147,3.865c-0,-0 -0.564,2.77 -2.53,2.518c-1.907,-0.246 -2.553,-4.957 -3.914,-8.498c-3.118,-8.112 -9.36,-17.62 -10.492,-19.87l16.893,-6.409Z" style="fill:#f37a6d;fill-rule:nonzero;"/><path d="M136.934,119.67c0.87,2.406 1.787,4.746 2.327,7.257c0.592,2.755 0.7,5.506 0.879,8.303l0.136,0.002c0.477,-5.116 -0.85,-11.064 -3.234,-15.603c-0.057,-0.11 -0.152,-0.08 -0.108,0.041Z" style="fill:#0c2b34;fill-rule:nonzero;"/><path d="M141.557,117.076c0.716,2.388 1.949,6.593 1.717,14.353l0.047,0.007c0.821,-5.018 0.198,-9.703 -1.651,-14.394c-0.057,-0.145 -0.161,-0.125 -0.113,0.034Z" style="fill:#0c2b34;fill-rule:nonzero;"/><path d="M144.067,115.729c1.064,4.107 1.215,6.83 1.275,11.28l0.047,0.004c0.463,-5.064 0.057,-6.954 -1.186,-11.341c-0.043,-0.15 -0.177,-0.104 -0.136,0.057Z" style="fill:#0c2b34;fill-rule:nonzero;"/><path d="M141.185,101.652l-19.307,10.658c-0,-0 -12.649,-41.341 -14.647,-55.656c-1.997,-14.316 3.698,-11.283 7.85,-4.721c5.677,8.973 26.104,49.719 26.104,49.719Z" style="fill:#fec130;fill-rule:nonzero;"/><path d="M121.669,106.365c2.625,-1.261 13.179,-6.81 15.379,-8.164c0.152,-0.093 0.13,-0.213 -0.042,-0.136c-7.958,3.587 -12.872,6.826 -15.383,8.194l0.046,0.106Z" style="fill:#0c2b34;fill-rule:nonzero;"/><path d="M113.808,50.096c-1.412,-1.85 -2.889,-3.189 -4.12,-3.548c1.231,0.358 2.708,1.697 4.12,3.548Z" style="fill:#05252d;"/><path d="M124.807,110.69c-0.29,-1.915 -0.569,-3.753 -0.831,-5.483c0.435,-0.223 0.906,-0.465 1.4,-0.721l0.241,5.755l-0.81,0.449Zm-0.873,-5.764c-0.71,-4.683 -1.302,-8.586 -1.705,-11.244l1.787,-1.05l-4.375,-19.395c-0,-0 3.517,-3.625 2.476,-8.693c0.563,1.059 1.14,2.15 1.725,3.264l1.518,36.282c-0.512,0.298 -0.987,0.577 -1.426,0.836Zm-6.519,-49.022c-2.902,-3.958 -6.323,-7.811 -7.727,-9.356c1.231,0.359 2.708,1.698 4.12,3.548c0.433,0.569 0.86,1.185 1.272,1.837c0.618,0.978 1.412,2.332 2.335,3.971Z" style="fill:#f7b31f;fill-rule:nonzero;"/><path d="M123.976,105.207c-0.014,-0.095 -0.028,-0.186 -0.042,-0.281c0.439,-0.259 0.914,-0.538 1.426,-0.836l0.016,0.396c-0.494,0.256 -0.965,0.498 -1.4,0.721Z" style="fill:#05252d;fill-rule:nonzero;"/><path d="M158.249,271.204c-1.635,0.569 -48.601,1.037 -50.399,-0.082c-0.691,-0.414 -1.158,-7.253 -1.485,-15.534l-0.646,-30.6l30.621,-0.387l0.307,30.602c0,0 18.058,7.862 19.907,9.301c1.834,1.433 3.33,6.138 1.695,6.7Z" style="fill:#f37a6d;fill-rule:nonzero;"/><path d="M143.836,258.252c-0.123,-0.034 -0.189,-0.068 -0.196,-0.104c-0,-0 0.072,0.035 0.196,0.104Z" style="fill:#fec130;fill-rule:nonzero;"/><path d="M106.556,259.907c0.313,6.226 0.726,10.877 1.295,11.216c1.795,1.121 48.764,0.651 50.395,0.078c1.639,-0.559 0.141,-5.263 -1.694,-6.696c-0.884,-0.692 -5.476,-2.844 -10.026,-4.907c6.773,3.65 11.923,8.786 -39.97,0.309Z" style="fill:#0c2b34;fill-rule:nonzero;"/><path d="M106.556,259.907c0.313,6.226 0.726,10.877 1.295,11.216c0.709,0.441 8.539,0.64 17.821,0.675l-11.563,-10.693c-2.371,-0.364 -4.886,-0.763 -7.553,-1.198Z" style="fill:#23434c;fill-rule:nonzero;"/><path d="M92.995,90.519c0,0 9.765,79.749 11.053,85.778c0.297,1.372 -0.262,8.294 0.066,17.931c0.727,21.025 1.138,55.273 1.138,55.273l32.337,-0.887c0,-0 -1.416,-61.883 -3.158,-73.945c-1.743,-12.069 -12.781,-84.807 -12.781,-84.807l-28.655,0.657Z" style="fill:#fec130;fill-rule:nonzero;"/><path d="M105.252,249.501c-0,0 -0.369,-30.719 -1.025,-51.831c0.002,-0.027 0.003,-0.052 0.005,-0.079c0.147,4.177 0.315,8.833 0.487,13.621l3.992,-37.85c0.099,0.695 0.198,1.384 0.296,2.065c0.817,19.826 1.09,44.145 1.882,64.041c-0.318,-19.918 -0.391,-44.283 -1.172,-64.133c-0.225,-1.599 -0.457,-3.236 -0.697,-4.909l5.686,-53.91c0.381,-0.097 0.586,-0.135 0.586,-0.135c2.706,-7.267 4.618,-16.477 5.608,-21.918l1.329,-0.781c2.295,15.133 10.7,70.586 12.202,80.987c1.742,12.062 3.158,73.945 3.158,73.945l-1.008,0.028l-30.345,0.832l-0.984,0.027Z" style="fill:#644b17;fill-rule:nonzero;"/><path d="M104.719,211.212c-0.172,-4.788 -0.34,-9.444 -0.487,-13.621c0.496,-8.494 0.842,-15.647 0.842,-19.085c-0,-2.675 0.287,-14.042 0.612,-26.055c1.066,7.34 2.092,14.421 3.025,20.911l-3.992,37.85Zm4.301,-40.786c-0.982,-6.866 -2.077,-14.317 -3.225,-21.978c0.394,-14.4 0.803,-28.451 0.803,-28.451c3.86,-2.245 6.887,-3.169 8.108,-3.481l-5.686,53.91Z" style="fill:#584213;fill-rule:nonzero;"/><path d="M134.255,241.702c-1.72,-0.174 -14.755,-0.11 -25.62,0.887l0.008,0.125c3.564,0.2 23.62,-0.525 25.604,-0.869l0.008,-0.143Z" style="fill:#0c2b34;fill-rule:nonzero;"/><path d="M97.3,93.84c3.88,23.993 9.01,57.309 12.417,81.495c0.781,19.85 0.854,44.215 1.172,64.133c-0.792,-19.896 -1.065,-44.215 -1.882,-64.041c-3.469,-24.202 -8.391,-57.475 -11.707,-81.587Z" style="fill:#0c2b34;fill-rule:nonzero;"/><path d="M121,272.699c-1.648,0.531 -48.613,-0.119 -50.383,-1.28c-0.681,-0.43 -0.986,-7.279 -1.116,-15.564l2.523,-30.628l29.795,0.373l-2.034,30.59c0,0 17.866,8.289 19.68,9.771c1.799,1.477 3.184,6.215 1.535,6.738Z" style="fill:#f37a6d;fill-rule:nonzero;"/><path d="M70.617,271.417c1.77,1.164 48.735,1.814 50.385,1.28c1.645,-0.521 0.259,-5.258 -1.539,-6.734c-1.04,-0.85 -7.387,-3.956 -12.598,-6.443c6.87,3.855 20.038,12.351 -37.311,-0.751c0.152,6.923 0.461,12.271 1.063,12.648Z" style="fill:#0c2b34;fill-rule:nonzero;"/><path d="M100.732,249.501l-30.705,-0.908c0,0 5.721,-66.281 5.786,-70.744c0.096,-6.636 1.982,-34.711 4.143,-56.927c0,-0 -3.289,-15.914 3.722,-30.216l38,-0.871c0,-0 -2.277,15.512 -6.386,26.546c-0,0 -3.63,0.671 -8.694,3.616c-0,0 -1.523,52.344 -1.524,58.509c-0,12.186 -4.342,70.995 -4.342,70.995Z" style="fill:#fec130;fill-rule:nonzero;"/><path d="M100.732,249.501l-0.501,-0.015l-30.132,-0.89l-0.072,-0.003c0,0 5.721,-66.281 5.786,-70.744c0.096,-6.636 1.982,-34.711 4.143,-56.927c0,-0 -0.771,-3.734 -0.771,-9.21c0.001,-5.112 0.676,-11.742 3.28,-18.27l29.256,3.519l2.925,-5.102l2.203,4.984l4.051,-2.38c-0.99,5.441 -2.902,14.651 -5.608,21.918c-0,0 -3.63,0.671 -8.694,3.616c-0,0 -0.409,14.051 -0.803,28.451c-0.037,1.335 -0.073,2.673 -0.109,4.003c-0.325,12.013 -0.612,23.38 -0.612,26.055c-0,3.438 -0.346,10.591 -0.842,19.085c-0.002,0.027 -0.003,0.052 -0.005,0.079c-1.263,21.603 -3.495,51.831 -3.495,51.831Z" style="fill:#644b17;fill-rule:nonzero;"/><path d="M98.533,243.321c-1.701,-0.308 -14.702,-1.26 -25.611,-1.113l-0.002,0.126c3.538,0.476 23.589,1.317 25.594,1.129l0.019,-0.142Z" style="fill:#0c2b34;fill-rule:nonzero;"/><path d="M115.308,116.084c-3.448,1.151 -6.78,2.8 -9.968,4.531c-0.125,0.068 -0.045,0.262 0.09,0.205c3.357,-1.405 6.779,-2.747 10.055,-4.336c0.257,-0.124 0.087,-0.489 -0.177,-0.4Z" style="fill:#0c2b34;fill-rule:nonzero;"/><path d="M116.525,93.192c-0.008,-0.116 -0.21,-0.143 -0.211,-0.019c-0.009,3.97 -0.294,7.46 -0.663,11.166c-0.171,1.721 -1.644,11.227 -4.625,10.505c-0.498,-0.121 -0.749,-0.615 -0.821,-1.37c-0.086,-0.907 0.266,-2.015 0.424,-2.915c0.349,-1.989 0.634,-3.986 0.824,-5.997c0.354,-3.754 0.404,-7.511 -0.018,-11.261c-0.014,-0.123 -0.192,-0.115 -0.193,0.01c-0.043,5.201 -0.227,10.39 -1.052,15.534c-0.397,2.472 -1.678,6.188 0.908,6.593c2.634,0.412 4.397,-5.815 4.734,-7.52c0.943,-4.757 1.026,-9.901 0.693,-14.726Z" style="fill:#0c2b34;fill-rule:nonzero;"/><path d="M111.104,115.101c-0.276,0.637 -0.499,1.3 -0.69,1.967c-0.148,0.517 -0.348,1.077 -0.294,1.619c0.01,0.105 0.149,0.116 0.206,0.046c0.354,-0.441 0.508,-1.047 0.709,-1.572c0.232,-0.608 0.478,-1.212 0.694,-1.826c0.142,-0.408 -0.455,-0.627 -0.625,-0.234Z" style="fill:#0c2b34;fill-rule:nonzero;"/><path d="M85.723,93.088c-2.559,8.524 -4.593,17.855 -2.491,26.662c-1.665,39.997 -4.902,79.889 -8.968,119.718c2.15,-29.802 5.146,-59.907 6.7,-89.783c0.012,0.007 1.794,-30.213 1.811,-29.886c-2.058,-8.915 0.224,-18.187 2.948,-26.711Z" style="fill:#0c2b34;fill-rule:nonzero;"/><path d="M122.732,89.471c0,0 -28.784,4.604 -41.119,3.429c-0,-0 7.601,-35.713 16.343,-45.494c3.979,-4.451 7.98,-3.876 11.423,-1.15c0.858,0.681 11.611,13.703 12.602,18.305c0.876,4.067 -2.34,8.676 -2.34,8.676l3.091,16.234Z" style="fill:#e5e5e4;fill-rule:nonzero;"/><path d="M106.435,55.109l1.593,-3.078l2.45,2.635l-0.183,2.172l-2.515,0.333l-1.345,-2.062Z" style="fill:#0c2b34;fill-rule:nonzero;"/><path d="M107.78,57.171l1.188,24.131l5.678,10.557l3.309,-10.755l-7.66,-24.266l-2.515,0.333Z" style="fill:#0c2b34;fill-rule:nonzero;"/><path d="M109.038,45.839c0,-0 4.749,11.935 5.091,15.02c0.342,3.085 -0.78,14.723 -0.78,14.723c-0,0 -7.088,-12.097 -8.829,-16.022c-2.704,-6.097 -3.471,-14.652 -3.471,-14.652c0,-0 -2.526,1.222 -5.774,5.892c-4.344,6.25 -11.911,29.538 -14.267,42.466l30.713,3.695l2.925,-5.102l2.203,4.984l7.167,-4.211l-4.375,-19.395c-0,-0 3.956,-4.077 2.235,-9.63c-1.872,-6.039 -12.838,-17.768 -12.838,-17.768Z" style="fill:#fec130;fill-rule:nonzero;"/><path d="M114.076,66.109c0.092,-1.733 0.143,-3.343 0.105,-4.457c0.039,1.114 -0.013,2.724 -0.105,4.457Z" style="fill:#b2b5b6;fill-rule:nonzero;"/><path d="M113.357,75.555c0.038,-0.41 0.497,-5.283 0.719,-9.446c0.092,-1.733 0.144,-3.343 0.105,-4.457c-0.01,-0.304 -0.027,-0.571 -0.051,-0.793c-0.337,-3.027 -4.903,-14.553 -5.083,-15.006c0.744,0.845 7.959,11.494 7.959,11.494l-2.65,0.583l3.151,3.615l-4.15,14.01Z" style="fill:#d89e25;fill-rule:nonzero;"/><path d="M108.247,66.657c-0.408,-0.732 -0.81,-1.461 -1.195,-2.166c0.385,0.705 0.787,1.433 1.195,2.165l0,0.001Zm-6.811,-18.706c-0.268,-1.767 -0.379,-2.954 -0.386,-3.038l0,-0.006c0,0 0.108,1.21 0.386,3.044Z" style="fill:#b2b5b6;fill-rule:nonzero;"/><path d="M113.222,75.365c-0.555,-0.951 -2.837,-4.87 -4.975,-8.708l0,-0.001c2.138,3.836 4.419,7.754 4.975,8.709Z" style="fill:#021e27;fill-rule:nonzero;"/><path d="M113.344,75.575l-11.293,-11.776l1.211,-4.695l-3.099,-0.797l0.887,-13.394c0.007,0.084 0.118,1.271 0.386,3.038c0.463,3.043 1.395,7.806 3.083,11.608c0.5,1.128 1.444,2.933 2.533,4.932c0.385,0.705 0.787,1.434 1.195,2.166c2.138,3.838 4.42,7.757 4.975,8.708c0.067,0.115 0.109,0.187 0.122,0.21Z" style="fill:#d89e25;fill-rule:nonzero;"/><path d="M113.349,75.582c0.94,5.371 1.378,10.824 1.297,16.276c-0.944,-5.37 -1.374,-10.824 -1.297,-16.276Z" style="fill:#0c2b34;fill-rule:nonzero;"/><path d="M110.71,79.177c-0.045,-1.274 1.918,-1.42 1.988,-0.045c-0.009,1.373 -1.975,1.319 -1.988,0.045Zm-0,0c0.053,0.889 1.291,0.771 1.239,-0.028c0.012,-0.798 -1.227,-0.86 -1.239,0.028Z" style="fill:#0c2b34;fill-rule:nonzero;"/><path d="M111.079,84.212c-0.046,-1.275 1.918,-1.42 1.987,-0.046c-0.008,1.373 -1.974,1.32 -1.987,0.046Zm0,0c0.053,0.888 1.291,0.77 1.238,-0.028c0.013,-0.798 -1.226,-0.86 -1.238,0.028Z" style="fill:#0c2b34;fill-rule:nonzero;"/><path d="M111.447,89.246c-0.045,-1.274 1.918,-1.42 1.988,-0.045c-0.009,1.373 -1.975,1.319 -1.988,0.045Zm-0,0c0.053,0.889 1.291,0.771 1.239,-0.028c0.012,-0.798 -1.226,-0.86 -1.239,0.028Z" style="fill:#0c2b34;fill-rule:nonzero;"/><path d="M100.944,80.48l-10.832,-1.705l-0.309,1.399l10.919,1.722l0.222,-1.416Z" style="fill:#0c2b34;fill-rule:nonzero;"/><path d="M99.834,52.628c-2.688,3.873 -17.161,19.412 -17.547,20.918c-0.217,0.844 3.081,3.798 3.04,4.403c-0.163,2.464 -7.258,21.773 -9.423,20.158c-2.851,-2.126 -13.128,-19.541 -11.604,-26.372c1.524,-6.831 29.932,-24.34 34.294,-25.856c4.363,-1.517 3.893,2.925 1.24,6.749Z" style="fill:#fec130;fill-rule:nonzero;"/><path d="M88.723,65.656c1.37,-2.289 3.128,-4.248 5.265,-5.848c-1.367,2.292 -3.132,4.246 -5.265,5.848Z" style="fill:#0c2b34;fill-rule:nonzero;"/><path d="M93.737,61.412c-0.672,0.823 -1.613,1.554 -2.697,1.67c0.977,-0.444 1.791,-1.095 2.697,-1.67Z" style="fill:#0c2b34;fill-rule:nonzero;"/><path d="M84.565,103.036c1.975,-1.403 -0.81,-2.927 -0.81,-2.927c-0,0 4.537,1.228 6.014,-1.006c1.417,-2.158 -2.011,-3.88 -2.255,-4.007c0.24,0.063 4.439,1.082 5.692,-1.316c1.299,-2.494 -2.44,-3.632 -2.682,-3.704c0.246,-0.013 3.493,-0.225 4.031,-2.264c0.921,-3.503 -8.423,-3.689 -10.489,-5.771c0,-0 0.8,-4.613 0.867,-4.745c-0,-0 -0.986,1.816 -2.604,2.315c-2.005,0.618 -3.816,0.989 -4.613,1.977c-1.308,1.629 -0.229,3.161 -0.229,3.161c-0,-0 -2.559,-0.237 -3.604,1.62c-0.535,0.955 0.517,2.659 0.517,2.659c0,0 -2.057,-0.105 -2.884,1.605c-0.664,1.362 0.494,2.859 0.494,2.859c0,0 -2.021,0.816 -2.248,2.429c-0.464,3.251 10.571,10.117 14.803,7.115Z" style="fill:#f37a6d;fill-rule:nonzero;"/><path d="M72.157,93.758l-0.047,0.049c3.079,3.144 7.424,5.655 11.787,6.4c0.143,0.025 0.245,-0.197 0.092,-0.254c-4.35,-1.628 -8.081,-3.419 -11.832,-6.195Z" style="fill:#0c2b34;fill-rule:nonzero;"/><path d="M74.331,89.016l-0.053,0.075c3.19,3.222 8.162,5.916 13.292,6.182c0.176,0.01 0.343,-0.159 0.141,-0.185c-3.398,-0.435 -10.015,-3.556 -13.38,-6.072Z" style="fill:#0c2b34;fill-rule:nonzero;"/><path d="M90.889,89.971c-4.91,-0.446 -9.182,-2.421 -13.279,-5.08l-0.06,0.086c1.65,1.847 4.438,3.269 6.701,4.193c2.167,0.884 4.301,1.247 6.622,0.972c0.09,-0.01 0.12,-0.162 0.016,-0.171Z" style="fill:#0c2b34;fill-rule:nonzero;"/><path d="M71.879,93.484c-0.744,-0.891 -1.262,-2.023 -0.798,-3.176c0.211,-0.522 0.617,-0.939 1.119,-1.196c0.622,-0.319 1.489,-0.23 1.907,-0.22c-0.653,-1.043 -0.911,-2.413 -0.132,-3.462c0.361,-0.486 0.87,-0.693 1.465,-0.826c0.321,-0.073 1.632,-0.071 1.997,0.034c-0.57,-0.622 -0.807,-1.529 -0.635,-2.352c0.201,-0.959 0.9,-1.608 1.758,-2.016c0.987,-0.47 2.088,-0.582 3.145,-0.809c0.55,-0.119 1.093,-0.236 1.603,-0.481c0.463,-0.222 0.864,-0.541 1.315,-1.231c0.061,-0.093 0.056,0.004 0.009,0.083c-0.25,0.413 -0.45,0.674 -0.77,0.963c-0.324,0.293 -0.686,0.538 -1.075,0.736c-0.94,0.479 -1.994,0.615 -2.986,0.95c-0.867,0.294 -1.706,0.766 -2.226,1.545c-0.535,0.803 -0.489,1.823 -0.023,2.642l-0.069,0.096c-0.438,-0.025 -1.5,0.144 -1.774,0.245c-0.468,0.171 -0.944,0.396 -1.228,0.804c-0.643,0.921 -0.584,2.212 -0.081,3.215c0.018,0.035 -1.057,0.051 -1.857,0.526c-0.379,0.225 -0.672,0.605 -0.861,0.999c-0.447,0.932 -0.291,2.102 0.359,2.898l0.011,0.039l0.001,0.002l-0.003,0.024l-0.021,0.035l-0.001,-0l-0.676,0.289l-0.004,-0.036c0.024,-0.022 0.441,-0.29 0.531,-0.32Z" style="fill:#0c2b34;fill-rule:nonzero;"/><path d="M101.438,47.111c0.212,0.758 3.342,4.714 6.834,4.396c1.137,-0.105 1.582,-5.483 1.582,-5.483l0.083,-0.465l1.16,-6.511l-7.787,-4.529l-1.122,-0.596c0,0 -0.2,1.803 -0.427,4.049c-0.011,0.104 -0.022,0.209 -0.032,0.32c-0.016,0.127 -0.033,0.246 -0.043,0.365c-0.038,0.336 -0.075,0.678 -0.106,1.02c-0.024,0.26 -0.048,0.513 -0.064,0.787c-0.022,0.274 -0.038,0.541 -0.061,0.816c-0.162,2.711 -0.103,5.509 -0.017,5.831Z" style="fill:#f37a6d;fill-rule:nonzero;"/><path d="M101.761,37.972c2.072,5.052 6.263,6.964 8.176,7.587l1.16,-6.511l-7.787,-4.529l-1.122,-0.596c0,0 -0.2,1.803 -0.427,4.049Z" style="fill:#0c2b34;fill-rule:nonzero;"/><path d="M118.92,27.667c1.746,11.476 -4.93,13.817 -7.405,14.191c-2.247,0.339 -9.94,1.209 -12.863,-10.025c-2.922,-11.234 1.862,-15.673 6.96,-16.721c5.097,-1.048 11.562,1.08 13.308,12.555Z" style="fill:#f37a6d;fill-rule:nonzero;"/><path d="M115.385,25.707c-0.274,0.004 -0.528,-0.039 -0.799,-0.063c-0.307,-0.027 -0.554,-0.018 -0.803,-0.22c-0.134,-0.108 -0.157,-0.36 -0.064,-0.5c0.216,-0.326 0.6,-0.385 0.97,-0.367c0.402,0.02 0.706,0.138 1.005,0.406c0.289,0.26 0.053,0.739 -0.309,0.744Z" style="fill:#0c2b34;fill-rule:nonzero;"/><path d="M107.77,27.979c0.273,-0.014 0.523,-0.073 0.793,-0.116c0.304,-0.047 0.551,-0.054 0.787,-0.272c0.126,-0.117 0.132,-0.37 0.03,-0.503c-0.237,-0.311 -0.624,-0.345 -0.992,-0.303c-0.399,0.047 -0.695,0.184 -0.976,0.472c-0.271,0.278 -0.004,0.741 0.358,0.722Z" style="fill:#0c2b34;fill-rule:nonzero;"/><path d="M109.621,29.371l-0.05,0.079c0.145,0.777 0.18,1.691 -0.487,2.059l0.013,0.043c0.844,-0.254 0.785,-1.468 0.524,-2.181Z" style="fill:#0c2b34;fill-rule:nonzero;"/><path d="M108.798,28.663c-1.271,0.097 -0.983,2.632 0.195,2.542c1.159,-0.089 0.87,-2.624 -0.195,-2.542Z" style="fill:#0c2b34;fill-rule:nonzero;"/><path d="M108.316,28.853c-0.206,0.169 -0.394,0.446 -0.658,0.503c-0.305,0.066 -0.568,-0.173 -0.799,-0.405l-0.04,0.034c0.048,0.486 0.291,0.963 0.82,0.977c0.483,0.012 0.775,-0.457 0.841,-0.959c0.012,-0.093 -0.082,-0.218 -0.164,-0.15Z" style="fill:#0c2b34;fill-rule:nonzero;"/><path d="M114.188,28.61l0.068,0.063c0.058,0.788 0.258,1.682 0.997,1.867l-0.002,0.045c-0.881,-0.03 -1.134,-1.219 -1.063,-1.975Z" style="fill:#0c2b34;fill-rule:nonzero;"/><path d="M114.803,27.715c1.254,-0.23 1.622,2.295 0.46,2.508c-1.143,0.209 -1.511,-2.316 -0.46,-2.508Z" style="fill:#0c2b34;fill-rule:nonzero;"/><path d="M115.354,27.804c0.219,0.105 0.452,0.319 0.692,0.3c0.279,-0.022 0.444,-0.325 0.582,-0.612l0.043,0.022c0.084,0.48 -0.003,1.006 -0.453,1.166c-0.41,0.146 -0.782,-0.223 -0.966,-0.686l0.102,-0.19Z" style="fill:#0c2b34;fill-rule:nonzero;"/><path d="M110.425,35.647c0.185,0.189 0.369,0.447 0.655,0.477c0.275,0.029 0.599,-0.089 0.854,-0.182l0.033,0.041c-0.211,0.3 -0.647,0.481 -1.011,0.409c-0.357,-0.069 -0.528,-0.382 -0.608,-0.711l0.077,-0.034Z" style="fill:#0c2b34;fill-rule:nonzero;"/><path d="M113.621,32.67c0,0 0.207,1.173 0.227,1.73c0.002,0.052 -0.131,0.081 -0.32,0.099l-0.022,0.002c-0.976,0.189 -1.978,-0.113 -2.605,-0.893l0.08,-0.08c0.753,0.511 1.569,0.62 2.441,0.603c0.033,-0.156 -0.421,-1.998 -0.333,-2.008c0.303,-0.038 0.91,0.147 1.274,0.239c-0.36,-2.457 -1.11,-4.837 -1.432,-7.288l0.144,-0.042c0.963,2.438 1.439,5.257 1.876,7.785c0.057,0.314 -1.104,-0.061 -1.33,-0.147Z" style="fill:#0c2b34;fill-rule:nonzero;"/><path d="M99.242,32.387c1.908,-0.039 1.953,-4.05 1.953,-4.05c-0,0 3.848,-0.366 4.574,-6.021c-0,0 0.17,2.583 -1.254,4.74c-0,-0 6.711,-1.383 9.011,-7.339c0,0 -0.856,3.003 -1.824,4.135c0,-0 2.767,-1.072 3.928,-3.518c-0,0 1.6,3.249 2.603,4.064c0,0 0,-13.13 -12.404,-9.588c0,-0 -6.84,1.131 -8.777,6.822c-1.938,5.691 2.19,10.755 2.19,10.755Z" style="fill:#0c2b34;fill-rule:nonzero;"/><path d="M99.275,36.067c0.196,0.06 0.376,0.093 0.545,0.104c0.201,0.023 0.383,0.011 0.548,-0.021c0.259,-0.042 0.476,-0.138 0.654,-0.259c0.164,-0.105 0.304,-0.237 0.415,-0.366c0.287,-0.337 0.398,-0.679 0.398,-0.679l-0.841,-3.053c0,-0 -2.765,-3.452 -4.343,-2.444c-1.586,1.009 0.65,6.127 2.624,6.718Z" style="fill:#f37a6d;fill-rule:nonzero;"/><path d="M97.325,30.799l-0.006,0.052c1.385,0.46 2.177,1.666 2.759,2.932c-0.434,-0.473 -0.999,-0.712 -1.637,-0.191l0.041,0.07c0.546,-0.154 0.951,-0.084 1.353,0.335c0.285,0.297 0.492,0.682 0.705,1.032c0.071,0.116 0.285,0.038 0.23,-0.098l-0.013,-0.031c-0.077,-1.724 -1.572,-4.047 -3.432,-4.101Z" style="fill:#0c2b34;fill-rule:nonzero;"/><path d="M99.404,35.569c0.078,0.287 0.373,0.457 0.66,0.379c0.287,-0.077 0.457,-0.372 0.379,-0.659c-0.077,-0.287 -0.372,-0.456 -0.659,-0.379c-0.287,0.077 -0.457,0.372 -0.38,0.659Z" style="fill:#fff;fill-rule:nonzero;"/><path d="M98.249,34.83c0.055,0.203 0.264,0.323 0.466,0.268c0.203,-0.054 0.323,-0.263 0.268,-0.466c-0.054,-0.202 -0.263,-0.322 -0.465,-0.268c-0.203,0.055 -0.323,0.264 -0.269,0.466Z" style="fill:#fff;fill-rule:nonzero;"/><path d="M109.95,45.695l-2.216,5.214l-6.398,-6.78l-1.894,2.096c0,0 6.178,10.693 6.228,10.216l2.256,-4.487l3.064,3.214l-0.096,-7.917l-0.944,-1.556Z" style="fill:#e5e5e4;fill-rule:nonzero;"/><path d="M111.164,51.252c-0.059,-1.306 -0.083,-2.624 -0.203,-3.927l-0.089,-0.014c-0.286,1.255 -0.032,6.251 -0.061,7.447l-0.014,-0.014c-0.128,-0.139 -2.842,-2.831 -2.871,-2.79c-0.484,0.71 -2.139,3.977 -2.254,4.276c-0.977,-1.699 -4.727,-7.877 -5.892,-9.487l-0.079,0.043c0.858,1.79 5.818,10.108 5.897,10.086c0.053,0.043 2.109,-3.981 2.361,-4.744c0.456,0.584 3.191,3.615 3.204,3.421c0.09,-1.307 0.061,-2.988 0.001,-4.297Z" style="fill:#0c2b34;fill-rule:nonzero;"/><path d="M142.264,447.311c-1.754,-0.61 -0.128,-5.674 1.851,-7.221c0.629,-0.49 2.955,-1.639 5.869,-3.001c6.418,-2.99 15.64,-6.978 15.64,-6.978l-7.415,-33.203l31.846,0.561c-0,0 8.231,27.262 8.231,33.491c-0,8.78 -0.901,15.951 -1.629,16.393c-1.945,1.199 -52.628,0.573 -54.393,-0.042Z" style="fill:#f7a09c;fill-rule:nonzero;"/><path d="M158.188,433.374l-0.04,0.021l0.03,-0.021l0.01,0Z" style="fill:#0c2b34;fill-rule:nonzero;"/><path d="M198.238,434.664c-0.21,7.02 -0.96,12.31 -1.58,12.69c-1.95,1.2 -52.63,0.57 -54.39,-0.04c-1.76,-0.609 -0.13,-5.68 1.85,-7.22c0.63,-0.49 2.95,-1.639 5.87,-3.009c2.15,-1.01 4.63,-2.13 6.97,-3.161c-1.67,0.8 -4.7,2.401 -7,4.52c-3.23,2.97 33.72,0.55 48.28,-3.78Z" style="fill:#335863;fill-rule:nonzero;"/><path d="M234.707,375.767c0,-0 5.458,20.736 -4.583,26.732c-6.704,4.002 -36.039,-2.003 -37.246,-5.653c-2.28,-6.894 -2.254,-9.411 -2.254,-9.411l7.107,36.496l-37.048,-0.017c-0,-0 -6.585,-30.201 -4.411,-62.144c0.804,-11.811 16.734,-15.193 27.714,-9.18c10.646,5.831 29.643,21.887 29.643,21.887l21.078,1.29Z" style="fill:#0c2b34;fill-rule:nonzero;"/><path d="M194.865,402.56c-1.936,-4.91 -1.757,-6.826 -6.558,-22.05c-0.642,-2.035 -1.174,-4.103 -1.745,-6.159c-0.592,-2.132 -1.297,-4.256 -1.738,-6.425c-0.022,-0.106 -0.193,-0.064 -0.163,0.039c0.553,1.882 0.903,3.822 1.375,5.724c0.463,1.863 0.933,3.724 1.43,5.578c0.214,0.8 0.439,1.598 0.657,2.398c-0.098,-0.167 -0.197,-0.332 -0.289,-0.495c-0.426,-0.753 -0.854,-1.503 -1.299,-2.246c-0.915,-1.53 -2.029,-2.971 -2.828,-4.565c-0.049,-0.097 -0.203,-0.012 -0.147,0.08c0.923,1.526 1.572,3.217 2.435,4.779c0.419,0.758 0.858,1.501 1.308,2.241c0.398,0.653 0.796,1.394 1.307,1.982c0.652,2.35 2.044,8.006 2.743,10.342c2.203,7.359 1.48,4.964 3.141,8.92c0.087,0.207 0.455,0.069 0.371,-0.143Z" style="fill:#23434c;fill-rule:nonzero;"/><path d="M177.806,417.672c5.577,0.009 11.149,-0.239 16.724,-0.278c0.106,-0.001 0.124,-0.165 0.015,-0.167c-5.556,-0.099 -11.105,-0.384 -16.664,-0.385c-5.579,-0.002 -11.145,0.205 -16.721,0.325c-0.142,0.003 -0.168,0.223 -0.02,0.225c5.557,0.079 11.107,0.271 16.666,0.28Z" style="fill:#23434c;fill-rule:nonzero;"/><path d="M191.496,415.975c-0.479,-2.467 -1.163,-4.897 -1.783,-7.333c-0.622,-2.438 -1.245,-4.875 -1.886,-7.308c-1.284,-4.868 -2.625,-9.72 -3.962,-14.573c-0.759,-2.755 -1.582,-5.497 -2.39,-8.238l-0.125,0.029c2.366,9.783 4.929,19.519 7.656,29.209c0.773,2.748 1.473,5.534 2.403,8.235l0.087,-0.021Z" style="fill:#23434c;fill-rule:nonzero;"/><path d="M230.126,402.496c10.039,-5.994 4.583,-26.729 4.583,-26.729l-17.764,-1.085l-24.456,20.97c0.122,0.382 0.25,0.781 0.388,1.196c1.205,3.647 30.544,9.655 37.249,5.648Z" style="fill:#23434c;fill-rule:nonzero;"/><path d="M160.509,423.075c0.109,0.552 0.175,0.839 0.175,0.839l37.048,0.016l-5.468,-28.085l-31.755,27.23Z" style="fill:#23434c;fill-rule:nonzero;"/><path d="M311.946,449.156c0.517,1.783 -4.554,3.386 -6.961,2.666c-0.763,-0.23 -3.046,-1.463 -5.842,-3.053c-6.152,-3.505 -14.739,-8.722 -14.739,-8.722l-26.912,4.409l-17.961,-26.304c0,0 24.757,-3.989 26.378,-5.044c0.099,-0.066 0.199,-0.132 0.299,-0.197c7.375,-4.764 13.533,-8.49 14.315,-8.153c2.103,0.894 30.904,42.602 31.423,44.398Z" style="fill:#f7a09c;fill-rule:nonzero;"/><path d="M304.988,451.825c-0.77,-0.231 -3.05,-1.471 -5.85,-3.06c-2.42,-1.381 -5.23,-3.031 -7.74,-4.521c1.28,0.711 5.6,3.05 9.35,3.901c4.45,1.019 -20.19,-29.011 -31.47,-37.201c5.96,-3.78 10.57,-6.47 11.24,-6.19c2.11,0.9 30.91,42.61 31.43,44.4c0.52,1.78 -4.56,3.39 -6.96,2.671Z" style="fill:#335863;fill-rule:nonzero;"/><path d="M211.333,370.424c-0,0 -1.047,8.583 -1.042,15.161c0,-0 -35.411,18.013 -37.231,35.522c-0.644,6.203 0.043,17.844 12.152,23.294c13.531,6.089 88.755,2.925 88.755,2.925l-8.97,-34.725l-33.156,-0.39c0,-0 23.35,4.006 26.081,-11.554c2.539,-14.461 -6.177,-29.741 -6.177,-29.741l-40.412,-0.492Z" style="fill:#0c2b34;fill-rule:nonzero;"/><path d="M266.223,445.537c-0.78,-3.997 -1.533,-8.014 -2.409,-11.991c-0.879,-3.988 -1.817,-7.96 -2.817,-11.915c-0.281,-1.117 -0.573,-2.231 -0.859,-3.346c-0.138,-0.532 -0.275,-1.062 -0.423,-1.591c-0.15,-0.532 -0.265,-1.085 -0.465,-1.596l-0.082,0.029c0.083,1.015 0.355,2.068 0.558,3.067c0.198,0.965 0.387,1.932 0.586,2.896c0.409,1.983 0.827,3.964 1.257,5.943c0.861,3.967 1.82,7.9 2.801,11.835c0.557,2.235 1.116,4.469 1.683,6.701c0.032,0.126 0.196,0.101 0.17,-0.032Z" style="fill:#23434c;fill-rule:nonzero;"/><path d="M243.288,412.345c-2.684,-0.225 -5.375,-0.344 -8.066,-0.431c-2.691,-0.087 -5.385,-0.091 -8.079,-0.077c-2.692,0.055 -5.387,0.128 -8.075,0.337c-2.685,0.212 -5.377,0.477 -8.011,1.056l2.004,-0.235l2.009,-0.166c1.34,-0.098 2.68,-0.193 4.023,-0.236c2.683,-0.121 5.37,-0.198 8.058,-0.21c2.687,-0.06 5.375,-0.048 8.065,-0.05l8.072,0.012Z" style="fill:#23434c;fill-rule:nonzero;"/><path d="M244.345,373.665c1.167,3.099 2.169,6.257 3.012,9.454c0.834,3.197 1.493,6.446 1.798,9.725c0.145,1.638 0.192,3.287 0.044,4.915c-0.151,1.621 -0.493,3.245 -1.251,4.656c-0.371,0.707 -0.871,1.335 -1.458,1.857c-0.607,0.522 -1.282,0.97 -1.989,1.361c-1.425,0.77 -2.97,1.324 -4.545,1.764c-3.162,0.866 -6.444,1.294 -9.724,1.643c-3.285,0.34 -6.587,0.568 -9.89,0.864c-3.302,0.297 -6.616,0.652 -9.879,1.413c-1.621,0.383 -3.262,0.882 -4.759,1.689c-1.496,0.798 -2.872,1.754 -4.157,2.87l-0.753,0.654l1.005,-0.001l26.814,-0.036l13.407,0.056c4.469,0.037 8.938,0.083 13.404,0.257c-4.46,-0.314 -8.93,-0.437 -13.399,-0.572c-4.468,-0.128 -8.938,-0.197 -13.408,-0.264l-13.409,-0.153l-13.41,-0.038l0.252,0.653c1.218,-1.05 2.582,-1.992 4.011,-2.745c1.426,-0.763 2.984,-1.229 4.582,-1.6c3.195,-0.726 6.486,-1.062 9.772,-1.386c3.291,-0.311 6.596,-0.555 9.896,-0.913c3.297,-0.367 6.607,-0.813 9.834,-1.712c1.609,-0.455 3.2,-1.035 4.677,-1.867c0.734,-0.421 1.439,-0.902 2.079,-1.47c0.643,-0.585 1.178,-1.284 1.566,-2.048c0.793,-1.529 1.117,-3.222 1.25,-4.888c0.129,-1.673 0.058,-3.346 -0.112,-5.002c-0.341,-3.315 -1.098,-6.561 -2.001,-9.75c-0.914,-3.187 -1.99,-6.327 -3.259,-9.386Z" style="fill:#23434c;fill-rule:nonzero;"/><path d="M215.17,370.108l-0.131,-0.009c-0.153,1.198 -0.655,8.039 -0.895,10.616c-0.085,0.918 -0.055,2.557 -1.394,2.539c-1.061,-0.013 -1.575,-1.176 -1.681,-2.076c-0.13,-1.098 0.554,-9.038 0.721,-11.682l-0.131,-0.008c-0.52,2.644 -1.567,11.062 -1.301,12.247c0.209,0.93 0.675,1.815 1.614,2.139c0.019,0.006 -0.167,1.236 0.007,3.124l0.297,0.044l0.006,0.002c-0.039,-0.62 0.319,-3.017 0.311,-3.031c0.695,0.007 1.241,-0.142 1.715,-0.757c0.946,-1.229 0.85,-10.098 0.862,-13.148Z" style="fill:#23434c;fill-rule:nonzero;"/><path d="M218.725,390.459c-0.95,-0.673 -1.936,-1.287 -2.927,-1.89c-0.989,-0.608 -2.001,-1.175 -3.017,-1.735c-1.023,-0.548 -2.048,-1.092 -3.1,-1.585c-1.049,-0.498 -2.107,-0.981 -3.201,-1.381c0.495,0.309 1.002,0.587 1.498,0.89l1.508,0.863c1.004,0.58 2.019,1.135 3.034,1.693c1.021,0.546 2.038,1.1 3.074,1.621l1.553,0.783c0.527,0.245 1.045,0.507 1.578,0.741Z" style="fill:#23434c;fill-rule:nonzero;"/><path d="M243.766,385.259c-1.867,-0.03 -7.691,0.24 -10.437,-2.137c-2.221,-1.924 -3.13,-8.409 -3.495,-10.19l-0.15,0.022c-0.084,1.991 0.176,4.023 0.681,5.95c0.431,1.645 1.016,3.483 2.327,4.648c1.379,1.226 3.266,1.674 5.047,1.916c2.011,0.273 4.02,0.238 6.03,-0.01c0.124,-0.015 0.128,-0.197 -0.003,-0.199Z" style="fill:#23434c;fill-rule:nonzero;"/><path d="M236.999,342.476c-0.018,0.931 -0.393,1.547 -1.039,1.992c-0.536,0.372 -1.101,0.697 -1.684,0.992c0.16,-2.242 0.072,-4.564 0.027,-6.779c-0.055,-2.604 -0.27,-5.153 -0.532,-7.728l-0.056,0.006c0.099,2.609 0.115,5.232 0.151,7.841c0.032,2.284 -0.095,4.596 -0.05,6.881c-0.597,0.277 -1.207,0.521 -1.82,0.739c0.04,-0.797 0.074,-1.594 0.098,-2.394c0.077,-2.402 -0.036,-4.775 -0.073,-7.174l-0.072,-0.002c0.006,2.333 -0.167,4.694 -0.266,7.026c-0.037,0.9 -0.081,1.799 -0.132,2.699c-0.421,0.138 -0.84,0.269 -1.254,0.388c-0.276,0.08 -0.553,0.157 -0.829,0.222c0.035,-1.575 -0.009,-3.165 -0.01,-4.708c-0.005,-2.497 -0.148,-4.982 -0.186,-7.478l-0.112,-0.004c0.026,2.484 -0.097,4.983 -0.123,7.468c-0.016,1.598 -0.096,3.233 -0.104,4.854c-3.709,0.854 -7.523,0.844 -11.241,0.254c-2.156,-0.342 -4.288,-0.876 -6.393,-1.537c-0.508,-0.159 -1.8,-0.611 -3.074,-1.08c0.012,-0.753 0.006,-1.507 0.026,-2.235c0.045,-1.661 0.004,-3.336 0.089,-4.993l-0.058,-0.002c-0.134,1.664 -0.354,3.31 -0.442,4.982c-0.034,0.669 -0.084,1.362 -0.114,2.062c-0.456,-0.169 -0.894,-0.336 -1.278,-0.491c0.253,-3.134 0.18,-6.326 0.27,-9.454l-0.091,-0.003c-0.215,3.066 -0.596,6.17 -0.665,9.26c-0.453,-0.188 -0.766,-0.335 -0.842,-0.407c-0.619,-0.591 0.228,-12.981 0.365,-15.874c0.256,-5.391 1.645,-16.318 2.98,-21.518c1.142,-4.452 3.495,-10.805 14.57,-10.613c8.124,0.14 11.913,8.635 12.577,13.566c0.342,2.542 1.413,31.825 1.387,33.242Z" style="fill:#0c2b34;fill-rule:nonzero;"/><path d="M207.743,364.526l-2.025,13.08c0,0 1.799,-0.011 7.738,-0.095l1.593,-4.734l2.558,4.741l37.585,-1.41l-5.32,-10.521c-4.112,-10.146 -9.223,-25.403 -16.464,-32.89c-5.754,-5.949 -12.325,-5.334 -16.415,-0.976c-1.036,1.103 -11.326,16.865 -12.504,23.292c-1.026,5.67 3.254,9.513 3.254,9.513Z" style="fill:#fec130;fill-rule:nonzero;"/><path d="M223.203,361.565c-2.344,0.19 -4.699,0.468 -6.997,1.037c-1.144,0.283 -2.268,0.622 -3.392,0.988c-0.56,0.182 -1.122,0.344 -1.687,0.503c-0.581,0.162 -1.203,0.312 -1.805,0.314l-0.001,0.092c0.583,0.036 1.142,0.069 1.727,0.019c0.556,-0.047 1.111,-0.16 1.656,-0.289c1.162,-0.275 2.313,-0.608 3.472,-0.896c2.34,-0.581 4.678,-1.161 7.05,-1.555c0.109,-0.018 0.088,-0.222 -0.023,-0.213Z" style="fill:#0c2b34;fill-rule:nonzero;"/><path d="M228.919,364.021c-1.913,-0.274 -3.869,-0.453 -5.801,-0.488c-0.972,-0.017 -1.937,0.027 -2.908,0.1c-0.463,0.034 -0.925,0.078 -1.388,0.128c-0.508,0.054 -1.011,0.184 -1.519,0.231l-0.002,0.092c0.481,-0.028 0.968,0.031 1.449,0.033c0.484,0.003 0.968,0.001 1.451,0.003c0.969,0.004 1.937,0.021 2.906,0.015c1.94,-0.011 3.871,-0.001 5.809,0.061c0.105,0.003 0.102,-0.16 0.003,-0.175Z" style="fill:#0c2b34;fill-rule:nonzero;"/><path d="M219.44,335.645c-2.089,4.61 -4.115,9.257 -5.911,13.986c-2.012,5.218 -3.483,9.507 1.983,13.171l0.117,0.078c-0.066,1.672 -0.141,3.344 -0.246,5.015c-0.081,1.628 -0.215,3.255 -0.334,4.882c-0.005,-1.632 -0.024,-3.264 0.01,-4.894c0.012,-1.631 0.054,-3.261 0.104,-4.891l0.112,0.206c-5.748,-3.832 -4.33,-8.247 -2.154,-13.721c1.842,-4.729 4.024,-9.311 6.319,-13.832Z" style="fill:#0c2b34;fill-rule:nonzero;"/><path d="M216.527,343.113c-0.012,0.339 0.254,0.624 0.593,0.635c0.34,0.012 0.624,-0.254 0.635,-0.593c0.012,-0.339 -0.254,-0.624 -0.593,-0.635c-0.339,-0.012 -0.623,0.254 -0.635,0.593Z" style="fill:#0c2b34;fill-rule:nonzero;"/><path d="M214.642,349.979c-0.012,0.34 0.254,0.624 0.593,0.635c0.339,0.012 0.624,-0.254 0.635,-0.593c0.011,-0.339 -0.254,-0.624 -0.593,-0.635c-0.34,-0.011 -0.624,0.254 -0.635,0.593Z" style="fill:#0c2b34;fill-rule:nonzero;"/><path d="M212.959,356.263c-0.011,0.339 0.255,0.623 0.594,0.635c0.339,0.011 0.623,-0.254 0.635,-0.594c0.011,-0.339 -0.254,-0.623 -0.594,-0.635c-0.339,-0.011 -0.623,0.254 -0.635,0.594Z" style="fill:#0c2b34;fill-rule:nonzero;"/><path d="M216.629,362.102c-0.012,0.339 0.254,0.624 0.593,0.635c0.339,0.012 0.624,-0.254 0.635,-0.593c0.012,-0.34 -0.254,-0.624 -0.593,-0.635c-0.339,-0.012 -0.624,0.254 -0.635,0.593Z" style="fill:#0c2b34;fill-rule:nonzero;"/><path d="M216.663,368.432c-0.012,0.339 0.254,0.623 0.593,0.635c0.339,0.011 0.624,-0.254 0.635,-0.594c0.012,-0.339 -0.254,-0.623 -0.593,-0.635c-0.339,-0.011 -0.624,0.255 -0.635,0.594Z" style="fill:#0c2b34;fill-rule:nonzero;"/><path d="M226.418,330.23c-0.126,0.844 -3.645,6.54 -7.445,6.669c-1.238,0.04 -1.757,-6.706 -1.757,-6.706l-0.152,-0.489l-2.125,-6.85l7.77,-5.922l1.128,-0.791c0,0 0.457,1.912 1.003,4.299c0.026,0.111 0.052,0.221 0.078,0.34c0.035,0.134 0.069,0.26 0.095,0.387c0.086,0.355 0.173,0.719 0.251,1.083c0.061,0.276 0.122,0.545 0.175,0.838c0.061,0.292 0.115,0.577 0.176,0.87c0.54,2.895 0.852,5.914 0.803,6.272Z" style="fill:#f7a09c;fill-rule:nonzero;"/><path d="M224.84,320.44c-1.549,5.714 -5.801,8.337 -7.776,9.264l-2.125,-6.85l7.77,-5.922l1.128,-0.791c0,0 0.457,1.912 1.003,4.299Z" style="fill:#0c2b34;fill-rule:nonzero;"/><path d="M205.83,309.38c-3.324,12.141 3.572,15.502 6.191,16.216c2.377,0.648 10.554,2.553 15.115,-9.179c4.56,-11.732 -0.033,-17.115 -5.392,-18.885c-5.359,-1.77 -12.59,-0.292 -15.914,11.848Z" style="fill:#f7a09c;fill-rule:nonzero;"/><path d="M208.005,308.843c0.296,0.025 0.573,-0.002 0.869,-0.009c0.333,-0.007 0.6,0.022 0.884,-0.178c0.153,-0.107 0.197,-0.378 0.107,-0.536c-0.21,-0.369 -0.621,-0.462 -1.023,-0.47c-0.436,-0.008 -0.774,0.097 -1.117,0.366c-0.332,0.26 -0.111,0.795 0.28,0.827Z" style="fill:#0c2b34;fill-rule:nonzero;"/><path d="M216.314,310.19c-0.283,-0.092 -0.529,-0.223 -0.799,-0.343c-0.305,-0.134 -0.562,-0.21 -0.748,-0.504c-0.1,-0.158 -0.036,-0.425 0.108,-0.536c0.335,-0.26 0.75,-0.188 1.124,-0.04c0.406,0.16 0.677,0.387 0.891,0.766c0.206,0.368 -0.203,0.778 -0.576,0.657Z" style="fill:#0c2b34;fill-rule:nonzero;"/><path d="M214.02,312.201l0.048,0.088c-0.214,0.83 -0.32,1.817 0.375,2.265l-0.018,0.045c-0.894,-0.337 -0.741,-1.646 -0.405,-2.398Z" style="fill:#0c2b34;fill-rule:nonzero;"/><path d="M214.963,311.495c1.368,0.199 0.868,2.921 -0.399,2.736c-1.247,-0.182 -0.748,-2.904 0.399,-2.736Z" style="fill:#0c2b34;fill-rule:nonzero;"/><path d="M215.471,311.737c0.209,0.197 0.392,0.512 0.673,0.593c0.326,0.094 0.629,-0.145 0.896,-0.38l0.04,0.04c-0.088,0.523 -0.386,1.021 -0.96,0.996c-0.523,-0.022 -0.804,-0.551 -0.838,-1.1c-0.006,-0.101 0.104,-0.229 0.189,-0.149Z" style="fill:#0c2b34;fill-rule:nonzero;"/><path d="M209.411,310.94l-0.079,0.063c-0.121,0.848 -0.403,1.8 -1.216,1.946l-0.001,0.049c0.955,0.032 1.317,-1.235 1.296,-2.058Z" style="fill:#0c2b34;fill-rule:nonzero;"/><path d="M208.812,309.926c-1.34,-0.342 -1.925,2.362 -0.684,2.679c1.222,0.311 1.806,-2.393 0.684,-2.679Z" style="fill:#0c2b34;fill-rule:nonzero;"/><path d="M208.209,309.981c-0.244,0.098 -0.512,0.312 -0.771,0.274c-0.3,-0.045 -0.456,-0.384 -0.584,-0.706l-0.048,0.021c-0.126,0.513 -0.072,1.089 0.404,1.295c0.433,0.189 0.861,-0.183 1.096,-0.671c0.043,-0.09 0.002,-0.252 -0.097,-0.213Z" style="fill:#0c2b34;fill-rule:nonzero;"/><path d="M212.74,319.326c-0.231,0.171 -0.471,0.417 -0.783,0.401c-0.299,-0.016 -0.627,-0.197 -0.883,-0.339l-0.043,0.038c0.176,0.356 0.611,0.624 1.015,0.609c0.393,-0.014 0.629,-0.32 0.77,-0.659l-0.076,-0.05Z" style="fill:#0c2b34;fill-rule:nonzero;"/><path d="M209.819,315.597c0,0 -0.42,1.222 -0.536,1.815c-0.01,0.056 0.128,0.11 0.327,0.161l0.023,0.005c1.014,0.368 2.138,0.214 2.941,-0.516l-0.072,-0.099c-0.893,0.42 -1.785,0.399 -2.716,0.233c-0.01,-0.172 0.788,-2.069 0.696,-2.095c-0.319,-0.091 -1,0.005 -1.406,0.041c0.801,-2.571 2.006,-4.993 2.765,-7.565c0.025,-0.092 -0.104,-0.147 -0.147,-0.069c-1.444,2.449 -2.43,5.388 -3.324,8.022c-0.115,0.328 1.192,0.122 1.449,0.067Z" style="fill:#0c2b34;fill-rule:nonzero;"/><path d="M209.712,317.366c0,-0 0.37,0.914 1.077,1.392c0.26,0.177 0.558,0.298 0.904,0.295c0.711,-0.003 0.885,-0.609 0.898,-1.162c0.012,-0.455 -0.091,-0.877 -0.091,-0.877c0,0 -1.206,0.658 -2.788,0.352Z" style="fill:#0c2b34;fill-rule:nonzero;"/><path d="M210.789,318.758c0.26,0.177 0.558,0.298 0.904,0.295c0.711,-0.003 0.885,-0.609 0.898,-1.162c-0.732,-0.112 -1.562,0.19 -1.802,0.867Z" style="fill:#f493b6;fill-rule:nonzero;"/><path d="M227.009,317.091c-2.614,-1.637 -2.389,-4.552 -2.389,-4.552c-3.264,-1.884 -4.805,-4.785 -4.965,-5.08c0.054,0.269 0.436,2.206 0.663,3.188c-7.774,-2.437 -9.507,-8.817 -9.507,-8.817c-2.887,2.266 -3.599,3.851 -4.07,4.627c-0,0 0.525,-4.885 3.424,-7.852c3.548,-3.633 7.646,-2.373 7.646,-2.373c0,-0 6.398,-1.1 10.572,4.69c4.493,6.245 -1.374,16.169 -1.374,16.169Z" style="fill:#0c2b34;fill-rule:nonzero;"/><path d="M214.431,308.607c1.181,0.865 2.533,1.515 3.9,1.986l0.006,-0.018c-2.165,-0.902 -4.036,-2.317 -5.416,-4.227c-0.583,-0.807 -1.063,-1.677 -1.429,-2.603c-0.382,-0.969 -0.732,-2.109 -0.694,-3.159l-0.124,-0.004c-0.04,1.109 -0.064,2.133 0.256,3.21c0.304,1.022 0.8,1.999 1.452,2.843c0.582,0.755 1.28,1.409 2.049,1.972Z" style="fill:#0c2b34;fill-rule:nonzero;"/><path d="M224.951,316.821c0,-0 3.409,-3.371 4.986,-2.087c1.578,1.284 -1.478,6.515 -3.677,6.906c-2.199,0.39 -2.6,-1.638 -2.6,-1.638l1.291,-3.181Z" style="fill:#f7a09c;fill-rule:nonzero;"/><path d="M229.024,316.212l0.001,0.057c-1.551,0.321 -2.555,1.521 -3.341,2.811c0.527,-0.455 1.165,-0.641 1.787,0l-0.053,0.07c-0.568,-0.234 -1.013,-0.21 -1.499,0.191c-0.345,0.284 -0.615,0.672 -0.889,1.023c-0.091,0.116 -0.311,0.005 -0.235,-0.135l0.018,-0.031c0.3,-1.848 2.201,-4.162 4.211,-3.986Z" style="fill:#0c2b34;fill-rule:nonzero;"/><path d="M217.038,329.727l2.263,5.722l7.132,-7.186l1.998,2.328c-0,0 -7,11.44 -7.041,10.921l-2.327,-4.933l-3.415,3.405l0.322,-8.594l1.068,-1.663Z" style="fill:#e5e5e4;fill-rule:nonzero;"/><path d="M215.567,335.727c0.101,-1.417 0.163,-2.847 0.329,-4.258l0.096,-0.013c0.277,1.371 -0.137,6.788 -0.137,8.087l0.015,-0.014c0.142,-0.148 3.164,-2.996 3.193,-2.95c0.506,0.784 2.214,4.376 2.33,4.703c1.107,-1.817 5.803,-8.979 7.111,-10.696l0.085,0.05c-0.979,1.92 -7.048,11.371 -7.133,11.346c-0.058,0.045 -2.181,-4.381 -2.433,-5.216c-0.512,0.621 -3.563,3.838 -3.573,3.627c-0.062,-1.423 0.017,-3.247 0.117,-4.666Z" style="fill:#0c2b34;fill-rule:nonzero;"/><path d="M231.967,346.215c-10.22,17.731 -28.132,35.847 -35.018,34.251c-7.669,-1.778 6.075,-26.106 7.245,-26.349c0.885,-0.184 10.268,-6.412 21.899,-15.163c11.619,-8.742 8.402,2.876 5.874,7.261Z" style="fill:#f7a09c;fill-rule:nonzero;"/><path d="M204.137,353.994c1.756,-1.119 17.137,-12.392 23.891,-17.097c6.754,-4.706 9.277,-0.323 4.505,9.109c-4.772,9.433 -15.881,24.519 -26.991,31.644c-10.703,6.864 -13.393,1.526 -10.192,-7.915c2.621,-7.73 8.787,-15.741 8.787,-15.741Z" style="fill:#fec130;fill-rule:nonzero;"/><path d="M201.404,356.017c2.165,-1.476 4.307,-2.985 6.444,-4.499c2.138,-1.513 4.256,-3.053 6.385,-4.579l6.332,-4.65l3.148,-2.35c1.041,-0.794 2.09,-1.578 3.124,-2.382c-1.085,0.735 -2.156,1.489 -3.234,2.233l-3.211,2.265l-6.384,4.58c-2.11,1.551 -4.231,3.087 -6.332,4.65c-2.102,1.563 -4.199,3.131 -6.272,4.732Z" style="fill:#0c2b34;fill-rule:nonzero;"/><path d="M221.854,341.044c0.535,-0.446 1.007,-0.945 1.466,-1.454c0.227,-0.257 0.451,-0.516 0.666,-0.784c0.219,-0.263 0.422,-0.539 0.631,-0.816c-0.574,0.402 -1.05,0.907 -1.512,1.414c-0.454,0.516 -0.888,1.049 -1.251,1.64Z" style="fill:#0c2b34;fill-rule:nonzero;"/><path d="M196.97,380.433c-5.599,-1.721 -9.159,-9.149 -20.401,-29.468c-1.556,-2.812 15.471,-19.905 17.286,-16.988c2.287,3.674 10.365,18.429 10.82,19.583c3.833,9.729 -3.907,28.04 -7.705,26.873Z" style="fill:#f7a09c;fill-rule:nonzero;"/><path d="M196.652,341.257c-0,0 -2.219,-8.493 -3.931,-13.979c-0.955,-3.061 -3.061,-8.163 -4.791,-10.09c-2.589,-2.883 -15.254,-13.288 -17.843,-10.272c-2.344,2.731 9.673,10.289 9.673,10.289c-0,0 -11.452,-8.699 -13.669,-4.892c-2.217,3.807 12.495,10.541 12.495,10.541c-0,0 -11.966,-8.674 -13.632,-4.386c-1.259,3.24 11.723,10.089 11.723,10.089c0,-0 -10.337,-7.383 -11.775,-4.107c-1.589,3.62 9.998,10.695 9.998,10.695c-2.254,8.943 0.332,14.123 2.609,17.589c0.552,0.839 19.143,-11.477 19.143,-11.477Z" style="fill:#f7a09c;fill-rule:nonzero;"/><path d="M183.913,319.959c-1.308,-1.07 -2.625,-2.163 -4.024,-3.113c-1.399,-0.951 -2.832,-1.853 -4.313,-2.669c-3.632,-2.001 -6.22,-2.686 -6.065,-2.627c3.671,1.413 8.732,4.738 10.131,5.689c1.396,0.948 2.84,1.827 4.237,2.775l0.034,-0.055Z" style="fill:#0c2b34;fill-rule:nonzero;"/><path d="M180.573,325.073c-1.73,-1.295 -3.399,-2.643 -5.187,-3.862c-1.778,-1.212 -3.572,-2.207 -5.429,-3.294c-0.143,-0.084 -0.141,0.02 -0.001,0.11c1.813,1.16 3.399,2.373 5.197,3.554c1.793,1.177 3.644,2.294 5.392,3.535l0.028,-0.043Z" style="fill:#0c2b34;fill-rule:nonzero;"/><path d="M178.495,329.977c-2.542,-2.114 -5.471,-3.756 -8.382,-5.298c-0.145,-0.077 -0.127,0.057 0.016,0.145c2.82,1.708 5.044,3.029 8.293,5.242l0.073,-0.089Z" style="fill:#0c2b34;fill-rule:nonzero;"/><path d="M195.625,336.079l-15.034,25.826c0,-0 10.597,17.533 16.438,18.775c3.845,0.818 12.331,-17.624 7.277,-28.053l-8.681,-16.548Z" style="fill:#fec130;fill-rule:nonzero;"/><path d="M205.065,366.767c0.708,-2.174 2.085,-8.092 -0.747,-14.161l-0.096,0.031c1.672,4.725 1.254,11.963 0.751,14.113l0.092,0.017Z" style="fill:#0c2b34;fill-rule:nonzero;"/><path d="M185.81,365.959c1.805,-2.751 3.461,-5.596 5.109,-8.445c1.65,-2.852 3.306,-5.7 4.885,-8.593c0.891,-1.634 1.793,-3.264 2.628,-4.929l-0.073,-0.048c-1.803,2.746 -3.473,5.587 -5.138,8.421c-1.669,2.84 -3.309,5.7 -4.921,8.574c-0.911,1.624 -1.793,3.264 -2.629,4.929l0.139,0.091Z" style="fill:#0c2b34;fill-rule:nonzero;"/><path d="M195.889,335.957c0.758,1.036 1.347,2.172 1.959,3.3c0.612,1.126 1.204,2.264 1.785,3.406c1.157,2.272 3.867,6.954 5.281,11.382l-0.315,-0.175c-0.566,-2.143 -8.435,-16.269 -8.923,-17.48l-0.209,0.214l-0.129,-0.07c0.054,-0.188 0.149,-0.341 0.217,-0.524c0.055,-0.151 0.236,-0.188 0.334,-0.053Z" style="fill:#0c2b34;fill-rule:nonzero;"/><path d="M231.405,350.324c-5.66,8.357 -23.741,31.924 -34.493,30.357c9.732,0.744 27.974,-22.902 34.493,-30.357Z" style="fill:#0c2b34;fill-rule:nonzero;"/><path d="M231.031,352.04c-0.657,1.228 -1.762,2.163 -3.028,2.709c0.862,-1.102 1.864,-1.941 3.028,-2.709Z" style="fill:#0c2b34;fill-rule:nonzero;"/><path d="M20.844,381.266l-15.155,26.803c-2.433,5.401 -4.47,10.18 -5.292,12.751l-0.013,0.042c-0.312,0.969 -0.446,1.616 -0.353,1.848l0.016,0.048c1.117,1.813 43.716,22.515 45.444,22.737c1.732,0.231 2.497,-4.688 1.485,-6.81c-1.025,-2.129 -13.783,-17.346 -13.783,-17.346l14.871,-26.891l-27.22,-13.182Z" style="fill:#bf665c;fill-rule:nonzero;"/><path d="M45.487,445.494c-1.72,-0.219 -44.32,-20.919 -45.44,-22.74l-0.02,-0.04c-0.089,-0.24 0.04,-0.879 0.36,-1.85l0.01,-0.039c0.65,-2.041 2.06,-5.451 3.82,-9.461l0.01,-0.01c10.08,10.5 37.78,26.671 38.46,24.64c0.6,-1.78 -3.03,-6.729 -3.9,-7.89c3.57,4.351 7.63,9.421 8.19,10.58c1.01,2.12 0.25,7.04 -1.49,6.81Z" style="fill:#0c2b34;fill-rule:nonzero;"/><path d="M9.192,399.258l30.526,16.299c-0,-0 38.532,-54.912 39.303,-69.34c1.064,-19.926 -16.291,-83.244 -16.291,-83.244l-26.795,-0.123c0,0 11.032,65.055 10.135,76.153c-0.469,5.807 -36.878,60.255 -36.878,60.255Z" style="fill:#23434c;fill-rule:nonzero;"/><path d="M42.382,409.248c-1.571,-1.132 -16.042,-9.517 -27.06,-14.872l-0.057,0.112c3.342,2.207 24.94,14.038 27.036,14.878l0.081,-0.118Z" style="fill:#0c2b34;fill-rule:nonzero;"/><path d="M49.838,325.103c-1.261,-9.519 -2.648,-19.025 -4.229,-28.496c-1.589,-9.514 -3.264,-19.024 -5.253,-28.463c-0.243,-1.152 -0.498,-2.303 -0.749,-3.454c-0.039,-0.177 -0.31,-0.125 -0.278,0.054c1.673,9.365 3.393,18.723 4.931,28.111c1.538,9.388 2.973,18.794 4.262,28.219c0.319,2.334 0.629,4.669 0.931,7.005c0.311,2.412 0.664,4.834 0.692,7.27c0.027,2.34 -0.339,4.619 -1.163,6.812c-0.809,2.153 -1.96,4.151 -3.127,6.126c-4.909,8.306 -26.897,44.603 -27.467,45.658l0.103,0.072c5.276,-8.188 21.644,-34.338 26.623,-42.778c2.246,-3.807 4.82,-7.663 5.553,-12.105c0.762,-4.619 -0.222,-9.448 -0.829,-14.031Z" style="fill:#0c2b34;fill-rule:nonzero;"/><path d="M42.018,399.258l-0.306,30.982c0.164,5.922 0.413,11.111 0.792,13.783l0.007,0.043c0.142,1.008 0.302,1.65 0.488,1.817l0.036,0.036c1.795,1.146 49.157,1.217 50.81,0.663c1.659,-0.546 0.205,-5.307 -1.631,-6.776c-1.85,-1.47 -19.964,-9.607 -19.964,-9.607l0.012,-30.938l-30.244,-0.003Z" style="fill:#bf665c;fill-rule:nonzero;"/><path d="M93.847,446.585c-1.65,0.549 -49.02,0.479 -50.81,-0.671l-0.04,-0.03c-0.18,-0.17 -0.34,-0.809 -0.49,-1.82l-0,-0.039c-0.29,-2.061 -0.51,-5.601 -0.67,-9.831c14.12,4.73 44.85,6.79 44.57,4.71c-0.29,-2.11 -7.28,-5.47 -7.28,-5.47l0.15,-0.039c5.31,2.459 11.87,5.56 12.94,6.409c1.83,1.471 3.29,6.23 1.63,6.781Z" style="fill:#0c2b34;fill-rule:nonzero;"/><path d="M62.73,262.973l-0.01,0.027c-0.18,0.56 -9.933,27.285 -10.852,27.711c-1.039,0.48 21.545,38.416 22.881,56.04c0.855,11.272 -0.821,75.062 -0.821,75.062l-33.018,-0c-0,-0 1.587,-57.35 2.342,-75.521c0.293,-7.046 -22.671,-42.129 -22.952,-63.975c-0.089,-6.886 4.858,-19.467 4.858,-19.467l37.572,0.123Z" style="fill:#23434c;fill-rule:nonzero;"/><path d="M43.441,345.801c0,-0.292 -0.229,-0.385 -0.252,-0.087c-0.746,9.834 -0.92,19.615 -1.39,29.466c-0.468,9.82 -0.202,12.189 -0.64,22.011c-0.248,5.559 -0.013,11.132 -0.141,16.695l0.136,0.011c1.027,-9.804 2.28,-62.528 2.287,-68.096Z" style="fill:#0c2b34;fill-rule:nonzero;"/><path d="M74.749,347.139c-0.073,-2.422 -0.232,-4.853 -0.667,-7.24c-0.425,-2.335 -1.165,-4.595 -2.039,-6.797c-1.825,-4.6 -3.982,-9.086 -6.042,-13.583c-2.088,-4.557 -4.218,-9.092 -6.42,-13.595c-1.238,-2.53 -2.482,-5.057 -3.737,-7.58c-1.268,-2.552 -2.635,-5.058 -3.964,-7.579c-0.053,-0.1 -0.206,-0.026 -0.158,0.077c2.116,4.543 4.205,9.099 6.321,13.644c2.116,4.543 4.194,9.105 6.273,13.666c2.045,4.485 4.094,8.975 6.021,13.513c0.924,2.175 1.787,4.381 2.356,6.679c0.583,2.355 0.83,4.773 0.967,7.192c0.32,5.64 0.476,11.297 1.03,16.921l0.124,-0.008c0.169,-5.092 0.089,-10.218 -0.065,-15.31Z" style="fill:#0c2b34;fill-rule:nonzero;"/><path d="M71.537,415.286c-1.921,-0.249 -16.549,-0.754 -28.788,-0.232l0.003,0.125c3.989,0.355 26.526,0.507 28.769,0.25l0.016,-0.143Z" style="fill:#0c2b34;fill-rule:nonzero;"/><path d="M56.433,289.228c-3.533,0.824 -6.997,2.154 -10.325,3.579c-0.13,0.056 -0.068,0.256 0.071,0.212c3.466,-1.085 6.991,-2.102 10.392,-3.377c0.267,-0.1 0.133,-0.478 -0.138,-0.414Z" style="fill:#0c2b34;fill-rule:nonzero;"/><path d="M59.762,266.593c0.003,-0.115 -0.196,-0.161 -0.208,-0.037c-0.377,3.943 -0.983,7.385 -1.693,11.034c-0.33,1.694 -2.673,11.002 -5.568,10.009c-0.484,-0.166 -0.688,-0.681 -0.689,-1.437c-0.001,-0.909 0.45,-1.978 0.691,-2.857c0.532,-1.945 0.999,-3.902 1.374,-5.883c0.699,-3.698 1.097,-7.426 1.025,-11.191c-0.003,-0.123 -0.18,-0.132 -0.192,-0.009c-0.525,5.164 -1.188,10.304 -2.485,15.339c-0.622,2.42 -2.24,5.993 0.292,6.635c2.579,0.654 4.908,-5.371 5.401,-7.034c1.377,-4.639 1.935,-9.743 2.052,-14.569Z" style="fill:#0c2b34;fill-rule:nonzero;"/><path d="M52.346,287.862c-0.333,0.607 -0.616,1.245 -0.867,1.89c-0.196,0.501 -0.446,1.038 -0.443,1.582c0.001,0.105 0.138,0.129 0.201,0.064c0.393,-0.405 0.602,-0.993 0.85,-1.496c0.287,-0.582 0.588,-1.159 0.858,-1.75c0.18,-0.392 -0.394,-0.665 -0.599,-0.29Z" style="fill:#0c2b34;fill-rule:nonzero;"/><path d="M46.822,355.503c0.169,-4.693 0.69,-9.616 -0.849,-14.146c-0.764,-2.247 -1.923,-4.327 -3.012,-6.426c-1.145,-2.207 -2.267,-4.426 -3.37,-6.654c-4.412,-8.91 -8.568,-17.962 -12.282,-27.187c-1.788,-4.442 -3.387,-9.002 -4.026,-13.769c-0.668,-4.987 -0.192,-10.09 0.923,-14.977c0.278,-1.222 0.574,-2.438 0.908,-3.646l-0.136,-0.049c-1.486,4.632 -2.509,9.445 -2.575,14.324c-0.064,4.701 0.966,9.264 2.485,13.689c1.582,4.609 3.565,9.09 5.517,13.551c2.012,4.598 4.1,9.164 6.272,13.689c2.161,4.503 4.465,8.93 6.745,13.373c1.103,2.15 2.108,4.351 2.534,6.747c0.434,2.438 0.365,4.924 0.272,7.388c-0.389,10.385 -1.285,44.945 -1.416,55.303c-0.016,1.315 -0.032,2.63 -0.046,3.945c-0.001,0.115 0.174,0.132 0.181,0.014c0.657,-10.334 1.502,-44.815 1.875,-55.169Z" style="fill:#0c2b34;fill-rule:nonzero;"/><path d="M39.415,269.698l-0.124,0.007c-0.39,2.858 -0.612,5.822 -1.992,8.415c-1.266,2.379 -3.474,3.913 -5.881,4.986c-1.391,0.621 -2.839,1.11 -4.287,1.581c-0.104,0.034 -0.08,0.196 0.034,0.173c2.73,-0.568 5.507,-1.204 7.88,-2.738c2.542,-1.642 3.849,-4.269 4.267,-7.211c0.246,-1.729 0.219,-3.476 0.103,-5.213Z" style="fill:#0c2b34;fill-rule:nonzero;"/><path d="M54.859,211.998l-0.019,-0.009c0.183,-1.448 -0.831,-2.687 -2.168,-2.9c1.492,0.132 2.705,1.111 2.187,2.909Zm-18.026,10.148c0.08,0.592 0.534,1.097 1.118,1.214l-0.001,0.048c-0.616,-0.036 -1.168,-0.239 -1.345,-0.931c-0.123,-0.485 0.054,-0.883 0.35,-1.204l0.005,0.007c-0.117,0.268 -0.169,0.56 -0.127,0.866Zm11.651,8.51c-0.628,0.191 -1.242,-0.031 -1.644,-0.537l0.071,-0.032l0.253,0.174c0.16,0.091 0.333,0.157 0.513,0.198c0.373,0.085 0.774,0.061 1.131,-0.077c0.161,-0.063 0.306,-0.151 0.445,-0.249l0.053,-0.035c-0.223,0.247 -0.478,0.453 -0.822,0.558Zm3.286,-21.616c-0.329,-0.823 -1.099,-1.444 -1.998,-1.513c-0.884,-0.067 -1.733,0.413 -2.187,1.158c-0.411,-0.857 -1.213,-1.488 -2.237,-1.332c-1.059,0.162 -1.695,1.084 -1.693,2.114l0.013,0.001c0.1,-0.936 0.719,-1.808 1.699,-1.944c0.837,-0.116 1.453,0.305 1.87,0.921c-0.572,-0.409 -1.274,-0.647 -1.979,-0.506c-0.772,0.154 -1.422,0.769 -1.564,1.542c-0.877,-0.183 -1.878,-0.073 -2.564,0.55c-0.577,0.524 -0.837,1.36 -0.578,2.094c-0.89,-0.008 -1.765,0.52 -2.113,1.356c-0.329,0.785 -0.152,1.7 0.387,2.337c-1.341,0.087 -2.157,1.564 -1.497,2.755c-0.471,0.111 -0.817,0.522 -0.91,1.003c-0.111,0.554 0.126,1.094 0.434,1.55c-0.336,0.369 -0.503,0.892 -0.368,1.388c0.181,0.662 0.812,1.044 1.463,0.981c-0.028,0.896 0.068,1.871 0.664,2.578c0.492,0.582 1.303,0.925 2.042,0.679c0.165,1.608 1.683,2.705 3.267,2.358c0.249,0.622 0.842,1.046 1.509,1.139c0.671,0.095 1.133,-0.027 1.346,-0.105c0.268,0.542 0.876,0.84 1.475,0.752c0.59,-0.087 0.998,-0.469 1.3,-0.94c0.137,-0.064 0.279,-0.1 0.466,-0.102c0.84,-0.008 1.588,-0.389 2.06,-1.083c0.94,0.311 2.004,-0.351 2.142,-1.33c1.009,0.014 1.886,-0.879 1.864,-1.885c0.79,-0.076 1.527,-0.48 1.989,-1.135c0.354,-0.501 0.532,-1.212 0.187,-1.741c0.475,-0.088 0.71,-0.641 0.651,-1.107c-0.022,-0.176 -0.076,-0.348 -0.136,-0.514c-0.073,-0.198 -0.219,-0.431 -0.217,-0.646c-0.001,-0.222 0.171,-0.414 0.261,-0.605c0.064,-0.137 0.113,-0.283 0.147,-0.431c0.254,-1.121 -0.363,-2.342 -1.414,-2.791c0.343,-0.741 -0.013,-1.559 -0.528,-2.139c-0.17,-0.192 -0.362,-0.347 -0.561,-0.505c-0.185,-0.146 -0.336,-0.284 -0.414,-0.517c-0.047,-0.14 -0.062,-0.29 -0.107,-0.432c-0.157,-0.48 -0.565,-0.741 -0.995,-0.952c0.838,-2.017 -1.281,-3.639 -3.176,-3.001Z" style="fill:#0c2b34;fill-rule:nonzero;"/><path d="M25.028,262.823l37.702,0.15l0.08,-9.74c0,0 3.507,-2.89 3.252,-7.027c-0.217,-3.525 -6.692,-19.357 -7.362,-20.182c-2.69,-3.31 -7.699,-4.183 -10.44,-2.426c-14.665,9.401 -23.232,39.225 -23.232,39.225Z" style="fill:#fec130;fill-rule:nonzero;"/><path d="M55.036,250.381c1.258,0.214 2.523,0.505 3.759,1.051c0.614,0.271 1.219,0.591 1.823,0.935c0.302,0.172 0.604,0.325 0.908,0.476c0.312,0.154 0.647,0.298 0.969,0.312l0.002,0.081c-0.313,0.02 -0.613,0.037 -0.927,-0.018c-0.298,-0.053 -0.597,-0.163 -0.89,-0.287c-0.625,-0.264 -1.243,-0.58 -1.867,-0.856c-1.257,-0.557 -2.514,-1.113 -3.788,-1.507l0.011,-0.187Z" style="fill:#0c2b34;fill-rule:nonzero;"/><path d="M51.979,252.425c1.026,-0.203 2.074,-0.321 3.111,-0.313c0.521,0.004 1.039,0.062 1.56,0.145c0.249,0.04 0.497,0.088 0.745,0.141c0.273,0.058 0.544,0.182 0.817,0.233l0.001,0.081c-0.258,-0.035 -0.519,0.007 -0.777,0c-0.26,-0.007 -0.519,-0.018 -0.779,-0.026c-0.52,-0.016 -1.039,-0.021 -1.559,-0.045c-1.041,-0.049 -2.077,-0.078 -3.117,-0.062l-0.002,-0.154Z" style="fill:#0c2b34;fill-rule:nonzero;"/><path d="M42.756,230.16c-2.401,6.479 -7.128,33.86 -4.374,37.311c6.9,8.646 20.412,18.767 24.861,22.343c1.116,0.896 11.881,-17.135 8.982,-18.992c-4.502,-2.884 -18.955,-10.732 -19.697,-11.607c-1.288,-1.52 -1.945,-17.674 -3.282,-27.239c-1.204,-8.617 -5.075,-5.633 -6.49,-1.816Z" style="fill:#bf665c;fill-rule:nonzero;"/><path d="M79.888,280.479c-0.689,-1.082 -0.126,-1.451 2.027,-0.696c2.18,0.759 10.036,5.57 11.483,2.679c1.458,-2.899 -9.771,-9.526 -13.453,-10.508c-3.68,-0.991 -9.982,-1.282 -9.982,-1.282c1.925,1.729 6.193,6.368 9.925,9.807Z" style="fill:#bf665c;fill-rule:nonzero;"/><path d="M58.863,286.153c5.599,4.671 12.285,10.827 20.402,12.165c1.592,0.263 2.64,-0.384 2.64,-0.384c3.628,0.664 5.03,-0.849 5.03,-0.849c3.569,-0.416 4.791,-2.162 4.791,-2.162c-0,0 4.267,0.734 5.139,-1.772c0.985,-2.807 -5.201,-3.287 -8.441,-5.632c-7.424,-5.372 -16.474,-15.085 -18.461,-16.847l-11.1,15.481Z" style="fill:#bf665c;fill-rule:nonzero;"/><path d="M76.688,287.357c2.216,1.537 4.353,3.105 6.766,4.334c2.647,1.349 5.421,2.203 8.223,3.143c0.088,0.029 0.056,0.154 -0.035,0.138c-5.342,-0.898 -11.045,-3.858 -15.026,-7.516c-0.096,-0.088 -0.04,-0.177 0.072,-0.099Z" style="fill:#0c2b34;fill-rule:nonzero;"/><path d="M72.794,291.366c2.24,1.377 6.191,3.77 14.162,5.633l-0.005,0.049c-5.337,-0.521 -9.942,-2.422 -14.222,-5.575c-0.133,-0.098 -0.084,-0.198 0.065,-0.107Z" style="fill:#0c2b34;fill-rule:nonzero;"/><path d="M70.742,293.56c3.897,2.196 6.632,3.086 11.15,4.351l-0.009,0.048c-5.285,-0.898 -7.101,-1.822 -11.235,-4.276c-0.142,-0.084 -0.058,-0.209 0.094,-0.123Z" style="fill:#0c2b34;fill-rule:nonzero;"/><path d="M69.679,268.363l-11.499,19.32c0,-0 -17.133,-13.217 -21.083,-20.594c-1.779,-3.323 1.237,-23.876 4.188,-33.695c2.95,-9.818 8.447,-12.253 9.281,0.944c1.018,16.088 1.966,23.337 2.461,24.092c0.494,0.755 16.652,9.933 16.652,9.933Z" style="fill:#fec130;fill-rule:nonzero;"/><path d="M55.033,283.639c0.98,-1.282 1.786,-2.708 2.633,-4.077c0.835,-1.35 1.661,-2.706 2.478,-4.067c1.649,-2.745 3.376,-5.473 4.842,-8.319l-0.099,-0.062c-1.927,2.597 -3.593,5.4 -5.272,8.157c-0.842,1.383 -1.664,2.778 -2.469,4.182c-0.775,1.352 -1.605,2.705 -2.224,4.134l0.111,0.052Z" style="fill:#0c2b34;fill-rule:nonzero;"/><path d="M58.875,286.515l-0.661,1.188l-0.021,0.039c-4.032,-3.043 -7.941,-6.245 -11.729,-9.596c-1.885,-1.673 -3.714,-3.412 -5.469,-5.233c-1.718,-1.933 -3.656,-3.661 -4.459,-6.258c-0.594,-5.098 0.107,-10.115 0.754,-15.147c0.734,-4.985 1.66,-9.954 3.09,-14.785c-1.134,4.9 -1.918,9.871 -2.527,14.859c-0.503,4.92 -1.219,10.034 -0.585,14.935c0.697,2.241 2.658,4.161 4.226,5.922c1.715,1.823 3.541,3.548 5.375,5.263c3.591,3.407 7.717,6.784 11.277,9.961l0.729,-1.148Z" style="fill:#0c2b34;fill-rule:nonzero;"/><path d="M39.58,237.732c-0.106,1.223 -0.179,2.398 -0.243,3.624c-0.277,-1.191 -0.193,-2.481 0.243,-3.624Z" style="fill:#0c2b34;fill-rule:nonzero;"/><path d="M59.072,262.235c-2.035,-1.116 -4.117,-2.169 -6.009,-3.522l-0.188,-0.184l-0.117,-0.264c-1.384,-7.296 -1.97,-14.731 -2.077,-22.15c0.085,2.116 0.479,5.223 0.672,7.369c0.521,4.292 0.958,10.466 1.761,14.638c0.089,0.437 0.915,0.798 1.289,1.113c1.5,0.978 3.153,2.064 4.669,3Z" style="fill:#0c2b34;fill-rule:nonzero;"/><path d="M50.807,239.967c0.176,-1.116 0.233,-2.215 0.442,-3.336c0.127,1.118 0.066,2.314 -0.442,3.336Z" style="fill:#0c2b34;fill-rule:nonzero;"/><path d="M46.656,224.725c-0,0 7.654,10.192 11.578,9.585c2.419,-0.374 0.919,-7.426 0.919,-7.426c-0,0 -5.96,-8.085 -12.497,-2.159Z" style="fill:#bf665c;fill-rule:nonzero;"/><path d="M51.001,224.431c0.045,0.778 2.775,6.251 6.222,6.682c1.123,0.139 2.152,-5.955 2.152,-5.955l0.179,-0.433l2.499,-6.056l-6.579,-6.029l-0.961,-0.813c0,-0 -0.574,1.702 -1.268,3.828c-0.033,0.099 -0.066,0.197 -0.099,0.303c-0.043,0.119 -0.084,0.231 -0.118,0.344c-0.108,0.317 -0.217,0.64 -0.318,0.965c-0.079,0.246 -0.156,0.486 -0.229,0.748c-0.08,0.261 -0.151,0.515 -0.231,0.776c-0.731,2.59 -1.264,5.31 -1.249,5.64Z" style="fill:#bf665c;fill-rule:nonzero;"/><path d="M53.245,215.655c0.937,5.326 4.589,8.063 6.309,9.07l2.499,-6.056l-6.579,-6.029l-0.961,-0.813c0,-0 -0.574,1.702 -1.268,3.828Z" style="fill:#0c2b34;fill-rule:nonzero;"/><path d="M72.977,211.579c-1.616,11.384 -8.617,11.702 -11.071,11.35c-2.228,-0.318 -9.774,-1.687 -9.343,-13.177c0.431,-11.49 6.235,-14.337 11.37,-13.878c5.134,0.46 10.661,4.321 9.044,15.705Z" style="fill:#bf665c;fill-rule:nonzero;"/><path d="M71.212,208.749c-0.263,-0.079 -0.492,-0.196 -0.744,-0.301c-0.284,-0.119 -0.522,-0.185 -0.7,-0.453c-0.095,-0.143 -0.041,-0.391 0.09,-0.496c0.305,-0.246 0.689,-0.187 1.037,-0.058c0.378,0.14 0.633,0.345 0.837,0.691c0.197,0.336 -0.173,0.722 -0.52,0.617Z" style="fill:#0c2b34;fill-rule:nonzero;"/><path d="M63.167,209.179c0.256,0.101 0.508,0.151 0.771,0.224c0.297,0.083 0.524,0.179 0.83,0.079c0.163,-0.054 0.274,-0.282 0.237,-0.446c-0.087,-0.382 -0.426,-0.573 -0.779,-0.687c-0.383,-0.124 -0.71,-0.122 -1.084,0.024c-0.364,0.142 -0.312,0.674 0.025,0.806Z" style="fill:#0c2b34;fill-rule:nonzero;"/><path d="M64.379,210.51l-0.069,0.062c-0.072,0.788 -0.287,1.679 -1.029,1.852l0.001,0.045c0.882,-0.015 1.155,-1.201 1.097,-1.959Z" style="fill:#0c2b34;fill-rule:nonzero;"/><path d="M63.779,209.603c-1.251,-0.251 -1.663,2.27 -0.503,2.503c1.141,0.229 1.552,-2.292 0.503,-2.503Z" style="fill:#0c2b34;fill-rule:nonzero;"/><path d="M63.262,209.656c-0.243,0.106 -0.5,0.323 -0.77,0.306c-0.312,-0.02 -0.501,-0.321 -0.66,-0.608l-0.048,0.022c-0.086,0.482 0.019,1.008 0.525,1.164c0.462,0.143 0.871,-0.229 1.071,-0.695c0.037,-0.087 -0.02,-0.232 -0.118,-0.189Z" style="fill:#0c2b34;fill-rule:nonzero;"/><path d="M69.12,211.245l0.046,0.08c-0.182,0.771 -0.262,1.684 0.388,2.084l-0.016,0.042c-0.831,-0.295 -0.714,-1.506 -0.418,-2.206Z" style="fill:#0c2b34;fill-rule:nonzero;"/><path d="M69.978,210.576c1.266,0.159 0.855,2.68 -0.319,2.533c-1.154,-0.145 -0.743,-2.666 0.319,-2.533Z" style="fill:#0c2b34;fill-rule:nonzero;"/><path d="M70.476,210.827c0.178,0.167 0.335,0.441 0.571,0.496c0.272,0.063 0.521,-0.176 0.74,-0.409l0.034,0.034c-0.065,0.484 -0.306,0.96 -0.784,0.977c-0.436,0.015 -0.679,-0.449 -0.716,-0.948c-0.006,-0.092 0.084,-0.216 0.155,-0.15Z" style="fill:#0c2b34;fill-rule:nonzero;"/><path d="M63.024,216.386c0.127,0.233 0.233,0.533 0.5,0.64c0.256,0.103 0.602,0.08 0.871,0.061l0.021,0.048c-0.286,0.23 -0.754,0.285 -1.086,0.115c-0.324,-0.165 -0.402,-0.513 -0.389,-0.852l0.083,-0.012Z" style="fill:#0c2b34;fill-rule:nonzero;"/><path d="M66.922,214.895c-0,0 -0.125,1.187 -0.258,1.728c-0.013,0.051 -0.15,0.042 -0.336,0.008l-0.022,-0.005c-0.992,-0.086 -1.873,-0.654 -2.262,-1.577l0.099,-0.055c0.585,0.7 1.34,1.029 2.184,1.252c0.075,-0.14 0.145,-2.039 0.233,-2.024c0.302,0.048 0.835,0.393 1.16,0.581c0.331,-2.464 0.264,-4.961 0.63,-7.41l0.15,0c0.256,2.612 -0.063,5.457 -0.339,8.01c-0.031,0.319 -1.046,-0.362 -1.239,-0.508Z" style="fill:#0c2b34;fill-rule:nonzero;"/><path d="M67.37,199.505c0,0 0.058,1.807 -0.813,2.902c-1.79,2.252 -4.687,0.887 -5.959,1.648c-1.192,0.713 -1.297,2.735 -2.397,3.47c-1.523,1.018 -2.141,-0.104 -2.544,0.724c-0.402,0.828 -1.623,3.479 -2.819,3.577c-0.741,0.061 -2.099,-8.064 0.974,-12.97c1.885,-3.008 5.895,-4.521 11.384,-3.028c-0,0 2.464,-0.197 5.125,2.172c3.789,3.373 3.039,9.351 3.039,9.351c0,-0 -0.837,-0.393 -1.235,-0.946c-0.561,-0.782 -0.802,-1.325 -1.225,-1.845c-0.665,-0.817 -1.266,-0.485 -1.967,-1.293c-1.067,-1.231 -1.563,-3.762 -1.563,-3.762Z" style="fill:#0c2b34;fill-rule:nonzero;"/><path d="M67.38,198.856c0.059,0.778 0.035,1.563 -0.086,2.326c-0.113,0.756 -0.331,1.527 -0.809,2.095c-0.476,0.549 -1.234,0.824 -1.97,0.916c-0.752,0.096 -1.533,-0.007 -2.347,0.12c-0.402,0.078 -0.813,0.213 -1.146,0.51c-0.325,0.292 -0.516,0.668 -0.685,1.021c-0.326,0.712 -0.653,1.412 -1.271,1.831c-0.61,0.422 -1.405,0.577 -2.142,0.372c-0.735,-0.167 -1.499,-0.559 -2.289,-0.401c0.801,-0.094 1.49,0.34 2.243,0.575c0.766,0.253 1.649,0.13 2.344,-0.309c0.728,-0.438 1.086,-1.24 1.416,-1.921c0.17,-0.344 0.354,-0.677 0.618,-0.904c0.255,-0.226 0.615,-0.348 0.975,-0.41c0.732,-0.129 1.527,-0.041 2.326,-0.15c0.399,-0.054 0.799,-0.158 1.169,-0.331c0.364,-0.166 0.736,-0.399 0.98,-0.739c0.506,-0.664 0.686,-1.474 0.768,-2.253c0.063,-0.788 0.025,-1.575 -0.094,-2.348Z" style="fill:#0c2b34;fill-rule:nonzero;"/><path d="M67.506,199.584c-0.02,0.727 0.069,1.455 0.245,2.17c0.17,0.714 0.526,1.423 1.093,1.942c0.282,0.263 0.631,0.445 0.918,0.622c0.273,0.175 0.546,0.434 0.666,0.708c0.127,0.313 0.229,0.692 0.436,1.006c0.209,0.313 0.487,0.569 0.801,0.751c-0.263,-0.249 -0.501,-0.521 -0.643,-0.841c-0.164,-0.312 -0.219,-0.649 -0.328,-1.016c-0.135,-0.408 -0.43,-0.662 -0.74,-0.895c-0.318,-0.214 -0.618,-0.368 -0.862,-0.605c-0.503,-0.466 -0.836,-1.084 -1.056,-1.757c-0.232,-0.671 -0.387,-1.375 -0.53,-2.085Z" style="fill:#0c2b34;fill-rule:nonzero;"/><path d="M55.093,210.291c-0,0 -1.635,-4.062 -3.424,-3.558c-1.788,0.504 -1.124,5.998 0.579,7.123c1.701,1.125 2.774,-0.43 2.774,-0.43l0.071,-3.135Z" style="fill:#bf665c;fill-rule:nonzero;"/><path d="M51.899,208.303l-0.021,0.048c1.183,0.831 1.59,2.201 1.781,3.569c-0.277,-0.574 -0.744,-0.961 -1.499,-0.649l0.02,0.078c0.561,0.009 0.926,0.192 1.188,0.704c0.185,0.363 0.271,0.787 0.374,1.179c0.034,0.131 0.259,0.118 0.246,-0.027l-0.004,-0.033c0.419,-1.657 -0.336,-4.287 -2.085,-4.869Z" style="fill:#0c2b34;fill-rule:nonzero;"/></g></svg>